<svg width="19" height="19" viewBox="0 0 19 19" fill="none" xmlns="http://www.w3.org/2000/svg">
<path d="M1.27685e-05 9C-0.00257048 8.48452 0.387111 8.05154 0.900013 8H17.1C17.6523 8 18.1 8.44772 18.1 9C18.1 9.55228 17.6523 10 17.1 10H0.900013C0.387111 9.94846 -0.00257048 9.51548 1.27685e-05 9Z" fill="white"/>
<path d="M9 1.31422e-08C9.51548 -0.00258324 9.94846 0.387099 10 0.9V17.1C10 17.6523 9.55228 18.1 9 18.1C8.44772 18.1 8 17.6523 8 17.1V0.9C8.05154 0.387099 8.48452 -0.00258324 9 1.31422e-08Z" fill="white"/>
</svg>
