<svg width="30" height="29" viewBox="0 0 30 29" fill="none" xmlns="http://www.w3.org/2000/svg">
<path fill-rule="evenodd" clip-rule="evenodd" d="M28.833 13.653C28.8596 13.698 28.8836 13.7444 28.905 13.792C28.925 13.841 28.936 13.892 28.951 13.942C28.966 13.992 28.979 14.024 28.987 14.067C29.025 14.2571 29.025 14.4529 28.987 14.643C28.9771 14.6856 28.9651 14.7276 28.951 14.769C28.9382 14.8194 28.9229 14.8692 28.905 14.918C28.8836 14.966 28.8596 15.0127 28.833 15.058C28.8147 15.0967 28.7943 15.1344 28.772 15.171C28.6671 15.3322 28.5311 15.4709 28.372 15.579C28.336 15.604 28.297 15.62 28.26 15.641C28.223 15.662 28.171 15.694 28.123 15.715C28.075 15.736 28.023 15.746 27.976 15.761C27.929 15.776 27.895 15.79 27.852 15.798C27.7585 15.8171 27.6634 15.8268 27.568 15.827H1.47198C1.08159 15.827 0.707145 15.6719 0.431091 15.3959C0.155038 15.1198 0 14.7454 0 14.355C0 13.9646 0.155038 13.5902 0.431091 13.3141C0.707145 13.0381 1.08159 12.883 1.47198 12.883H24.066L14.832 3.506C14.5599 3.22778 14.4076 2.85412 14.4076 2.465C14.4076 2.07588 14.5599 1.70222 14.832 1.424C14.9655 1.28752 15.125 1.17907 15.301 1.10503C15.477 1.031 15.666 0.992859 15.857 0.992859C16.0479 0.992859 16.2369 1.031 16.413 1.10503C16.589 1.17907 16.7484 1.28752 16.882 1.424L28.591 13.314C28.6589 13.3826 28.7196 13.458 28.772 13.539C28.7943 13.5759 28.8147 13.614 28.833 13.653Z" fill="#E7E9F4"/>
<path fill-rule="evenodd" clip-rule="evenodd" d="M14.732 26.483L23.642 17.436C23.7755 17.2995 23.9349 17.1911 24.111 17.117C24.287 17.043 24.476 17.0049 24.667 17.0049C24.8579 17.0049 25.0469 17.043 25.223 17.117C25.399 17.1911 25.5584 17.2995 25.692 17.436C25.964 17.7142 26.1163 18.0879 26.1163 18.477C26.1163 18.8661 25.964 19.2398 25.692 19.518L16.783 28.565C16.6493 28.7015 16.4898 28.81 16.3137 28.884C16.1376 28.9581 15.9485 28.9962 15.7575 28.9962C15.5665 28.9962 15.3773 28.9581 15.2012 28.884C15.0251 28.81 14.8656 28.7015 14.732 28.565C14.46 28.2868 14.3076 27.9131 14.3076 27.524C14.3076 27.1349 14.46 26.7612 14.732 26.483Z" fill="#E7E9F4"/>
</svg>
