<svg width="50" height="50" viewBox="0 0 50 50" fill="none" xmlns="http://www.w3.org/2000/svg">
<path d="M25 50C38.8071 50 50 38.8071 50 25C50 11.1929 38.8071 0 25 0C11.1929 0 0 11.1929 0 25C0 38.8071 11.1929 50 25 50Z" fill="url(#paint0_linear)"/>
<path d="M25 0C24.3397 0 23.6856 0.0260784 23.0382 0.0762745C35.9283 1.07686 46.0765 11.8531 46.0765 25C46.0765 38.1469 35.9283 48.9231 23.0382 49.9237C23.6856 49.9739 24.3397 50 25 50C38.8071 50 50 38.8071 50 25C50 11.1928 38.8071 0 25 0Z" fill="url(#paint1_linear)"/>
<path d="M25 42.6578C34.7522 42.6578 42.6578 34.7522 42.6578 25C42.6578 15.2478 34.7522 7.34216 25 7.34216C15.2478 7.34216 7.34216 15.2478 7.34216 25C7.34216 34.7522 15.2478 42.6578 25 42.6578Z" fill="url(#paint2_linear)"/>
<path d="M25 7.34216C24.3367 7.34216 23.6824 7.38 23.0382 7.45118C31.8669 8.42725 38.7343 15.9111 38.7343 24.9999C38.7343 34.0887 31.8669 41.5726 23.0382 42.5486C23.6824 42.6199 24.3367 42.6576 25 42.6576C34.7521 42.6576 42.6578 34.752 42.6578 24.9998C42.6578 15.2476 34.7521 7.34216 25 7.34216Z" fill="url(#paint3_linear)"/>
<path d="M26.98 27.14H24.5V28.24H28.96V30H24.5V32H21.76V30H20.26V28.24H21.76V27.14H20.26V24.72H21.76V18H26.98C28.3 18 29.4133 18.4533 30.32 19.36C31.24 20.2667 31.7 21.36 31.7 22.64C31.7 23.92 31.2467 24.9933 30.34 25.86C29.4333 26.7133 28.3133 27.14 26.98 27.14ZM24.5 20.58V24.72H26.98C27.54 24.72 28.0067 24.52 28.38 24.12C28.7667 23.72 28.96 23.2267 28.96 22.64C28.96 22.0533 28.7667 21.5667 28.38 21.18C28.0067 20.78 27.54 20.58 26.98 20.58H24.5Z" fill="#D59125"/>
<defs>
<linearGradient id="paint0_linear" x1="-1.17647" y1="25" x2="49.4255" y2="25" gradientUnits="userSpaceOnUse">
<stop stop-color="#FFF9DF"/>
<stop offset="0.593" stop-color="#FFE177"/>
<stop offset="1" stop-color="#FEB137"/>
</linearGradient>
<linearGradient id="paint1_linear" x1="4.70583" y1="25" x2="45.4152" y2="25" gradientUnits="userSpaceOnUse">
<stop stop-color="#FFE177"/>
<stop offset="1" stop-color="#FEB137"/>
</linearGradient>
<linearGradient id="paint2_linear" x1="13.3333" y1="25" x2="35.6148" y2="25" gradientUnits="userSpaceOnUse">
<stop stop-color="#FFE177"/>
<stop offset="1" stop-color="#FEB137"/>
</linearGradient>
<linearGradient id="paint3_linear" x1="18.8235" y1="25" x2="46.2921" y2="25" gradientUnits="userSpaceOnUse">
<stop stop-color="#FEB137"/>
<stop offset="1" stop-color="#ECA026"/>
</linearGradient>
</defs>
</svg>
