<svg width="20" height="18" viewBox="0 0 20 18" fill="none" xmlns="http://www.w3.org/2000/svg">
<path fill-rule="evenodd" clip-rule="evenodd" d="M5.211 3.6H18.711C19.0187 3.59589 19.3136 3.72326 19.5215 3.95012C19.7295 4.17698 19.8308 4.48179 19.8 4.788L18.9 13.428C18.8494 13.9737 18.395 14.3931 17.847 14.4H6.453C5.92912 14.3979 5.48364 14.0172 5.4 13.5L3.6 4.698L2.907 1.8H0.9C0.402944 1.8 0 1.39706 0 0.9C0 0.402944 0.402944 0 0.9 0H3.465C3.95498 0.00902063 4.37858 0.344217 4.5 0.819L5.211 3.6ZM7.04742 12.6H17.1994L17.9194 5.4H5.60742L7.04742 12.6Z" fill="white"/>
<path d="M8.55898 18C9.30457 18 9.90898 17.3956 9.90898 16.65C9.90898 15.9044 9.30457 15.3 8.55898 15.3C7.8134 15.3 7.20898 15.9044 7.20898 16.65C7.20898 17.3956 7.8134 18 8.55898 18Z" fill="white"/>
<path d="M14.8588 18C15.6044 18 16.2088 17.3956 16.2088 16.65C16.2088 15.9044 15.6044 15.3 14.8588 15.3C14.1132 15.3 13.5088 15.9044 13.5088 16.65C13.5088 17.3956 14.1132 18 14.8588 18Z" fill="white"/>
</svg>
