<svg width="16" height="16" viewBox="0 0 16 16" fill="none" xmlns="http://www.w3.org/2000/svg">
<path d="M0.313541 15.6231C-0.104514 15.2025 -0.104514 14.5233 0.313541 14.1028L14.0394 0.376923C14.3029 0.0692215 14.7167 -0.0648087 15.1105 0.0299373C15.5044 0.124683 15.812 0.432215 15.9067 0.826093C16.0014 1.21997 15.8674 1.63372 15.5597 1.89723L1.83385 15.6231C1.4133 16.0411 0.734091 16.0411 0.313541 15.6231Z" fill="white"/>
<path d="M0.313541 0.376896C0.734091 -0.0411593 1.4133 -0.0411593 1.83385 0.376896L15.5597 14.1028C15.8674 14.3663 16.0014 14.78 15.9067 15.1739C15.812 15.5678 15.5044 15.8753 15.1105 15.9701C14.7167 16.0648 14.3029 15.9308 14.0394 15.6231L0.313541 1.8972C-0.104514 1.47665 -0.104514 0.797446 0.313541 0.376896Z" fill="white"/>
</svg>
