<svg width="18" height="22" viewBox="0 0 18 22" fill="none" xmlns="http://www.w3.org/2000/svg">
<path fill-rule="evenodd" clip-rule="evenodd" d="M13.7 1.29C13.1404 0.483413 12.2217 0.00161547 11.24 0H3C1.34315 0 0 1.34315 0 3V19C0 20.6569 1.34315 22 3 22H15C16.6569 22 18 20.6569 18 19V8.4C17.9986 7.78828 17.8101 7.19161 17.46 6.69L13.7 1.29ZM16 19C16 19.5523 15.5523 20 15 20H3C2.44772 20 2 19.5523 2 19V3C2 2.44772 2.44772 2 3 2H11.24C11.5672 2.00054 11.8735 2.16114 12.06 2.43L15.82 7.83C15.9367 7.9972 15.9995 8.19609 16 8.4V19Z" fill="#5F8CFF"/>
</svg>
