<svg width="33" height="33" viewBox="0 0 33 33" fill="none" xmlns="http://www.w3.org/2000/svg">
<g clip-path="url(#clip0)">
<path fill-rule="evenodd" clip-rule="evenodd" d="M16.5 11C17.2253 11.0002 17.9344 10.7853 18.5375 10.3825C19.1407 9.97967 19.6108 9.40702 19.8885 8.73698C20.1662 8.06694 20.239 7.3296 20.0976 6.61821C19.9563 5.90681 19.6071 5.25334 19.0943 4.7404C18.5815 4.22746 17.9281 3.87806 17.2167 3.73649C16.5054 3.59492 15.7681 3.66753 15.0979 3.94505C14.4278 4.22257 13.8551 4.69252 13.4521 5.29557C13.0491 5.89863 12.834 6.60768 12.834 7.33299C12.834 8.30536 13.2202 9.23791 13.9077 9.92558C14.5952 10.6132 15.5276 10.9997 16.5 11ZM21.12 13.026L22.972 14.878L29.872 16.985C30.2034 17.0862 30.4993 17.2794 30.7253 17.5421C30.9514 17.8048 31.0983 18.1262 31.149 18.469L32.98 30.9C33.0178 31.1604 32.9992 31.4258 32.9255 31.6783C32.8518 31.9309 32.7247 32.1647 32.5528 32.3638C32.3809 32.563 32.1682 32.7228 31.9291 32.8326C31.69 32.9423 31.4301 32.9994 31.167 33H1.843C1.57939 33.0009 1.31869 32.9447 1.07878 32.8355C0.83887 32.7262 0.625369 32.5664 0.452988 32.367C0.280608 32.1675 0.153424 31.9332 0.0800635 31.68C0.00670347 31.4268 -0.0110609 31.1607 0.0280005 30.9L1.85399 18.475C1.9003 18.1593 2.02813 17.8612 2.2249 17.6101C2.42167 17.359 2.68058 17.1635 2.976 17.043L8.476 14.801C8.92436 14.627 9.42314 14.6361 9.86479 14.8265C10.3064 15.0169 10.6556 15.3733 10.8369 15.8187C11.0182 16.2642 11.0172 16.763 10.8341 17.2077C10.651 17.6525 10.3004 18.0074 9.85796 18.196L5.33 20.043L3.96397 29.332H29.04L27.684 20.154L21.459 18.254C21.1725 18.1664 20.9119 18.0098 20.7 17.798L17.5 14.598C15.7437 14.8414 13.9586 14.4404 12.4752 13.4692C10.9918 12.498 9.91037 11.0223 9.43108 9.31523C8.95178 7.60815 9.10703 5.78524 9.86815 4.18382C10.6293 2.5824 11.9447 1.31085 13.571 0.604533C15.1974 -0.101786 17.0245 -0.195071 18.7143 0.341899C20.4042 0.87887 21.8423 2.00976 22.7626 3.52531C23.6829 5.04086 24.023 6.83846 23.7201 8.58549C23.4172 10.3325 22.4918 11.9107 21.115 13.028L21.12 13.026Z" fill="url(#paint0_linear)"/>
</g>
<defs>
<linearGradient id="paint0_linear" x1="16.5034" y1="-0.00256348" x2="16.5034" y2="33" gradientUnits="userSpaceOnUse">
<stop stop-color="#87AD03"/>
<stop offset="1" stop-color="#BED550"/>
</linearGradient>
<clipPath id="clip0">
<rect width="32.969" height="33" fill="white"/>
</clipPath>
</defs>
</svg>
