<svg width="39" height="36" viewBox="0 0 39 36" fill="none" xmlns="http://www.w3.org/2000/svg">
<path fill-rule="evenodd" clip-rule="evenodd" d="M35.75 3.42C34.7334 2.34096 33.507 1.48101 32.1462 0.892914C30.7853 0.304813 29.3186 0.000963138 27.836 0C22.491 0.01 18.41 3.18399 15.774 9.17799C15.5598 9.65937 15.5422 10.2054 15.7247 10.6996C15.9072 11.1939 16.2755 11.5973 16.7511 11.824C16.9856 11.9312 17.2391 11.9904 17.4969 11.9981C17.7546 12.0057 18.0112 11.9616 18.2516 11.8684C18.492 11.7751 18.7113 11.6347 18.8965 11.4553C19.0818 11.276 19.2292 11.0613 19.3301 10.824C21.3781 6.16999 24.1571 4.008 27.8461 4.002C28.8053 4.00317 29.7542 4.20073 30.6343 4.58253C31.5143 4.96433 32.3068 5.52229 32.9631 6.222C34.3151 7.6481 35.079 9.53199 35.102 11.497C35.186 16.597 32.1711 21.611 26.9961 26.257C25.1827 27.8752 23.2466 29.3503 21.2051 30.669C20.5941 31.063 20.023 31.415 19.505 31.719C16.8035 30.1329 14.2675 28.2803 11.935 26.189C6.80504 21.559 3.82107 16.573 3.90507 11.497C3.92679 9.53219 4.68927 7.64796 6.04008 6.22099C6.69676 5.52132 7.48963 4.96342 8.36998 4.58163C9.25032 4.19985 10.1995 4.00224 11.159 4.00099C12.1404 3.99407 13.1144 4.17042 14.031 4.521C14.5084 4.69102 15.0335 4.66707 15.4935 4.4543C15.9534 4.24153 16.3116 3.85691 16.4911 3.383C16.6859 2.8945 16.6821 2.34922 16.4805 1.86348C16.2789 1.37774 15.8955 0.990009 15.412 0.78299C14.0585 0.261443 12.6196 -0.00307889 11.1691 0.00299072C9.68668 0.00397254 8.22014 0.307847 6.85942 0.89595C5.4987 1.48405 4.27253 2.34398 3.25609 3.42299C1.20167 5.5877 0.0395948 8.44784 0.00205814 11.432C-0.0979419 17.922 3.45206 23.866 9.35606 29.192C11.9464 31.5177 14.7693 33.5705 17.7801 35.318C18.1681 35.542 18.4511 35.698 18.6131 35.782C18.8866 35.9258 19.191 36.001 19.5 36.001C19.8091 36.001 20.1135 35.9258 20.3871 35.782C23.6764 33.9576 26.7529 31.7736 29.56 29.27C35.514 23.924 39.105 17.956 38.998 11.43C38.9625 8.44629 37.8026 5.58583 35.75 3.42Z" fill="url(#paint0_linear)"/>
<defs>
<linearGradient id="paint0_linear" x1="35.5019" y1="2.49699" x2="0.00194894" y2="35.997" gradientUnits="userSpaceOnUse">
<stop stop-color="#E78B6D"/>
<stop offset="1" stop-color="#DF4E44"/>
</linearGradient>
</defs>
</svg>
