<svg width="28" height="28" viewBox="0 0 28 28" fill="none" xmlns="http://www.w3.org/2000/svg">
<path fill-rule="evenodd" clip-rule="evenodd" d="M18.61 7.41C18.8725 7.14744 19.2287 6.99992 19.6 6.99992C19.9713 6.99992 20.3275 7.14744 20.59 7.41C20.8526 7.67257 21.0001 8.02867 21.0001 8.39999C21.0001 8.77132 20.8526 9.12743 20.59 9.39L9.39001 20.59C9.13113 20.8528 8.77895 21.0028 8.4101 21.0074C8.04124 21.0119 7.68551 20.8708 7.42017 20.6145C7.15482 20.3583 7.00131 20.0076 6.99304 19.6388C6.98478 19.27 7.12238 18.9129 7.37598 18.645L7.40997 18.61L18.61 7.41ZM14.41 20.01C14.6725 19.7474 15.0287 19.5999 15.4 19.5999C15.7713 19.5999 16.1275 19.7474 16.39 20.01C16.6526 20.2726 16.8 20.6287 16.8 21C16.8 21.3713 16.6526 21.7274 16.39 21.99L10.79 27.59C10.5277 27.8523 10.172 27.9998 9.80103 28H4.20099C3.83002 27.9998 3.4743 27.8523 3.21198 27.59L0.411987 24.79C0.281627 24.6601 0.178177 24.5059 0.107483 24.336C0.0367886 24.1661 0.000249243 23.984 3.6473e-09 23.8V18.2C-1.32617e-05 18.0161 0.0361583 17.8341 0.106506 17.6642C0.176854 17.4944 0.279974 17.34 0.409973 17.21L6.01001 11.61C6.27257 11.3474 6.62868 11.1999 7 11.1999C7.37132 11.1999 7.72743 11.3474 7.98999 11.61C8.25255 11.8726 8.40009 12.2287 8.40009 12.6C8.40009 12.9713 8.25255 13.3274 7.98999 13.59L2.79999 18.779V23.22L4.78003 25.2H9.21997L14.41 20.01ZM18.78 2.8L13.59 7.99001C13.3275 8.25257 12.9713 8.40007 12.6 8.40007C12.2287 8.40007 11.8726 8.25257 11.61 7.99001C11.3474 7.72744 11.2 7.37132 11.2 7C11.2 6.62868 11.3474 6.27256 11.61 6.00999L17.21 0.410004C17.34 0.280005 17.4944 0.176885 17.6642 0.106537C17.8341 0.0361888 18.0162 -1.32617e-05 18.2 3.64429e-09H23.8C24.171 0.00023829 24.5267 0.147704 24.789 0.410004L27.589 3.21001C27.719 3.34002 27.8221 3.49435 27.8925 3.66422C27.9628 3.83408 27.999 4.01614 27.999 4.2V9.8C27.9988 10.171 27.8513 10.5267 27.589 10.789L21.989 16.389C21.7264 16.6516 21.3703 16.7991 20.999 16.7991C20.6277 16.7991 20.2715 16.6516 20.009 16.389C19.7464 16.1264 19.5989 15.7703 19.5989 15.399C19.5989 15.0277 19.7464 14.6716 20.009 14.409L25.199 9.21899V4.778L23.219 2.799H18.779L18.78 2.8Z" fill="#E5E5F1"/>
</svg>
