<svg width="20" height="20" viewBox="0 0 20 20" fill="none" xmlns="http://www.w3.org/2000/svg">
<path fill-rule="evenodd" clip-rule="evenodd" d="M0 3C0 1.34315 1.34315 0 3 0H7C8.65685 0 10 1.34315 10 3V13C10 14.6569 8.65685 16 7 16H3C1.34315 16 0 14.6569 0 13V3ZM3 2C2.44772 2 2 2.44772 2 3V13C2 13.5523 2.44772 14 3 14H7C7.55228 14 8 13.5523 8 13V3C8 2.44772 7.55228 2 7 2H3Z" fill="#5F8CFF"/>
<path fill-rule="evenodd" clip-rule="evenodd" d="M0 19C0 18.4477 0.447715 18 1 18H19C19.5523 18 20 18.4477 20 19C20 19.5523 19.5523 20 19 20H1C0.447715 20 0 19.5523 0 19Z" fill="#5F8CFF"/>
<path fill-rule="evenodd" clip-rule="evenodd" d="M12 2C12 1.44772 12.4477 1 13 1H19C19.5523 1 20 1.44772 20 2C20 2.55228 19.5523 3 19 3H13C12.4477 3 12 2.55228 12 2Z" fill="#5F8CFF"/>
<path fill-rule="evenodd" clip-rule="evenodd" d="M12 6C12 5.44772 12.4477 5 13 5H17C17.5523 5 18 5.44772 18 6C18 6.55228 17.5523 7 17 7H13C12.4477 7 12 6.55228 12 6Z" fill="#5F8CFF"/>
<path fill-rule="evenodd" clip-rule="evenodd" d="M12 10C12 9.44772 12.4477 9 13 9H17C17.5523 9 18 9.44772 18 10C18 10.5523 17.5523 11 17 11H13C12.4477 11 12 10.5523 12 10Z" fill="#5F8CFF"/>
<path fill-rule="evenodd" clip-rule="evenodd" d="M12 14C12 13.4477 12.4477 13 13 13H17C17.5523 13 18 13.4477 18 14C18 14.5523 17.5523 15 17 15H13C12.4477 15 12 14.5523 12 14Z" fill="#5F8CFF"/>
</svg>
