<svg width="24" height="24" viewBox="0 0 24 24" fill="none" xmlns="http://www.w3.org/2000/svg">
<path d="M1 16.5833C0.493739 16.5833 0.0833333 16.9937 0.0833333 17.5C0.0833333 18.0063 0.493739 18.4167 1 18.4167V16.5833ZM4.3 8.7H3.38333H4.3ZM19.7 8.7H20.6167H19.7ZM13.903 21.9L14.6959 22.36C14.8604 22.0764 14.8609 21.7266 14.6973 21.4425C14.5337 21.1584 14.2308 20.9833 13.903 20.9833V21.9ZM10.097 21.9V20.9833C9.76917 20.9833 9.4663 21.1584 9.30267 21.4425C9.13905 21.7266 9.13959 22.0764 9.30408 22.36L10.097 21.9ZM23 16.5833H1V18.4167H23V16.5833ZM1 18.4167C3.3288 18.4167 5.21667 16.5288 5.21667 14.2H3.38333C3.38333 15.5163 2.31628 16.5833 1 16.5833V18.4167ZM5.21667 14.2V8.7H3.38333V14.2H5.21667ZM5.21667 8.7C5.21667 4.95367 8.25367 1.91667 12 1.91667V0.0833333C7.24115 0.0833333 3.38333 3.94115 3.38333 8.7H5.21667ZM12 1.91667C15.7463 1.91667 18.7833 4.95367 18.7833 8.7H20.6167C20.6167 3.94115 16.7589 0.0833333 12 0.0833333V1.91667ZM18.7833 8.7V14.2H20.6167V8.7H18.7833ZM18.7833 14.2C18.7833 16.5288 20.6712 18.4167 23 18.4167V16.5833C21.6837 16.5833 20.6167 15.5163 20.6167 14.2H18.7833ZM13.1101 21.44C12.8805 21.8358 12.4576 22.0794 12 22.0794V23.9128C13.1112 23.9128 14.1383 23.3211 14.6959 22.36L13.1101 21.44ZM12 22.0794C11.5424 22.0794 11.1195 21.8358 10.8899 21.44L9.30408 22.36C9.86165 23.3211 10.8888 23.9128 12 23.9128V22.0794ZM10.097 22.8167H13.903V20.9833H10.097V22.8167Z" fill="black"/>
</svg>
