<svg width="12" height="12" viewBox="0 0 12 12" fill="none" xmlns="http://www.w3.org/2000/svg">
<path fill-rule="evenodd" clip-rule="evenodd" d="M11.7538 0.249634C11.5929 0.0897332 11.3753 0 11.1485 0C10.9217 0 10.7041 0.0897332 10.5433 0.249634L5.98451 4.76547L1.44292 0.223905C1.27868 0.0832568 1.06742 0.00973219 0.851347 0.018078C0.635277 0.0264238 0.430333 0.116019 0.277435 0.268917C0.124537 0.421815 0.0349683 0.626785 0.0266225 0.842855C0.0182766 1.05892 0.0917488 1.27016 0.232397 1.4344L4.78258 5.99315L0.240991 10.5347C0.0827435 10.6987 -0.00389086 10.9188 0.000134239 11.1466C0.00415934 11.3744 0.098509 11.5913 0.262449 11.7496C0.426389 11.9078 0.646477 11.9944 0.874298 11.9904C1.10212 11.9864 1.31902 11.892 1.47727 11.7281L11.7795 1.42581C11.9258 1.26333 12.0046 1.0512 11.9998 0.832637C11.995 0.614075 11.907 0.405552 11.7538 0.249634ZM8.74895 7.52989C8.58471 7.38924 8.37345 7.31576 8.15738 7.32411C7.94131 7.33246 7.73634 7.422 7.58344 7.5749C7.43054 7.7278 7.34097 7.93277 7.33263 8.14884C7.32428 8.3649 7.39778 8.57619 7.53843 8.74043L10.5433 11.7453C10.7075 11.8859 10.9188 11.9594 11.1348 11.951C11.3509 11.9427 11.5559 11.8531 11.7088 11.7002C11.8617 11.5473 11.9512 11.3424 11.9596 11.1263C11.9679 10.9102 11.8944 10.6989 11.7538 10.5347L8.74895 7.52989Z" fill="#CDD4E8"/>
</svg>
