<svg width="19" height="20" viewBox="0 0 19 20" fill="none" xmlns="http://www.w3.org/2000/svg">
<path d="M18.6686 8.33705C18.6339 8.14486 18.5328 7.97097 18.3829 7.84574C18.2331 7.7205 18.044 7.65187 17.8487 7.65182H10C9.89058 7.65179 9.78221 7.67333 9.68109 7.7152C9.57997 7.75707 9.4881 7.81845 9.41071 7.89583C9.33332 7.97322 9.27194 8.0651 9.23007 8.16622C9.1882 8.26733 9.16667 8.37571 9.16669 8.48515V11.7086C9.16667 11.8181 9.1882 11.9264 9.23007 12.0276C9.27194 12.1287 9.33332 12.2206 9.41071 12.2979C9.4881 12.3753 9.57997 12.4367 9.68109 12.4786C9.78221 12.5204 9.89058 12.542 10 12.542H13.302C13.0668 12.9391 12.7442 13.2775 12.3588 13.5315C11.6546 13.9781 10.8337 14.2058 10 14.1858C9.13542 14.1759 8.29593 13.8938 7.60085 13.3795C6.90577 12.8652 6.39046 12.1449 6.12816 11.321L6.12792 11.3196C5.83603 10.4641 5.83603 9.53596 6.12792 8.68045L6.12812 8.67908C6.3906 7.85533 6.90599 7.13524 7.60105 6.62111C8.29612 6.10698 9.13553 5.82494 10 5.81507C10.4804 5.80405 10.9582 5.88802 11.406 6.06217C11.8538 6.23632 12.2628 6.49722 12.6094 6.82988C12.7669 6.98035 12.977 7.06323 13.1948 7.06079C13.4126 7.05836 13.6207 6.97081 13.7748 6.81686L16.1649 4.42672C16.2441 4.34764 16.3066 4.25341 16.3485 4.14965C16.3905 4.0459 16.4111 3.93476 16.4091 3.82286C16.4071 3.71097 16.3826 3.60062 16.337 3.49841C16.2914 3.3962 16.2257 3.30423 16.1438 3.228C14.4806 1.66858 12.2798 0.810963 10 0.833788C8.29997 0.828758 6.63233 1.2988 5.18514 2.1909C3.73795 3.08301 2.56878 4.3617 1.80948 5.88277L1.80825 5.88425C1.16453 7.16071 0.830542 8.57086 0.833361 10.0005C0.835389 11.4295 1.16913 12.8385 1.80829 14.1167L1.80952 14.1181C2.56882 15.6392 3.73798 16.9179 5.18516 17.81C6.63234 18.7021 8.29998 19.1721 10 19.1671C12.2378 19.2238 14.4126 18.4227 16.0789 16.928L16.0802 16.9268C16.9834 16.058 17.6951 15.0096 18.1692 13.8494C18.6433 12.6893 18.8696 11.4428 18.8334 10.1901C18.8338 9.56872 18.7786 8.94858 18.6686 8.33705ZM10 2.50045C11.5593 2.48528 13.0817 2.97424 14.3404 3.8945L13.1291 5.10545C12.2105 4.46967 11.117 4.13521 10 4.1484C8.98021 4.15365 7.98022 4.43056 7.10297 4.95064C6.22572 5.47072 5.50291 6.21518 5.00894 7.10739L4.11793 6.41677L3.63043 6.03871C4.30107 4.95358 5.23875 4.05854 6.35389 3.43909C7.46904 2.81963 8.72439 2.49647 10 2.50045ZM2.89956 12.4199C2.36679 10.8509 2.36679 9.14998 2.89956 7.58102L4.38475 8.73255C4.19486 9.56689 4.19486 10.4332 4.38475 11.2676L2.89956 12.4199ZM10 17.5005C8.72437 17.5044 7.469 17.1812 6.35385 16.5617C5.23869 15.9423 4.301 15.0472 3.63036 13.962L3.9457 13.7174L5.00894 12.8927C5.50269 13.7852 6.22543 14.5299 7.10271 15.0501C7.98 15.5703 8.9801 15.8473 10 15.8525C10.9547 15.8637 11.8986 15.6494 12.7548 15.2268L14.1645 16.3213C12.9247 17.1201 11.4746 17.5307 10 17.5005ZM15.4383 15.1998L15.2858 15.0815L14.138 14.1905C14.7398 13.5402 15.1443 12.7323 15.3044 11.8608C15.3267 11.7406 15.3223 11.6168 15.2915 11.4984C15.2606 11.38 15.2041 11.2699 15.1259 11.1758C15.0476 11.0817 14.9496 11.006 14.8389 10.9541C14.7281 10.9022 14.6072 10.8753 14.4849 10.8753H10.8334V9.31849H17.1241C17.1525 9.60657 17.1668 9.89791 17.1668 10.1901C17.2155 12.0141 16.6014 13.794 15.4383 15.1998Z" fill="#C3C3E9"/>
</svg>
