<svg width="18" height="18" viewBox="0 0 18 18" fill="none" xmlns="http://www.w3.org/2000/svg">
<path d="M11.5608 0.666656H6.44791C1.77775 0.666656 0.666656 1.77775 0.666656 6.43921V11.5521C0.666656 16.2222 1.76911 17.3333 6.43921 17.3333H11.5521C16.2222 17.3333 17.3333 16.2309 17.3333 11.5607V6.44791C17.3333 1.77775 16.2309 0.666656 11.5608 0.666656ZM14.1215 12.559H12.9062C12.4462 12.559 12.3073 12.1857 11.4826 11.3611C10.7621 10.6667 10.4583 10.5798 10.276 10.5798C10.0243 10.5798 9.95483 10.6493 9.95483 10.9965V12.0902C9.95483 12.3854 9.85936 12.559 9.08681 12.559C8.33714 12.5086 7.61015 12.2809 6.96572 11.8945C6.3213 11.5082 5.77787 10.9743 5.3802 10.3368C4.43612 9.16169 3.77925 7.78254 3.46181 6.309C3.46181 6.12671 3.53124 5.96176 3.87848 5.96176H5.09374C5.40624 5.96176 5.51911 6.10066 5.64061 6.42186C6.23087 8.15796 7.23786 9.66837 7.64582 9.66837C7.80207 9.66837 7.8715 9.59895 7.8715 9.20832V7.4201C7.81941 6.60416 7.38541 6.53468 7.38541 6.23957C7.39112 6.16171 7.42696 6.08915 7.4853 6.03728C7.54365 5.98541 7.61991 5.95832 7.69791 5.96176H9.60765C9.86806 5.96176 9.95483 6.09197 9.95483 6.40447V8.8177C9.95483 9.07811 10.0677 9.16489 10.1458 9.16489C10.3021 9.16489 10.4236 9.07811 10.71 8.79166C11.3256 8.04097 11.8286 7.20464 12.2031 6.309C12.2413 6.20123 12.3138 6.10894 12.4094 6.04624C12.505 5.98353 12.6186 5.95386 12.7326 5.96176H13.9479C14.3125 5.96176 14.3906 6.14406 14.3125 6.40447C13.8703 7.39473 13.3232 8.33472 12.6806 9.20832C12.5504 9.40796 12.4983 9.51212 12.6806 9.7465C12.8021 9.92879 13.2274 10.2847 13.5139 10.6232C13.9306 11.0388 14.2765 11.5197 14.5382 12.0469C14.6423 12.3854 14.4687 12.559 14.1215 12.559V12.559Z" fill="#C3C3E9"/>
</svg>
