<svg width="24" height="24" viewBox="0 0 24 24" fill="none" xmlns="http://www.w3.org/2000/svg">
<path fill-rule="evenodd" clip-rule="evenodd" d="M22.56 4.53546H21.012C21.0742 4.36452 21.1185 4.18757 21.144 4.00746C21.3702 2.57094 20.6761 1.14587 19.4057 0.438271C18.1352 -0.269325 16.5582 -0.109143 15.456 0.839456L11.664 4.07946L7.884 0.839456C6.78177 -0.109143 5.20478 -0.269325 3.93433 0.438271C2.66387 1.14587 1.96981 2.57094 2.196 4.00746C2.22152 4.18757 2.26576 4.36452 2.328 4.53546H1.44C0.64471 4.53546 0 5.18017 0 5.97546V10.2955C0 11.0907 0.64471 11.7355 1.44 11.7355H2.4V20.1355C2.4 22.1237 4.01178 23.7355 6 23.7355H18C19.9882 23.7355 21.6 22.1237 21.6 20.1355V11.7355H22.56C23.3553 11.7355 24 11.0907 24 10.2955V5.97546C24 5.18017 23.3553 4.53546 22.56 4.53546ZM17.016 2.66347C17.3739 2.35056 17.8955 2.31188 18.2957 2.56858C18.6958 2.82529 18.8781 3.31557 18.7428 3.77133C18.6076 4.22708 18.1874 4.53858 17.712 4.53547H14.82L17.016 2.66347ZM5.18505 2.50169C4.80631 2.67431 4.56236 3.05124 4.56 3.46746C4.56 4.0573 5.03816 4.53546 5.628 4.53546H8.52L6.324 2.66346C6.00831 2.3922 5.56379 2.32907 5.18505 2.50169ZM19.2 20.1354C19.2 20.7982 18.6627 21.3354 18 21.3354H6C5.33726 21.3354 4.8 20.7982 4.8 20.1354V11.7354H19.2V20.1354ZM2.4 9.33545H21.6V6.93545H2.4V9.33545Z" fill="url(#paint0_linear)"/>
<defs>
<linearGradient id="paint0_linear" x1="7.62" y1="18.751" x2="19.4078" y2="4.85531" gradientUnits="userSpaceOnUse">
<stop stop-color="#6B75E3"/>
<stop offset="1" stop-color="#72A4F3"/>
</linearGradient>
</defs>
</svg>
