<svg width="148" height="120" viewBox="0 0 148 120" fill="none" xmlns="http://www.w3.org/2000/svg">
<g opacity="0.85">
<path d="M40.6135 102.78L28.7262 98.6937C26.644 97.9779 24.3825 97.9779 22.3005 98.6937L10.4131 102.78C7.82025 103.671 5.12109 101.745 5.12109 99.0031V77.2699H45.9054V99.0031C45.9054 101.745 43.2063 103.671 40.6135 102.78Z" fill="url(#paint0_linear)"/>
<path d="M45.9054 77.2702V99.0032C45.9054 101.745 43.206 103.672 40.6137 102.78L39.1161 102.265C40.123 101.553 40.8048 100.381 40.8048 99.0032V86.8558C36.5518 90.0688 31.2549 91.9742 25.5133 91.9742C17.1601 91.9742 9.74884 87.9404 5.12109 81.7157V77.2702H45.9054Z" fill="url(#paint1_linear)"/>
<path d="M5.12109 99.0032C5.12109 101.745 7.82051 103.672 10.4129 102.78L14.3231 101.435V77.2702H5.12109V99.0032Z" fill="url(#paint2_linear)"/>
<path d="M14.3231 89.3791V77.2702H5.12109V81.7157C7.52367 84.9473 10.6777 87.5862 14.3231 89.3791Z" fill="url(#paint3_linear)"/>
<path d="M36.7035 77.2702V101.435L40.6137 102.78C43.206 103.672 45.9055 101.745 45.9055 99.0032V77.2702H36.7035Z" fill="url(#paint4_linear)"/>
<path d="M40.8049 86.8558V99.0032C40.8049 100.381 40.123 101.553 39.1161 102.265L40.6137 102.78C43.206 103.672 45.9055 101.745 45.9055 99.0032V77.2702H36.7035V89.381C38.1539 88.6678 39.5268 87.8214 40.8049 86.8558Z" fill="url(#paint5_linear)"/>
<path d="M25.5132 88.7869C39.5376 88.7869 50.9067 77.4179 50.9067 63.3935C50.9067 49.369 39.5376 38 25.5132 38C11.4888 38 0.119751 49.369 0.119751 63.3935C0.119751 77.4179 11.4888 88.7869 25.5132 88.7869Z" fill="url(#paint6_linear)"/>
<path d="M25.5132 38C24.6524 38 23.8016 38.0433 22.9629 38.1271C35.7897 39.4063 45.8061 50.2299 45.8061 63.3935C45.8061 76.557 35.7897 87.3806 22.9629 88.6598C23.8016 88.7435 24.6524 88.7869 25.5132 88.7869C39.5376 88.7869 50.9066 77.4179 50.9066 63.3935C50.9066 49.369 39.5376 38 25.5132 38Z" fill="url(#paint7_linear)"/>
<path d="M25.5132 81.3291C35.4188 81.3291 43.4489 73.2991 43.4489 63.3935C43.4489 53.4879 35.4188 45.4578 25.5132 45.4578C15.6076 45.4578 7.57751 53.4879 7.57751 63.3935C7.57751 73.2991 15.6076 81.3291 25.5132 81.3291Z" fill="url(#paint8_linear)"/>
<path d="M25.5132 45.4578C24.6473 45.4578 23.796 45.5205 22.9629 45.6391C31.6604 46.8775 38.3483 54.3539 38.3483 63.3936C38.3483 72.4333 31.6604 79.9095 22.9629 81.1478C23.796 81.2664 24.6473 81.3291 25.5132 81.3291C35.4188 81.3291 43.4489 73.2991 43.4489 63.3935C43.4489 53.4878 35.4188 45.4578 25.5132 45.4578Z" fill="url(#paint9_linear)"/>
<path d="M28.3711 52.8924L30.5821 57.3725L35.5262 58.091C38.1402 58.4708 39.1839 61.6832 37.2924 63.5269L33.7149 67.0142L34.5593 71.9383C35.0058 74.5417 32.2733 76.527 29.9353 75.2979L25.5133 72.9729L21.0911 75.2978C18.7531 76.5269 16.0205 74.5416 16.467 71.9382L17.3115 67.0141L13.734 63.5268C11.8425 61.6831 12.8862 58.4707 15.5002 58.0909L20.4444 57.3725L22.6554 52.8924C23.8244 50.5237 27.2021 50.5237 28.3711 52.8924Z" fill="url(#paint10_linear)"/>
<path d="M35.5262 58.091L32.5231 57.6546V57.6582C32.5231 64.697 26.8168 70.4033 19.778 70.4033C18.7492 70.4033 17.7491 70.2805 16.7909 70.0504L16.467 71.9383C16.0206 74.5417 18.7531 76.527 21.0911 75.2979L25.5133 72.9729L29.9354 75.2978C32.2734 76.5269 35.0061 74.5416 34.5595 71.9382L33.715 67.0141L37.2925 63.5268C39.1839 61.6831 38.1402 58.4708 35.5262 58.091Z" fill="url(#paint11_linear)"/>
</g>
<g opacity="0.85">
<path d="M137.614 102.78L125.726 98.6937C123.644 97.9779 121.383 97.9779 119.3 98.6937L107.413 102.78C104.82 103.671 102.121 101.745 102.121 99.0031V77.2699H142.905V99.0031C142.905 101.745 140.206 103.671 137.614 102.78Z" fill="url(#paint12_linear)"/>
<path d="M142.905 77.2702V99.0032C142.905 101.745 140.206 103.672 137.614 102.78L136.116 102.265C137.123 101.553 137.805 100.381 137.805 99.0032V86.8558C133.552 90.0688 128.255 91.9742 122.513 91.9742C114.16 91.9742 106.749 87.9404 102.121 81.7157V77.2702H142.905Z" fill="url(#paint13_linear)"/>
<path d="M102.121 99.0032C102.121 101.745 104.821 103.672 107.413 102.78L111.323 101.435V77.2702H102.121V99.0032Z" fill="url(#paint14_linear)"/>
<path d="M111.323 89.3791V77.2702H102.121V81.7157C104.524 84.9473 107.678 87.5862 111.323 89.3791Z" fill="url(#paint15_linear)"/>
<path d="M133.703 77.2702V101.435L137.614 102.78C140.206 103.672 142.905 101.745 142.905 99.0032V77.2702H133.703Z" fill="url(#paint16_linear)"/>
<path d="M137.805 86.8558V99.0032C137.805 100.381 137.123 101.553 136.116 102.265L137.614 102.78C140.206 103.672 142.905 101.745 142.905 99.0032V77.2702H133.703V89.381C135.154 88.6678 136.527 87.8214 137.805 86.8558Z" fill="url(#paint17_linear)"/>
<path d="M122.513 88.7869C136.538 88.7869 147.907 77.4179 147.907 63.3935C147.907 49.369 136.538 38 122.513 38C108.489 38 97.1198 49.369 97.1198 63.3935C97.1198 77.4179 108.489 88.7869 122.513 88.7869Z" fill="url(#paint18_linear)"/>
<path d="M122.513 38C121.652 38 120.802 38.0433 119.963 38.1271C132.79 39.4063 142.806 50.2299 142.806 63.3935C142.806 76.557 132.79 87.3806 119.963 88.6598C120.802 88.7435 121.652 88.7869 122.513 88.7869C136.538 88.7869 147.907 77.4179 147.907 63.3935C147.907 49.369 136.538 38 122.513 38Z" fill="url(#paint19_linear)"/>
<path d="M122.513 81.3291C132.419 81.3291 140.449 73.2991 140.449 63.3935C140.449 53.4879 132.419 45.4578 122.513 45.4578C112.608 45.4578 104.578 53.4879 104.578 63.3935C104.578 73.2991 112.608 81.3291 122.513 81.3291Z" fill="url(#paint20_linear)"/>
<path d="M122.513 45.4578C121.647 45.4578 120.796 45.5205 119.963 45.6391C128.66 46.8775 135.348 54.3539 135.348 63.3936C135.348 72.4333 128.66 79.9095 119.963 81.1478C120.796 81.2664 121.647 81.3291 122.513 81.3291C132.419 81.3291 140.449 73.2991 140.449 63.3935C140.449 53.4878 132.419 45.4578 122.513 45.4578Z" fill="url(#paint21_linear)"/>
<path d="M125.371 52.8924L127.582 57.3725L132.526 58.091C135.14 58.4708 136.184 61.6832 134.292 63.5269L130.715 67.0142L131.559 71.9383C132.006 74.5417 129.273 76.527 126.935 75.2979L122.513 72.9729L118.091 75.2978C115.753 76.5269 113.02 74.5416 113.467 71.9382L114.312 67.0141L110.734 63.5268C108.842 61.6831 109.886 58.4707 112.5 58.0909L117.444 57.3725L119.655 52.8924C120.824 50.5237 124.202 50.5237 125.371 52.8924Z" fill="url(#paint22_linear)"/>
<path d="M132.526 58.091L129.523 57.6546V57.6582C129.523 64.697 123.817 70.4033 116.778 70.4033C115.749 70.4033 114.749 70.2805 113.791 70.0504L113.467 71.9383C113.021 74.5417 115.753 76.527 118.091 75.2979L122.513 72.9729L126.935 75.2978C129.273 76.5269 132.006 74.5416 131.559 71.9382L130.715 67.0141L134.293 63.5268C136.184 61.6831 135.14 58.4708 132.526 58.091Z" fill="url(#paint23_linear)"/>
</g>
<path d="M101.877 119.594L79.9315 112.05C76.0875 110.728 71.9124 110.728 68.0687 112.05L46.1228 119.594C41.336 121.239 36.3529 117.683 36.3529 112.621V72.4984H111.647V112.621C111.647 117.683 106.664 121.239 101.877 119.594Z" fill="url(#paint24_linear)"/>
<path d="M111.647 72.4988V112.621C111.647 117.682 106.664 121.24 101.878 119.593L99.1129 118.642C100.972 117.329 102.231 115.165 102.231 112.621V90.1953C94.3788 96.1271 84.6 99.6447 74 99.6447C58.5788 99.6447 44.8964 92.1976 36.3529 80.7059V72.4988H111.647Z" fill="url(#paint25_linear)"/>
<path d="M36.3529 112.621C36.3529 117.682 41.3364 121.24 46.1223 119.593L53.3411 117.111V72.4988H36.3529V112.621Z" fill="url(#paint26_linear)"/>
<path d="M53.3411 94.8536V72.4988H36.3529V80.7059C40.7884 86.672 46.6113 91.5437 53.3411 94.8536Z" fill="url(#paint27_linear)"/>
<path d="M94.6588 72.4988V117.111L101.878 119.593C106.664 121.24 111.647 117.682 111.647 112.621V72.4988H94.6588Z" fill="url(#paint28_linear)"/>
<path d="M102.231 90.1953V112.621C102.231 115.165 100.972 117.329 99.1129 118.642L101.878 119.593C106.664 121.24 111.647 117.682 111.647 112.621V72.4988H94.6588V94.8572C97.3365 93.5405 99.8711 91.9779 102.231 90.1953Z" fill="url(#paint29_linear)"/>
<path d="M74 93.7605C99.8912 93.7605 120.88 72.7715 120.88 46.8802C120.88 20.989 99.8912 0 74 0C48.1087 0 27.1198 20.989 27.1198 46.8802C27.1198 72.7715 48.1087 93.7605 74 93.7605Z" fill="url(#paint30_linear)"/>
<path d="M74 0C72.4108 0 70.8402 0.08 69.2917 0.234588C92.972 2.59623 111.464 22.5783 111.464 46.8802C111.464 71.1821 92.972 91.1642 69.2917 93.5259C70.8402 93.6802 72.4108 93.7605 74 93.7605C99.8913 93.7605 120.88 72.7715 120.88 46.8802C120.88 20.9889 99.8913 0 74 0Z" fill="url(#paint31_linear)"/>
<path d="M74 79.9923C92.2872 79.9923 107.112 65.1675 107.112 46.8802C107.112 28.593 92.2872 13.7682 74 13.7682C55.7127 13.7682 40.8879 28.593 40.8879 46.8802C40.8879 65.1675 55.7127 79.9923 74 79.9923Z" fill="url(#paint32_linear)"/>
<path d="M74 13.7682C72.4014 13.7682 70.8299 13.884 69.2917 14.1031C85.3487 16.3892 97.6955 30.1918 97.6955 46.8805C97.6955 63.5692 85.3487 77.3713 69.2917 79.6574C70.8299 79.8765 72.4014 79.9923 74 79.9923C92.2873 79.9923 107.112 65.1675 107.112 46.8802C107.112 28.5929 92.2873 13.7682 74 13.7682Z" fill="url(#paint33_linear)"/>
<path d="M79.276 27.4936L83.3579 35.7647L92.4854 37.0911C97.3113 37.7922 99.2381 43.7228 95.7461 47.1266L89.1414 53.5647L90.7005 62.6553C91.5247 67.4617 86.48 71.1268 82.1638 68.8577L74 64.5654L65.836 68.8574C61.5198 71.1266 56.4749 67.4614 57.2993 62.6551L58.8584 53.5645L52.2537 47.1264C48.7617 43.7226 50.6885 37.792 55.5144 37.0908L64.6422 35.7647L68.724 27.4936C70.8822 23.1207 77.1179 23.1207 79.276 27.4936Z" fill="url(#paint34_linear)"/>
<path d="M92.4855 37.0911L86.9412 36.2854V36.292C86.9412 49.2868 76.4066 59.8214 63.4118 59.8214C61.5125 59.8214 59.6662 59.5948 57.8972 59.1699L57.2993 62.6553C56.4751 67.4617 61.5198 71.1268 65.836 68.8577L74 64.5654L82.164 68.8574C86.4803 71.1266 91.5252 67.4614 90.7007 62.6551L89.1417 53.5645L95.7464 47.1264C99.2382 43.7226 97.3113 37.7922 92.4855 37.0911Z" fill="url(#paint35_linear)"/>
<defs>
<linearGradient id="paint0_linear" x1="12.04" y1="90.135" x2="37.7717" y2="90.135" gradientUnits="userSpaceOnUse">
<stop stop-color="#F2FBFF"/>
<stop offset="0.593" stop-color="#FAF7F7"/>
<stop offset="1" stop-color="#F3EAE6"/>
</linearGradient>
<linearGradient id="paint1_linear" x1="12.04" y1="90.1351" x2="37.7717" y2="90.1351" gradientUnits="userSpaceOnUse">
<stop stop-color="#F3EAE6"/>
<stop offset="1" stop-color="#CDBFBA"/>
</linearGradient>
<linearGradient id="paint2_linear" x1="5.12109" y1="90.1351" x2="45.6956" y2="90.1351" gradientUnits="userSpaceOnUse">
<stop stop-color="#01D0FB"/>
<stop offset="0.6075" stop-color="#26A6FE"/>
<stop offset="1" stop-color="#0182FC"/>
</linearGradient>
<linearGradient id="paint3_linear" x1="5.12109" y1="83.3246" x2="45.6956" y2="83.3246" gradientUnits="userSpaceOnUse">
<stop stop-color="#01BFFA"/>
<stop offset="1" stop-color="#5B5CFF"/>
</linearGradient>
<linearGradient id="paint4_linear" x1="5.12112" y1="90.1351" x2="45.6957" y2="90.1351" gradientUnits="userSpaceOnUse">
<stop stop-color="#01D0FB"/>
<stop offset="0.6075" stop-color="#26A6FE"/>
<stop offset="1" stop-color="#0182FC"/>
</linearGradient>
<linearGradient id="paint5_linear" x1="28.5297" y1="90.1351" x2="45.3047" y2="90.1351" gradientUnits="userSpaceOnUse">
<stop stop-color="#01BFFA"/>
<stop offset="1" stop-color="#5B5CFF"/>
</linearGradient>
<linearGradient id="paint6_linear" x1="-1.07523" y1="63.3935" x2="50.3231" y2="63.3935" gradientUnits="userSpaceOnUse">
<stop stop-color="#FFF9DF"/>
<stop offset="0.593" stop-color="#FFE177"/>
<stop offset="1" stop-color="#FEB137"/>
</linearGradient>
<linearGradient id="paint7_linear" x1="18.6308" y1="63.3935" x2="43.2556" y2="63.3935" gradientUnits="userSpaceOnUse">
<stop stop-color="#FFE177"/>
<stop offset="1" stop-color="#FEB137"/>
</linearGradient>
<linearGradient id="paint8_linear" x1="13.6629" y1="63.3935" x2="36.295" y2="63.3935" gradientUnits="userSpaceOnUse">
<stop stop-color="#FFE177"/>
<stop offset="1" stop-color="#FEB137"/>
</linearGradient>
<linearGradient id="paint9_linear" x1="26.4382" y1="63.3935" x2="39.3633" y2="63.3935" gradientUnits="userSpaceOnUse">
<stop stop-color="#FEB137"/>
<stop offset="1" stop-color="#ECA026"/>
</linearGradient>
<linearGradient id="paint10_linear" x1="10.0917" y1="63.3935" x2="32.5593" y2="63.3935" gradientUnits="userSpaceOnUse">
<stop stop-color="#FE99A0"/>
<stop offset="0.593" stop-color="#FE646F"/>
<stop offset="1" stop-color="#E41F2D"/>
</linearGradient>
<linearGradient id="paint11_linear" x1="20.6701" y1="66.6627" x2="37.7486" y2="66.6627" gradientUnits="userSpaceOnUse">
<stop stop-color="#FE646F"/>
<stop offset="0.7043" stop-color="#E41F2D"/>
<stop offset="1" stop-color="#C41926"/>
</linearGradient>
<linearGradient id="paint12_linear" x1="109.04" y1="90.135" x2="134.772" y2="90.135" gradientUnits="userSpaceOnUse">
<stop stop-color="#F2FBFF"/>
<stop offset="0.593" stop-color="#FAF7F7"/>
<stop offset="1" stop-color="#F3EAE6"/>
</linearGradient>
<linearGradient id="paint13_linear" x1="109.04" y1="90.1351" x2="134.772" y2="90.1351" gradientUnits="userSpaceOnUse">
<stop stop-color="#F3EAE6"/>
<stop offset="1" stop-color="#CDBFBA"/>
</linearGradient>
<linearGradient id="paint14_linear" x1="102.121" y1="90.1351" x2="142.696" y2="90.1351" gradientUnits="userSpaceOnUse">
<stop stop-color="#01D0FB"/>
<stop offset="0.6075" stop-color="#26A6FE"/>
<stop offset="1" stop-color="#0182FC"/>
</linearGradient>
<linearGradient id="paint15_linear" x1="102.121" y1="83.3246" x2="142.696" y2="83.3246" gradientUnits="userSpaceOnUse">
<stop stop-color="#01BFFA"/>
<stop offset="1" stop-color="#5B5CFF"/>
</linearGradient>
<linearGradient id="paint16_linear" x1="102.121" y1="90.1351" x2="142.696" y2="90.1351" gradientUnits="userSpaceOnUse">
<stop stop-color="#01D0FB"/>
<stop offset="0.6075" stop-color="#26A6FE"/>
<stop offset="1" stop-color="#0182FC"/>
</linearGradient>
<linearGradient id="paint17_linear" x1="125.53" y1="90.1351" x2="142.305" y2="90.1351" gradientUnits="userSpaceOnUse">
<stop stop-color="#01BFFA"/>
<stop offset="1" stop-color="#5B5CFF"/>
</linearGradient>
<linearGradient id="paint18_linear" x1="95.9248" y1="63.3935" x2="147.323" y2="63.3935" gradientUnits="userSpaceOnUse">
<stop stop-color="#FFF9DF"/>
<stop offset="0.593" stop-color="#FFE177"/>
<stop offset="1" stop-color="#FEB137"/>
</linearGradient>
<linearGradient id="paint19_linear" x1="115.631" y1="63.3935" x2="140.256" y2="63.3935" gradientUnits="userSpaceOnUse">
<stop stop-color="#FFE177"/>
<stop offset="1" stop-color="#FEB137"/>
</linearGradient>
<linearGradient id="paint20_linear" x1="110.663" y1="63.3935" x2="133.295" y2="63.3935" gradientUnits="userSpaceOnUse">
<stop stop-color="#FFE177"/>
<stop offset="1" stop-color="#FEB137"/>
</linearGradient>
<linearGradient id="paint21_linear" x1="123.438" y1="63.3935" x2="136.363" y2="63.3935" gradientUnits="userSpaceOnUse">
<stop stop-color="#FEB137"/>
<stop offset="1" stop-color="#ECA026"/>
</linearGradient>
<linearGradient id="paint22_linear" x1="107.092" y1="63.3935" x2="129.559" y2="63.3935" gradientUnits="userSpaceOnUse">
<stop stop-color="#FE99A0"/>
<stop offset="0.593" stop-color="#FE646F"/>
<stop offset="1" stop-color="#E41F2D"/>
</linearGradient>
<linearGradient id="paint23_linear" x1="117.67" y1="66.6627" x2="134.749" y2="66.6627" gradientUnits="userSpaceOnUse">
<stop stop-color="#FE646F"/>
<stop offset="0.7043" stop-color="#E41F2D"/>
<stop offset="1" stop-color="#C41926"/>
</linearGradient>
<linearGradient id="paint24_linear" x1="49.1263" y1="96.2492" x2="96.631" y2="96.2492" gradientUnits="userSpaceOnUse">
<stop stop-color="#F2FBFF"/>
<stop offset="0.593" stop-color="#FAF7F7"/>
<stop offset="1" stop-color="#F3EAE6"/>
</linearGradient>
<linearGradient id="paint25_linear" x1="49.1263" y1="96.2494" x2="96.631" y2="96.2494" gradientUnits="userSpaceOnUse">
<stop stop-color="#F3EAE6"/>
<stop offset="1" stop-color="#CDBFBA"/>
</linearGradient>
<linearGradient id="paint26_linear" x1="36.3529" y1="96.2494" x2="111.26" y2="96.2494" gradientUnits="userSpaceOnUse">
<stop stop-color="#01D0FB"/>
<stop offset="0.6075" stop-color="#26A6FE"/>
<stop offset="1" stop-color="#0182FC"/>
</linearGradient>
<linearGradient id="paint27_linear" x1="36.3529" y1="83.6762" x2="111.26" y2="83.6762" gradientUnits="userSpaceOnUse">
<stop stop-color="#01BFFA"/>
<stop offset="1" stop-color="#5B5CFF"/>
</linearGradient>
<linearGradient id="paint28_linear" x1="36.3529" y1="96.2494" x2="111.26" y2="96.2494" gradientUnits="userSpaceOnUse">
<stop stop-color="#01D0FB"/>
<stop offset="0.6075" stop-color="#26A6FE"/>
<stop offset="1" stop-color="#0182FC"/>
</linearGradient>
<linearGradient id="paint29_linear" x1="79.5687" y1="96.2494" x2="110.538" y2="96.2494" gradientUnits="userSpaceOnUse">
<stop stop-color="#01BFFA"/>
<stop offset="1" stop-color="#5B5CFF"/>
</linearGradient>
<linearGradient id="paint30_linear" x1="24.9136" y1="46.8802" x2="119.803" y2="46.8802" gradientUnits="userSpaceOnUse">
<stop stop-color="#FFF9DF"/>
<stop offset="0.593" stop-color="#FFE177"/>
<stop offset="1" stop-color="#FEB137"/>
</linearGradient>
<linearGradient id="paint31_linear" x1="61.2941" y1="46.8802" x2="106.755" y2="46.8802" gradientUnits="userSpaceOnUse">
<stop stop-color="#FFE177"/>
<stop offset="1" stop-color="#FEB137"/>
</linearGradient>
<linearGradient id="paint32_linear" x1="52.1225" y1="46.8802" x2="93.9049" y2="46.8802" gradientUnits="userSpaceOnUse">
<stop stop-color="#FFE177"/>
<stop offset="1" stop-color="#FEB137"/>
</linearGradient>
<linearGradient id="paint33_linear" x1="75.7077" y1="46.8803" x2="99.5694" y2="46.8803" gradientUnits="userSpaceOnUse">
<stop stop-color="#FEB137"/>
<stop offset="1" stop-color="#ECA026"/>
</linearGradient>
<linearGradient id="paint34_linear" x1="45.5295" y1="46.8802" x2="87.008" y2="46.8802" gradientUnits="userSpaceOnUse">
<stop stop-color="#FE99A0"/>
<stop offset="0.593" stop-color="#FE646F"/>
<stop offset="1" stop-color="#E41F2D"/>
</linearGradient>
<linearGradient id="paint35_linear" x1="65.0589" y1="52.9158" x2="96.5883" y2="52.9158" gradientUnits="userSpaceOnUse">
<stop stop-color="#FE646F"/>
<stop offset="0.7043" stop-color="#E41F2D"/>
<stop offset="1" stop-color="#C41926"/>
</linearGradient>
</defs>
</svg>
