<svg width="30" height="30" viewBox="0 0 30 30" fill="none" xmlns="http://www.w3.org/2000/svg">
<g clip-path="url(#clip0)">
<path fill-rule="evenodd" clip-rule="evenodd" d="M29.7823 0.840909C29.5631 0.456996 29.2004 0.175872 28.774 0.0593361C28.3475 -0.0571997 27.8923 0.000416534 27.5083 0.219501L16.2257 6.66693H1.66888C1.44984 6.66659 1.23287 6.70943 1.03041 6.79301C0.827953 6.8766 0.643945 6.99928 0.488944 7.15405C0.333943 7.30881 0.210975 7.49261 0.127075 7.69494C0.0431757 7.89727 -2.60816e-07 8.11416 0 8.33319V18.3335C-2.89594e-08 18.5524 0.043126 18.7691 0.126918 18.9714C0.210711 19.1736 0.333549 19.3573 0.488368 19.512C0.643188 19.6668 0.826948 19.7895 1.02921 19.8732C1.23147 19.9569 1.44826 19.9999 1.66715 19.9998H3.33341V28.3329C3.33341 28.552 3.3766 28.7689 3.46048 28.9713C3.54437 29.1737 3.66736 29.3575 3.82235 29.5124C3.97734 29.6672 4.1613 29.79 4.36377 29.8736C4.56623 29.9573 4.78321 30.0003 5.00228 30.0001H11.6683C11.8872 30.0001 12.104 29.957 12.3063 29.8732C12.5085 29.7894 12.6923 29.6666 12.8472 29.5118C13.002 29.357 13.1248 29.1732 13.2085 28.9709C13.2923 28.7686 13.3354 28.5518 13.3354 28.3329V23.3332C13.3255 22.8977 13.1456 22.4834 12.8341 22.1789C12.5226 21.8744 12.1043 21.7039 11.6687 21.7039C11.2331 21.7039 10.8148 21.8744 10.5033 22.1789C10.1918 22.4834 10.0119 22.8977 10.002 23.3332V26.6666H6.6686V18.3335C6.6686 17.8915 6.49306 17.4676 6.18059 17.155C5.86813 16.8423 5.44429 16.6666 5.00228 16.6663H3.33514V9.99948H16.6689C16.9587 9.99964 17.2436 9.92401 17.4952 9.78007L26.6666 4.53865V22.1281L17.4952 16.8866C17.2435 16.7428 16.9587 16.6669 16.6689 16.6663H13.3354V13.3329C13.3255 12.8974 13.1456 12.4831 12.8341 12.1786C12.5226 11.8741 12.1043 11.7036 11.6687 11.7036C11.2331 11.7036 10.8148 11.8741 10.5033 12.1786C10.1918 12.4831 10.0119 12.8974 10.002 13.3329V18.3335C10.002 18.7754 10.1776 19.1992 10.4901 19.5117C10.8025 19.8242 11.2263 19.9998 11.6683 19.9998H16.2257L27.5083 26.4472C27.7618 26.5912 28.0487 26.6662 28.3402 26.6648C28.6318 26.6633 28.9179 26.5855 29.17 26.439C29.4221 26.2926 29.6313 26.0825 29.777 25.83C29.9226 25.5774 29.9995 25.291 30 24.9995V1.66635C30.0007 1.37693 29.9256 1.09236 29.7823 0.840909Z" fill="url(#paint0_linear)"/>
</g>
<defs>
<linearGradient id="paint0_linear" x1="15" y1="0.000366211" x2="15" y2="30.0001" gradientUnits="userSpaceOnUse">
<stop stop-color="#8E55E8"/>
<stop offset="1" stop-color="#809AFF"/>
</linearGradient>
<clipPath id="clip0">
<rect width="30" height="30" fill="white"/>
</clipPath>
</defs>
</svg>
