<svg width="17" height="11" viewBox="0 0 17 11" fill="none" xmlns="http://www.w3.org/2000/svg">
<path d="M1 5.86498H14.19L11.84 8.80498C11.6734 9.01283 11.5965 9.27857 11.6266 9.54328C11.6566 9.80798 11.791 10.0498 12 10.215C12.4314 10.5553 13.0565 10.4839 13.4 10.055L16.68 5.96498C17.031 5.52658 17.031 4.90338 16.68 4.46498L13.4 0.37498C13.0565 -0.0539283 12.4314 -0.125377 12 0.21498C11.791 0.3802 11.6566 0.621977 11.6266 0.886682C11.5965 1.15139 11.6734 1.41714 11.84 1.62498L13.64 3.86498H1C0.447715 3.86498 0 4.3127 0 4.86498C0 5.41726 0.447715 5.86498 1 5.86498Z" fill="white"/>
</svg>
