<svg width="26" height="25" viewBox="0 0 26 25" fill="none" xmlns="http://www.w3.org/2000/svg">
<path fill-rule="evenodd" clip-rule="evenodd" d="M25.3094 14.751C22.8036 13.4934 22.7127 11.5945 25.3094 10.2615C25.6033 10.0893 25.8149 9.81137 25.8976 9.48846C25.9803 9.16555 25.9276 8.82402 25.7509 8.5387L23.1542 4.33855C22.9785 4.05176 22.6924 3.84427 22.3589 3.76174C22.0253 3.6792 21.6716 3.72831 21.3754 3.89836C18.7787 5.24393 16.8571 4.1499 16.8441 1.25754C16.8441 0.924023 16.7073 0.60418 16.4638 0.368345C16.2203 0.132509 15.8901 0 15.5457 0H10.3523C10.0079 0 9.6776 0.132509 9.43411 0.368345C9.19062 0.60418 9.05389 0.924023 9.05389 1.25754C9.05389 4.12475 7.14522 5.25651 4.52251 3.89836C4.22752 3.73228 3.87688 3.68536 3.54644 3.76772C3.21599 3.85009 2.93232 4.05517 2.75675 4.33855L0.160007 8.5387C0.0777493 8.68394 0.0259465 8.84352 0.0075372 9.00821C-0.0108721 9.1729 0.00452822 9.33944 0.0527868 9.49836C0.101045 9.65728 0.181247 9.80544 0.288782 9.93425C0.396317 10.0631 0.529045 10.17 0.679387 10.249C3.18524 11.5066 3.27613 13.4055 0.679387 14.7385C0.38547 14.9107 0.173961 15.1886 0.0912212 15.5115C0.00848156 15.8344 0.0612199 16.176 0.237906 16.4613L2.83465 20.6615C3.0103 20.9482 3.29639 21.1557 3.62996 21.2383C3.96353 21.3208 4.31725 21.2717 4.61341 21.1016C7.21015 19.7561 9.1318 20.8501 9.14478 23.7425C9.14478 24.076 9.28152 24.3958 9.52501 24.6317C9.7685 24.8675 10.0988 25 10.4432 25H15.6366C15.981 25 16.3112 24.8675 16.5547 24.6317C16.7982 24.3958 16.935 24.076 16.935 23.7425C16.935 23.4089 16.7982 23.0891 16.5547 22.8533C16.3112 22.6174 15.981 22.4849 15.6366 22.4849H11.6376C11.5744 21.696 11.316 20.9334 10.8843 20.2616C10.4526 19.5897 9.86023 19.0284 9.1573 18.6251C8.45438 18.2218 7.66152 17.9883 6.84577 17.9443C6.03002 17.9004 5.21536 18.0474 4.4706 18.3727L3.06834 16.2726C3.71707 15.8713 4.251 15.3182 4.62086 14.6644C4.99071 14.0105 5.18461 13.277 5.18461 12.5315C5.18461 11.7859 4.99071 11.0523 4.62086 10.3985C4.251 9.74461 3.71707 9.19153 3.06834 8.79023L4.36671 6.58952C5.11328 6.91469 5.92967 7.06111 6.74695 7.01643C7.56423 6.97176 8.35847 6.73732 9.06253 6.33286C9.76658 5.92839 10.3598 5.36576 10.7922 4.69254C11.2245 4.01932 11.4834 3.25528 11.5467 2.46482H14.3383C14.3995 3.25485 14.6565 4.01889 15.0874 4.69231C15.5183 5.36573 16.1104 5.92869 16.8136 6.33339C17.5168 6.7381 18.3104 6.97269 19.1271 7.01728C19.9438 7.06187 20.7595 6.91512 21.5052 6.58952L22.8036 8.79023C22.1549 9.19153 21.6209 9.74461 21.2511 10.3985C20.8812 11.0523 20.6873 11.7859 20.6873 12.5315C20.6873 13.277 20.8812 14.0105 21.2511 14.6644C21.6209 15.3182 22.1549 15.8713 22.8036 16.2726L21.4273 18.4985C20.4713 18.1869 19.456 18.0838 18.4541 18.1967L16.896 15.845C17.7383 14.9319 18.2077 13.7525 18.2163 12.5281C18.2248 11.3036 17.7721 10.1181 16.9427 9.19396C16.1133 8.26978 14.9644 7.67042 13.7113 7.50812C12.4582 7.34582 11.187 7.63179 10.1361 8.31243C9.08514 8.99307 8.32665 10.0216 8.00277 11.2052C7.67888 12.3888 7.81188 13.6463 8.37681 14.7417C8.94174 15.8371 9.89983 16.6953 11.0714 17.1555C12.243 17.6156 13.5477 17.646 14.7408 17.241L16.9869 20.2842C17.1437 20.4982 17.3657 20.6594 17.6218 20.7451C17.8779 20.8308 18.1553 20.8367 18.4151 20.7621C19.443 20.5026 20.5344 20.633 21.4663 21.1267C21.7613 21.2928 22.1119 21.3397 22.4424 21.2574C22.7728 21.175 23.0565 20.97 23.2321 20.6866L25.8288 16.4864C25.9152 16.3401 25.9703 16.1784 25.9909 16.0111C26.0115 15.8437 25.9972 15.674 25.9487 15.5122C25.9003 15.3503 25.8187 15.1995 25.7089 15.0687C25.5991 14.938 25.4632 14.8299 25.3094 14.751ZM13.0009 15.0151C12.4873 15.0151 11.9853 14.8676 11.5582 14.5913C11.1312 14.3149 10.7983 13.9221 10.6018 13.4625C10.4053 13.0029 10.3539 12.4972 10.4541 12.0093C10.5543 11.5214 10.8016 11.0733 11.1648 10.7216C11.5279 10.3699 11.9906 10.1303 12.4943 10.0333C12.998 9.93622 13.5202 9.98598 13.9947 10.1763C14.4691 10.3667 14.8747 10.6891 15.16 11.1027C15.4454 11.5163 15.5976 12.0026 15.5976 12.5C15.5976 13.167 15.324 13.8067 14.837 14.2784C14.3501 14.7501 13.6896 15.0151 13.0009 15.0151Z" fill="white"/>
</svg>
