<svg width="18" height="20" viewBox="0 0 18 20" fill="none" xmlns="http://www.w3.org/2000/svg">
<path fill-rule="evenodd" clip-rule="evenodd" d="M12.33 9.65101C14.1433 8.23054 14.856 5.81617 14.1047 3.63867C13.3533 1.46118 11.3035 0 9 0C6.69653 0 4.64665 1.46118 3.89532 3.63867C3.144 5.81617 3.85665 8.23054 5.67 9.65101C2.24961 11.0132 0.00379936 14.3213 0 18.003V18.903C0 19.4001 0.402944 19.803 0.9 19.803C1.39706 19.803 1.8 19.4001 1.8 18.903V18.003C1.8 14.0266 5.02355 10.803 9 10.803C12.9764 10.803 16.2 14.0266 16.2 18.003V18.903C16.2 19.4001 16.6029 19.803 17.1 19.803C17.5971 19.803 18 19.4001 18 18.903V18.003C17.9962 14.3213 15.7504 11.0132 12.33 9.65101ZM5.4 5.40301C5.4 3.41479 7.01178 1.80301 9 1.80301C10.9882 1.80301 12.6 3.41479 12.6 5.40301C12.6 7.39124 10.9882 9.00301 9 9.00301C8.04522 9.00301 7.12955 8.62373 6.45442 7.9486C5.77928 7.27346 5.4 6.35779 5.4 5.40301Z" fill="#0E1317"/>
</svg>
