<svg width="375" height="331" viewBox="0 0 375 331" fill="none" xmlns="http://www.w3.org/2000/svg">
<path d="M169.078 176.234C173.109 178.652 178.355 177.375 180.796 173.381C183.236 169.387 181.947 164.188 177.916 161.77C173.885 159.351 168.639 160.629 166.199 164.623C163.758 168.617 165.047 173.816 169.078 176.234Z" fill="#F6C5A5"/>
<path d="M152.183 173.015C156.064 175.663 161.377 174.692 164.049 170.846C166.721 166.999 165.74 161.735 161.859 159.088C157.978 156.44 152.665 157.412 149.993 161.258C147.321 165.104 148.302 170.368 152.183 173.015Z" fill="#F6C5A5"/>
<path d="M295.684 158.507L295.684 136.254C295.684 107.577 277.927 84.3298 256.022 84.3298C234.118 84.3298 216.361 107.577 216.361 136.254L216.361 158.507C216.361 187.184 234.118 210.431 256.022 210.431C277.927 210.431 295.684 187.184 295.684 158.507Z" fill="#174AA1"/>
<path d="M240.953 74.8833H217V224.43H240.953V74.8833Z" fill="#2661C6"/>
<path d="M286.256 162.841L286.256 136.451C286.256 102.442 265.197 74.8718 239.22 74.8718C213.243 74.8718 192.184 102.442 192.184 136.451L192.184 162.841C192.184 196.85 213.243 224.42 239.22 224.42C265.197 224.42 286.256 196.85 286.256 162.841Z" fill="#2661C6"/>
<path fill-rule="evenodd" clip-rule="evenodd" d="M147.617 85.2891H182.308C183.724 85.2891 184.786 86.3414 184.786 87.6276V89.7322C184.786 91.1353 183.724 92.1876 182.308 92.1876H160.478C140.537 92.1876 124.253 108.323 124.253 128.084C124.253 147.844 140.537 163.98 160.478 163.98H182.308C183.724 163.98 184.786 165.032 184.786 166.318V168.423C184.786 169.826 183.724 170.878 182.308 170.878H147.617C123.781 170.878 104.311 151.586 104.311 128.084C104.311 104.465 123.781 85.2891 147.617 85.2891Z" fill="#2661C6"/>
<path d="M264.092 162.841L264.092 136.451C264.092 102.442 243.033 74.8718 217.056 74.8718C191.079 74.8718 170.02 102.442 170.02 136.451L170.02 162.841C170.02 196.85 191.079 224.42 217.056 224.42C243.033 224.42 264.092 196.85 264.092 162.841Z" fill="#174AA1"/>
<path fill-rule="evenodd" clip-rule="evenodd" d="M275.055 0.284816C279.775 -0.884433 284.613 1.92176 285.793 6.59876C290.513 5.31259 295.233 8.11879 296.531 12.7958C297.711 17.4728 294.879 22.2667 290.159 23.436L273.167 27.7622L268.801 10.925C267.503 6.36491 270.335 1.57099 275.055 0.284816Z" fill="#6EAAFF"/>
<path fill-rule="evenodd" clip-rule="evenodd" d="M265.379 13.8482C270.099 12.679 274.937 15.4852 276.117 20.0452C280.719 18.876 285.557 21.6822 286.855 26.3592C288.035 30.9193 285.203 35.7132 280.483 36.9994L263.491 41.3256L259.125 24.4884C257.827 19.8114 260.659 15.0175 265.379 13.8482Z" fill="#8ABBFF"/>
<path d="M258.181 27.1778C262.901 26.0086 267.739 28.8148 268.919 33.3748C273.521 32.2056 278.359 35.0118 279.657 39.6888C280.837 44.2489 278.005 49.0428 273.285 50.212L256.293 54.6552L251.927 37.818C250.629 33.141 253.461 28.3471 258.181 27.1778Z" fill="white"/>
<path fill-rule="evenodd" clip-rule="evenodd" d="M123.427 188.534H185.022L200.952 295.053C206.144 298.327 209.802 303.822 210.51 309.902C211.572 319.958 204.256 328.143 194.226 328.143H178.06C177.47 328.143 176.998 328.26 176.408 328.26H130.861C125.905 328.26 121.303 325.22 119.061 320.426C116.937 315.749 117.881 310.721 121.539 307.681C126.731 303.471 132.867 300.314 139.829 298.794L123.427 188.534Z" fill="#174AA1"/>
<path d="M216.31 188.566H154.671L192.522 323.795H254.161L216.31 188.566Z" fill="#2661C6"/>
<path d="M133.811 170.761L146.436 124.225C152.218 103.062 174.402 90.317 195.76 96.0463C217.236 101.776 229.98 123.757 224.316 144.921L212.516 188.534H133.221C132.041 182.805 132.277 176.725 133.811 170.761Z" fill="white"/>
<path d="M220.304 179.063H122.719C120.242 179.063 118.235 181.105 118.235 183.623V205.02C118.235 207.539 120.242 209.58 122.719 209.58H220.304C222.78 209.58 224.788 207.539 224.788 205.02V183.623C224.788 181.105 222.78 179.063 220.304 179.063Z" fill="#174AA1"/>
<path fill-rule="evenodd" clip-rule="evenodd" d="M177.942 53.9533L161.894 100.84H212.752V53.2517L177.942 53.9533Z" fill="#E37878"/>
<path fill-rule="evenodd" clip-rule="evenodd" d="M152.572 39.6885C155.64 43.7808 167.322 56.1749 185.376 44.5993C185.966 44.2485 186.556 44.2485 187.146 44.3654C187.736 44.5993 188.09 45.067 188.326 45.6516C189.034 48.4578 191.512 52.3163 199.182 52.1994C200.126 52.1994 200.952 51.6148 201.188 50.6794C202.604 45.4178 206.616 27.5283 191.158 33.3745C190.568 33.6084 189.86 33.4914 189.388 33.1407C185.376 30.3345 166.968 19.2266 152.572 37.35C152.1 38.0515 151.982 38.9869 152.572 39.6885Z" fill="#FF8984"/>
<path fill-rule="evenodd" clip-rule="evenodd" d="M185.848 29.6328H193.636C201.306 29.6328 207.324 35.8298 206.97 43.43L206.026 63.3072C205.554 71.2581 198.71 77.689 190.804 77.689H183.606C171.57 77.689 162.248 67.9842 162.838 56.1748L163.074 51.147C163.664 39.3376 173.93 29.6328 185.848 29.6328Z" fill="#E37878"/>
<path fill-rule="evenodd" clip-rule="evenodd" d="M172.514 51.1472H173.222C173.93 51.1472 174.402 51.6149 174.402 52.1995L174.284 53.9534C174.284 54.6549 173.694 55.1226 172.986 55.1226H172.396C171.334 55.1226 170.626 54.3042 170.626 53.3688V52.9011C170.744 51.9657 171.57 51.1472 172.514 51.1472Z" fill="#1D1D1D"/>
<path fill-rule="evenodd" clip-rule="evenodd" d="M169.918 44.7162L171.924 44.9501C173.34 45.1839 174.52 46.1193 174.992 47.4055C175.228 47.7563 175.11 48.1071 174.874 48.3409C174.638 48.5748 174.166 48.5748 173.93 48.4578C173.458 48.224 172.986 47.9901 172.396 47.9901L169.446 47.5224C168.266 47.4055 167.204 47.5224 166.26 47.8732C165.906 48.1071 165.434 47.9901 165.198 47.6394C164.962 47.2886 164.962 46.8209 165.198 46.4701C166.26 45.1839 168.03 44.3655 169.918 44.7162Z" fill="#FFE084"/>
<path fill-rule="evenodd" clip-rule="evenodd" d="M159.77 48.3411H172.278C173.576 48.3411 174.756 48.8088 175.582 49.8611C176.408 50.9134 176.644 52.0827 176.408 53.3688L174.756 59.7997C174.402 61.6705 172.75 62.9567 170.744 62.9567H161.776C159.888 62.9567 158.354 61.7874 157.764 60.0335L155.758 53.6027C155.404 52.3165 155.64 51.0303 156.466 49.978C157.292 48.9257 158.472 48.3411 159.77 48.3411Z" fill="#1D1D1D"/>
<path fill-rule="evenodd" clip-rule="evenodd" d="M185.848 29.6328H193.754C201.424 29.6328 207.442 35.8298 207.088 43.43L206.144 63.4241C205.672 71.375 198.828 77.8059 190.804 77.8059H183.606C182.072 77.8059 180.656 77.6889 179.358 77.4551C173.812 74.1812 179.476 69.6211 179.476 69.6211L177.47 62.4887C177.352 61.7872 177.352 61.2025 177.706 60.501L178.06 59.9164L174.284 58.7471C172.986 58.3963 172.16 56.9932 172.632 55.4732L177.352 39.9222C177.47 39.8053 177.47 39.6884 177.588 39.4545C179.83 35.3621 181.836 32.2052 183.842 29.7497C184.55 29.6328 185.258 29.6328 185.848 29.6328Z" fill="#F6C5A5"/>
<path fill-rule="evenodd" clip-rule="evenodd" d="M185.848 29.6328H193.754C201.424 29.6328 207.442 35.8298 207.088 43.43L206.498 55.3563C198.592 53.2516 196.586 48.2239 196.35 44.7161C196.232 43.7807 195.76 43.0792 195.052 42.7284C194.344 42.2607 193.518 42.2607 192.692 42.7284C186.084 45.6515 180.302 46.8208 175.346 46.8208L177.352 39.9222C177.47 39.8053 177.47 39.6884 177.588 39.4545C179.83 35.3621 181.836 32.2052 183.842 29.7497C184.55 29.6328 185.258 29.6328 185.848 29.6328Z" fill="#E37878"/>
<path fill-rule="evenodd" clip-rule="evenodd" d="M149.032 26.242C152.336 32.556 165.198 52.5501 192.692 40.8576C193.518 40.5069 194.344 40.6238 195.17 40.9746C195.878 41.4423 196.35 42.1438 196.35 42.9623C196.704 47.0547 199.064 53.0178 209.684 54.6548C210.982 54.8886 212.162 54.304 212.752 53.1348C216.056 46.1193 225.85 22.3835 203.312 26.5928C202.368 26.7097 201.542 26.4759 200.952 25.8912C196.114 20.9804 173.812 1.22009 149.74 22.9681C148.796 23.7866 148.56 25.0728 149.032 26.242Z" fill="#FFE084"/>
<path fill-rule="evenodd" clip-rule="evenodd" d="M189.388 51.1472H188.68C188.09 51.1472 187.5 51.6149 187.5 52.1995L187.382 53.9534C187.382 54.6549 187.854 55.1226 188.562 55.1226H189.152C190.214 55.1226 191.04 54.3042 191.04 53.3688V52.9011C191.158 51.9657 190.332 51.1472 189.388 51.1472Z" fill="#1D1D1D"/>
<path fill-rule="evenodd" clip-rule="evenodd" d="M192.928 64.8273C190.568 67.6335 187.264 69.5043 183.37 69.972C179.594 70.3227 176.054 69.1535 173.34 66.815C172.514 66.2304 172.278 65.0611 172.868 64.0088C173.34 63.0734 174.402 62.4888 175.464 62.7226C177.824 63.1903 180.302 63.3072 183.016 63.0734C185.612 62.7226 188.09 62.138 190.332 61.2026C191.394 60.7349 192.574 61.0857 193.164 62.0211C193.754 62.8395 193.636 64.0088 192.928 64.8273Z" fill="#A45959"/>
<path d="M191.512 66.3474C189.388 68.2182 186.556 69.6213 183.37 69.9721C180.42 70.2059 177.706 69.6213 175.346 68.3351C177.706 66.5812 180.538 65.412 183.606 65.0612C186.438 64.8274 189.152 65.2951 191.512 66.3474Z" fill="white"/>
<path d="M173.34 63.4242C173.93 62.8395 174.638 62.6057 175.464 62.7226C177.824 63.1903 180.302 63.3072 183.016 63.0734C185.612 62.7226 188.09 62.138 190.332 61.2026C191.394 60.7349 192.574 61.0857 193.164 62.0211C190.804 64.5934 187.5 66.4642 183.724 66.815C179.948 67.2827 176.408 65.9965 173.694 63.7749C173.576 63.658 173.458 63.5411 173.34 63.4242Z" fill="white"/>
<path fill-rule="evenodd" clip-rule="evenodd" d="M188.444 43.781H186.438C185.022 43.781 183.724 44.5995 183.134 45.7687C182.898 46.0026 182.898 46.4703 183.134 46.7041C183.37 46.938 183.842 47.0549 184.078 46.938C184.55 46.7041 185.14 46.5872 185.612 46.5872H188.68C189.86 46.5872 190.804 46.938 191.748 47.4057C192.102 47.6395 192.574 47.6395 192.81 47.2888C193.164 47.0549 193.164 46.5872 192.928 46.2364C191.984 44.7164 190.332 43.781 188.444 43.781Z" fill="#FFE084"/>
<path fill-rule="evenodd" clip-rule="evenodd" d="M167.322 25.0729C169.682 29.7499 179.122 44.4824 199.3 35.83C199.89 35.5961 200.48 35.5961 201.07 35.9469C201.66 36.2977 202.014 36.7654 202.014 37.4669C202.25 40.3901 204.02 44.7163 211.808 46.0025C212.752 46.1194 213.578 45.6517 214.05 44.8332C216.41 39.6885 223.608 22.2667 207.088 25.3068C206.38 25.5406 205.79 25.3068 205.318 24.8391C201.778 21.3313 185.376 6.71569 167.794 22.7344C167.086 23.319 166.85 24.2544 167.322 25.0729Z" fill="#FFF3CF"/>
<path d="M190.45 86.9265H166.142C134.601 86.9265 109.031 106.086 109.031 129.721C109.031 153.356 134.601 172.516 166.142 172.516H190.45C221.992 172.516 247.561 153.356 247.561 129.721C247.561 106.086 221.992 86.9265 190.45 86.9265Z" fill="white"/>
<path fill-rule="evenodd" clip-rule="evenodd" d="M142.425 98.8525H145.139H149.386H153.28C154.696 98.8525 155.522 100.022 155.05 101.425C154.696 102.828 153.044 103.997 151.628 103.997H147.735H143.487H140.773C138.531 103.997 136.289 104.933 134.283 106.336C132.395 107.856 130.861 109.843 130.153 112.065C129.445 114.287 129.799 116.274 130.743 117.677C131.805 119.081 133.457 120.016 135.699 120.016H138.413H142.661H146.555C147.971 120.016 148.796 121.185 148.324 122.588C147.853 124.108 146.319 125.278 144.903 125.278H141.009H136.761H134.047C130.389 125.278 127.557 123.758 125.905 121.419C124.253 118.964 123.781 115.69 124.961 112.065C126.023 108.44 128.619 105.05 131.805 102.711C134.991 100.256 138.767 98.8525 142.425 98.8525Z" fill="#5999F1"/>
<path fill-rule="evenodd" clip-rule="evenodd" d="M150.331 109.259H147.617H143.369H139.475C138.059 109.259 136.525 110.428 136.053 111.831C135.581 113.351 136.407 114.521 137.823 114.521H141.717H145.965H148.679C150.921 114.521 152.573 115.339 153.635 116.859C154.579 118.262 154.933 120.25 154.225 122.472C153.517 124.693 151.983 126.681 149.977 128.084C148.089 129.604 145.847 130.539 143.605 130.539H140.891H136.643H132.749C131.333 130.539 129.681 131.709 129.327 133.112C128.855 134.515 129.681 135.684 131.097 135.684H134.991H139.239H141.953C145.611 135.684 149.387 134.164 152.573 131.826C155.758 129.487 158.354 126.096 159.416 122.472C160.596 118.847 160.124 115.573 158.472 113.118C156.82 110.779 153.989 109.259 150.331 109.259Z" fill="#5999F1"/>
<path d="M165.08 176.491H129.681C128.768 176.491 128.029 178.899 128.029 181.87V206.775C128.029 209.745 128.768 212.153 129.681 212.153H165.08C165.993 212.153 166.732 209.745 166.732 206.775V181.87C166.732 178.899 165.993 176.491 165.08 176.491Z" fill="#2661C6"/>
<path fill-rule="evenodd" clip-rule="evenodd" d="M175.818 176.491H181.718C184.668 176.491 187.028 178.829 187.028 181.87V206.658C187.028 209.581 184.668 212.036 181.718 212.036H175.818C178.768 212.036 181.246 209.581 181.246 206.658V181.87C181.246 178.829 178.768 176.491 175.818 176.491Z" fill="#2661C6"/>
<path d="M212.271 82.834H164.844C162.694 82.834 160.95 84.5615 160.95 86.6925V86.7376C160.95 88.8686 162.694 90.5961 164.844 90.5961H212.271C214.422 90.5961 216.165 88.8686 216.165 86.7376V86.6925C216.165 84.5615 214.422 82.834 212.271 82.834Z" fill="white"/>
<path fill-rule="evenodd" clip-rule="evenodd" d="M206.026 85.2891H240.835C242.133 85.2891 243.313 86.3414 243.313 87.6276V89.7322C243.313 91.1353 242.133 92.1876 240.835 92.1876H218.888C198.946 92.1876 182.662 108.323 182.662 128.084C182.662 147.844 198.946 163.98 218.888 163.98H240.835C242.133 163.98 243.313 165.032 243.313 166.318V168.423C243.313 169.826 242.133 170.878 240.835 170.878H206.026C182.308 170.878 162.838 151.586 162.838 128.084C162.838 104.465 182.308 85.2891 206.026 85.2891Z" fill="#2661C6"/>
<path d="M247.903 116.503C235.486 100.048 215.234 94.2559 202.67 103.565C190.106 112.875 189.987 133.761 202.405 150.216L216.681 169.134C229.098 185.588 249.35 191.381 261.914 182.071C274.478 172.762 274.596 151.876 262.179 135.421L247.903 116.503Z" fill="#F6C5A5"/>
<path fill-rule="evenodd" clip-rule="evenodd" d="M230.216 183.623C227.148 181.752 224.434 179.414 222.192 176.374L196.94 142.933C188.208 131.357 189.86 115.105 200.362 105.4C203.43 107.271 206.144 109.726 208.386 112.649L233.638 146.09C242.369 157.666 240.717 173.918 230.216 183.623Z" fill="#E37878"/>
<path fill-rule="evenodd" clip-rule="evenodd" d="M201.778 176.491H207.678C210.746 176.491 213.106 178.829 213.106 181.87V206.658C213.106 209.581 210.746 212.036 207.678 212.036H201.778C204.846 212.036 207.206 209.581 207.206 206.658V181.87C207.206 178.829 204.846 176.491 201.778 176.491Z" fill="#2661C6"/>
<path fill-rule="evenodd" clip-rule="evenodd" d="M280.719 182.337C280.955 181.986 281.073 181.518 281.309 181.168V181.051C282.253 179.063 282.961 176.841 283.433 174.503C287.091 157.315 275.881 140.478 258.535 136.853C241.071 133.345 224.08 144.453 220.54 161.641C220.068 163.98 219.832 166.318 219.832 168.54V168.657C219.832 169.007 219.95 169.475 219.95 169.826L222.31 234.135C222.31 241.384 227.502 248.049 235.054 249.569C242.605 251.089 249.921 247.113 252.871 240.332L280.719 182.337Z" fill="#F6C5A5"/>
<path d="M241.898 250.036C254.996 250.036 265.615 239.514 265.615 226.534C265.615 213.555 254.996 203.032 241.898 203.032C228.799 203.032 218.18 213.555 218.18 226.534C218.18 239.514 228.799 250.036 241.898 250.036Z" fill="white"/>
<path d="M223.372 297.625C234.582 297.625 244.965 301.367 253.225 307.681C257.119 310.721 258.653 315.749 257.001 320.426C255.467 325.219 251.101 328.26 246.145 328.26H200.598C195.642 328.26 191.276 325.219 189.742 320.426C188.09 315.749 189.624 310.721 193.518 307.681C201.778 301.367 212.162 297.625 223.372 297.625Z" fill="#FA6C6C"/>
<path d="M211.971 245.756L211.96 244.254C211.907 236.742 215.826 230.625 220.715 230.591L220.77 230.59C225.658 230.556 229.665 236.618 229.718 244.13L229.729 245.632C229.782 253.144 225.862 259.262 220.973 259.296L220.919 259.296C216.03 259.33 212.024 253.268 211.971 245.756Z" fill="#E37878"/>
<path fill-rule="evenodd" clip-rule="evenodd" d="M222.074 272.369L219.124 256.935C218.652 254.012 220.54 251.323 223.372 250.738L228.918 249.686C231.986 249.101 234.818 251.089 235.408 254.012L238.24 269.212C239.066 273.655 236.116 277.981 231.632 278.8C227.266 279.735 222.9 276.812 222.074 272.369Z" fill="#E37878"/>
<path fill-rule="evenodd" clip-rule="evenodd" d="M266.677 242.203L268.093 250.621C269.509 258.689 263.963 266.406 255.703 267.809L237.767 270.732C229.272 272.135 221.012 266.406 219.596 257.987L218.298 250.27C216.174 237.643 224.906 225.482 237.767 223.378L239.537 223.027C252.399 220.922 264.553 229.575 266.677 242.203Z" fill="#E37878"/>
<path fill-rule="evenodd" clip-rule="evenodd" d="M265.025 233.199L266.441 241.501C267.857 249.569 262.193 257.403 254.051 258.689L236.116 261.729C227.502 263.132 219.36 257.403 217.944 248.867L216.646 241.267C214.522 228.522 223.254 216.479 235.998 214.258L237.885 214.024C250.629 211.919 262.901 220.572 265.025 233.199Z" fill="#F6C5A5"/>
<path d="M291.621 327.557H87.6732C86.6957 327.557 85.9033 328.32 85.9033 329.261C85.9033 330.202 86.6957 330.965 87.6732 330.965H291.621C292.599 330.965 293.391 330.202 293.391 329.261C293.391 328.32 292.599 327.557 291.621 327.557Z" fill="#174AA1"/>
<path d="M76.3454 327.557H68.5574C68.4922 327.557 68.4394 328.32 68.4394 329.261C68.4394 330.202 68.4922 330.965 68.5574 330.965H76.3454C76.4106 330.965 76.4634 330.202 76.4634 329.261C76.4634 328.32 76.4106 327.557 76.3454 327.557Z" fill="#174AA1"/>
<path fill-rule="evenodd" clip-rule="evenodd" d="M353.288 120.6C357.89 119.314 362.728 122.121 363.908 126.797C368.628 125.628 373.466 128.434 374.646 132.995C375.826 137.672 372.994 142.465 368.392 143.635L351.4 148.078L346.916 131.124C345.736 126.564 348.568 121.77 353.288 120.6Z" fill="#6EAAFF"/>
<path fill-rule="evenodd" clip-rule="evenodd" d="M343.612 134.047C348.214 132.878 353.052 135.684 354.232 140.361C358.952 139.075 363.79 141.881 364.97 146.558C366.15 151.235 363.318 156.029 358.716 157.198L341.724 161.524L337.24 144.687C336.061 140.127 338.892 135.333 343.612 134.047Z" fill="#8ABBFF"/>
<path d="M336.414 147.376C341.016 146.207 345.854 149.013 347.034 153.573C351.754 152.404 356.592 155.21 357.772 159.887C358.952 164.447 356.12 169.241 351.518 170.527L334.526 174.853L330.042 158.016C328.863 153.339 331.694 148.545 336.414 147.376Z" fill="white"/>
<path d="M54.7516 18.7588C60.0615 18.7588 64.7815 20.8634 68.2034 24.2543H68.3214C71.7434 27.6451 73.8674 32.439 73.8674 37.5837C73.8674 39.2206 73.6314 40.7407 73.1594 42.2607C72.8054 43.6638 72.3334 44.95 71.7434 46.2361L74.2214 55.3563C74.3394 56.1748 73.9854 56.9932 73.1594 57.1102C72.9234 57.2271 72.6874 57.2271 72.4514 57.1102L62.8935 54.6547C61.7135 55.1224 60.5335 55.5901 59.2355 55.9409C57.8195 56.2917 56.2856 56.4086 54.7516 56.4086C49.5596 56.4086 44.8397 54.304 41.2997 50.9131C37.8778 47.5223 35.7538 42.7284 35.7538 37.5837C35.7538 32.439 37.8778 27.6451 41.2997 24.2543H41.4177C44.8397 20.8634 49.5596 18.7588 54.7516 18.7588ZM66.1975 26.242C63.2475 23.4358 59.2355 21.565 54.7516 21.565C50.3856 21.565 46.2557 23.4358 43.4237 26.242C40.4737 29.1651 38.7038 33.1406 38.7038 37.5837C38.7038 42.0268 40.4737 46.0023 43.4237 48.9254C46.2557 51.7316 50.3856 53.6024 54.7516 53.6024C56.0496 53.6024 57.3475 53.3686 58.5275 53.1347C59.8255 52.9009 61.0055 52.4332 62.0675 51.8485C62.4215 51.7316 62.7755 51.6147 63.1295 51.7316L70.7994 53.7193L68.7934 46.47C68.6754 46.1192 68.6754 45.6515 68.9114 45.3007C69.5014 44.1315 70.0914 42.9622 70.4454 41.5591C70.7994 40.3899 70.9174 38.9868 70.9174 37.5837C70.9174 33.1406 69.1474 29.1651 66.1975 26.242Z" fill="white"/>
<path d="M289.569 244.073L323.907 229.341C326.503 228.289 329.335 228.289 331.695 229.224C334.173 230.159 336.297 232.03 337.358 234.602L352.226 268.628C353.406 271.2 353.288 274.006 352.344 276.345C351.4 278.8 349.512 280.788 346.916 281.957L312.579 296.69C309.983 297.859 307.269 297.742 304.791 296.807C302.313 295.871 300.307 294 299.127 291.428L284.259 257.403C283.197 254.831 283.197 252.141 284.141 249.686C285.085 247.23 286.973 245.243 289.569 244.073ZM325.323 232.615L290.985 247.347C289.333 248.166 288.153 249.452 287.563 250.972C286.855 252.609 286.855 254.363 287.563 256L302.431 290.025C303.257 291.662 304.555 292.948 306.089 293.533C307.741 294.117 309.511 294.117 311.163 293.416L345.5 278.683C347.152 277.982 348.45 276.579 349.04 275.059C349.63 273.538 349.63 271.668 348.922 270.031L334.055 236.006C333.347 234.369 331.931 233.199 330.397 232.498C328.863 231.913 326.975 231.913 325.323 232.615Z" fill="white"/>
<path d="M310.809 246.061C315.529 244.074 320.721 244.19 325.087 245.827C329.571 247.581 333.347 250.972 335.353 255.649C337.359 260.326 337.359 265.354 335.589 269.797C333.819 274.24 330.397 277.982 325.677 279.969C320.957 281.957 315.883 281.957 311.399 280.203L311.281 280.086C306.915 278.333 303.257 274.942 301.133 270.382C299.127 265.705 299.245 260.677 300.897 256.234C302.667 251.907 306.089 248.166 310.809 246.061ZM323.789 249.218C320.249 247.815 316.119 247.698 312.343 249.335C308.449 250.972 305.735 254.012 304.319 257.52C302.903 261.145 302.903 265.237 304.555 268.979C306.089 272.72 309.157 275.409 312.697 276.812H312.815C316.355 278.216 320.485 278.333 324.261 276.696C328.037 275.059 330.869 272.019 332.285 268.511C333.583 265.003 333.701 260.911 332.049 257.169C330.397 253.311 327.329 250.621 323.789 249.218Z" fill="white"/>
<path d="M314.467 254.48C316.945 253.427 319.541 253.427 321.783 254.363H321.901C324.025 255.298 325.913 256.935 326.975 259.273C327.919 261.729 327.919 264.184 327.093 266.406L326.975 266.523C326.149 268.744 324.379 270.615 322.019 271.667C319.659 272.603 317.063 272.603 314.821 271.784C312.579 270.849 310.691 269.095 309.629 266.757C308.567 264.418 308.567 261.846 309.511 259.624C310.337 257.403 312.107 255.415 314.467 254.48ZM320.367 257.637C319.069 257.052 317.417 257.052 316.001 257.753C314.467 258.338 313.405 259.507 312.815 260.91C312.343 262.313 312.225 263.834 312.933 265.354C313.523 266.757 314.703 267.926 316.119 268.394C317.535 268.978 319.069 268.978 320.603 268.394C322.019 267.692 323.199 266.523 323.671 265.12C324.261 263.834 324.261 262.197 323.671 260.677C322.963 259.273 321.901 258.221 320.485 257.637H320.367Z" fill="white"/>
<path d="M266.677 153.222C271.5 153.222 275.409 149.349 275.409 144.57C275.409 139.791 271.5 135.917 266.677 135.917C261.855 135.917 257.945 139.791 257.945 144.57C257.945 149.349 261.855 153.222 266.677 153.222Z" fill="#F6C5A5"/>
<path d="M320.603 327.557H312.815C312.75 327.557 312.697 328.32 312.697 329.261C312.697 330.202 312.75 330.965 312.815 330.965H320.603C320.668 330.965 320.721 330.202 320.721 329.261C320.721 328.32 320.668 327.557 320.603 327.557Z" fill="#174AA1"/>
<path fill-rule="evenodd" clip-rule="evenodd" d="M193.518 261.262C192.928 260.677 192.928 259.858 193.4 259.157C193.872 258.572 194.816 258.572 195.406 259.04C195.406 259.04 201.424 264.419 207.56 259.04C208.15 258.572 209.094 258.572 209.566 259.157C210.156 259.742 210.038 260.677 209.448 261.262C201.306 268.277 193.636 261.262 193.518 261.262Z" fill="#5999F1"/>
<path d="M259.445 317.619H189.742C187.2 317.619 185.14 319.661 185.14 322.179V323.091C185.14 325.609 187.2 327.651 189.742 327.651H259.445C261.987 327.651 264.047 325.609 264.047 323.091V322.179C264.047 319.661 261.987 317.619 259.445 317.619Z" fill="white"/>
<path d="M223.372 291.077C230.688 291.077 237.414 293.533 242.841 297.742C245.437 299.73 246.381 302.887 245.319 306.044C244.257 309.084 241.543 311.071 238.239 311.071H208.504C205.2 311.071 202.486 309.084 201.424 306.044C200.362 302.887 201.306 299.73 203.902 297.742C209.33 293.533 216.056 291.077 223.372 291.077Z" fill="white"/>
<path fill-rule="evenodd" clip-rule="evenodd" d="M118.707 143.284V151.703C118.707 159.887 111.863 166.669 103.603 166.669H85.4311C76.6992 166.669 69.6193 159.653 69.6193 151.001V143.284C69.6193 130.422 80.2391 119.899 93.219 119.899H95.107C108.087 119.899 118.707 130.422 118.707 143.284Z" fill="#E37878"/>
<path d="M55.1055 218.818L27.2578 249.803C26.7858 250.387 26.0778 250.504 25.4878 250.153L0.826054 238.461C0.118061 238.11 -0.235935 237.175 0.118061 236.473C0.354059 236.122 0.590056 235.889 0.944053 235.772L53.5715 216.479C54.2795 216.245 55.1055 216.596 55.3415 217.414C55.5775 217.882 55.4595 218.467 55.1055 218.818ZM25.8418 247.113L49.0875 221.156L5.07401 237.292L25.8418 247.113Z" fill="white"/>
<path d="M51.3295 223.027L27.9657 249.101L40.2376 268.277L51.3295 223.027ZM25.1338 247.932L52.8635 216.947C53.2174 216.596 53.8074 216.362 54.3974 216.479C55.1054 216.713 55.5774 217.414 55.4594 218.233L42.2436 272.135C42.1256 272.486 41.8896 272.837 41.6536 273.071C40.9456 273.538 40.0016 273.304 39.6476 272.603L24.8978 249.686C24.6618 249.101 24.6618 248.399 25.1338 247.932Z" fill="white"/>
<path fill-rule="evenodd" clip-rule="evenodd" d="M117.881 159.303V163.512C117.881 167.604 114.459 170.995 110.329 170.995H76.6992C72.3332 170.995 68.7933 167.488 68.7933 163.161V159.303C68.7933 152.872 74.1032 147.61 80.5932 147.61H106.081C112.571 147.61 117.881 152.872 117.881 159.303Z" fill="#F6C5A5"/>
<path d="M68.8173 127.27L69.755 126.332C74.4451 121.646 80.7194 120.277 83.7692 123.274L83.8031 123.307C86.8529 126.304 85.5233 132.532 80.8333 137.219L79.8955 138.156C75.2055 142.842 68.9311 144.211 65.8813 141.215L65.8474 141.181C62.7976 138.184 64.1272 131.956 68.8173 127.27Z" fill="#E37878"/>
<path d="M61.138 131.826L62.3781 131.345C68.5806 128.94 74.8777 130.202 76.4431 134.166L76.4605 134.21C78.026 138.173 74.2669 143.336 68.0645 145.742L66.8243 146.223C60.6219 148.628 54.3248 147.365 52.7593 143.402L52.7419 143.358C51.1765 139.394 54.9355 134.231 61.138 131.826Z" fill="#E37878"/>
<path d="M78.8233 103.88C82.8353 100.022 89.3252 100.022 93.3371 103.88C97.3491 100.022 103.839 100.022 107.851 103.88C111.863 107.856 111.863 114.404 107.851 118.262L93.3371 132.644L78.8233 118.262C74.8113 114.404 74.8113 107.856 78.8233 103.88Z" fill="#E41F2D"/>
<path fill-rule="evenodd" clip-rule="evenodd" d="M180.302 48.3411H192.81C194.226 48.3411 195.288 48.8088 196.114 49.8611C196.94 50.9134 197.176 52.0827 196.94 53.3688L195.406 59.7997C194.934 61.6705 193.282 62.9567 191.276 62.9567H182.308C180.42 62.9567 178.886 61.7874 178.296 60.0335L176.408 53.6027C175.936 52.3165 176.172 51.0303 176.998 49.978C177.824 48.9257 179.004 48.3411 180.302 48.3411Z" fill="#1D1D1D"/>
<path fill-rule="evenodd" clip-rule="evenodd" d="M193.046 48.3411H211.454C211.572 48.3411 211.69 48.3411 211.808 48.3411C212.162 48.3411 212.516 48.458 212.87 48.6918L217.472 51.3811C218.652 52.0827 219.006 53.4858 218.298 54.655C217.59 55.8243 216.174 56.175 214.994 55.4735L210.982 53.0181H193.046C191.748 53.0181 190.686 51.9657 190.686 50.6796C190.686 49.3934 191.748 48.3411 193.046 48.3411Z" fill="#1D1D1D"/>
<path fill-rule="evenodd" clip-rule="evenodd" d="M210.038 47.5225H212.87C215.584 47.5225 217.826 49.744 217.708 52.5502L217.354 58.5134C217.236 61.3196 214.758 63.6581 211.808 63.6581H209.212C204.846 63.6581 201.542 60.1503 201.66 55.8241L201.778 55.3564C201.896 51.0302 205.672 47.5225 210.038 47.5225Z" fill="#F6C5A5"/>
<path fill-rule="evenodd" clip-rule="evenodd" d="M212.162 52.3161C212.634 52.7838 212.516 53.4854 212.162 53.8361L209.684 56.1746L211.926 58.3962C212.28 58.8639 212.28 59.5654 211.808 60.0331C211.336 60.3839 210.628 60.3839 210.274 60.0331L207.324 56.9931C207.088 56.7592 207.088 56.4085 207.088 56.1746C207.088 55.8238 207.206 55.59 207.442 55.3562L210.628 52.3161C211.1 51.8484 211.808 51.8484 212.162 52.3161Z" fill="#E37878"/>
<path d="M163.891 55.3432C163.831 55.078 163.437 54.863 163.012 54.863C162.586 54.863 162.29 55.078 162.35 55.3432L163.415 60.0199C163.475 60.285 163.869 60.5 164.295 60.5C164.72 60.5 165.016 60.285 164.956 60.0199L163.891 55.3432Z" fill="white"/>
<path d="M163.132 52.0071C163.112 51.9216 162.752 51.8523 162.326 51.8523C161.901 51.8523 161.572 51.9216 161.591 52.0071L161.934 53.5149C161.954 53.6004 162.314 53.6697 162.74 53.6697C163.165 53.6697 163.495 53.6004 163.475 53.5149L163.132 52.0071Z" fill="white"/>
<path d="M183.635 55.3432C183.575 55.078 183.181 54.863 182.755 54.863C182.33 54.863 182.034 55.078 182.094 55.3432L183.158 60.0199C183.219 60.285 183.613 60.5 184.038 60.5C184.464 60.5 184.76 60.285 184.699 60.0199L183.635 55.3432Z" fill="white"/>
<path d="M182.877 52.0071C182.857 51.9216 182.496 51.8523 182.071 51.8523C181.645 51.8523 181.316 51.9216 181.336 52.0071L181.679 53.5149C181.698 53.6004 182.059 53.6697 182.485 53.6697C182.91 53.6697 183.239 53.6004 183.22 53.5149L182.877 52.0071Z" fill="white"/>
<path fill-rule="evenodd" clip-rule="evenodd" d="M137.233 181.402H140.773C138.531 181.402 136.879 183.155 136.879 185.26V203.15C136.879 205.371 138.531 207.008 140.773 207.008H137.233C135.109 207.008 133.339 205.371 133.339 203.15V185.26C133.339 183.155 135.109 181.402 137.233 181.402Z" fill="#174AA1"/>
</svg>
