<svg width="100" height="126" viewBox="0 0 100 126" fill="none" xmlns="http://www.w3.org/2000/svg">
<g clip-path="url(#clip0)">
<path d="M90.0383 57.859L90.0383 48.6825C90.0383 37.4168 83.0585 28.2842 74.4486 28.2842L74.1478 28.2842C65.5379 28.2842 58.5581 37.4168 58.5581 48.6825L58.5581 57.859C58.5581 69.1246 65.5379 78.2573 74.1478 78.2573L74.4486 78.2573C83.0585 78.2573 90.0383 69.1246 90.0383 57.859Z" fill="#174AA1"/>
<path d="M68.3117 24.512H58.8312V83.7391H68.3117V24.512Z" fill="#2661C6"/>
<path d="M86.3019 59.6123L86.3019 48.7295C86.3019 35.3691 78.0244 24.5383 67.8134 24.5383L67.4568 24.5383C57.2459 24.5383 48.9683 35.3691 48.9683 48.7295L48.9683 59.6123C48.9683 72.9727 57.2459 83.8034 67.4568 83.8034L67.8134 83.8034C78.0244 83.8034 86.3019 72.9727 86.3019 59.6123Z" fill="#2661C6"/>
<path fill-rule="evenodd" clip-rule="evenodd" d="M31.3636 28.6277H45.1299C45.6494 28.6277 46.1039 29.0778 46.1039 29.5923V30.4283C46.1039 30.9428 45.6494 31.3929 45.1299 31.3929H36.4286C28.5714 31.3929 22.0779 37.7593 22.0779 45.6048C22.0779 53.4503 28.5714 59.8168 36.4286 59.8168H45.1299C45.6494 59.8168 46.1039 60.2669 46.1039 60.7814V61.6174C46.1039 62.1318 45.6494 62.582 45.1299 62.582H31.3636C21.9481 62.582 14.2208 54.9294 14.2208 45.6048C14.2208 36.2803 21.9481 28.6277 31.3636 28.6277Z" fill="#2661C6"/>
<path d="M77.5188 59.6123L77.5188 48.7295C77.5188 35.3691 69.2412 24.5383 59.0303 24.5383L58.6737 24.5383C48.4628 24.5383 40.1852 35.3691 40.1852 48.7295L40.1852 59.6123C40.1852 72.9727 48.4628 83.8034 58.6737 83.8034L59.0303 83.8034C69.2412 83.8034 77.5188 72.9727 77.5188 59.6123Z" fill="#174AA1"/>
<path fill-rule="evenodd" clip-rule="evenodd" d="M21.7532 69.5916H46.1688L52.5325 111.713C54.5454 113.063 56.039 115.186 56.2987 117.629C56.7532 121.616 53.8312 124.832 49.8052 124.832H43.4416C43.1818 124.832 42.987 124.896 42.7922 124.896H24.7403C22.7273 124.896 20.9091 123.674 20.0649 121.809C19.2208 119.944 19.6104 117.951 21.039 116.729C23.0519 115.057 25.5195 113.835 28.3117 113.192L21.7532 69.5916Z" fill="#174AA1"/>
<path d="M58.5832 69.5691H34.1559L49.156 123.129H73.5833L58.5832 69.5691Z" fill="#2661C6"/>
<path d="M25.9091 62.5178L30.9091 44.1258C33.1818 35.7016 41.9481 30.6856 50.4546 32.9363C58.9611 35.1871 64.026 43.8686 61.7533 52.2929L57.0779 69.5916H25.6494C25.1948 67.2765 25.2598 64.8971 25.9091 62.5178Z" fill="white"/>
<path d="M60.1299 65.7974H21.5584C20.5543 65.7974 19.7403 66.6035 19.7403 67.598V76.0866C19.7403 77.081 20.5543 77.8872 21.5584 77.8872H60.1299C61.134 77.8872 61.9481 77.081 61.9481 76.0866V67.598C61.9481 66.6035 61.134 65.7974 60.1299 65.7974Z" fill="#174AA1"/>
<path fill-rule="evenodd" clip-rule="evenodd" d="M43.3766 16.2808L37.013 34.8013H57.1428V15.9592L43.3766 16.2808Z" fill="#E37878"/>
<path fill-rule="evenodd" clip-rule="evenodd" d="M33.3117 10.6216C34.5455 12.2293 39.1558 17.1167 46.3636 12.5509C46.5584 12.4223 46.8182 12.4223 47.013 12.4866C47.2727 12.5509 47.4026 12.7438 47.4675 12.9367C47.7922 14.0942 48.7662 15.5733 51.8182 15.5733C52.2078 15.5733 52.4675 15.3161 52.5974 14.9302C53.1818 12.8724 54.7403 5.79859 48.6364 8.11366C48.3766 8.17797 48.1169 8.17797 47.9221 7.98504C46.2987 6.89182 39.026 2.51892 33.3117 9.65704C33.1169 9.97857 33.1169 10.3644 33.3117 10.6216Z" fill="#FF8984"/>
<path fill-rule="evenodd" clip-rule="evenodd" d="M46.4935 6.63452H49.6104C52.6623 6.63452 55 9.0782 54.8701 12.0363L54.4805 19.9462C54.3507 23.0972 51.6234 25.6695 48.4416 25.6695H45.5844C40.8442 25.6695 37.2078 21.8111 37.4026 17.1166L37.4675 15.1231C37.7273 10.4287 41.7533 6.63452 46.4935 6.63452Z" fill="#E37878"/>
<path fill-rule="evenodd" clip-rule="evenodd" d="M41.2338 15.123H41.4935C41.7532 15.123 41.9481 15.316 41.9481 15.5732V16.2163C41.8831 16.5378 41.6883 16.7307 41.4286 16.7307H41.1688C40.7792 16.7307 40.4545 16.4092 40.4545 16.0233V15.8304C40.5195 15.4446 40.8442 15.123 41.2338 15.123Z" fill="#1D1D1D"/>
<path fill-rule="evenodd" clip-rule="evenodd" d="M40.1948 14.4157L40.974 14.5443C41.5584 14.6086 42.013 14.9944 42.2078 15.5089C42.2727 15.6375 42.2727 15.7661 42.1428 15.8947C42.0779 15.959 41.8831 16.0233 41.7532 15.8947C41.5584 15.8304 41.3636 15.7661 41.1688 15.7018L40 15.5732C39.5454 15.5089 39.0909 15.5732 38.7662 15.7018C38.6363 15.7661 38.4415 15.7661 38.3117 15.5732C38.2467 15.4446 38.2467 15.316 38.3117 15.1873C38.7662 14.6086 39.4156 14.3513 40.1948 14.4157Z" fill="#FFE084"/>
<path fill-rule="evenodd" clip-rule="evenodd" d="M46.5584 6.63452H49.6753C52.6623 6.63452 55.0649 9.0782 54.9351 12.1007L54.5454 20.0105C54.3506 23.1615 51.6883 25.7338 48.5065 25.7338H45.6493C45.0649 25.7338 44.4805 25.6695 43.8961 25.5409C41.7532 24.2548 43.961 22.4541 43.961 22.4541L43.1818 19.6246C43.1169 19.3674 43.1818 19.1102 43.3117 18.8529L43.4416 18.5957L41.948 18.1455C41.4286 18.0169 41.1039 17.4382 41.2338 16.8594L43.1818 10.7502C43.1818 10.6216 43.1818 10.5573 43.2467 10.493C44.0909 8.88528 44.9351 7.59913 45.7143 6.63452C45.974 6.63452 46.2338 6.63452 46.5584 6.63452Z" fill="#F6C5A5"/>
<path fill-rule="evenodd" clip-rule="evenodd" d="M46.5584 6.63452H49.6753C52.6623 6.63452 55.0649 9.0782 54.9351 12.1007L54.6753 16.7951C51.5584 15.9591 50.7792 13.9656 50.6493 12.5508C50.6493 12.2293 50.4545 11.972 50.1299 11.7791C49.8701 11.6505 49.5454 11.6505 49.2208 11.7791C46.5584 13.001 44.2857 13.4511 42.3376 13.3868L43.1818 10.7502C43.1818 10.6216 43.1818 10.5573 43.2467 10.493C44.0909 8.88528 44.9351 7.59913 45.7143 6.63452C45.974 6.63452 46.2338 6.63452 46.5584 6.63452Z" fill="#E37878"/>
<path fill-rule="evenodd" clip-rule="evenodd" d="M31.9481 5.2841C33.2468 7.79209 38.3117 15.7019 49.2208 11.0718C49.5455 10.9432 49.8701 10.9432 50.1948 11.1361C50.5195 11.329 50.6494 11.5862 50.7143 11.9078C50.8442 13.5155 51.7533 15.8948 55.974 16.5379C56.4935 16.6022 56.9481 16.345 57.1429 15.8948C58.5065 13.1296 62.3377 3.74073 53.4416 5.41272C53.052 5.47703 52.7273 5.41272 52.4675 5.15549C50.5844 3.22627 41.7533 -4.68354 32.2078 3.99796C31.8182 4.31949 31.6883 4.83395 31.9481 5.2841Z" fill="#FFE084"/>
<path fill-rule="evenodd" clip-rule="evenodd" d="M47.9221 15.123H47.6623C47.4026 15.123 47.1429 15.316 47.1429 15.5732V16.2163C47.0779 16.5378 47.3377 16.7307 47.5974 16.7307H47.7922C48.2468 16.7307 48.5714 16.4092 48.5714 16.0233V15.8304C48.6364 15.4446 48.3117 15.123 47.9221 15.123Z" fill="#1D1D1D"/>
<path fill-rule="evenodd" clip-rule="evenodd" d="M47.5325 12.8081H46.7532C46.1688 12.8081 45.6493 13.1296 45.3896 13.5798C45.3247 13.7084 45.3896 13.9013 45.4545 13.9656C45.5195 14.0943 45.7143 14.1586 45.8441 14.0943C46.0389 14.0299 46.2338 13.9656 46.4286 13.9656H47.6623C48.0519 13.9656 48.5065 14.0943 48.8312 14.2872C48.961 14.3515 49.1558 14.3515 49.2857 14.2229C49.4156 14.0943 49.4156 13.9013 49.3506 13.7727C48.961 13.1939 48.3117 12.8081 47.5325 12.8081Z" fill="#FFE084"/>
<path fill-rule="evenodd" clip-rule="evenodd" d="M49.6104 20.6536C48.3766 21.8111 46.7533 22.5185 45.0649 22.5185C43.3117 22.5185 41.7533 21.8111 40.6494 20.6536C40.3247 20.332 40.2598 19.7533 40.5844 19.3674C40.8442 18.9173 41.3637 18.7243 41.8182 18.9173C42.8572 19.1745 43.9611 19.3674 45.1948 19.3674C46.3636 19.3674 47.5325 19.1745 48.5714 18.9173C49.0909 18.7243 49.5455 18.9173 49.8052 19.3674C50.0649 19.7533 49.9351 20.332 49.6104 20.6536Z" fill="#A45959"/>
<path d="M48.8961 21.2323C47.7922 22.004 46.4935 22.5185 45.0649 22.5185C43.7013 22.5185 42.4675 22.0683 41.4935 21.3609C42.6623 20.7179 43.961 20.332 45.3896 20.332C46.6883 20.332 47.8571 20.6536 48.8961 21.2323Z" fill="white"/>
<path d="M40.8442 19.1102C41.1039 18.853 41.4935 18.7887 41.8182 18.9173C42.8571 19.1745 43.961 19.3674 45.1948 19.3674C46.3636 19.3674 47.5325 19.1745 48.5714 18.9173C49.0909 18.7243 49.5455 18.9173 49.8052 19.3674C48.6364 20.4606 47.0779 21.1037 45.3247 21.1037C43.5714 21.1037 42.0779 20.4606 40.974 19.3031C40.9091 19.2388 40.8442 19.1745 40.8442 19.1102Z" fill="white"/>
<path fill-rule="evenodd" clip-rule="evenodd" d="M39.1559 4.83384C40.1299 6.63445 43.8312 12.4864 51.8182 9.07813C52.0779 9.01382 52.3377 9.01382 52.5325 9.14243C52.7922 9.27105 52.9221 9.46397 52.9221 9.7212C52.987 10.8787 53.7013 12.615 56.8182 13.1295C57.1429 13.1295 57.5325 13.0009 57.6623 12.615C58.6364 10.6215 61.4935 3.6763 54.9351 4.89815C54.6753 4.96245 54.4156 4.89815 54.2208 4.70522C52.8571 3.29046 46.3636 -2.4329 39.3507 3.86923C39.0909 4.12646 38.961 4.5123 39.1559 4.83384Z" fill="#FFF3CF"/>
<path fill-rule="evenodd" clip-rule="evenodd" d="M56.1039 13.7083H57.2078C58.3117 13.7083 59.1559 14.6086 59.0909 15.7018L59.026 18.0812C58.9611 19.2387 57.987 20.139 56.8182 20.139H55.7792C54.026 20.139 52.7273 18.7242 52.7922 17.0522V16.8593C52.8572 15.123 54.3507 13.7083 56.1039 13.7083Z" fill="#F6C5A5"/>
<path fill-rule="evenodd" clip-rule="evenodd" d="M56.948 15.6375C57.0779 15.8304 57.0779 16.0876 56.948 16.2806L55.974 17.1809L56.8182 18.0812C57.013 18.2098 57.013 18.5313 56.8182 18.6599C56.6234 18.8528 56.3636 18.8528 56.1688 18.6599L55 17.5024C54.9351 17.3738 54.9351 17.3095 54.9351 17.1809C54.9351 17.0522 54.9351 16.9236 55.0649 16.8593L56.2987 15.6375C56.4935 15.5089 56.7532 15.5089 56.948 15.6375Z" fill="#E37878"/>
<path fill-rule="evenodd" clip-rule="evenodd" d="M57.2727 15.316L60.9091 9.33545L61.4286 9.65699C61.6883 9.7856 61.8182 10.1714 61.7533 10.493L60.6494 14.2228C60.6494 14.2871 60.5844 14.3514 60.5844 14.4157L59.2857 16.4736C59.0909 16.7951 58.5714 16.988 58.2468 16.7308L57.5325 16.345C57.2078 16.152 57.0779 15.7019 57.2727 15.316Z" fill="#174AA1"/>
<path fill-rule="evenodd" clip-rule="evenodd" d="M58.5714 14.7373L60.3247 11.8435L60.5844 11.9721C60.7143 12.0364 60.7792 12.2294 60.7143 12.4223L60.1948 14.2229C60.1948 14.2229 60.1948 14.2872 60.1299 14.2872L59.5455 15.3161C59.4156 15.509 59.2208 15.5733 59.026 15.4447L58.7013 15.2518C58.5065 15.1875 58.4416 14.9303 58.5714 14.7373Z" fill="#3E81EC"/>
<path fill-rule="evenodd" clip-rule="evenodd" d="M56.8831 14.866H57.5325C58.1169 14.866 58.6364 15.3804 58.5714 16.0235L58.5065 17.374C58.5065 18.017 57.9221 18.5315 57.2727 18.5315H56.6883C55.7143 18.5315 54.9351 17.7598 54.9351 16.7952L55 16.6666C55 15.6377 55.8441 14.866 56.8831 14.866Z" fill="#174AA1"/>
<path fill-rule="evenodd" clip-rule="evenodd" d="M57.4675 15.7019H57.9221C58.3117 15.7019 58.6363 16.0234 58.6363 16.4736L58.5714 17.3739C58.5714 17.824 58.1818 18.2099 57.7273 18.2099H57.3377C56.6883 18.2099 56.1688 17.6311 56.1688 16.9881V16.9237C56.2338 16.2164 56.8182 15.7019 57.4675 15.7019Z" fill="#3E81EC"/>
<path fill-rule="evenodd" clip-rule="evenodd" d="M57.8571 16.1521H58.1169C58.3766 16.1521 58.5714 16.4093 58.5714 16.6666V17.181C58.5714 17.5026 58.3117 17.6955 58.052 17.6955H57.7922C57.4026 17.6955 57.0779 17.3739 57.0779 16.9881V16.9238C57.0779 16.5379 57.4675 16.1521 57.8571 16.1521Z" fill="#81BCFF"/>
<path d="M48.3766 29.2708H38.7013C26.2211 29.2708 16.1039 36.8573 16.1039 46.2157C16.1039 55.5742 26.2211 63.1607 38.7013 63.1607H48.3766C60.8568 63.1607 70.974 55.5742 70.974 46.2157C70.974 36.8573 60.8568 29.2708 48.3766 29.2708Z" fill="white"/>
<path fill-rule="evenodd" clip-rule="evenodd" d="M29.2857 34.0295H30.3896H32.0779H33.6364C34.1558 34.0295 34.4805 34.4797 34.3506 35.0585C34.1558 35.6372 33.5065 36.0874 32.9221 36.0874H31.4286H29.7403H28.6364C27.7922 36.0874 26.8831 36.4732 26.1039 37.052C25.3247 37.5664 24.7403 38.4024 24.4156 39.2384C24.1558 40.1387 24.2857 40.9104 24.6753 41.4892C25.0649 42.068 25.7792 42.4538 26.6234 42.4538H27.7273H29.4156H30.9091C31.4935 42.4538 31.8182 42.904 31.6234 43.4827C31.4935 43.9972 30.8442 44.5116 30.2597 44.5116H28.7662H27.0779H25.974C24.5455 44.5116 23.3766 43.8686 22.7273 42.9683C22.0779 42.0037 21.8831 40.7175 22.3377 39.2384C22.7922 37.8237 23.8312 36.5375 25.0649 35.5729C26.3636 34.6083 27.8571 34.0295 29.2857 34.0295Z" fill="#5999F1"/>
<path fill-rule="evenodd" clip-rule="evenodd" d="M32.4675 38.1453H31.3636H29.6753H28.1169C27.5325 38.1453 26.9481 38.6597 26.7533 39.1742C26.5585 39.7529 26.8831 40.2031 27.4675 40.2031H29.026H30.7143H31.7533C32.6623 40.2031 33.3117 40.5889 33.7662 41.1677C34.1559 41.7465 34.2208 42.5182 33.961 43.4185C33.7013 44.2545 33.052 45.0905 32.3377 45.6049C31.5585 46.1837 30.6494 46.5695 29.7403 46.5695H28.7013H27.013H25.4546C24.8701 46.5695 24.2857 47.0197 24.0909 47.5985C23.8961 48.1772 24.2208 48.6274 24.8052 48.6274H26.3636H28.052H29.0909C30.5844 48.6274 32.0779 48.0486 33.3117 47.084C34.6104 46.1194 35.5844 44.8332 36.039 43.4185C36.4935 41.9394 36.3636 40.6533 35.6494 39.6886C35 38.724 33.8961 38.1453 32.4675 38.1453Z" fill="#5999F1"/>
<path d="M38.2467 64.7686H24.2208C23.8621 64.7686 23.5714 65.7187 23.5714 66.8907V76.7297C23.5714 77.9018 23.8621 78.8519 24.2208 78.8519H38.2467C38.6054 78.8519 38.8961 77.9018 38.8961 76.7297V66.8907C38.8961 65.7187 38.6054 64.7686 38.2467 64.7686Z" fill="#2661C6"/>
<path fill-rule="evenodd" clip-rule="evenodd" d="M42.5325 64.7686H44.8701C46.039 64.7686 47.013 65.7332 47.013 66.8907V76.7297C47.013 77.8873 46.039 78.8519 44.8701 78.8519H42.5325C43.7013 78.8519 44.6753 77.8873 44.6753 76.7297V66.8907C44.6753 65.7332 43.7013 64.7686 42.5325 64.7686Z" fill="#2661C6"/>
<path d="M15.0219 45.301C14.2173 47.1635 12.528 48.2339 11.2486 47.6919C9.96931 47.1499 9.58446 45.2006 10.3891 43.3381L10.7747 42.4455C11.5793 40.583 13.2686 39.5125 14.548 40.0546C15.8273 40.5966 16.2121 42.5459 15.4075 44.4084L15.0219 45.301Z" fill="#E37878"/>
<path d="M8.80766 44.8748L8.35679 45.2131C5.90821 47.0498 4.8887 49.8011 6.07966 51.3583C7.27063 52.9154 10.2211 52.6887 12.6697 50.8519L13.1205 50.5137C15.5691 48.6769 16.5886 45.9256 15.3977 44.3685C14.2067 42.8114 11.2562 43.0381 8.80766 44.8748Z" fill="#E37878"/>
<path d="M15.7547 33.708H15.7143C14.1005 33.708 12.7922 35.0036 12.7922 36.6018V49.4791C12.7922 51.0774 14.1005 52.373 15.7143 52.373H15.7547C17.3686 52.373 18.6768 51.0774 18.6768 49.4791V36.6018C18.6768 35.0036 17.3686 33.708 15.7547 33.708Z" fill="#174AA1"/>
<path d="M17.013 24.5762V35.7014C17.013 36.3445 16.4286 36.9232 15.7792 36.9232C15.0649 36.9232 14.4805 36.3445 14.4805 35.7014V24.5762L13.1169 22.1968L14.4156 17.3738H15.7792H17.0779L18.3766 22.1968L17.013 24.5762Z" fill="#E2E2F8"/>
<path fill-rule="evenodd" clip-rule="evenodd" d="M19.8701 41.5535L14.1558 44.383C13.1169 44.9618 12.7273 46.1836 13.2468 47.2125L14.2857 49.2704C14.8052 50.3636 16.1688 50.8137 17.2078 50.235L22.8571 47.4054C24.4805 46.5695 25.1299 44.5759 24.3506 42.9682C23.5065 41.3606 21.4935 40.7175 19.8701 41.5535Z" fill="#E37878"/>
<path fill-rule="evenodd" clip-rule="evenodd" d="M21.1039 63.0322L24.1558 61.4245C27.1429 59.8812 28.2468 56.2156 26.6883 53.3218L23.2468 46.891C21.5584 43.8686 17.7273 42.6468 14.6104 44.3187L11.8182 45.7978C7.2078 48.1772 5.45455 53.9649 7.92208 58.5307L8.24676 59.1738C10.7143 63.7396 16.4935 65.4759 21.1039 63.0322Z" fill="#E37878"/>
<path fill-rule="evenodd" clip-rule="evenodd" d="M17.7922 64.7685L20.8442 63.1608C23.7662 61.6175 24.9351 57.9519 23.3117 54.9938L19.8701 48.563C18.2468 45.5406 14.3506 44.3831 11.2987 45.9907L8.50649 47.4698C3.8961 49.9135 2.14286 55.6369 4.61039 60.2027L4.93507 60.8458C7.4026 65.4116 13.1818 67.1479 17.7922 64.7685Z" fill="#F6C5A5"/>
<path d="M56.9462 27.6631H38.1818C37.3211 27.6631 36.6234 28.3513 36.6234 29.2002C36.6234 30.0492 37.3211 30.7374 38.1818 30.7374H56.9462C57.8069 30.7374 58.5046 30.0492 58.5046 29.2002C58.5046 28.3513 57.8069 27.6631 56.9462 27.6631Z" fill="white"/>
<path fill-rule="evenodd" clip-rule="evenodd" d="M54.5454 28.6277H68.3117C68.8312 28.6277 69.2857 29.0778 69.2857 29.5923V30.4283C69.2857 30.9428 68.8312 31.3929 68.3117 31.3929H59.6104C51.6883 31.3929 45.2597 37.7593 45.2597 45.6048C45.2597 53.4503 51.6883 59.8168 59.6104 59.8168H68.3117C68.8312 59.8168 69.2857 60.2669 69.2857 60.7814V61.6174C69.2857 62.1318 68.8312 62.582 68.3117 62.582H54.5454C45.0649 62.582 37.4026 54.9294 37.4026 45.6048C37.4026 36.2803 45.0649 28.6277 54.5454 28.6277Z" fill="#2661C6"/>
<path d="M53.3117 35.8037L53.0443 36.0017C48.1391 39.6342 48.0729 47.7575 52.8964 54.1458L58.9066 62.1055C63.7301 68.4938 71.6168 70.7277 76.522 67.0953L76.7893 66.8973C81.6945 63.2648 81.7607 55.1414 76.9372 48.7532L70.927 40.7934C66.1035 34.4052 58.2168 32.1712 53.3117 35.8037Z" fill="#F6C5A5"/>
<path fill-rule="evenodd" clip-rule="evenodd" d="M64.0909 67.5981C62.8571 66.8907 61.8182 65.9261 60.9091 64.7686L50.9091 51.5213C47.4026 46.8911 48.1169 40.4604 52.2727 36.6663C53.5065 37.3736 54.5454 38.3383 55.4545 39.4958L65.4545 52.7431C68.961 57.3732 68.2467 63.804 64.0909 67.5981Z" fill="#E37878"/>
<path fill-rule="evenodd" clip-rule="evenodd" d="M52.8571 64.7686H55.1948C56.3636 64.7686 57.3377 65.7332 57.3377 66.8907V76.7297C57.3377 77.8873 56.3636 78.8519 55.1948 78.8519H52.8571C54.026 78.8519 55 77.8873 55 76.7297V66.8907C55 65.7332 54.026 64.7686 52.8571 64.7686Z" fill="#2661C6"/>
<path fill-rule="evenodd" clip-rule="evenodd" d="M84.0909 67.0835C84.1558 66.9549 84.2857 66.8263 84.3506 66.6334C84.7403 65.7974 85 64.8971 85.1948 63.9968C86.6234 57.1802 82.2078 50.4922 75.3247 49.0775C68.3766 47.6627 61.6883 52.0999 60.2597 58.9165C60.0649 59.8168 60 60.7171 60 61.6174V61.6817C60 61.8746 60 62.0033 60 62.1962L60.974 87.5976C60.974 90.4914 63.0519 93.128 65.974 93.7068C68.961 94.3499 71.8831 92.7422 73.0519 90.1056L84.0909 67.0835Z" fill="#F6C5A5"/>
<path d="M68.7013 93.9641C73.9014 93.9641 78.1169 89.7893 78.1169 84.6395C78.1169 79.4897 73.9014 75.3149 68.7013 75.3149C63.5012 75.3149 59.2857 79.4897 59.2857 84.6395C59.2857 89.7893 63.5012 93.9641 68.7013 93.9641Z" fill="white"/>
<path d="M61.3636 112.806C65.8441 112.806 69.9351 114.285 73.1818 116.729C74.7402 117.951 75.3896 119.944 74.7402 121.809C74.0909 123.674 72.4026 124.896 70.3896 124.896H52.3377C50.3896 124.896 48.7013 123.674 48.0519 121.809C47.4026 119.944 47.987 117.951 49.5455 116.729C52.8571 114.285 56.948 112.806 61.3636 112.806Z" fill="#FA6C6C"/>
<path d="M56.8634 92.2039L56.8595 91.6532C56.8383 88.6622 58.3932 86.2266 60.3325 86.2131C62.2719 86.1996 63.8613 88.6132 63.8825 91.6042L63.8864 92.1549C63.9077 95.1459 62.3528 97.5815 60.4134 97.595C58.4741 97.6085 56.8847 95.1948 56.8634 92.2039Z" fill="#E37878"/>
<path fill-rule="evenodd" clip-rule="evenodd" d="M60.8442 102.774L59.7403 96.6006C59.4805 95.5074 60.2597 94.4142 61.3636 94.2213L63.5714 93.7711C64.8052 93.5139 65.9091 94.2856 66.1688 95.5074L67.2727 101.552C67.5974 103.289 66.4286 104.961 64.6753 105.346C62.9221 105.668 61.1688 104.51 60.8442 102.774Z" fill="#E37878"/>
<path fill-rule="evenodd" clip-rule="evenodd" d="M78.5714 90.813L79.0909 94.0927C79.6753 97.3081 77.4675 100.395 74.2208 100.909L67.0779 102.131C63.7013 102.71 60.4545 100.395 59.8701 97.0509L59.4156 94.0284C58.5714 89.0124 62.013 84.1894 67.0779 83.3534L67.7922 83.2248C72.8571 82.3888 77.7273 85.7971 78.5714 90.813Z" fill="#E37878"/>
<path fill-rule="evenodd" clip-rule="evenodd" d="M77.9221 87.2762L78.4416 90.5559C78.961 93.7713 76.7532 96.7937 73.5714 97.3725L66.4286 98.53C63.0519 99.1088 59.8052 96.7937 59.2208 93.4497L58.7013 90.4273C57.8571 85.4113 61.2987 80.5882 66.4286 79.7522L67.1429 79.6236C72.2078 78.7876 77.013 82.1959 77.9221 87.2762Z" fill="#F6C5A5"/>
<path d="M88.4598 124.639H7.53247C7.17384 124.639 6.88312 124.927 6.88312 125.282V125.345C6.88312 125.7 7.17384 125.988 7.53247 125.988H88.4598C88.8184 125.988 89.1091 125.7 89.1091 125.345V125.282C89.1091 124.927 88.8184 124.639 88.4598 124.639Z" fill="#174AA1"/>
<path d="M2.53051 124.639H0.649351C0.290724 124.639 0 124.927 0 125.282V125.345C0 125.7 0.290724 125.988 0.649351 125.988H2.53051C2.88913 125.988 3.17986 125.7 3.17986 125.345V125.282C3.17986 124.927 2.88913 124.639 2.53051 124.639Z" fill="#174AA1"/>
<path d="M78.5714 55.5725C80.4721 55.5725 82.013 54.0465 82.013 52.1642C82.013 50.2818 80.4721 48.7559 78.5714 48.7559C76.6707 48.7559 75.1299 50.2818 75.1299 52.1642C75.1299 54.0465 76.6707 55.5725 78.5714 55.5725Z" fill="#F6C5A5"/>
<path d="M99.3487 124.639H97.4675C97.1089 124.639 96.8182 124.927 96.8182 125.282V125.345C96.8182 125.7 97.1089 125.988 97.4675 125.988H99.3487C99.7073 125.988 99.998 125.7 99.998 125.345V125.282C99.998 124.927 99.7073 124.639 99.3487 124.639Z" fill="#174AA1"/>
<path fill-rule="evenodd" clip-rule="evenodd" d="M49.5455 98.337C49.3507 98.1441 49.2857 97.7583 49.4805 97.5653C49.7403 97.3081 50.0649 97.3081 50.3247 97.501C50.3247 97.501 52.6623 99.6232 55.1299 97.501C55.3896 97.3081 55.7143 97.3081 55.9091 97.5653C56.1688 97.7583 56.1039 98.1441 55.9091 98.337C52.6623 101.167 49.5455 98.337 49.5455 98.337Z" fill="#5999F1"/>
<path d="M75.6859 120.652H48.0519C47.0478 120.652 46.2338 121.458 46.2338 122.452V122.824C46.2338 123.819 47.0478 124.625 48.0519 124.625H75.6859C76.6901 124.625 77.5041 123.819 77.5041 122.824V122.452C77.5041 121.458 76.6901 120.652 75.6859 120.652Z" fill="white"/>
<path d="M61.3636 110.169C64.2857 110.169 66.9481 111.134 69.0909 112.806C70.1299 113.578 70.5195 114.864 70.0649 116.086C69.6753 117.308 68.5714 118.079 67.2727 118.079H55.5195C54.2208 118.079 53.1169 117.308 52.6623 116.086C52.2727 114.864 52.6623 113.578 53.7013 112.806C55.7792 111.134 58.5065 110.169 61.3636 110.169Z" fill="white"/>
<path fill-rule="evenodd" clip-rule="evenodd" d="M26.9481 66.762H28.3766C27.5325 66.762 26.8182 67.405 26.8182 68.3053V75.3792C26.8182 76.2152 27.5325 76.9225 28.3766 76.9225H26.9481C26.1039 76.9225 25.3896 76.2152 25.3896 75.3792V68.3053C25.3896 67.405 26.1039 66.762 26.9481 66.762Z" fill="#174AA1"/>
</g>
<defs>
<clipPath id="clip0">
<rect width="100" height="126" fill="white"/>
</clipPath>
</defs>
</svg>
