<?xml version="1.0" encoding="UTF-8"?>
<!DOCTYPE svg PUBLIC "-//W3C//DTD SVG 1.1//EN" "http://www.w3.org/Graphics/SVG/1.1/DTD/svg11.dtd">
<!-- Creator: CorelDRAW X7 -->
<svg xmlns="http://www.w3.org/2000/svg" xml:space="preserve" width="226.944mm" height="182.916mm" version="1.1" style="shape-rendering:geometricPrecision; text-rendering:geometricPrecision; image-rendering:optimizeQuality; fill-rule:evenodd; clip-rule:evenodd"
viewBox="0 0 2620 2112"
 xmlns:xlink="http://www.w3.org/1999/xlink">
 <defs>
  <style type="text/css">
   <![CDATA[
    .fil4 {fill:#174AA1}
    .fil1 {fill:#1D1D1D}
    .fil8 {fill:#2661C6}
    .fil5 {fill:#2F69CC}
    .fil16 {fill:#4D4D4D}
    .fil2 {fill:#5999F1}
    .fil21 {fill:#66A2F7}
    .fil24 {fill:#6EAAFF}
    .fil12 {fill:#BA6868}
    .fil6 {fill:#BF6565}
    .fil20 {fill:#DB9379}
    .fil10 {fill:#E37878}
    .fil13 {fill:#E6AD87}
    .fil15 {fill:#E6E6E6}
    .fil11 {fill:#F2AA5C}
    .fil9 {fill:#F6C5A5}
    .fil22 {fill:#F76790}
    .fil19 {fill:#F7C9AA}
    .fil7 {fill:#FFD2B6}
    .fil3 {fill:#FFE084}
    .fil23 {fill:yellow}
    .fil14 {fill:white}
    .fil17 {fill:#DBA8A8;fill-rule:nonzero}
    .fil18 {fill:#EDD3D3;fill-rule:nonzero}
    .fil0 {fill:white;fill-rule:nonzero}
   ]]>
  </style>
 </defs>
 <g id="Слой_x0020_1">
  <metadata id="CorelCorpID_0Corel-Layer"/>
  <g id="_2038734978928">
   <path class="fil0" d="M561 2077l52 -96 -111 0 59 96zm47 -36l-35 65c-1,2 -3,3 -4,4 -6,3 -13,2 -16,-4l-81 -130c-1,-2 -2,-4 -2,-7 0,-6 5,-11 11,-11l151 0 0 0c2,0 4,0 6,1 6,4 8,11 5,16l-35 66z"/>
   <rect class="fil1" transform="matrix(3.95263 -0 0.181337 4.43332 491.222 1405.47)" width="22.4008" height="131.349"/>
   <path class="fil0" d="M554 1901l52 -96 -111 0 59 96zm47 -36l-35 65c-1,2 -3,3 -5,4 -5,4 -12,2 -16,-4l-80 -130c-1,-2 -2,-4 -2,-6 0,-7 5,-12 11,-12l151 0 0 0c2,0 4,1 6,2 5,3 8,10 5,15l-35 66z"/>
   <rect class="fil1" transform="matrix(4.04082 -0 0.165283 4.04082 505.822 1762.46)" width="21.9124" height="11.9641"/>
   <rect class="fil2" transform="matrix(3.19433 -0 0.144227 3.52606 515.559 1773.78)" width="21.9124" height="11.9641"/>
   <rect class="fil3" transform="matrix(3.19433 -0 0.0721058 1.76284 512.698 1703.83)" width="21.9124" height="11.9641" rx="6" ry="6"/>
  </g>
  <rect class="fil4" transform="matrix(4.21587 -9.93905 -9.93905 -4.21587 1025.27 586.15)" width="24.4362" height="88.5848" rx="12" ry="12"/>
  <path class="fil1" d="M1077 465l0 0c9,-23 12,-47 9,-70 -29,66 -106,97 -173,69l-637 -271c-44,-18 -73,-59 -79,-103l-1 1 0 0c-28,67 3,145 70,173l638 271c67,28 144,-3 173,-70z"/>
  <rect class="fil0" transform="matrix(2.05552 0.038653 0.235825 2.05035 850.702 680.323)" width="358" height="222" rx="111" ry="111"/>
  <rect class="fil4" transform="matrix(2.28352 0.0429404 0.261983 2.27778 708.225 649.898)" width="358" height="222" rx="111" ry="111"/>
  <path class="fil0" d="M384 731c114,0 169,169 183,370 15,201 69,334 -256,431 -398,119 -138,-801 73,-801z"/>
  <path class="fil0" d="M545 620c179,0 281,213 324,466 42,253 141,421 -359,543 -612,150 -296,-1009 35,-1009z"/>
  <path class="fil5" d="M439 714c114,0 169,169 184,370 14,201 69,334 -256,431 -398,119 -139,-801 72,-801z"/>
  <path class="fil4" d="M601 603c178,0 281,213 323,466 43,254 141,421 -358,543 -613,150 -296,-1009 35,-1009z"/>
  <path class="fil1" d="M723 586c187,0 294,222 338,486 45,264 147,440 -374,567 -639,156 -309,-1053 36,-1053z"/>
  <path class="fil1" d="M254 1379c-46,-278 129,-718 325,-784 -187,100 -344,521 -293,784l-32 0z"/>
  <g id="_2038734986928">
   <path class="fil0" d="M1605 1476c0,1 0,1 0,2l0 0 0 0c-1,5 -2,9 -4,13 -13,30 -49,44 -79,31 -31,-13 -45,-48 -31,-79 1,-4 4,-8 6,-11l0 0 0 0c1,-1 1,-2 2,-2l73 -97c8,-11 23,-16 36,-10 13,5 20,20 18,33l-21 120z"/>
   <path class="fil0" d="M1713 1322c0,3 0,5 -1,8l0 0 0 0c-3,14 -7,28 -12,41 -43,99 -158,144 -256,101 -99,-42 -145,-157 -102,-255 6,-14 13,-26 21,-37l0 0 0 -1c2,-2 3,-4 5,-6l237 -313c26,-37 75,-52 118,-34 42,19 65,65 56,109l-66 387z"/>
   <path class="fil0" d="M1752 1288c0,2 -1,4 -1,5l0 0 0 0c0,9 -2,17 -5,26 -20,62 -88,98 -153,79 -64,-19 -100,-84 -81,-147 3,-8 7,-16 11,-24l0 0 0 0c1,-1 2,-3 3,-4l126 -205c14,-24 43,-37 71,-28 28,8 46,34 43,61l-14 237z"/>
  </g>
  <path class="fil6" d="M1684 1313c0,3 -1,5 -1,8l0 0 0 0c-3,14 -7,27 -13,41 -42,99 -157,144 -256,101 -98,-42 -144,-157 -101,-256 6,-13 13,-25 21,-37l0 0 0 0c2,-2 3,-4 5,-6l237 -313c26,-37 75,-52 117,-34 43,19 66,65 57,109l-66 387z"/>
  <circle class="fil0" transform="matrix(2.04273 1.606 -1.606 2.04273 1677.19 836.162)" r="49"/>
  <path class="fil6" d="M1599 750l42 -133c4,-14 20,-24 35,-20l100 21c60,13 94,71 76,130l-17 52c-20,63 -89,104 -154,90l0 0c-65,-14 -102,-77 -82,-140z"/>
  <path class="fil6" d="M1576 1467c0,1 0,1 0,2l0 0 0 0c-1,4 -2,9 -4,13 -13,30 -49,44 -79,31 -31,-13 -45,-48 -32,-79 2,-4 4,-8 7,-11l0 0 0 -1c1,0 1,-1 1,-1l74 -97c8,-12 23,-16 36,-10 13,5 20,19 17,33l-20 120z"/>
  <path class="fil7" d="M1722 1279c0,2 0,3 0,5l0 0 0 0c-1,9 -2,17 -5,26 -20,62 -88,97 -153,79 -64,-19 -101,-85 -81,-147 3,-8 6,-16 11,-24l0 0 0 0c1,-1 2,-3 2,-4l127 -205c14,-24 43,-37 71,-29 28,8 45,34 43,61l-15 238z"/>
  <rect class="fil4" transform="matrix(3.63344 -8.56593 -5.36454 -2.27549 1389.89 721.018)" width="24.4362" height="88.5848" rx="12" ry="12"/>
  <rect class="fil1" transform="matrix(5.01737 -11.8286 -11.8286 -5.01737 1270.13 717.254)" width="24.4362" height="88.5848" rx="12" ry="12"/>
  <path class="fil8" d="M1338 555c21,-75 -16,-157 -90,-188l-759 -322c-54,-23 -114,-13 -157,21 -22,75 16,157 89,188l759 322c54,23 114,13 158,-21z"/>
  <circle class="fil4" transform="matrix(2.33428 1.06571 -1.40077 3.0682 1361.38 572.516)" r="44"/>
  <circle class="fil1" transform="matrix(1.24276 0.567379 -0.745768 1.6335 1395.47 584.996)" r="44"/>
  <path class="fil0" d="M2247 896l-823 -350c-23,-9 -50,2 -60,24l0 1c-9,22 1,49 24,59l824 349 100 89 274 69 17 -41 17 -41 -239 -149 -134 -10z"/>
  <path class="fil0" d="M2247 896l-823 -350c-23,-9 -50,2 -60,24l0 1c0,0 0,1 -1,2 3,15 12,29 27,35l824 350 100 89 274 68 17 -41 10 -22 -235 -146 -133 -10z"/>
  <path class="fil0" d="M1403 393c6,3 12,6 18,10 -63,-11 -137,35 -173,114 -37,80 -22,168 32,207 -8,-2 -17,-4 -24,-8 -68,-31 -90,-128 -49,-217 40,-90 128,-137 196,-106z"/>
  <path class="fil0" d="M480 23c7,3 12,6 18,10 -63,-12 -136,34 -173,113 -36,81 -22,169 32,208 -8,-2 -16,-5 -24,-8 -68,-31 -90,-129 -49,-218 40,-89 128,-136 196,-105z"/>
  <path class="fil1" d="M1111 423l0 0c-1,3 -3,6 -5,9 1,-22 -12,-43 -33,-52l-549 -230c-24,-10 -53,-1 -67,21 0,-7 2,-14 4,-20l0 0c12,-28 45,-42 72,-30l549 230c28,12 41,44 29,72z"/>
  <path class="fil0" d="M1167 335c0,0 6,-103 100,-127 0,0 11,129 -100,127z"/>
  <path class="fil0" d="M827 293c0,0 36,95 153,80 117,-16 171,-52 203,1 0,0 39,-50 4,-85 -104,-105 -269,54 -360,4z"/>
  <path class="fil0" d="M1086 257l0 0c69,12 91,108 110,175l73 248c31,109 -377,101 -352,-96l27 -226c9,-69 72,-114 142,-101z"/>
  <path class="fil0" d="M1013 725c-59,-19 -106,-64 -96,-141l13 -111c62,19 104,81 96,144l-13 108z"/>
  <path class="fil0" d="M1086 257l0 0c10,2 21,5 30,9 25,24 41,57 41,94l-1 105c-1,70 -59,128 -129,128l-42 0c-27,0 -50,-12 -66,-31l25 -204c9,-69 72,-114 142,-101z"/>
  <path class="fil0" d="M1168 320c0,0 -16,-103 69,-147 0,0 38,126 -69,147z"/>
  <path class="fil0" d="M776 225c0,0 37,96 154,80 117,-15 171,-51 203,2 0,0 38,-50 4,-85 -104,-106 -269,54 -361,3z"/>
  <path class="fil0" d="M1042 164l-47 0c-46,0 -84,38 -84,84l-1 202c0,48 38,87 86,87l43 0c72,0 131,-59 131,-130l1 -113c0,-71 -58,-130 -129,-130z"/>
  <path class="fil0" d="M1044 164l-47 0 -1 0 0 0 0 0 0 0c-10,1 -19,2 -28,5 -10,75 -30,200 -34,218 -3,18 30,9 38,17 7,7 -22,11 -18,19 4,8 26,3 25,10 0,8 -11,12 -5,21 6,8 12,11 12,15 0,4 -32,29 -16,63 8,3 18,5 27,5l44 0c73,0 133,-60 133,-132l1 -109c0,-72 -59,-132 -131,-132z"/>
  <path class="fil0" d="M973 406c0,6 -23,10 -19,17 4,8 26,3 25,10 0,8 -11,12 -5,21 6,8 12,11 12,15 0,4 -32,29 -16,63 8,3 18,5 27,5l44 0c41,0 77,-19 102,-48 -26,-48 -77,-83 -132,-83l-38 0z"/>
  <path class="fil0" d="M1175 350l0 -19c-35,1 -89,5 -89,5l-3 4 0 17c0,0 59,-8 92,-7z"/>
  <path class="fil0" d="M980 360c6,15 26,55 66,59 49,4 49,-27 49,-40 0,-10 -1,-17 3,-20 1,-2 2,-4 2,-7l0 -15c0,0 -82,-14 -117,13 -3,2 -4,6 -3,10z"/>
  <path class="fil0" d="M1175 349l0 -53c0,-27 -8,-53 -23,-74l-48 -24 -109 77c0,0 86,-34 110,-18 24,16 35,101 35,101l35 -9z"/>
  <path class="fil0" d="M1044 164l-48 0c-10,0 -19,2 -28,5 -6,39 -23,94 -28,132 66,19 202,-91 234,-15l1 0c-6,-68 -62,-122 -131,-122z"/>
  <path class="fil0" d="M1065 333c-5,7 -14,12 -23,15 -17,4 -32,-2 -40,-14 -1,-2 -1,-4 0,-5 1,-2 3,-3 5,-3l53 -3c2,0 5,2 6,4 1,2 1,4 -1,6z"/>
  <path class="fil0" d="M733 0c0,0 37,160 186,188 148,29 220,0 255,93 0,0 54,-58 14,-125 -121,-205 -345,-40 -455,-156z"/>
  <path class="fil0" d="M929 121c0,0 29,67 95,62 67,-5 95,-27 118,10 0,0 18,-32 -5,-57 -69,-77 -151,24 -208,-15z"/>
  <path class="fil0" d="M1034 453c-9,15 -21,26 -35,31 -25,8 -49,-4 -60,-29 -2,-4 -2,-8 -1,-12 1,-4 4,-6 7,-6l80 -5c4,0 8,3 9,8 2,4 2,10 0,13z"/>
  <path class="fil0" d="M1036 438c-10,14 -23,25 -38,30 -27,9 -53,-3 -65,-28 -2,-4 -3,-8 -1,-12 1,-4 4,-6 8,-7l87 -4c4,0 7,3 9,7 2,5 2,10 0,14z"/>
  <path class="fil0" d="M1027 444c-8,10 -18,18 -30,22 -15,5 -29,3 -40,-4 8,-22 30,-33 55,-25 5,2 10,4 15,7z"/>
  <path class="fil0" d="M945 423l78 -4c3,0 5,1 7,4 -8,9 -18,17 -30,20 -22,7 -43,-1 -55,-20z"/>
  <path class="fil0" d="M954 341c7,18 30,64 76,69 57,5 57,-32 57,-46 0,-12 -1,-20 3,-24 2,-2 3,-5 3,-8l-1 -17c0,0 -94,-16 -135,15 -4,2 -5,7 -3,11z"/>
  <path class="fil0" d="M945 300c-11,43 -52,-47 -65,-1 18,-8 59,62 65,1z"/>
  <path class="fil0" d="M945 332c13,0 25,10 25,21 0,4 0,7 -2,10 -3,-10 -13,-17 -25,-17 -9,0 -17,5 -21,12 0,-2 0,-3 0,-5 -1,-11 9,-21 23,-21z"/>
  <path class="fil0" d="M968 278c32,56 93,-49 129,11 -38,-13 -104,68 -129,-11z"/>
  <path class="fil0" d="M968 278c32,53 93,-59 128,-1 -37,-10 -103,78 -128,1z"/>
  <path class="fil0" d="M1004 320c-16,1 -37,5 -35,19 2,23 25,63 72,61 3,0 6,0 8,-1l-2 0c-46,2 -69,-38 -72,-60 -1,-12 14,-17 29,-19z"/>
  <path class="fil0" d="M1089 319l3 -4c0,0 113,7 117,12 5,6 26,26 20,34 -6,8 -25,4 -27,-11 -2,-15 -114,-15 -114,-15l1 -16z"/>
  <path class="fil0" d="M1189 295l-14 0c-14,0 -27,12 -30,26l-9 60c-2,15 8,27 23,27l13 0c22,0 43,-18 46,-40l5 -33c3,-22 -12,-40 -34,-40z"/>
  <path class="fil0" d="M1185 319l-8 0c-8,0 -16,7 -17,15l-5 34c-2,9 4,15 13,15l7 0c13,0 24,-10 26,-22l3 -19c2,-12 -6,-23 -19,-23z"/>
  <path class="fil0" d="M1179 332l-6 0c-7,0 -13,6 -14,12l-4 27c-1,7 4,12 10,12l6 0c10,0 19,-8 21,-18l2 -15c2,-10 -5,-18 -15,-18z"/>
  <path class="fil0" d="M1166 351l-6 0c-5,0 -10,5 -11,10l-3 22c-1,6 3,10 8,10l5 0c8,0 16,-7 17,-15l2 -12c1,-8 -4,-15 -12,-15z"/>
  <rect class="fil0" transform="matrix(2.23214 0.626805 -0.485193 2.19164 1192.66 336.267)" width="8.27777" height="32.8663" rx="4" ry="4"/>
  <rect class="fil0" transform="matrix(2.23214 0.626805 -0.305981 1.38213 1183.31 378.494)" width="8.27777" height="32.8663" rx="4" ry="4"/>
  <path class="fil0" d="M1043 426c1,8 0,15 -1,23 -1,-5 -2,-10 -3,-15 -1,-6 -6,-13 -11,-18 -2,-1 -3,-2 -5,-3l1 0c3,-3 8,-3 12,0 4,3 7,8 7,13z"/>
  <path class="fil0" d="M952 390c0,0 26,2 28,5 3,4 -23,2 -28,-5z"/>
  <ellipse class="fil0" transform="matrix(2.35005 -0 0.374582 2.35005 1082.5 326.136)" rx="1" ry="3"/>
  <ellipse class="fil0" transform="matrix(2.35005 -0 0.374582 2.35005 847.768 326.316)" rx="1" ry="3"/>
  <path class="fil0" d="M914 403c-40,2 -49,-31 -53,-44 -11,-30 1,-44 35,-43 -29,1 -39,15 -29,43 5,12 13,42 47,44z"/>
  <path class="fil0" d="M998 337l64 -3c0,0 -29,39 -64,3z"/>
  <path class="fil0" d="M934 351c-9,3 -22,1 -35,-13l37 1 -2 12z"/>
  <path class="fil0" d="M1237 104c0,0 -50,7 -54,54 -4,47 8,72 -20,80 0,0 20,19 40,8 62,-32 0,-110 34,-142z"/>
  <path class="fil3" d="M1143 329c0,0 7,-103 101,-127 0,0 11,129 -101,127z"/>
  <path class="fil1" d="M803 286c0,0 37,96 154,80 117,-15 171,-51 203,1 0,0 38,-49 4,-84 -104,-106 -269,54 -361,3z"/>
  <path class="fil9" d="M1062 250l0 0c70,13 92,109 111,176l72 248c32,109 -376,101 -351,-97l27 -226c9,-68 72,-114 141,-101z"/>
  <path class="fil10" d="M990 718c-59,-18 -106,-63 -96,-141l13 -110c62,19 104,80 96,144l-13 107z"/>
  <path class="fil1" d="M1061 250l0 0c10,2 21,5 30,10 25,23 41,57 41,94l-1 104c0,71 -58,128 -129,128l-42 0c-27,0 -50,-12 -66,-30l25 -205c9,-68 72,-114 142,-101z"/>
  <path class="fil11" d="M1144 314c0,0 -16,-103 70,-148 0,0 38,126 -70,148z"/>
  <path class="fil1" d="M753 219c0,0 37,96 154,80 116,-16 171,-51 202,1 0,0 39,-50 5,-84 -104,-106 -270,53 -361,3z"/>
  <path class="fil12" d="M1018 158l-47 0c-45,0 -83,37 -83,83l-1 203c-1,47 38,86 86,86l43 0c72,0 130,-58 131,-130l1 -112c0,-71 -58,-130 -130,-130z"/>
  <path class="fil1" d="M930 335c0,18 -5,64 -40,68 -44,5 -54,-31 -58,-45 -4,-12 -5,-20 -10,-25 -2,-2 -3,-4 -4,-7l-4 -17c0,0 70,-17 111,14 3,3 5,7 5,12z"/>
  <path class="fil9" d="M1021 158l-47 0 -1 0 0 0 0 0 -1 0c-9,0 -18,2 -27,5 -11,75 -31,199 -34,218 -4,18 30,9 38,16 7,8 -22,12 -18,20 4,7 26,3 25,10 -1,7 -11,12 -5,20 6,8 12,12 12,16 0,3 -32,29 -16,63 8,3 18,4 27,4l44 0c73,0 132,-59 133,-132l1 -108c0,-73 -59,-132 -131,-132z"/>
  <path class="fil13" d="M950 400c0,6 -23,10 -19,17 4,7 26,3 25,10 -1,7 -11,12 -5,20 6,8 12,12 12,16 0,3 -32,29 -16,63 8,3 18,4 27,4l44 0c41,0 77,-18 102,-47 -26,-49 -78,-83 -132,-83l-38 0z"/>
  <path class="fil13" d="M1151 343l0 -18c-34,1 -88,5 -88,5l-3 3 -1 17c0,0 60,-8 92,-7z"/>
  <path class="fil13" d="M957 353c6,16 26,56 65,59 50,5 50,-27 50,-39 0,-10 -1,-17 3,-21 1,-2 2,-4 2,-6l-1 -15c0,0 -81,-14 -117,12 -3,3 -3,6 -2,10z"/>
  <path class="fil10" d="M1151 343l1 -53c0,-28 -8,-53 -23,-74l-48 -24 -109 76c0,0 86,-33 110,-17 24,15 35,100 35,100l34 -8z"/>
  <path class="fil12" d="M1021 158l-48 0c-10,0 -19,2 -28,5 -6,38 -23,93 -28,132 66,19 202,-91 234,-16l0 0c-5,-67 -61,-121 -130,-121z"/>
  <path class="fil3" d="M715 127c0,0 38,151 184,137 147,-14 218,-65 253,19 0,0 52,-73 13,-130 -120,-172 -341,59 -450,-26z"/>
  <path class="fil11" d="M715 127c0,0 35,156 180,143 146,-14 219,-69 255,9 0,-1 0,-1 0,-2 21,-141 -73,-102 -232,-76 -159,25 -203,-74 -203,-74z"/>
  <path class="fil14" d="M1042 327c-6,7 -14,12 -23,14 -17,4 -33,-2 -40,-13 -1,-2 -1,-4 0,-6 1,-2 3,-3 5,-3l53 -2c2,0 4,1 6,3 1,3 1,5 -1,7z"/>
  <path class="fil3" d="M709 35c0,0 38,156 187,172 148,16 220,-20 255,70 0,0 54,-62 14,-126 -122,-194 -345,-10 -456,-116z"/>
  <path class="fil12" d="M1011 447c-9,14 -21,25 -35,30 -25,9 -49,-3 -61,-28 -1,-4 -2,-8 0,-12 1,-4 4,-7 7,-7l80 -4c4,0 7,2 9,7 2,5 2,10 0,14z"/>
  <path class="fil1" d="M1012 432c-9,14 -22,25 -38,30 -27,9 -52,-4 -65,-28 -1,-4 -2,-9 0,-13 1,-3 4,-6 7,-6l88 -4c4,-1 7,2 9,7 2,5 2,10 -1,14z"/>
  <path class="fil14" d="M1004 438c-8,10 -18,18 -30,22 -15,4 -29,2 -41,-5 9,-21 30,-32 56,-24 5,1 10,4 15,7z"/>
  <path class="fil14" d="M922 417l78 -4c3,0 5,1 7,3 -8,10 -18,17 -30,21 -22,7 -44,-2 -55,-20z"/>
  <path class="fil1" d="M931 335c7,18 30,64 76,68 57,5 57,-31 57,-45 0,-12 -1,-20 3,-25 2,-2 3,-4 3,-7l-1 -17c0,0 -94,-17 -135,14 -4,3 -5,7 -3,12z"/>
  <path class="fil3" d="M922 293c-12,43 -52,-46 -65,0 18,-8 59,62 65,0z"/>
  <path class="fil1" d="M921 326c14,0 25,9 26,21 0,3 0,6 -2,9 -3,-9 -13,-16 -25,-16 -9,0 -17,5 -21,11 0,-1 -1,-3 -1,-4 0,-12 10,-21 23,-21z"/>
  <path class="fil12" d="M945 271c32,57 93,-49 129,12 -38,-13 -104,67 -129,-12z"/>
  <path class="fil3" d="M945 271c32,54 92,-58 128,-1 -37,-9 -103,78 -128,1z"/>
  <path class="fil14" d="M981 314c-16,1 -37,5 -35,19 2,22 25,63 72,61 3,-1 6,-1 8,-1l-2 0c-46,2 -69,-38 -72,-61 -2,-12 14,-16 29,-18z"/>
  <path class="fil1" d="M1065 312l4 -3c0,0 113,7 117,12 5,5 26,26 20,34 -6,8 -25,3 -27,-11 -2,-15 -114,-15 -114,-15l0 -17z"/>
  <path class="fil9" d="M1166 289l-14 0c-14,0 -28,11 -30,25l-9 61c-2,14 8,26 22,26l14 0c22,0 42,-18 46,-40l5 -32c3,-22 -12,-40 -34,-40z"/>
  <path class="fil12" d="M1162 313l-8 0c-8,0 -16,6 -17,14l-6 35c-1,8 5,15 13,15l8 0c12,0 24,-10 26,-23l3 -18c2,-13 -7,-23 -19,-23z"/>
  <path class="fil14" d="M1156 326l-7 0c-6,0 -12,5 -13,11l-4 28c-1,6 3,12 10,12l6 0c10,0 19,-8 21,-18l2 -15c2,-10 -5,-18 -15,-18z"/>
  <path class="fil9" d="M1142 345l-5 0c-5,0 -10,4 -11,9l-3 23c-1,5 3,10 8,10l5 0c8,0 16,-7 17,-15l2 -12c1,-8 -4,-15 -13,-15z"/>
  <rect class="fil14" transform="matrix(2.23214 0.626805 -0.485193 2.19164 1169.47 329.869)" width="8.27777" height="32.8663" rx="4" ry="4"/>
  <rect class="fil15" transform="matrix(2.23214 0.626805 -0.305981 1.38213 1160.12 372.096)" width="8.27777" height="32.8663" rx="4" ry="4"/>
  <path class="fil13" d="M1020 419c1,8 0,16 -2,23 0,-4 -1,-9 -2,-15 -1,-6 -6,-13 -12,-17 -1,-1 -2,-2 -4,-3l1 -1c3,-2 8,-2 12,1 4,3 7,8 7,12z"/>
  <path class="fil1" d="M929 384c0,0 26,1 28,5 2,3 -23,1 -28,-5z"/>
  <ellipse class="fil14" transform="matrix(2.35005 -0 0.374582 2.35005 1059.32 319.738)" rx="1" ry="3"/>
  <ellipse class="fil14" transform="matrix(2.35005 -0 0.374582 2.35005 824.579 319.919)" rx="1" ry="3"/>
  <path class="fil16" d="M890 396c-39,2 -48,-31 -52,-43 -11,-30 1,-44 35,-43 -29,1 -39,15 -29,43 4,12 13,42 46,43z"/>
  <path class="fil16" d="M975 331l64 -4c0,0 -29,40 -64,4z"/>
  <path class="fil16" d="M911 345c-10,2 -22,1 -35,-14l37 2 -2 12z"/>
  <path class="fil3" d="M1213 97c0,0 -50,7 -53,55 -4,47 8,71 -21,80 0,0 21,19 41,8 62,-33 0,-111 33,-143z"/>
  <path class="fil10" d="M1135 523c-5,6 -84,163 -84,163 0,0 92,-59 84,-163z"/>
  <rect class="fil1" transform="matrix(2.02513 -0.305961 0.280005 2.21285 646.122 1318.24)" width="358" height="222" rx="111" ry="111"/>
  <path class="fil4" d="M1392 1405c5,16 9,32 11,49l0 0c17,135 -79,262 -214,283l-236 35c-51,8 -100,0 -142,-21 -5,-16 -9,-32 -11,-49l0 0c-17,-135 79,-262 213,-282l237 -36c50,-8 99,1 142,21z"/>
  <path class="fil1" d="M1392 1405c5,16 9,32 11,49l0 0c2,19 3,38 1,56 -38,40 -88,67 -146,75l-302 42c-53,7 -104,-3 -148,-26 27,-92 105,-166 205,-181l237 -36c50,-8 99,1 142,21z"/>
  <rect class="fil17" transform="matrix(2.21285 -0.305961 0.305961 2.21285 660.943 1145.13)" width="358" height="222" rx="111" ry="111"/>
  <path class="fil18" d="M907 1111l301 -42c136,-18 261,77 280,212l0 0c11,80 -18,157 -72,210 -25,14 -52,23 -81,27l-302 41c-135,19 -261,-76 -280,-211l0 0c-11,-80 18,-157 72,-211 25,-13 52,-22 82,-26z"/>
  <path class="fil0" d="M1320 1080c87,29 155,105 168,201l0 0c11,80 -18,157 -72,210 -25,14 -52,23 -81,27l-243 33c-87,-29 -154,-105 -167,-201l0 0c-12,-80 17,-157 71,-210 25,-13 52,-23 82,-27l242 -33z"/>
  <rect class="fil0" transform="matrix(2.28352 0.0429404 0.261983 2.27778 637.378 649.898)" width="358" height="222" rx="111" ry="111"/>
  <path class="fil1" d="M674 454c82,0 141,138 177,324 -37,-161 -92,-276 -167,-276 -63,0 -121,132 -157,300l-20 0c35,-191 98,-348 167,-348z"/>
  <ellipse class="fil0" cx="1117" cy="654" rx="177" ry="40"/>
  <rect class="fil0" transform="matrix(2.26353 1.37688 -1.37688 2.26353 739.575 479.556)" width="161" height="240" rx="80" ry="80"/>
  <path class="fil1" d="M795 556c101,0 175,71 227,178 103,212 204,560 -67,677 -50,21 -113,42 -192,60 -150,36 -240,-11 -286,-99 43,51 114,74 219,49 67,-16 121,-34 163,-52 229,-99 144,-394 57,-573 -44,-91 -107,-151 -192,-151 -60,0 -120,47 -170,119 66,-121 153,-208 241,-208z"/>
  <path class="fil4" d="M794 506c104,0 181,73 234,183 106,218 210,577 -69,697 -51,22 -116,43 -198,63 -155,36 -247,-12 -294,-103 44,52 117,76 225,50 69,-16 124,-34 168,-53 236,-102 148,-406 58,-591 -45,-93 -110,-155 -198,-155 -61,0 -123,49 -174,122 68,-124 157,-213 248,-213z"/>
  <ellipse class="fil0" transform="matrix(2.15596 1.31144 -1.31144 2.15596 658.424 916.099)" rx="89" ry="81"/>
  <path class="fil18" d="M869 882c12,70 -3,137 -37,189 17,-43 23,-94 14,-145 -24,-139 -146,-233 -273,-211 -63,10 -115,48 -149,101 29,-75 92,-132 172,-146 127,-21 249,73 273,212z"/>
  <ellipse class="fil1" transform="matrix(1.80902 1.1004 -1.1004 1.80902 630.61 950.238)" rx="89" ry="81"/>
  <path class="fil10" d="M725 806c86,54 117,162 68,242 -46,76 -146,100 -231,59 -87,-55 -117,-162 -69,-242 46,-76 147,-100 232,-59z"/>
  <rect class="fil10" transform="matrix(1.89177 1.15074 -1.15074 1.89177 562.039 753.758)" width="161" height="240" rx="80" ry="80"/>
  <path class="fil7" d="M621 1304c-57,42 -135,48 -198,9l0 0c-84,-51 -111,-161 -60,-245l91 -150c20,-32 49,-56 81,-70 -18,13 -34,30 -46,50l-92 151c-51,83 -24,193 60,244l0 0c51,32 113,34 164,11z"/>
  <path class="fil6" d="M555 1118c-5,1 -10,1 -15,-1 -38,-9 -42,-74 -9,-146 20,-44 49,-79 76,-99 -9,19 -19,39 -27,60 -32,80 -40,153 -25,186z"/>
  <path class="fil6" d="M610 1011c-3,-1 -6,-1 -9,-2l0 0 0 0c-16,-4 -32,-6 -49,-6 -122,-3 -224,95 -226,218 -2,122 96,224 218,226 17,0 33,-1 49,-4l0 0 0 -1c3,0 6,-1 9,-1l437 -99c51,-10 89,-53 90,-107 1,-53 -36,-98 -86,-109l-433 -115z"/>
  <path class="fil7" d="M747 876l0 0c68,41 90,130 49,198l-74 122c-42,68 -131,90 -199,48l0 0c-8,-5 -16,-11 -23,-18 36,-8 69,-31 90,-65l74 -122c36,-59 25,-135 -24,-180 35,-9 74,-4 107,17z"/>
  <path class="fil6" d="M412 1255c-1,-1 -2,-1 -3,-1l-1 0 0 0c-5,-2 -11,-2 -16,-2 -44,-1 -79,33 -80,76 -1,44 33,79 77,80 5,0 11,0 17,-1l0 0 0 0c1,-1 2,-1 3,-1l154 -35c18,-3 31,-19 32,-37 0,-19 -13,-35 -31,-39l-152 -40z"/>
  <path class="fil7" d="M616 1019c-2,-1 -5,-1 -7,-2l0 0 0 0c-13,-3 -26,-5 -39,-5 -100,-2 -182,77 -184,177 -2,99 77,182 177,183 13,1 27,-1 39,-3l0 0 1 0c2,-1 4,-1 7,-2l355 -80c40,-8 72,-43 72,-86 1,-43 -29,-80 -69,-89l-352 -93z"/>
  <path class="fil0" d="M648 1020c-3,-1 -6,-2 -9,-2l0 -1 0 0c-16,-3 -32,-5 -48,-6 -123,-2 -224,96 -227,218 0,10 1,20 2,30 4,-116 111,-212 243,-215 18,-1 36,1 53,4l0 0 1 0c3,0 6,1 9,2l312 59 -336 -89z"/>
  <path class="fil10" d="M450 1201c9,3 458,10 458,10 0,0 -300,-72 -458,-10z"/>
  <path class="fil2" d="M1213 729l20 0 31 -1 28 0c10,0 20,8 21,19l0 0c2,10 -5,19 -15,19l-28 0 -31 1 -19 0c-16,0 -30,7 -39,17 -9,11 -13,26 -10,41 2,16 11,31 23,41 13,11 28,17 44,17l19 0 31 -1 28 0c10,0 20,8 22,19l0 0c2,10 -6,19 -16,19l-28 0 -31 0 -19 1c-26,0 -52,-11 -72,-28 -20,-17 -35,-41 -39,-67 -4,-26 3,-51 17,-68 15,-18 37,-29 63,-29z"/>
  <path class="fil2" d="M1306 804l-19 0 -31 0 -28 1c-10,0 -17,9 -16,19l0 0c2,10 12,19 22,19l28 -1 31 0 19 0c16,0 32,6 44,16 12,11 21,25 23,41 3,16 -1,31 -10,41 -9,11 -22,18 -38,18l-20 0 -30 0 -28 1c-11,0 -18,8 -16,19l0 0c1,10 11,19 22,19l28 -1 30 0 20 0c26,-1 48,-12 63,-29 14,-18 21,-42 17,-68 -4,-27 -19,-51 -39,-68 -20,-17 -45,-27 -72,-27z"/>
  <path class="fil7" d="M520 984c-116,6 -208,100 -211,218 -1,86 47,162 118,200 -54,-45 -89,-114 -87,-190 2,-110 78,-202 180,-228z"/>
  <path class="fil2" d="M888 652l91 -36c23,-8 45,-1 54,17 -11,-7 -26,-9 -41,-3l-91 36c-26,10 -44,40 -39,65l0 0c1,4 2,8 4,11 -8,-5 -14,-14 -17,-25l0 0c-5,-25 13,-55 39,-65z"/>
  <path class="fil2" d="M918 692l91 -30c22,-7 44,2 54,20 -11,-7 -26,-10 -41,-5l-91 29c-27,9 -44,37 -39,63l0 0c1,4 2,8 4,12 -9,-6 -15,-15 -17,-27l0 0c-5,-26 12,-54 39,-62z"/>
  <path class="fil2" d="M1016 794l6 0 10 2 9 1c4,0 6,3 6,7l0 0c0,3 -3,6 -7,5l-9 -1 -10 -1 -6 -1c-5,-1 -10,1 -14,4 -4,3 -6,8 -7,13 0,5 2,10 5,14 3,4 8,7 13,7l6 1 10 1 9 1c4,1 6,4 6,7l0 0c0,4 -3,6 -7,6l-9 -1 -10 -1 -6 -1c-9,-1 -16,-6 -22,-12 -5,-7 -8,-15 -7,-24 1,-8 5,-16 11,-21 6,-5 14,-7 23,-6z"/>
  <path class="fil3" d="M1040 822l-6 -1 -10 -1 -9 -1c-4,-1 -7,2 -7,5l0 0c0,4 2,7 6,7l9 1 10 2 6 0c6,1 10,4 13,8 4,3 5,8 5,14 -1,5 -3,10 -7,13 -4,3 -8,4 -14,4l-6 -1 -10 -1 -9 -2c-4,0 -7,2 -7,6l0 0c0,3 2,6 6,7l9 1 10 1 6 1c9,1 17,-2 23,-7 6,-5 11,-12 11,-21 1,-8 -2,-17 -7,-23 -5,-7 -13,-11 -22,-12z"/>
  <path class="fil8" d="M721 1712c-15,-27 -23,-60 -23,-95 0,-53 18,-99 47,-128 5,-5 13,-6 18,-1 6,4 8,11 5,18 -18,34 -28,78 -28,127 0,24 3,47 7,69 2,7 -2,14 -9,16 -6,3 -14,0 -17,-6z"/>
  <path class="fil8" d="M862 1793c-16,-29 -26,-65 -26,-105 0,-57 21,-108 52,-140 6,-6 15,-6 21,-2 6,5 8,13 5,20 -19,38 -31,87 -31,140 0,27 3,53 8,76 2,8 -2,16 -10,18 -7,3 -15,0 -19,-7z"/>
  <path class="fil1" d="M488 1241l19 -65c1,-5 4,-9 9,-12 4,-2 9,-3 14,-1l65 18c5,2 9,5 12,9 2,4 3,9 1,14l-18 66c-2,5 -5,9 -9,11 -4,2 -9,3 -14,2l-66 -19c-5,-1 -9,-4 -11,-9 -2,-4 -3,-9 -2,-14zm44 -23c1,-4 4,-8 8,-10l0 0c4,-2 8,-3 13,-2 5,1 8,4 10,8l0 0c2,4 3,9 2,13 -1,5 -4,9 -8,11 -4,2 -9,3 -13,1 -5,-1 -9,-4 -11,-8 -2,-4 -3,-8 -1,-13zm11 -5c-2,2 -4,4 -5,7 -1,3 0,6 1,8 1,2 4,4 6,5 3,1 6,0 8,-1 3,-1 5,-4 6,-6 0,-3 0,-6 -1,-8 -2,-3 -4,-5 -7,-5 -3,-1 -5,-1 -8,0l0 0zm-27 1c2,-9 8,-17 16,-21 7,-4 16,-5 25,-3 9,3 17,9 21,16l0 0c4,8 5,17 3,26 -3,9 -9,16 -16,20l0 0c-8,5 -17,6 -26,3 -9,-2 -16,-8 -20,-16 -5,-7 -6,-16 -3,-25zm19 -15c-6,3 -11,9 -13,16 -2,8 -1,15 2,21 4,6 10,11 17,13 7,2 14,1 20,-2l1 0c6,-4 11,-10 13,-17 2,-7 1,-15 -3,-21 -3,-6 -9,-11 -16,-13 -8,-2 -15,-1 -21,3zm-22 -22l-18 66c-1,3 -1,7 1,9 1,3 4,5 7,6l66 18c3,1 6,1 9,-1 2,-1 5,-4 5,-7l19 -66c1,-3 0,-6 -1,-9 -2,-2 -4,-5 -7,-5l-66 -19c-3,-1 -7,0 -9,1 -3,2 -5,4 -6,7z"/>
  <path class="fil1" d="M750 1155l-58 -22 -25 32 83 -10zm-62 -27l5 -48c0,-1 1,-2 3,-2 0,0 1,1 2,1l64 76 1 0 0 0 0 0 0 0 0 0 0 0 0 0 0 0 0 1 0 0 0 0 0 0 0 0 0 0 0 0 0 0 0 0 0 0 0 0 0 0 0 0 0 0 0 0 0 0 0 0 0 0 0 0 0 0 0 0 0 0 0 1 0 0 0 0 0 0 0 0 0 0 0 0 0 0 0 0 0 0 0 0 0 0 0 0 0 0 0 0 0 0 0 0 0 0 0 0 0 0 0 1 0 0 0 0 0 0 0 0 0 0 0 0 0 0 0 0 0 0 0 0 0 0 0 0 0 0 0 0 0 0 0 0 0 0 0 0 0 0 0 0 0 0 0 0 0 0 0 0 0 0 0 0 0 0 0 0 0 0 0 0 0 0 0 0 0 0 0 0 0 0 0 0 0 0 0 0 0 0 -1 1 0 0 0 0 0 0 0 0 0 0 0 0 0 0 0 0 0 0 0 0 0 0 0 0 0 0 0 0 0 0 0 0 0 0 0 0 0 0 0 0 0 0 0 0 0 0 0 0 0 0 0 0 0 0 0 0 0 0 0 0 0 0 0 0 0 0 0 0 0 0 0 0 -1 0 0 0 0 0 0 0 0 0 0 0 0 0 0 0 -99 12c-1,0 -2,0 -2,-1 -1,0 -2,-2 -1,-3l29 -39zm6 0l58 23 -54 -64 -4 41z"/>
  <path class="fil0" d="M704 555l70 -61c17,-15 42,-16 60,-3 -14,-3 -29,1 -41,11l-70 61c-20,17 -23,49 -5,69l0 0c3,3 6,6 10,8 -11,-1 -21,-7 -29,-16l0 0c-18,-20 -16,-52 5,-69z"/>
  <path class="fil10" d="M1608 585l7 -14c7,-13 22,-19 34,-13l27 13c13,7 18,23 11,37l-7 13 0 0c0,1 -1,2 -1,3l-7 13c-10,21 -34,30 -53,20l-3 -1c-19,-10 -26,-35 -16,-55l6 -13c1,-1 1,-2 2,-3z"/>
  <path class="fil10" d="M1655 641l8 -16c7,-13 22,-18 35,-12l25 13c13,6 19,23 12,36l-8 16c-10,19 -34,28 -54,18l0 0c-20,-10 -28,-35 -18,-55z"/>
  <path class="fil19" d="M1629 544l-9 16c-6,13 -1,29 12,35l25 13c13,6 29,1 36,-12l8 -16c10,-20 2,-44 -18,-54l0 0c-20,-10 -44,-2 -54,18z"/>
  <path class="fil10" d="M1724 663l8 -16c7,-13 22,-18 35,-12l25 13c13,6 19,23 12,36l-8 16c-10,19 -34,28 -54,18l0 0c-20,-10 -28,-35 -18,-55z"/>
  <path class="fil19" d="M1745 621l-8 16c-7,13 -1,29 11,35l25 13c14,6 30,1 37,-12l8 -16c10,-20 1,-44 -18,-54l0 0c-20,-10 -45,-2 -55,18z"/>
  <path class="fil19" d="M1676 599l-8 16c-7,13 -1,29 11,35l25 13c14,6 30,1 37,-12l7 -16c10,-20 2,-44 -17,-54l0 0c-20,-10 -45,-2 -55,18z"/>
  <path class="fil0" d="M1834 628c4,-18 -3,-38 -20,-46l-2 -1c-19,-10 -42,-1 -53,18 14,-11 32,-14 48,-6l3 2c13,6 21,19 24,33z"/>
  <path class="fil10" d="M1804 680l7 -14c5,-10 18,-14 28,-9l20 10c11,5 16,19 10,29l-6 13c-8,16 -28,23 -44,14l0 0c-16,-8 -23,-27 -15,-43z"/>
  <path class="fil19" d="M1822 645l-7 14c-5,10 -1,22 9,28l20 10c11,5 24,1 30,-10l6 -13c8,-16 2,-35 -14,-43l0 0c-16,-9 -36,-2 -44,14z"/>
  <path class="fil19" d="M1551 793l-10 -68c-2,-7 3,-15 11,-16l48 -13c30,-7 58,11 62,41l4 27c5,32 -17,65 -48,73l0 0c-32,8 -62,-12 -67,-44z"/>
  <path class="fil19" d="M1563 793l22 -71c3,-8 11,-13 19,-11l54 11c32,7 50,38 40,70l-9 28c-10,33 -48,55 -82,48l0 0c-35,-8 -55,-42 -44,-75z"/>
  <path class="fil19" d="M1604 748c-14,7 -32,7 -47,-3 -22,-14 -28,-44 -14,-67 27,-41 80,-3 141,-38 8,-4 23,-21 35,9 10,27 5,72 -113,99 0,0 -1,0 -2,0z"/>
  <path class="fil10" d="M1602 725c-19,5 -39,-3 -48,-21l-2 -3c-11,-20 -3,-45 16,-56 -10,14 -12,34 -3,51l2 4c7,14 20,23 35,25z"/>
  <path class="fil10" d="M1678 724c0,0 -58,62 -112,16 0,0 68,10 112,-16z"/>
  <path class="fil0" d="M1348 778c6,-67 37,-156 90,-246 96,-164 228,-269 295,-235 35,17 45,69 33,138 5,-56 -6,-97 -37,-112 -66,-34 -198,71 -295,235 -46,79 -75,157 -86,220z"/>
  <ellipse class="fil3" cx="846" cy="570" rx="56" ry="34"/>
  <path class="fil10" d="M871 559c4,3 7,7 7,11 0,10 -14,18 -31,18 -2,0 -3,0 -5,0 -3,0 -5,-2 -6,-5 0,-2 1,-5 3,-6l25 -18c2,-2 5,-2 7,0z"/>
  <ellipse class="fil10" cx="830" cy="568" rx="7" ry="4"/>
  <ellipse class="fil10" cx="847" cy="556" rx="7" ry="4"/>
  <rect class="fil4" transform="matrix(3.37283 -0.561379 -0.568332 3.46743 1016.18 1528.01)" width="84.5117" height="71.7834" rx="12" ry="12"/>
  <rect class="fil8" transform="matrix(3.37283 -0.561379 -0.568332 3.46743 1035.93 1553.76)" width="84.5117" height="71.7834" rx="12" ry="12"/>
  <path class="fil4" d="M1272 1555c11,2 17,12 15,25l-21 127c-3,16 -18,32 -34,35l-157 26c-11,2 -20,-4 -23,-13 4,2 9,3 14,2l155 -26c16,-3 31,-18 33,-35l21 -125c1,-6 0,-12 -3,-16z"/>
  <rect class="fil0" transform="matrix(1.22146 1.26929 -1.57786 1.5184 1592.27 818.625)" width="196" height="295" rx="15" ry="15"/>
  <ellipse class="fil1" transform="matrix(2.69332 0.461154 -0.4857 2.55721 1011.57 1218.98)" rx="53" ry="62"/>
  <path class="fil20" d="M1289 1141l-1 0c-14,-1 -28,-10 -35,-25 -10,-22 -1,-48 21,-58 12,-5 25,-5 36,0l93 39c8,2 14,8 18,15 6,14 0,31 -14,37 -5,3 -11,3 -17,2l-101 -10z"/>
  <path class="fil10" d="M1167 1191l-1 1c-20,8 -44,6 -63,-7 -28,-21 -35,-61 -14,-89 11,-16 28,-25 45,-27l148 -15c11,-3 23,-1 32,6 19,13 23,39 10,57 -6,7 -13,12 -21,15l-136 59z"/>
  <rect class="fil1" transform="matrix(1.22146 1.26929 -1.57786 1.5184 1594.01 837.436)" width="196" height="295" rx="15" ry="15"/>
  <path class="fil16" d="M1481 1135c28,0 50,22 50,50 0,28 -22,50 -50,50 -28,0 -50,-22 -50,-50 0,-28 22,-50 50,-50z"/>
  <path class="fil10" d="M1481 1389l0 0c-3,17 -20,28 -37,24l-71 -14c-17,-4 -28,-20 -24,-37l0 0c3,-17 20,-28 37,-25l71 15c17,3 28,20 24,37z"/>
  <path class="fil10" d="M1185 1206l0 0c10,-21 35,-30 56,-20l252 117c21,10 30,35 20,56l0 0c-9,21 -35,30 -55,20l-253 -117c-20,-10 -30,-35 -20,-56z"/>
  <path class="fil10" d="M1520 1250l0 0c-12,16 -36,19 -52,7l-68 -51c-16,-12 -19,-35 -7,-51l0 0c12,-16 35,-20 51,-8l68 51c17,12 20,36 8,52z"/>
  <path class="fil7" d="M1064 1268l0 0c6,-22 30,-35 52,-29l267 77c22,6 35,30 29,52l0 0c-6,22 -30,35 -52,29l-267 -77c-22,-7 -35,-30 -29,-52z"/>
  <path class="fil7" d="M1128 1177l0 0c10,-21 35,-30 56,-20l252 117c21,10 30,35 21,56l0 0c-10,21 -35,30 -56,20l-252 -117c-21,-10 -30,-35 -21,-56z"/>
  <path class="fil7" d="M1045 1341l159 65c17,8 39,0 47,-17l59 -112c36,-67 7,-146 -63,-174l-63 -26c-75,-31 -169,3 -207,75l0 0c-38,73 -8,158 68,189z"/>
  <path class="fil7" d="M1137 1129l0 0c4,-20 23,-34 42,-30l241 39c20,3 33,22 30,42l0 0c-3,20 -22,34 -42,30l-240 -39c-20,-3 -34,-22 -31,-42z"/>
  <rect class="fil1" transform="matrix(2.55721 0.461154 -0.894791 2.47901 909.575 1054.28)" width="47.4315" height="79.2934" rx="14" ry="14"/>
  <circle class="fil21" transform="matrix(1.96554 0.354455 -0.65648 1.91107 936.516 1116.78)" r="7"/>
  <circle class="fil22" transform="matrix(1.96554 0.354455 -0.65648 1.91107 909.812 1142.7)" r="7"/>
  <circle class="fil23" transform="matrix(1.96554 0.354455 -0.65648 1.91107 946.213 1149.26)" r="7"/>
  <rect class="fil16" transform="matrix(1.89556 1.98813 -1.98813 1.89556 1598.83 892.783)" width="24.4362" height="48.3643" rx="12" ry="12"/>
  <circle class="fil1" transform="matrix(1.89556 1.98813 -1.98813 1.89556 1594.93 942.391)" r="10"/>
  <circle class="fil1" transform="matrix(1.49667 1.56976 -1.56976 1.49667 1552.67 982.682)" r="10"/>
  <path class="fil10" d="M1391 1451l0 0c-3,17 -20,28 -37,24l-71 -14c-17,-4 -28,-20 -25,-37l0 0c4,-17 21,-28 38,-25l71 15c17,3 28,20 24,37z"/>
  <path class="fil7" d="M1097 1292l0 0c10,-14 29,-17 43,-7l169 120c14,10 18,30 8,44l0 0c-10,14 -30,17 -44,7l-169 -120c-14,-10 -17,-30 -7,-44z"/>
  <path class="fil24" d="M1080 1558l165 -28c11,-2 20,3 24,12 -3,0 -6,0 -8,0l-166 28c-16,2 -32,19 -35,36l-22 134c-1,5 0,10 2,14 -12,-1 -19,-12 -17,-26l22 -134c3,-17 18,-34 35,-36z"/>
  <rect class="fil4" transform="matrix(3.79168 -0.660644 0.660644 3.79168 1086.99 1612.43)" width="37.4197" height="8.40015" rx="4" ry="4"/>
  <rect class="fil4" transform="matrix(3.79168 -0.660644 0.660644 3.79168 1084.06 1681.99)" width="37.4197" height="8.40015" rx="4" ry="4"/>
  <path class="fil0" d="M600 1705c71,64 192,123 341,159 272,67 533,32 583,-76 26,-57 -11,-122 -90,-182 59,53 83,109 61,158 -50,109 -311,143 -583,77 -130,-32 -239,-81 -312,-136z"/>
  <rect class="fil5" transform="matrix(4.21703 -0 0.954432 5.35643 234.064 1348.55)" width="13.2606" height="11.6224" rx="2" ry="2"/>
  <rect class="fil3" transform="matrix(2.10948 -0 0.477434 2.67944 255.099 1396.3)" width="13.2606" height="11.6224" rx="2" ry="2"/>
  <path class="fil0" d="M566 57c6,3 12,7 17,10 -63,-11 -136,35 -172,114 -37,80 -23,168 31,207 -8,-2 -16,-4 -24,-8 -68,-31 -90,-128 -49,-217 41,-90 129,-137 197,-106z"/>
  <g id="_2004314428928">
   <path class="fil11" d="M697 210c0,0 50,144 203,74 154,-69 231,-122 253,-6 -7,-163 -152,-63 -242,-28 -150,58 -214,-40 -214,-40z"/>
   <path class="fil3" d="M697 210c0,0 50,118 203,57 154,-62 231,-108 253,-6 -7,-144 -152,-56 -242,-25 -150,52 -214,-26 -214,-26z"/>
  </g>
  <g id="_2039272966464">
   <path class="fil11" d="M700 34c0,0 -13,170 182,156 195,-14 301,-39 272,91 67,-174 -134,-125 -246,-123 -186,4 -208,-124 -208,-124z"/>
   <path class="fil3" d="M700 34c0,0 -1,144 190,138 191,-6 294,-25 271,91 59,-154 -136,-117 -246,-119 -183,-3 -215,-110 -215,-110z"/>
  </g>
  <path class="fil14" d="M903 90c0,0 13,28 40,33 27,4 38,-1 48,15 0,0 7,-10 -3,-22 -30,-36 -61,-6 -85,-26z"/>
  <path class="fil14" d="M974 47c0,0 3,63 58,79 54,16 84,7 90,44 0,0 25,-20 14,-47 -31,-83 -128,-28 -162,-76z"/>
  <path class="fil0" d="M1197 135c0,0 -23,3 -24,24 -2,22 3,33 -10,37 0,0 10,8 19,4 28,-15 0,-51 15,-65z"/>
  <path class="fil0" d="M1366 1134c-104,126 -282,246 -500,326 -398,145 -780,101 -854,-100 -38,-104 15,-230 131,-348 -86,104 -122,211 -89,302 74,200 456,245 854,99 191,-70 351,-170 458,-279z"/>
  <path class="fil0" d="M985 1064c17,5 26,22 19,39l-46 130c-7,17 -25,29 -43,27 14,-3 26,-13 31,-27l48 -133c6,-14 1,-28 -9,-36z"/>
  <rect class="fil17" transform="matrix(3.15116 2.80242 -2.80242 3.15116 1202.6 1107.56)" width="17.8278" height="54.4751" rx="9" ry="9"/>
  <rect class="fil10" transform="matrix(3.15116 2.80242 -2.80242 3.15116 1151.97 1154.88)" width="20.6355" height="21.4125" rx="2" ry="2"/>
  <circle class="fil7" cx="1155" cy="1183" r="7"/>
  <circle class="fil7" cx="1170" cy="1198" r="7"/>
  <circle class="fil7" cx="1186" cy="1212" r="7"/>
  <circle class="fil7" cx="1141" cy="1199" r="7"/>
  <circle class="fil7" cx="1157" cy="1213" r="7"/>
  <circle class="fil7" cx="1172" cy="1228" r="7"/>
  <circle class="fil7" cx="1128" cy="1215" r="7"/>
  <circle class="fil7" cx="1143" cy="1229" r="7"/>
  <circle class="fil7" cx="1159" cy="1244" r="7"/>
 </g>
</svg>
