<svg width="362" height="212" viewBox="0 0 362 212" fill="none" xmlns="http://www.w3.org/2000/svg">
<g clip-path="url(#clip0)">
<path d="M161.71 58.5357L161.403 58.5659C151.249 59.5645 144.078 71.2427 145.386 84.6499L146.973 100.923C148.281 114.331 157.573 124.39 167.727 123.391L168.034 123.361C178.188 122.362 185.359 110.684 184.051 97.277L182.464 81.0035C181.156 67.5963 171.864 57.5371 161.71 58.5357Z" fill="#F6C5A5"/>
<path fill-rule="evenodd" clip-rule="evenodd" d="M149.588 113.414C148.492 111.387 147.742 109.07 147.511 106.579L144.858 79.008C143.877 69.3929 150.454 60.7625 159.626 58.8511C160.722 60.9363 161.414 63.2532 161.645 65.6859L164.357 93.3149C165.28 102.872 158.761 111.56 149.588 113.414Z" fill="#E37878"/>
<path fill-rule="evenodd" clip-rule="evenodd" d="M178.375 129.922C178.606 129.806 178.837 129.632 179.01 129.459H179.067C180.337 128.59 181.49 127.547 182.586 126.389C190.49 117.874 189.971 104.436 181.433 96.5008C172.895 88.5654 159.568 89.0867 151.665 97.6592C150.627 98.8177 149.704 100.034 148.954 101.366L148.896 101.424C148.781 101.656 148.608 101.888 148.492 102.119L127.839 139.479C125.301 143.592 125.993 149.152 129.685 152.57C133.378 155.987 138.916 156.219 142.839 153.438L178.375 129.922Z" fill="#E37878"/>
<path d="M133.44 155.012C140.682 159.414 150.107 157.088 154.491 149.818C158.876 142.547 156.56 133.083 149.318 128.681C142.076 124.279 132.651 126.604 128.267 133.875C123.882 141.146 126.198 150.609 133.44 155.012Z" fill="white"/>
<path fill-rule="evenodd" clip-rule="evenodd" d="M151.838 146.024L152.184 151.643C152.53 157.087 148.319 161.837 142.896 162.127L131.012 162.88C125.301 163.227 120.397 158.825 120.051 153.149L119.763 147.994C119.244 139.421 125.763 132.065 134.301 131.544L135.512 131.486C143.992 130.964 151.377 137.51 151.838 146.024Z" fill="#E37878"/>
<path d="M180.376 108.712C183.135 110.389 186.725 109.503 188.396 106.733C190.066 103.963 189.184 100.358 186.425 98.6807C183.666 97.0035 180.075 97.8894 178.405 100.66C176.734 103.43 177.617 107.035 180.376 108.712Z" fill="#F6C5A5"/>
<path d="M170.414 106.566C173.009 108.402 176.668 107.728 178.585 105.061C180.502 102.394 179.953 98.7428 177.357 96.9065C174.761 95.0703 171.103 95.7441 169.185 98.4115C167.268 101.079 167.818 104.73 170.414 106.566Z" fill="#F6C5A5"/>
<path d="M264.992 96.4298L265.466 82.1397C266.102 62.973 254.973 47.4353 240.61 47.4353C226.246 47.4353 214.087 62.973 213.451 82.1397L212.976 96.4298C212.34 115.597 223.469 131.134 237.832 131.134C252.196 131.134 264.356 115.597 264.992 96.4298Z" fill="#174AA1"/>
<path d="M227.642 41.127H211.95V140.522H227.642V41.127Z" fill="#2661C6"/>
<path d="M258.715 99.2552L259.277 82.308C260.032 59.5774 246.834 41.1506 229.8 41.1506C212.765 41.1506 198.345 59.5774 197.591 82.308L197.028 99.2552C196.274 121.986 209.472 140.413 226.506 140.413C243.54 140.413 257.961 121.986 258.715 99.2552Z" fill="#2661C6"/>
<path fill-rule="evenodd" clip-rule="evenodd" d="M169.491 48.0195H192.278C193.144 48.0195 193.836 48.7725 193.836 49.6414L193.778 51.0315C193.778 51.9583 193.028 52.6533 192.105 52.6533H177.741C164.703 52.6533 153.684 63.369 153.223 76.5173C152.761 89.6078 163.087 100.323 176.183 100.323H190.548C191.413 100.323 192.105 101.076 192.105 101.945L192.047 103.335C192.047 104.204 191.298 104.957 190.374 104.957H167.587C152.011 104.957 139.666 92.1564 140.185 76.5173C140.704 60.8204 153.915 48.0195 169.491 48.0195Z" fill="#2661C6"/>
<path d="M244.181 99.2552L244.744 82.308C245.498 59.5774 232.3 41.1506 215.266 41.1506C198.232 41.1506 183.811 59.5774 183.057 82.308L182.495 99.2552C181.74 121.986 194.938 140.413 211.972 140.413C229.007 140.413 243.427 121.986 244.181 99.2552Z" fill="#174AA1"/>
<path fill-rule="evenodd" clip-rule="evenodd" d="M150.569 116.716H190.951L201.393 187.439C204.797 189.64 207.22 193.289 207.681 197.343C208.373 204.005 203.585 209.391 197.009 209.391H186.394C186.048 209.449 185.702 209.507 185.298 209.507H155.472C152.184 209.507 149.127 207.48 147.742 204.352C146.358 201.224 146.992 197.865 149.357 195.837C152.703 192.999 156.799 190.972 161.357 189.929L150.569 116.716Z" fill="#174AA1"/>
<path d="M211.572 116.697H171.055L195.852 206.463H236.369L211.572 116.697Z" fill="#2661C6"/>
<path d="M157.376 104.899L165.626 73.9689C169.433 59.8937 183.971 51.4371 197.989 55.202C212.066 58.967 220.488 73.6213 216.681 87.6965L208.95 116.716H156.972C156.222 112.893 156.338 108.838 157.376 104.899Z" fill="white"/>
<path d="M214.085 110.344H150.223C148.566 110.344 147.223 111.719 147.223 113.414V127.489C147.223 129.185 148.566 130.559 150.223 130.559H214.085C215.742 130.559 217.085 129.185 217.085 127.489V113.414C217.085 111.719 215.742 110.344 214.085 110.344Z" fill="#174AA1"/>
<path fill-rule="evenodd" clip-rule="evenodd" d="M190.028 27.2835L178.49 58.4457H211.835L212.873 26.7622L190.028 27.2835Z" fill="#A45959"/>
<path fill-rule="evenodd" clip-rule="evenodd" d="M189.394 58.4457H211.835L212.873 26.9939L200.932 27.2835L189.394 58.4457Z" fill="#E37878"/>
<path fill-rule="evenodd" clip-rule="evenodd" d="M173.76 17.7843C175.721 20.5066 183.048 28.7316 195.163 21.0858C195.567 20.8541 195.97 20.7962 196.317 20.9121C196.72 21.0279 196.951 21.3175 197.066 21.723C197.47 23.5765 198.97 26.1251 204.105 26.0672C204.681 26.0672 205.201 25.6617 205.374 25.0825C206.47 21.5492 209.47 9.73305 199.201 13.5559C198.797 13.6718 198.393 13.6718 198.047 13.3822C195.451 11.5286 183.625 4.17251 173.818 16.2204C173.472 16.7417 173.414 17.3209 173.76 17.7843Z" fill="#FF8984"/>
<path fill-rule="evenodd" clip-rule="evenodd" d="M195.797 11.0652H200.932C205.951 11.0652 209.7 15.1777 209.297 20.2169L208.258 33.4811C207.854 38.6941 203.181 43.0383 197.989 43.0383H193.259C185.413 43.0383 179.529 36.6089 180.164 28.7315L180.394 25.372C181.029 17.4946 187.952 11.0652 195.797 11.0652Z" fill="#E37878"/>
<path fill-rule="evenodd" clip-rule="evenodd" d="M186.625 25.3721H187.029C187.49 25.3721 187.778 25.7196 187.778 26.1251L187.663 27.2256C187.605 27.689 187.259 28.0365 186.798 28.0365H186.394C185.759 28.0365 185.24 27.5152 185.298 26.8201V26.5305C185.356 25.8934 185.932 25.3721 186.625 25.3721Z" fill="#1D1D1D"/>
<path fill-rule="evenodd" clip-rule="evenodd" d="M184.894 22.9393L186.221 23.1131C187.144 23.2289 187.894 23.924 188.24 24.7349C188.298 24.9666 188.24 25.1983 188.067 25.372C187.894 25.5458 187.663 25.5458 187.432 25.43C187.144 25.2562 186.798 25.1403 186.509 25.0824L184.49 24.8507C183.798 24.7349 183.048 24.8507 182.471 25.0824C182.183 25.1983 181.894 25.1403 181.779 24.9087C181.606 24.677 181.606 24.3874 181.779 24.1557C182.471 23.2868 183.683 22.7655 184.894 22.9393Z" fill="#FFE084"/>
<path fill-rule="evenodd" clip-rule="evenodd" d="M195.797 11.0652H200.989C206.008 11.0652 209.816 15.1777 209.412 20.2748L208.316 33.5391C207.912 38.81 203.239 43.1542 197.989 43.1542H193.259C192.278 43.1542 191.355 43.0383 190.49 42.8645C186.913 40.7214 190.721 37.6515 190.721 37.6515L189.624 32.9019C189.509 32.4965 189.567 32.0331 189.798 31.6276L190.028 31.1642L187.605 30.4692C186.682 30.1796 186.221 29.2528 186.567 28.326L190.028 17.9579C190.086 17.8421 190.086 17.7263 190.201 17.6104C191.701 14.8881 193.144 12.8029 194.47 11.1231C194.932 11.1231 195.393 11.0652 195.797 11.0652Z" fill="#F6C5A5"/>
<path fill-rule="evenodd" clip-rule="evenodd" d="M195.797 11.0652H200.989C206.008 11.0652 209.816 15.1777 209.412 20.2748L208.777 28.1523C203.585 26.8201 202.431 23.4606 202.316 21.0857C202.316 20.5065 202.028 20.0431 201.566 19.8115C201.047 19.5218 200.528 19.5218 199.951 19.7535C195.566 21.7229 191.759 22.5338 188.528 22.4759L190.028 17.9579C190.086 17.8421 190.086 17.7263 190.201 17.6104C191.701 14.8881 193.144 12.8029 194.47 11.1231C194.932 11.1231 195.393 11.0652 195.797 11.0652Z" fill="#E37878"/>
<path fill-rule="evenodd" clip-rule="evenodd" d="M171.741 8.80627C173.76 13.0346 181.779 26.3567 200.066 18.5951C200.585 18.3635 201.162 18.3635 201.624 18.6531C202.143 18.9427 202.374 19.4061 202.432 19.9853C202.547 22.6497 203.989 26.5884 210.912 27.7469C211.72 27.8627 212.527 27.4573 212.931 26.7043C215.239 22.0705 222.219 6.25769 207.335 9.03796C206.701 9.1538 206.181 9.03796 205.778 8.57458C202.72 5.38885 188.528 -7.81744 172.26 6.66314C171.625 7.18444 171.395 8.1112 171.741 8.80627Z" fill="#FFE084"/>
<path fill-rule="evenodd" clip-rule="evenodd" d="M194.932 25.3721H194.47C194.067 25.3721 193.72 25.7196 193.663 26.1251L193.605 27.2256C193.547 27.689 193.894 28.0365 194.297 28.0365H194.701C195.393 28.0365 195.97 27.5152 196.028 26.8201V26.5305C196.086 25.8934 195.566 25.3721 194.932 25.3721Z" fill="#1D1D1D"/>
<path fill-rule="evenodd" clip-rule="evenodd" d="M195.797 21.0278H194.47C193.547 21.0278 192.682 21.6071 192.278 22.36C192.105 22.5917 192.163 22.8234 192.278 23.0551C192.451 23.2289 192.682 23.2868 192.913 23.171C193.259 23.0551 193.547 22.9972 193.894 22.9972H195.913C196.663 22.9972 197.355 23.171 197.874 23.5185C198.105 23.6923 198.393 23.6343 198.624 23.4026C198.797 23.2289 198.855 22.9393 198.739 22.7076C198.163 21.7229 197.066 21.0278 195.797 21.0278Z" fill="#FFE084"/>
<path fill-rule="evenodd" clip-rule="evenodd" d="M183.74 8.05318C185.182 11.181 191.067 20.9119 204.508 15.2355C204.912 15.0618 205.316 15.0618 205.662 15.2935C206.008 15.5252 206.181 15.8148 206.239 16.2781C206.297 18.2475 207.393 21.1436 212.469 21.9545C213.046 22.0704 213.623 21.7228 213.912 21.2015C215.642 17.7841 220.719 6.19966 209.816 8.22694C209.354 8.34279 209.008 8.22694 208.72 7.87941C206.47 5.56252 196.028 -4.16844 184.086 6.48927C183.625 6.89473 183.452 7.53188 183.74 8.05318Z" fill="#FFF3CF"/>
<path fill-rule="evenodd" clip-rule="evenodd" d="M211.316 20.5066H213.219C215.008 20.5066 216.392 22.0126 216.219 23.8082L215.931 27.7469C215.758 29.6583 214.085 31.2222 212.181 31.2222H210.45C207.624 31.2222 205.489 28.9053 205.72 26.0671V25.6617C205.951 22.8235 208.489 20.5066 211.316 20.5066Z" fill="#F6C5A5"/>
<path fill-rule="evenodd" clip-rule="evenodd" d="M212.643 23.6923C212.931 23.9819 212.873 24.4453 212.585 24.7349L210.912 26.2409L212.296 27.7469C212.585 28.0365 212.527 28.4999 212.239 28.7895C211.95 29.0791 211.489 29.0791 211.2 28.7895L209.354 26.7622C209.239 26.6463 209.181 26.4147 209.181 26.2409C209.239 26.0671 209.297 25.8354 209.47 25.6617L211.604 23.6923C211.893 23.4027 212.412 23.4027 212.643 23.6923Z" fill="#E37878"/>
<path fill-rule="evenodd" clip-rule="evenodd" d="M213.219 23.1133L219.565 13.1506L220.373 13.614C220.834 13.9036 221.065 14.4828 220.892 15.0621L218.815 21.2598C218.815 21.3756 218.758 21.4915 218.7 21.5494L216.508 25.0247C216.104 25.6619 215.296 25.8935 214.719 25.546L213.623 24.9089C212.989 24.5613 212.873 23.7504 213.219 23.1133Z" fill="#174AA1"/>
<path fill-rule="evenodd" clip-rule="evenodd" d="M215.354 22.1863L218.469 17.3208L218.873 17.5525C219.104 17.6683 219.219 17.9579 219.104 18.2476L218.123 21.2595C218.123 21.3174 218.065 21.3754 218.065 21.4333L216.969 23.113C216.796 23.4026 216.392 23.5185 216.104 23.3447L215.585 23.0551C215.296 22.8813 215.181 22.4759 215.354 22.1863Z" fill="#3E81EC"/>
<path fill-rule="evenodd" clip-rule="evenodd" d="M212.527 22.3601H213.623C214.662 22.3601 215.469 23.2289 215.354 24.2715L215.181 26.5884C215.123 27.689 214.142 28.5578 213.046 28.5578H212.066C210.393 28.5578 209.181 27.2256 209.297 25.5458V25.3721C209.47 23.7502 210.912 22.3601 212.527 22.3601Z" fill="#174AA1"/>
<path fill-rule="evenodd" clip-rule="evenodd" d="M213.508 23.7502H214.2C214.892 23.7502 215.469 24.3295 215.412 25.0825L215.296 26.5884C215.239 27.3414 214.546 27.9206 213.796 27.9206H213.162C212.066 27.9206 211.2 27.0518 211.316 25.9513V25.7775C211.431 24.677 212.412 23.7502 213.508 23.7502Z" fill="#3E81EC"/>
<path fill-rule="evenodd" clip-rule="evenodd" d="M214.142 24.5613H214.604C215.008 24.5613 215.354 24.9667 215.296 25.3722L215.239 26.299C215.181 26.7623 214.777 27.1099 214.316 27.1099H213.912C213.277 27.1099 212.758 26.5886 212.816 25.8935V25.8356C212.873 25.1405 213.45 24.5613 214.142 24.5613Z" fill="#81BCFF"/>
<path d="M197.286 49.125H181.802C161.033 49.125 143.775 61.8442 143.254 77.5341C142.734 93.2241 159.148 105.943 179.916 105.943H195.401C216.169 105.943 233.427 93.2241 233.948 77.5341C234.469 61.8442 218.054 49.125 197.286 49.125Z" fill="white"/>
<path fill-rule="evenodd" clip-rule="evenodd" d="M162.568 57.0557H164.299H167.126H169.664C170.587 57.0557 171.106 57.8666 170.76 58.7933C170.472 59.778 169.433 60.531 168.453 60.531H165.914H163.145H161.357C159.915 60.531 158.357 61.1102 157.088 62.0949C155.761 63.0796 154.723 64.4118 154.203 65.8599C153.684 67.3079 153.857 68.6401 154.492 69.5669C155.069 70.5516 156.222 71.1308 157.665 71.1308H159.453H162.222H164.76C165.741 71.1308 166.203 71.9417 165.914 72.8685C165.568 73.8531 164.53 74.6061 163.549 74.6061H161.011H158.242H156.453C154.03 74.6061 152.184 73.6215 151.146 72.0576C150.165 70.4357 149.934 68.2347 150.742 65.8599C151.607 63.4271 153.338 61.2261 155.472 59.6622C157.607 58.0403 160.145 57.0557 162.568 57.0557Z" fill="#5999F1"/>
<path fill-rule="evenodd" clip-rule="evenodd" d="M167.472 64.0063H165.683H162.914H160.376C159.395 64.0063 158.357 64.8173 158.069 65.744C157.722 66.6708 158.242 67.4817 159.165 67.4817H161.703H164.53H166.26C167.76 67.4817 168.856 68.0609 169.491 69.0456C170.126 70.0303 170.241 71.3046 169.722 72.8105C169.203 74.2586 168.164 75.5908 166.895 76.5176C165.568 77.5022 164.068 78.0815 162.626 78.0815H160.838H158.011H155.473C154.549 78.0815 153.511 78.8924 153.165 79.8191C152.819 80.8038 153.338 81.5568 154.261 81.5568H156.857H159.626H161.414C163.78 81.5568 166.318 80.5721 168.453 79.0082C170.587 77.3864 172.375 75.1853 173.183 72.8105C174.048 70.3778 173.818 68.1768 172.779 66.6129C171.741 64.991 169.895 64.0063 167.472 64.0063Z" fill="#5999F1"/>
<path d="M177.856 108.665H154.665C154.059 108.665 153.569 110.272 153.569 112.256V128.706C153.569 130.689 154.059 132.297 154.665 132.297H177.856C178.461 132.297 178.952 130.689 178.952 128.706V112.256C178.952 110.272 178.461 108.665 177.856 108.665Z" fill="#2661C6"/>
<path fill-rule="evenodd" clip-rule="evenodd" d="M184.894 108.665H188.759C190.721 108.665 192.336 110.228 192.336 112.198V128.706C192.336 130.675 190.721 132.297 188.759 132.297H184.894C186.855 132.297 188.471 130.675 188.471 128.706V112.198C188.471 110.228 186.855 108.665 184.894 108.665Z" fill="#2661C6"/>
<path d="M212.063 46.4324H180.687C179.352 46.4324 178.235 47.5185 178.19 48.8583L178.18 49.164C178.136 50.5038 179.181 51.59 180.516 51.59H211.891C213.226 51.59 214.344 50.5038 214.388 49.164L214.398 48.8583C214.443 47.5185 213.397 46.4324 212.063 46.4324Z" fill="white"/>
<path fill-rule="evenodd" clip-rule="evenodd" d="M207.797 48.0195H230.584C231.507 48.0195 232.199 48.7725 232.141 49.6414V51.0315C232.084 51.9583 231.334 52.6533 230.468 52.6533H216.104C203.008 52.6533 191.99 63.369 191.586 76.5173C191.124 89.6078 201.451 100.323 214.489 100.323H228.853C229.776 100.323 230.468 101.076 230.411 101.945V103.335C230.353 104.204 229.603 104.957 228.738 104.957H205.951C190.317 104.957 178.029 92.1564 178.548 76.5173C179.067 60.8204 192.221 48.0195 207.797 48.0195Z" fill="#2661C6"/>
<path d="M202.655 60.1233L202.408 60.3085C194.237 66.4432 194.127 80.1622 202.162 90.9508L211.915 104.046C219.95 114.835 233.087 118.607 241.258 112.473L241.505 112.288C249.676 106.153 249.786 92.4338 241.751 81.6452L231.998 68.5501C223.963 57.7615 210.826 53.9887 202.655 60.1233Z" fill="#F6C5A5"/>
<path fill-rule="evenodd" clip-rule="evenodd" d="M220.604 113.414C218.584 112.197 216.796 110.576 215.296 108.606L198.739 86.4221C193.028 78.6605 194.124 67.8869 201.047 61.4575C203.008 62.6739 204.854 64.2957 206.297 66.2651L222.853 88.4493C228.622 96.2109 227.469 106.984 220.604 113.414Z" fill="#E37878"/>
<path fill-rule="evenodd" clip-rule="evenodd" d="M201.97 108.665H205.835C207.797 108.665 209.412 110.228 209.412 112.198V128.706C209.412 130.675 207.797 132.297 205.835 132.297H201.97C203.931 132.297 205.547 130.675 205.547 128.706V112.198C205.547 110.228 203.931 108.665 201.97 108.665Z" fill="#2661C6"/>
<path d="M216.104 189.177C223.488 189.177 230.238 191.667 235.661 195.838C238.257 197.865 239.237 201.224 238.199 204.352C237.103 207.48 234.334 209.507 231.045 209.507H201.162C197.874 209.507 195.105 207.48 194.009 204.352C192.971 201.224 193.951 197.865 196.547 195.838C201.97 191.667 208.777 189.177 216.104 189.177Z" fill="#FA6C6C"/>
<path d="M260.845 209.102H127.089C126.452 209.102 125.936 209.608 125.936 210.234C125.936 210.859 126.452 211.366 127.089 211.366H260.845C261.483 211.366 261.999 210.859 261.999 210.234C261.999 209.608 261.483 209.102 260.845 209.102Z" fill="url(#paint0_linear)"/>
<path d="M119.717 209.102H114.571C114.539 209.102 114.513 209.608 114.513 210.234C114.513 210.859 114.539 211.366 114.571 211.366H119.717C119.749 211.366 119.775 210.859 119.775 210.234C119.775 209.608 119.749 209.102 119.717 209.102Z" fill="url(#paint1_linear)"/>
<path d="M279.92 209.102H274.774C274.742 209.102 274.716 209.608 274.716 210.234C274.716 210.859 274.742 211.366 274.774 211.366H279.92C279.952 211.366 279.978 210.859 279.978 210.234C279.978 209.608 279.952 209.102 279.92 209.102Z" fill="url(#paint2_linear)"/>
<path fill-rule="evenodd" clip-rule="evenodd" d="M196.547 164.965C196.143 164.617 196.143 164.038 196.432 163.633C196.778 163.227 197.413 163.169 197.759 163.517C197.816 163.517 201.682 167.108 205.778 163.517C206.124 163.169 206.758 163.227 207.104 163.633C207.45 164.038 207.393 164.617 206.989 164.965C201.682 169.657 196.547 164.965 196.547 164.965Z" fill="#5999F1"/>
<path d="M239.756 202.383H194.009C192.352 202.383 191.009 203.731 191.009 205.395V206.032C191.009 207.695 192.352 209.044 194.009 209.044H239.756C241.413 209.044 242.756 207.695 242.756 206.032V205.395C242.756 203.731 241.413 202.383 239.756 202.383Z" fill="white"/>
<path d="M216.104 184.832C220.892 184.832 225.334 186.454 228.853 189.234C230.584 190.509 231.218 192.71 230.526 194.737C229.834 196.764 227.988 198.096 225.853 198.096H206.354C204.22 198.096 202.374 196.764 201.682 194.737C200.989 192.71 201.624 190.509 203.355 189.234C206.874 186.454 211.316 184.832 216.104 184.832Z" fill="white"/>
<path d="M116.191 141.149L116.632 140.397C118.85 136.611 122.619 134.706 125.051 136.142C127.483 137.578 127.656 141.812 125.438 145.598L124.998 146.349C122.78 150.136 119.01 152.041 116.578 150.605C114.147 149.169 113.973 144.935 116.191 141.149Z" fill="#E37878"/>
<path fill-rule="evenodd" clip-rule="evenodd" d="M251.064 115.847C251.237 115.615 251.352 115.383 251.525 115.21L251.583 115.152C252.448 113.935 253.198 112.545 253.833 111.097C258.448 100.382 253.544 87.9282 242.872 83.2944C232.199 78.6607 219.796 83.584 215.181 94.3576C214.546 95.8057 214.085 97.2537 213.796 98.7597V98.8176C213.739 99.0493 213.681 99.3389 213.681 99.6285L206.585 141.738C205.604 146.488 208.027 151.469 212.643 153.496C217.315 155.466 222.565 153.844 225.334 149.847L251.064 115.847Z" fill="#F6C5A5"/>
<path d="M217.021 154.519C225.31 156.247 233.425 150.901 235.145 142.578C236.866 134.256 231.541 126.109 223.252 124.381C214.963 122.653 206.849 128 205.128 136.322C203.408 144.644 208.732 152.792 217.021 154.519Z" fill="white"/>
<path d="M198.357 147.927L198.551 146.954C199.529 142.052 202.874 138.591 206.023 139.224C209.172 139.857 210.932 144.344 209.954 149.247L209.76 150.22C208.782 155.123 205.437 158.584 202.288 157.951C199.139 157.317 197.379 152.83 198.357 147.927Z" fill="#E37878"/>
<path d="M245.906 95.1611C249.064 95.8193 252.156 93.7825 252.811 90.6118C253.467 87.4411 251.438 84.3372 248.28 83.679C245.122 83.0209 242.031 85.0577 241.375 88.2284C240.72 91.3991 242.749 94.503 245.906 95.1611Z" fill="#F6C5A5"/>
<path d="M12.9224 201.63C11.7109 201.108 11.1917 199.718 11.7109 198.502C12.2301 197.343 13.6147 196.764 14.7684 197.285C14.8838 197.343 36.6327 207.538 92.3605 175.796C122.878 158.42 155.011 147.125 185.875 146.14C213.277 145.213 239.583 152.338 262.89 170.409C310.714 207.596 361.885 203.413 362 203.413C363.327 203.298 362.66 204.416 362.776 205.748C362.891 207.023 361.201 207.968 359.931 208.084C359.758 208.084 309.33 212.461 260.005 174.174C237.68 156.856 212.354 149.963 185.99 150.832C155.992 151.816 124.551 162.88 94.7257 179.909C36.8634 212.867 12.9801 201.688 12.9224 201.63Z" fill="url(#paint3_linear)"/>
<path fill-rule="evenodd" clip-rule="evenodd" d="M150.915 151.469L152.646 154.944C154.376 158.304 152.934 162.358 149.473 163.922L132.974 171.336C129.339 172.958 124.955 171.394 123.167 167.803L121.609 164.617C118.955 159.288 121.205 152.975 126.57 150.542L136.262 146.198C141.685 143.765 148.261 146.14 150.915 151.469Z" fill="#F6C5A5"/>
<path fill-rule="evenodd" clip-rule="evenodd" d="M201.278 166.587L201.451 156.103C201.508 154.191 203.124 152.685 205.028 152.685L208.72 152.743C210.739 152.743 212.296 154.423 212.296 156.392L212.066 166.703C212.008 169.714 209.527 172.089 206.585 172.089C203.585 172.031 201.22 169.541 201.278 166.587Z" fill="#E37878"/>
<path fill-rule="evenodd" clip-rule="evenodd" d="M233.988 152.975L233.757 158.536C233.526 164.038 228.911 168.324 223.488 168.093L211.546 167.629C205.893 167.398 201.451 162.59 201.624 156.856L201.855 151.701C202.201 143.186 209.412 136.467 217.892 136.815H219.104C227.642 137.162 234.334 144.402 233.988 152.975Z" fill="#E37878"/>
<path fill-rule="evenodd" clip-rule="evenodd" d="M234.103 146.835L233.93 152.454C233.699 157.898 229.084 162.184 223.661 161.953L211.719 161.489C206.008 161.316 201.566 156.45 201.797 150.774L201.97 145.619C202.316 137.046 209.527 130.327 218.065 130.675L219.277 130.733C227.757 131.08 234.449 138.321 234.103 146.835Z" fill="#F6C5A5"/>
<path d="M112.053 145.329L112.759 144.821C116.313 142.259 120.528 142.048 122.173 144.349C123.818 146.65 122.271 150.592 118.717 153.154L118.011 153.662C114.457 156.224 110.242 156.435 108.597 154.134C106.952 151.833 108.499 147.89 112.053 145.329Z" fill="#E37878"/>
<path d="M24.7415 193.1L7.6508 194.709C3.00067 195.146 -0.41564 199.286 0.0202665 203.955L0.0553707 204.331C0.491277 209 4.61433 212.43 9.26447 211.992L26.3552 210.384C31.0053 209.946 34.4217 205.806 33.9857 201.137L33.9506 200.761C33.5147 196.092 29.3917 192.662 24.7415 193.1Z" fill="url(#paint4_linear)"/>
<path d="M38.5645 202.864L37.8122 196.631C37.6075 194.935 36.0723 193.727 34.3833 193.933L34.2472 193.949C32.5582 194.155 31.3548 195.696 31.5595 197.392L32.3118 203.625C32.5165 205.321 34.0517 206.529 35.7407 206.324L35.8768 206.307C37.5658 206.102 38.7692 204.56 38.5645 202.864Z" fill="url(#paint5_linear)"/>
<path d="M45.5405 201.681L44.5906 195.476C44.3322 193.787 42.7594 192.629 41.0777 192.888L40.9423 192.909C39.2606 193.168 38.1068 194.748 38.3652 196.436L39.3151 202.642C39.5735 204.33 41.1463 205.489 42.828 205.229L42.9635 205.208C44.6452 204.949 45.7989 203.37 45.5405 201.681Z" fill="url(#paint6_linear)"/>
<path fill-rule="evenodd" clip-rule="evenodd" d="M191.298 35.2767H193.201C193.605 35.2767 193.951 34.9292 194.009 34.5238C194.009 34.1183 193.778 33.7708 193.374 33.7128C192.682 33.5391 191.932 33.5391 191.124 33.7128C190.721 33.7708 190.49 34.1762 190.49 34.5817C190.548 34.9292 190.894 35.2767 191.298 35.2767Z" fill="#1D1D1D"/>
<path fill-rule="evenodd" clip-rule="evenodd" d="M191.297 35.2768H193.201C193.605 35.2768 193.951 34.9872 194.009 34.5817C193.374 34.4659 192.624 34.4659 191.932 34.6396C191.586 34.6976 191.355 34.9292 191.297 35.2768Z" fill="white"/>
<path fill-rule="evenodd" clip-rule="evenodd" d="M49.6951 163.596L48.2897 170.865L47.7648 173.823L48.631 173.71L52.4454 173.224L47.2406 181.036L42.0766 188.777L43.482 181.507L44.0069 178.549L43.1406 178.662L39.3262 179.148L44.4902 171.408L49.6951 163.596Z" fill="url(#paint7_linear)"/>
<path fill-rule="evenodd" clip-rule="evenodd" d="M27.4398 174.425L28.8268 178.462L29.4146 180.091L29.8147 179.784L31.58 178.438L31.2253 183.845L30.8707 189.205L29.4836 185.168L28.8959 183.539L28.4958 183.846L26.7305 185.192L27.0851 179.832L27.4398 174.425Z" fill="url(#paint8_linear)"/>
<path d="M231.738 9.9068C230.411 6.72107 228.046 4.17249 225.161 2.66651C225.103 2.60859 225.103 2.60859 225.103 2.60859H225.046C224.988 2.60859 224.988 2.55066 224.988 2.55066C222.104 1.10261 218.758 0.523383 215.412 1.21845C215.008 1.3343 214.719 1.50806 214.546 1.8556C214.373 2.14521 214.315 2.49274 214.431 2.84028L214.546 3.24573C214.719 3.82496 215.354 4.23041 215.988 4.11457C218.7 3.53534 221.354 3.9408 223.661 5.15717C223.661 5.15717 223.661 5.15717 223.719 5.15717V5.21509C223.777 5.21509 223.777 5.21509 223.777 5.21509C226.084 6.43146 227.988 8.45874 229.026 11.0073C229.315 11.5865 229.949 11.9341 230.584 11.7024L230.93 11.5865C231.276 11.4707 231.565 11.2969 231.738 10.9494C231.853 10.6019 231.853 10.2543 231.738 9.9068ZM226.026 11.5865C225.161 9.96472 223.892 8.69043 222.334 7.87952C220.834 7.06861 219.046 6.72107 217.258 6.95276C216.854 7.01068 216.565 7.18445 216.335 7.53199C216.104 7.8216 216.104 8.16913 216.219 8.57459L216.335 8.92212C216.508 9.55927 217.027 9.9068 217.661 9.84888C218.815 9.67511 219.969 9.9068 221.007 10.4281C221.988 11.0073 222.854 11.8182 223.373 12.8608C223.661 13.3821 224.296 13.6718 224.873 13.498L225.276 13.3821C225.623 13.2663 225.911 13.0346 226.026 12.6292C226.199 12.2816 226.199 11.9341 226.026 11.5865Z" fill="white"/>
<path fill-rule="evenodd" clip-rule="evenodd" d="M159.395 111.966H161.703C160.261 111.966 159.107 113.125 159.107 114.515V126.389C159.107 127.837 160.261 128.995 161.703 128.995H159.395C158.011 128.995 156.857 127.837 156.857 126.389V114.515C156.857 113.125 158.011 111.966 159.395 111.966Z" fill="#174AA1"/>
<path fill-rule="evenodd" clip-rule="evenodd" d="M4.18028 177.071L8.21467 180.587L9.8731 181.988L10.1161 181.402L11.1932 178.826L14.1908 184.929L17.1589 190.981L13.1245 187.465L11.466 186.064L11.2231 186.65L10.1459 189.226L7.17786 183.174L4.18028 177.071Z" fill="url(#paint9_linear)"/>
</g>
<defs>
<linearGradient id="paint0_linear" x1="169.136" y1="210.89" x2="169.168" y2="208.611" gradientUnits="userSpaceOnUse">
<stop stop-color="#6B75E3"/>
<stop offset="1" stop-color="#72A4F3"/>
</linearGradient>
<linearGradient id="paint1_linear" x1="116.184" y1="210.89" x2="116.924" y2="208.884" gradientUnits="userSpaceOnUse">
<stop stop-color="#6B75E3"/>
<stop offset="1" stop-color="#72A4F3"/>
</linearGradient>
<linearGradient id="paint2_linear" x1="276.387" y1="210.89" x2="277.127" y2="208.884" gradientUnits="userSpaceOnUse">
<stop stop-color="#6B75E3"/>
<stop offset="1" stop-color="#72A4F3"/>
</linearGradient>
<linearGradient id="paint3_linear" x1="123.059" y1="195.179" x2="132.346" y2="133.995" gradientUnits="userSpaceOnUse">
<stop stop-color="#6B75E3"/>
<stop offset="1" stop-color="#72A4F3"/>
</linearGradient>
<linearGradient id="paint4_linear" x1="11.2787" y1="208.141" x2="16.2899" y2="192.927" gradientUnits="userSpaceOnUse">
<stop stop-color="#6B75E3"/>
<stop offset="1" stop-color="#72A4F3"/>
</linearGradient>
<linearGradient id="paint5_linear" x1="32.9761" y1="198.09" x2="38.5515" y2="199.747" gradientUnits="userSpaceOnUse">
<stop stop-color="#6B75E3"/>
<stop offset="1" stop-color="#72A4F3"/>
</linearGradient>
<linearGradient id="paint6_linear" x1="39.8034" y1="197.089" x2="45.4281" y2="198.567" gradientUnits="userSpaceOnUse">
<stop stop-color="#6B75E3"/>
<stop offset="1" stop-color="#72A4F3"/>
</linearGradient>
<linearGradient id="paint7_linear" x1="48.4475" y1="170.184" x2="41.5487" y2="187.591" gradientUnits="userSpaceOnUse">
<stop stop-color="#FEB137"/>
<stop offset="1" stop-color="#FEB137" stop-opacity="0"/>
</linearGradient>
<linearGradient id="paint8_linear" x1="28.7099" y1="178.077" x2="30.302" y2="188.761" gradientUnits="userSpaceOnUse">
<stop stop-color="#FEB137"/>
<stop offset="1" stop-color="#FEB137" stop-opacity="0"/>
</linearGradient>
<linearGradient id="paint9_linear" x1="7.84601" y1="180.241" x2="16.287" y2="190.836" gradientUnits="userSpaceOnUse">
<stop stop-color="#FEB137"/>
<stop offset="1" stop-color="#FEB137" stop-opacity="0"/>
</linearGradient>
<clipPath id="clip0">
<rect width="362" height="212" fill="white"/>
</clipPath>
</defs>
</svg>
