<svg width="764" height="730" viewBox="0 0 764 730" fill="none" xmlns="http://www.w3.org/2000/svg">
<circle cx="372" cy="365" r="365" fill="#5282FF" fill-opacity="0.05"/>
<circle cx="372" cy="365" r="290" fill="#5282FF" fill-opacity="0.05"/>
<circle opacity="0.05" cx="372" cy="365" r="220" fill="#5282FF"/>
<circle cx="372" cy="365" r="145" fill="#5282FF" fill-opacity="0.08"/>
<circle cx="372" cy="365" r="74" fill="#5282FF" fill-opacity="0.15"/>
<circle cx="372" cy="365" r="364.5" stroke="#5282FF"/>
<circle cx="372" cy="365" r="289.5" stroke="#5282FF"/>
<circle cx="372" cy="365" r="219.25" stroke="#5282FF" stroke-width="1.5"/>
<circle cx="372" cy="365" r="144.25" stroke="#5282FF" stroke-width="1.5"/>
<circle cx="372" cy="365" r="73.25" stroke="#5282FF" stroke-width="1.5"/>
<path opacity="0.15" fill-rule="evenodd" clip-rule="evenodd" d="M332 340.7C332 332.029 339.029 325 347.7 325C356.371 325 363.4 332.029 363.4 340.7V349H380V341C380 332.163 387.163 325 396 325C404.837 325 412 332.163 412 341C412 349.837 404.837 357 396 357H388V373H396C404.837 373 412 380.163 412 389C412 397.837 404.837 405 396 405C387.163 405 380 397.837 380 389V381H363.4V389.3C363.4 397.971 356.371 405 347.7 405C339.029 405 332 397.971 332 389.3V389C332 380.163 339.163 373 348 373H355.4V357H348C339.163 357 332 349.837 332 341V340.7ZM355.4 349V340.7C355.4 336.447 351.953 333 347.7 333C343.447 333 340 336.447 340 340.7V341C340 345.418 343.582 349 348 349H355.4ZM363.4 357V373H380V357H363.4ZM355.4 381H348C343.582 381 340 384.582 340 389V389.3C340 393.553 343.447 397 347.7 397C351.953 397 355.4 393.553 355.4 389.3V381ZM388 381V389C388 393.418 391.582 397 396 397C400.418 397 404 393.418 404 389C404 384.582 400.418 381 396 381H388ZM388 349H396C400.418 349 404 345.418 404 341C404 336.582 400.418 333 396 333C391.582 333 388 336.582 388 341V349Z" fill="#5282FF"/>
<path fill-rule="evenodd" clip-rule="evenodd" d="M352 352.85C352 348.515 355.515 345 359.85 345C364.185 345 367.7 348.515 367.7 352.85V357H376V353C376 348.582 379.582 345 384 345C388.418 345 392 348.582 392 353C392 357.418 388.418 361 384 361H380V369H384C388.418 369 392 372.582 392 377C392 381.418 388.418 385 384 385C379.582 385 376 381.418 376 377V373H367.7V377.15C367.7 381.485 364.185 385 359.85 385C355.515 385 352 381.485 352 377.15V377C352 372.582 355.582 369 360 369H363.7V361H360C355.582 361 352 357.418 352 353V352.85ZM363.7 357V352.85C363.7 350.724 361.976 349 359.85 349C357.724 349 356 350.724 356 352.85V353C356 355.209 357.791 357 360 357H363.7ZM367.7 361V369H376V361H367.7ZM363.7 373H360C357.791 373 356 374.791 356 377V377.15C356 379.276 357.724 381 359.85 381C361.976 381 363.7 379.276 363.7 377.15V373ZM380 373V377C380 379.209 381.791 381 384 381C386.209 381 388 379.209 388 377C388 374.791 386.209 373 384 373H380ZM380 357H384C386.209 357 388 355.209 388 353C388 350.791 386.209 349 384 349C381.791 349 380 350.791 380 353V357Z" fill="#5282FF"/>
<g filter="url(#filter0_d)">
<rect x="539" y="155" width="190" height="70" rx="8" fill="white"/>
</g>
<path d="M618.352 195.224C616.667 195.224 615.275 194.664 614.176 193.544C613.077 192.424 612.528 191.043 612.528 189.4C612.528 187.747 613.077 186.365 614.176 185.256C615.275 184.136 616.667 183.576 618.352 183.576C619.365 183.576 620.299 183.816 621.152 184.296C622.016 184.765 622.688 185.405 623.168 186.216L621.264 187.32C620.987 186.819 620.592 186.429 620.08 186.152C619.568 185.864 618.992 185.72 618.352 185.72C617.264 185.72 616.384 186.061 615.712 186.744C615.051 187.427 614.72 188.312 614.72 189.4C614.72 190.477 615.051 191.357 615.712 192.04C616.384 192.723 617.264 193.064 618.352 193.064C618.992 193.064 619.568 192.925 620.08 192.648C620.603 192.36 620.997 191.971 621.264 191.48L623.168 192.584C622.688 193.395 622.021 194.04 621.168 194.52C620.315 194.989 619.376 195.224 618.352 195.224ZM630.857 187V188.984H628.361V195H626.297V188.984H623.769V187H630.857ZM637.727 187H639.791V195H637.727V194.056C637.108 194.835 636.239 195.224 635.119 195.224C634.052 195.224 633.135 194.819 632.367 194.008C631.61 193.187 631.231 192.184 631.231 191C631.231 189.816 631.61 188.819 632.367 188.008C633.135 187.187 634.052 186.776 635.119 186.776C636.239 186.776 637.108 187.165 637.727 187.944V187ZM633.919 192.632C634.335 193.048 634.863 193.256 635.503 193.256C636.143 193.256 636.671 193.048 637.087 192.632C637.514 192.205 637.727 191.661 637.727 191C637.727 190.339 637.514 189.8 637.087 189.384C636.671 188.957 636.143 188.744 635.503 188.744C634.863 188.744 634.335 188.957 633.919 189.384C633.503 189.8 633.295 190.339 633.295 191C633.295 191.661 633.503 192.205 633.919 192.632ZM647.967 187V188.984H645.471V195H643.407V188.984H640.879V187H647.967ZM654.845 187H656.381V195H654.365V190.456L650.605 195H649.069V187H651.085V191.544L654.845 187ZM662.08 195.224C660.875 195.224 659.867 194.819 659.056 194.008C658.256 193.197 657.856 192.195 657.856 191C657.856 189.805 658.256 188.803 659.056 187.992C659.867 187.181 660.875 186.776 662.08 186.776C662.859 186.776 663.568 186.963 664.208 187.336C664.848 187.709 665.333 188.211 665.664 188.84L663.888 189.88C663.728 189.549 663.483 189.288 663.152 189.096C662.832 188.904 662.469 188.808 662.064 188.808C661.445 188.808 660.933 189.016 660.528 189.432C660.123 189.837 659.92 190.36 659.92 191C659.92 191.629 660.123 192.152 660.528 192.568C660.933 192.973 661.445 193.176 662.064 193.176C662.48 193.176 662.848 193.085 663.168 192.904C663.499 192.712 663.744 192.451 663.904 192.12L665.696 193.144C665.344 193.773 664.848 194.28 664.208 194.664C663.568 195.037 662.859 195.224 662.08 195.224ZM673.045 187V188.984H670.549V195H668.485V188.984H665.957V187H673.045ZM679.923 187H681.459V195H679.443V190.456L675.683 195H674.147V187H676.163V191.544L679.923 187ZM690.726 195H688.326L685.414 191.368V195H683.35V187H685.414V190.52L688.166 187H690.63L687.414 190.952L690.726 195ZM697.258 187H699.322V195H697.258V194.056C696.64 194.835 695.77 195.224 694.65 195.224C693.584 195.224 692.666 194.819 691.898 194.008C691.141 193.187 690.762 192.184 690.762 191C690.762 189.816 691.141 188.819 691.898 188.008C692.666 187.187 693.584 186.776 694.65 186.776C695.77 186.776 696.64 187.165 697.258 187.944V187ZM693.45 192.632C693.866 193.048 694.394 193.256 695.034 193.256C695.674 193.256 696.202 193.048 696.618 192.632C697.045 192.205 697.258 191.661 697.258 191C697.258 190.339 697.045 189.8 696.618 189.384C696.202 188.957 695.674 188.744 695.034 188.744C694.394 188.744 693.866 188.957 693.45 189.384C693.034 189.8 692.826 190.339 692.826 191C692.826 191.661 693.034 192.205 693.45 192.632Z" fill="#2A2B31"/>
<g filter="url(#filter1_d)">
<circle cx="575.5" cy="189.5" r="22.5" fill="url(#paint0_linear)"/>
</g>
<path fill-rule="evenodd" clip-rule="evenodd" d="M584.912 189.091H576.912V181.091C576.912 180.799 576.795 180.518 576.586 180.313C576.378 180.108 576.096 179.995 575.803 180C570.55 180.104 566.273 184.254 566.013 189.501C565.752 194.749 569.596 199.303 574.812 199.927C574.912 199.927 575.003 199.927 575.094 199.927V200H576.003C581.449 200.001 585.894 195.645 586.003 190.2C586.008 189.908 585.895 189.625 585.69 189.417C585.485 189.208 585.205 189.091 584.912 189.091ZM574.84 198.1C570.752 197.526 567.732 193.997 567.796 189.869C567.861 185.742 570.99 182.309 575.094 181.864V189.818C575.094 190.108 575.209 190.385 575.414 190.59C575.618 190.794 575.896 190.909 576.185 190.909H584.185C583.94 193.12 582.805 195.136 581.042 196.493C579.279 197.85 577.04 198.43 574.84 198.1Z" fill="white"/>
<path fill-rule="evenodd" clip-rule="evenodd" d="M578.912 188.182H584.43C584.782 188.181 585.112 188.01 585.315 187.723C585.519 187.436 585.572 187.069 585.458 186.737C584.455 183.831 582.172 181.548 579.267 180.546C578.934 180.431 578.567 180.484 578.28 180.688C577.994 180.892 577.823 181.221 577.821 181.573V187.091C577.821 187.694 578.31 188.182 578.912 188.182ZM579.64 182.664C581.24 183.465 582.539 184.763 583.34 186.364H579.64V182.664Z" fill="white"/>
<g filter="url(#filter2_d)">
<rect x="461" y="412" width="190" height="70" rx="8" fill="white"/>
</g>
<path d="M541.232 440.8H543.44L540.08 448.912C539.184 451.088 537.712 452.117 535.664 452V449.936C536.261 449.989 536.741 449.909 537.104 449.696C537.477 449.472 537.787 449.115 538.032 448.624L534.368 440.8H536.576L539.024 446.208L541.232 440.8ZM550.457 450.064H551.513V454.144H549.497V452H544.537V454.144H542.521V450.064H543.497C543.955 449.381 544.185 448.437 544.185 447.232V444H550.457V450.064ZM545.705 450.064H548.441V445.856H546.201V447.232C546.201 448.363 546.035 449.307 545.705 450.064ZM559.323 451.008C558.501 451.819 557.499 452.224 556.315 452.224C555.131 452.224 554.128 451.819 553.307 451.008C552.496 450.187 552.09 449.184 552.09 448C552.09 446.816 552.496 445.819 553.307 445.008C554.128 444.187 555.131 443.776 556.315 443.776C557.499 443.776 558.501 444.187 559.323 445.008C560.144 445.819 560.555 446.816 560.555 448C560.555 449.184 560.144 450.187 559.323 451.008ZM554.763 449.584C555.179 450 555.696 450.208 556.315 450.208C556.933 450.208 557.451 450 557.867 449.584C558.283 449.168 558.491 448.64 558.491 448C558.491 447.36 558.283 446.832 557.867 446.416C557.451 446 556.933 445.792 556.315 445.792C555.696 445.792 555.179 446 554.763 446.416C554.357 446.832 554.155 447.36 554.155 448C554.155 448.64 554.357 449.168 554.763 449.584ZM565.799 452.224C564.54 452.224 563.521 451.819 562.743 451.008C561.975 450.197 561.59 449.168 561.59 447.92C561.59 446.555 561.793 445.504 562.199 444.768C562.604 444.021 563.42 443.344 564.647 442.736C564.828 442.651 565.084 442.533 565.415 442.384C565.745 442.224 565.969 442.112 566.087 442.048C566.215 441.984 566.385 441.888 566.599 441.76C566.812 441.632 566.961 441.52 567.047 441.424C567.143 441.317 567.244 441.184 567.351 441.024C567.457 440.864 567.543 440.688 567.607 440.496L569.303 441.472C569.164 442.123 568.849 442.629 568.359 442.992C567.879 443.344 567.153 443.707 566.183 444.08C565.5 444.347 565.004 444.613 564.695 444.88C564.385 445.147 564.161 445.467 564.023 445.84C564.62 445.232 565.42 444.928 566.423 444.928C567.308 444.928 568.097 445.253 568.791 445.904C569.484 446.544 569.831 447.397 569.831 448.464C569.831 449.563 569.457 450.464 568.711 451.168C567.975 451.872 567.004 452.224 565.799 452.224ZM564.327 449.792C564.721 450.155 565.207 450.336 565.783 450.336C566.359 450.336 566.833 450.16 567.207 449.808C567.58 449.456 567.767 449.008 567.767 448.464C567.767 447.92 567.58 447.472 567.207 447.12C566.833 446.757 566.353 446.576 565.766 446.576C565.244 446.576 564.775 446.741 564.359 447.072C563.953 447.403 563.751 447.845 563.751 448.4C563.751 448.965 563.943 449.429 564.327 449.792ZM576.333 444H578.397V452H576.333V448.96H573.149V452H571.085V444H573.149V447.024H576.333V444ZM587.104 451.008C586.282 451.819 585.28 452.224 584.096 452.224C582.912 452.224 581.909 451.819 581.088 451.008C580.277 450.187 579.872 449.184 579.872 448C579.872 446.816 580.277 445.819 581.088 445.008C581.909 444.187 582.912 443.776 584.096 443.776C585.28 443.776 586.282 444.187 587.104 445.008C587.925 445.819 588.336 446.816 588.336 448C588.336 449.184 587.925 450.187 587.104 451.008ZM582.544 449.584C582.96 450 583.477 450.208 584.096 450.208C584.714 450.208 585.232 450 585.648 449.584C586.064 449.168 586.272 448.64 586.272 448C586.272 447.36 586.064 446.832 585.648 446.416C585.232 446 584.714 445.792 584.096 445.792C583.477 445.792 582.96 446 582.544 446.416C582.138 446.832 581.936 447.36 581.936 448C581.936 448.64 582.138 449.168 582.544 449.584ZM591.532 448.848C591.809 449.851 592.561 450.352 593.788 450.352C594.577 450.352 595.174 450.085 595.58 449.552L597.244 450.512C596.454 451.653 595.292 452.224 593.756 452.224C592.433 452.224 591.372 451.824 590.572 451.024C589.772 450.224 589.372 449.216 589.372 448C589.372 446.795 589.766 445.792 590.556 444.992C591.345 444.181 592.358 443.776 593.596 443.776C594.769 443.776 595.734 444.181 596.492 444.992C597.26 445.803 597.644 446.805 597.644 448C597.644 448.267 597.617 448.549 597.564 448.848H591.532ZM591.5 447.248H595.58C595.462 446.704 595.217 446.299 594.844 446.032C594.481 445.765 594.065 445.632 593.596 445.632C593.041 445.632 592.582 445.776 592.22 446.064C591.857 446.341 591.617 446.736 591.5 447.248ZM610.381 452L609.709 449.984H605.245L604.573 452H602.189L606.109 440.8H608.845L612.781 452H610.381ZM605.949 447.92H609.021L607.485 443.344L605.949 447.92ZM618.044 440.8C619.121 440.8 620.028 441.163 620.764 441.888C621.5 442.613 621.868 443.504 621.868 444.56C621.868 445.616 621.5 446.507 620.764 447.232C620.028 447.957 619.121 448.32 618.044 448.32H616.076V452H613.868V440.8H618.044ZM618.044 446.256C618.513 446.256 618.903 446.096 619.212 445.776C619.521 445.445 619.676 445.04 619.676 444.56C619.676 444.069 619.521 443.664 619.212 443.344C618.903 443.024 618.513 442.864 618.044 442.864H616.076V446.256H618.044ZM623.306 440.8H625.514V452H623.306V440.8Z" fill="#2A2B31"/>
<g filter="url(#filter3_d)">
<circle cx="497.5" cy="446.5" r="22.5" fill="url(#paint1_linear)"/>
</g>
<path fill-rule="evenodd" clip-rule="evenodd" d="M493.396 448.009L498.009 452.623L502.623 448.009L505.243 445.389C506.517 444.115 506.517 442.049 505.243 440.775C503.969 439.501 501.904 439.501 500.63 440.775L498.009 443.414L495.389 440.794C494.115 439.519 492.049 439.519 490.775 440.794C489.501 442.068 489.501 444.133 490.775 445.407L493.396 448.009ZM499.301 439.493C501.291 437.502 504.517 437.502 506.507 439.493C508.498 441.483 508.498 444.709 506.507 446.699L505.197 448.009L498.009 455.216L490.803 448.009L489.493 446.699C487.502 444.709 487.502 441.483 489.493 439.493C491.483 437.502 494.709 437.502 496.699 439.493L498.009 440.803L499.301 439.493Z" fill="white"/>
<g filter="url(#filter4_d)">
<rect x="57" y="571" width="190" height="70" rx="8" fill="white"/>
</g>
<path d="M139.408 599.8V611H137.2V601.912H133.248V611H131.04V599.8H139.408ZM148.213 610.008C147.392 610.819 146.389 611.224 145.205 611.224C144.021 611.224 143.018 610.819 142.197 610.008C141.386 609.187 140.981 608.184 140.981 607C140.981 605.816 141.386 604.819 142.197 604.008C143.018 603.187 144.021 602.776 145.205 602.776C146.389 602.776 147.392 603.187 148.213 604.008C149.034 604.819 149.445 605.816 149.445 607C149.445 608.184 149.034 609.187 148.213 610.008ZM143.653 608.584C144.069 609 144.586 609.208 145.205 609.208C145.824 609.208 146.341 609 146.757 608.584C147.173 608.168 147.381 607.64 147.381 607C147.381 606.36 147.173 605.832 146.757 605.416C146.341 605 145.824 604.792 145.205 604.792C144.586 604.792 144.069 605 143.653 605.416C143.248 605.832 143.045 606.36 143.045 607C143.045 607.64 143.248 608.168 143.653 608.584ZM157.785 609.064H158.841V613.144H156.825V611H151.865V613.144H149.849V609.064H150.825C151.283 608.381 151.513 607.437 151.513 606.232V603H157.785V609.064ZM153.033 609.064H155.769V604.856H153.529V606.232C153.529 607.363 153.363 608.307 153.033 609.064ZM167.472 609.064H168.528V613.144H166.512V611H161.552V613.144H159.536V609.064H160.512C160.971 608.381 161.2 607.437 161.2 606.232V603H167.472V609.064ZM162.72 609.064H165.456V604.856H163.216V606.232C163.216 607.363 163.051 608.307 162.72 609.064ZM171.266 607.848C171.543 608.851 172.295 609.352 173.522 609.352C174.311 609.352 174.909 609.085 175.314 608.552L176.978 609.512C176.189 610.653 175.026 611.224 173.49 611.224C172.167 611.224 171.106 610.824 170.306 610.024C169.506 609.224 169.106 608.216 169.106 607C169.106 605.795 169.501 604.792 170.29 603.992C171.079 603.181 172.093 602.776 173.33 602.776C174.503 602.776 175.469 603.181 176.226 603.992C176.994 604.803 177.378 605.805 177.378 607C177.378 607.267 177.351 607.549 177.298 607.848H171.266ZM171.234 606.248H175.314C175.197 605.704 174.951 605.299 174.578 605.032C174.215 604.765 173.799 604.632 173.33 604.632C172.775 604.632 172.317 604.776 171.954 605.064C171.591 605.341 171.351 605.736 171.234 606.248ZM183.475 602.776C184.552 602.776 185.47 603.187 186.227 604.008C186.995 604.819 187.379 605.816 187.379 607C187.379 608.184 186.995 609.187 186.227 610.008C185.47 610.819 184.552 611.224 183.475 611.224C182.355 611.224 181.491 610.835 180.883 610.056V614.2H178.819V603H180.883V603.944C181.491 603.165 182.355 602.776 183.475 602.776ZM181.507 608.632C181.923 609.048 182.451 609.256 183.091 609.256C183.731 609.256 184.259 609.048 184.675 608.632C185.102 608.205 185.315 607.661 185.315 607C185.315 606.339 185.102 605.8 184.675 605.384C184.259 604.957 183.731 604.744 183.091 604.744C182.451 604.744 181.923 604.957 181.507 605.384C181.091 605.8 180.883 606.339 180.883 607C180.883 607.661 181.091 608.205 181.507 608.632ZM198.994 611H196.674L194.226 607.416V611H192.21V607.416L189.762 611H187.458L190.338 606.952L187.618 603H189.922L192.21 606.472V603H194.226V606.472L196.514 603H198.834L196.098 606.952L198.994 611ZM207.508 611H205.108L202.196 607.368V611H200.132V603H202.196V606.52L204.948 603H207.411L204.196 606.952L207.508 611ZM214.04 603H216.104V611H214.04V610.056C213.421 610.835 212.552 611.224 211.432 611.224C210.365 611.224 209.448 610.819 208.68 610.008C207.922 609.187 207.544 608.184 207.544 607C207.544 605.816 207.922 604.819 208.68 604.008C209.448 603.187 210.365 602.776 211.432 602.776C212.552 602.776 213.421 603.165 214.04 603.944V603ZM210.232 608.632C210.648 609.048 211.176 609.256 211.816 609.256C212.456 609.256 212.984 609.048 213.4 608.632C213.826 608.205 214.04 607.661 214.04 607C214.04 606.339 213.826 605.8 213.4 605.384C212.984 604.957 212.456 604.744 211.816 604.744C211.176 604.744 210.648 604.957 210.232 605.384C209.816 605.8 209.608 606.339 209.608 607C209.608 607.661 209.816 608.205 210.232 608.632Z" fill="#2A2B31"/>
<g filter="url(#filter5_d)">
<circle cx="93.5" cy="605.5" r="22.5" fill="url(#paint2_linear)"/>
</g>
<path fill-rule="evenodd" clip-rule="evenodd" d="M101.273 603.642H100.364C100.168 603.644 99.9732 603.665 99.7818 603.705C98.7435 601.447 96.4855 600 94 600C91.5145 600 89.2565 601.447 88.2182 603.705C88.0268 603.665 87.8319 603.644 87.6364 603.642H86.7273C85.221 603.642 84 604.863 84 606.369V610.005C84 611.512 85.221 612.733 86.7273 612.733H87.6364C89.1426 612.733 90.3636 611.512 90.3636 610.005V606.369C90.3586 605.761 90.1506 605.172 89.7727 604.696C90.4584 602.961 92.1345 601.822 94 601.822C95.8655 601.822 97.5416 602.961 98.2273 604.696C97.8494 605.172 97.6414 605.761 97.6364 606.369V610.005C97.6364 611.512 98.8574 612.733 100.364 612.733H101.273C102.779 612.733 104 611.512 104 610.005V606.369C104 604.863 102.779 603.642 101.273 603.642ZM88.5455 610.005C88.5455 610.507 88.1384 610.914 87.6364 610.914H86.7273C86.2252 610.914 85.8182 610.507 85.8182 610.005V606.369C85.8182 605.867 86.2252 605.46 86.7273 605.46H87.6364C88.1384 605.46 88.5455 605.867 88.5455 606.369V610.005ZM101.273 610.914C101.775 610.914 102.182 610.507 102.182 610.005V606.369C102.182 605.867 101.775 605.46 101.273 605.46H100.364C99.8616 605.46 99.4545 605.867 99.4545 606.369V610.005C99.4545 610.507 99.8616 610.914 100.364 610.914H101.273Z" fill="white"/>
<g filter="url(#filter6_d)">
<rect x="218" y="185" width="190" height="70" rx="8" fill="white"/>
</g>
<path d="M297.976 219.208C299.043 219.773 299.576 220.659 299.576 221.864C299.576 222.867 299.197 223.677 298.44 224.296C297.683 224.915 296.707 225.224 295.512 225.224C293.432 225.224 292.04 224.344 291.336 222.584L293.24 221.512C293.581 222.6 294.339 223.144 295.512 223.144C296.12 223.144 296.584 223.016 296.904 222.76C297.224 222.504 297.384 222.157 297.384 221.72C297.384 221.283 297.224 220.936 296.904 220.68C296.595 220.424 296.147 220.296 295.56 220.296H294.168V218.328H295.224C295.779 218.328 296.211 218.211 296.52 217.976C296.829 217.731 296.984 217.4 296.984 216.984C296.984 216.568 296.851 216.243 296.584 216.008C296.317 215.763 295.923 215.64 295.4 215.64C294.44 215.64 293.768 216.109 293.384 217.048L291.512 215.96C292.269 214.371 293.565 213.576 295.4 213.576C296.509 213.576 297.416 213.875 298.12 214.472C298.824 215.069 299.176 215.859 299.176 216.84C299.176 217.843 298.776 218.632 297.976 219.208ZM306.993 217H309.057V225H306.993V224.056C306.374 224.835 305.505 225.224 304.385 225.224C303.318 225.224 302.401 224.819 301.633 224.008C300.875 223.187 300.497 222.184 300.497 221C300.497 219.816 300.875 218.819 301.633 218.008C302.401 217.187 303.318 216.776 304.385 216.776C305.505 216.776 306.374 217.165 306.993 217.944V217ZM303.185 222.632C303.601 223.048 304.129 223.256 304.769 223.256C305.409 223.256 305.937 223.048 306.353 222.632C306.779 222.205 306.993 221.661 306.993 221C306.993 220.339 306.779 219.8 306.353 219.384C305.937 218.957 305.409 218.744 304.769 218.744C304.129 218.744 303.601 218.957 303.185 219.384C302.769 219.8 302.561 220.339 302.561 221C302.561 221.661 302.769 222.205 303.185 222.632ZM315.584 216.776C316.662 216.776 317.579 217.187 318.336 218.008C319.104 218.819 319.488 219.816 319.488 221C319.488 222.184 319.104 223.187 318.336 224.008C317.579 224.819 316.662 225.224 315.584 225.224C314.464 225.224 313.6 224.835 312.992 224.056V228.2H310.928V217H312.992V217.944C313.6 217.165 314.464 216.776 315.584 216.776ZM313.616 222.632C314.032 223.048 314.56 223.256 315.2 223.256C315.84 223.256 316.368 223.048 316.784 222.632C317.211 222.205 317.424 221.661 317.424 221C317.424 220.339 317.211 219.8 316.784 219.384C316.368 218.957 315.84 218.744 315.2 218.744C314.56 218.744 314.032 218.957 313.616 219.384C313.2 219.8 312.992 220.339 312.992 221C312.992 221.661 313.2 222.205 313.616 222.632ZM327.024 217H329.088V225H327.024V224.056C326.405 224.835 325.536 225.224 324.416 225.224C323.349 225.224 322.432 224.819 321.664 224.008C320.907 223.187 320.528 222.184 320.528 221C320.528 219.816 320.907 218.819 321.664 218.008C322.432 217.187 323.349 216.776 324.416 216.776C325.536 216.776 326.405 217.165 327.024 217.944V217ZM323.216 222.632C323.632 223.048 324.16 223.256 324.8 223.256C325.44 223.256 325.968 223.048 326.384 222.632C326.811 222.205 327.024 221.661 327.024 221C327.024 220.339 326.811 219.8 326.384 219.384C325.968 218.957 325.44 218.744 324.8 218.744C324.16 218.744 323.632 218.957 323.216 219.384C322.8 219.8 322.592 220.339 322.592 221C322.592 221.661 322.8 222.205 323.216 222.632ZM334.752 225.224C333.493 225.224 332.474 224.819 331.696 224.008C330.928 223.197 330.544 222.168 330.544 220.92C330.544 219.555 330.746 218.504 331.152 217.768C331.557 217.021 332.373 216.344 333.6 215.736C333.781 215.651 334.037 215.533 334.368 215.384C334.698 215.224 334.922 215.112 335.04 215.048C335.168 214.984 335.338 214.888 335.552 214.76C335.765 214.632 335.914 214.52 336 214.424C336.096 214.317 336.197 214.184 336.304 214.024C336.41 213.864 336.496 213.688 336.56 213.496L338.256 214.472C338.117 215.123 337.802 215.629 337.312 215.992C336.832 216.344 336.106 216.707 335.136 217.08C334.453 217.347 333.957 217.613 333.648 217.88C333.338 218.147 333.114 218.467 332.976 218.84C333.573 218.232 334.373 217.928 335.376 217.928C336.261 217.928 337.05 218.253 337.744 218.904C338.437 219.544 338.784 220.397 338.784 221.464C338.784 222.563 338.41 223.464 337.664 224.168C336.928 224.872 335.957 225.224 334.752 225.224ZM333.28 222.792C333.674 223.155 334.16 223.336 334.736 223.336C335.312 223.336 335.786 223.16 336.16 222.808C336.533 222.456 336.72 222.008 336.72 221.464C336.72 220.92 336.533 220.472 336.16 220.12C335.786 219.757 335.306 219.576 334.72 219.576C334.197 219.576 333.728 219.741 333.312 220.072C332.906 220.403 332.704 220.845 332.704 221.4C332.704 221.965 332.896 222.429 333.28 222.792ZM346.854 224.008C346.032 224.819 345.03 225.224 343.846 225.224C342.662 225.224 341.659 224.819 340.838 224.008C340.027 223.187 339.622 222.184 339.622 221C339.622 219.816 340.027 218.819 340.838 218.008C341.659 217.187 342.662 216.776 343.846 216.776C345.03 216.776 346.032 217.187 346.854 218.008C347.675 218.819 348.086 219.816 348.086 221C348.086 222.184 347.675 223.187 346.854 224.008ZM342.294 222.584C342.71 223 343.227 223.208 343.846 223.208C344.464 223.208 344.982 223 345.398 222.584C345.814 222.168 346.022 221.64 346.022 221C346.022 220.36 345.814 219.832 345.398 219.416C344.982 219 344.464 218.792 343.846 218.792C343.227 218.792 342.71 219 342.294 219.416C341.888 219.832 341.686 220.36 341.686 221C341.686 221.64 341.888 222.168 342.294 222.584ZM355.529 217V218.984H353.033V225H350.969V218.984H348.441V217H355.529ZM363.135 224.008C362.314 224.819 361.311 225.224 360.127 225.224C358.943 225.224 357.94 224.819 357.119 224.008C356.308 223.187 355.903 222.184 355.903 221C355.903 219.816 356.308 218.819 357.119 218.008C357.94 217.187 358.943 216.776 360.127 216.776C361.311 216.776 362.314 217.187 363.135 218.008C363.956 218.819 364.367 219.816 364.367 221C364.367 222.184 363.956 223.187 363.135 224.008ZM358.575 222.584C358.991 223 359.508 223.208 360.127 223.208C360.746 223.208 361.263 223 361.679 222.584C362.095 222.168 362.303 221.64 362.303 221C362.303 220.36 362.095 219.832 361.679 219.416C361.263 219 360.746 218.792 360.127 218.792C359.508 218.792 358.991 219 358.575 219.416C358.17 219.832 357.967 220.36 357.967 221C357.967 221.64 358.17 222.168 358.575 222.584ZM373.195 225H370.795L367.883 221.368V225H365.819V217H367.883V220.52L370.635 217H373.099L369.883 220.952L373.195 225Z" fill="#2A2B31"/>
<g filter="url(#filter7_d)">
<circle cx="254.5" cy="219.5" r="22.5" fill="url(#paint3_linear)"/>
</g>
<path fill-rule="evenodd" clip-rule="evenodd" d="M261.273 212.249H260.364V211.722C260.362 210.868 259.96 210.064 259.278 209.55C258.596 209.035 257.713 208.87 256.891 209.104L246.482 212.077C246.328 212.125 246.19 212.212 246.082 212.331C244.862 212.628 244.002 213.721 244 214.977V225.886C244 227.392 245.221 228.613 246.727 228.613H261.273C262.779 228.613 264 227.392 264 225.886V214.977C264 213.47 262.779 212.249 261.273 212.249ZM257.391 210.849C257.671 210.771 257.971 210.83 258.199 211.01C258.428 211.19 258.556 211.468 258.545 211.758V212.286H252.509L257.391 210.849ZM262.182 221.34H259.455C258.952 221.34 258.545 220.933 258.545 220.431C258.545 219.929 258.952 219.522 259.455 219.522H262.182V221.34ZM262.182 217.704H259.591C258.24 217.669 257.056 218.601 256.773 219.922C256.621 220.721 256.833 221.545 257.352 222.171C257.871 222.797 258.642 223.159 259.455 223.158H262.182V225.886C262.182 226.388 261.775 226.795 261.273 226.795H246.727C246.225 226.795 245.818 226.388 245.818 225.886V214.977C245.818 214.474 246.225 214.067 246.727 214.067H261.273C261.775 214.067 262.182 214.474 262.182 214.977V217.704Z" fill="white"/>
<g filter="url(#filter8_d)">
<rect x="35" y="330" width="272" height="70" rx="8" fill="white"/>
</g>
<path d="M118.464 368.544C117.333 369.664 115.957 370.224 114.336 370.224C112.715 370.224 111.339 369.664 110.208 368.544C109.088 367.413 108.528 366.032 108.528 364.4C108.528 362.768 109.088 361.392 110.208 360.272C111.339 359.141 112.715 358.576 114.336 358.576C115.957 358.576 117.333 359.141 118.464 360.272C119.595 361.392 120.16 362.768 120.16 364.4C120.16 366.032 119.595 367.413 118.464 368.544ZM111.76 367.04C112.453 367.723 113.312 368.064 114.336 368.064C115.36 368.064 116.219 367.723 116.912 367.04C117.605 366.347 117.952 365.467 117.952 364.4C117.952 363.333 117.605 362.453 116.912 361.76C116.219 361.067 115.36 360.72 114.336 360.72C113.312 360.72 112.453 361.067 111.76 361.76C111.067 362.453 110.72 363.333 110.72 364.4C110.72 365.467 111.067 366.347 111.76 367.04ZM127.92 362V363.984H125.424V370H123.36V363.984H120.832V362H127.92ZM132.518 370.224C131.312 370.224 130.304 369.819 129.494 369.008C128.694 368.197 128.294 367.195 128.294 366C128.294 364.805 128.694 363.803 129.494 362.992C130.304 362.181 131.312 361.776 132.518 361.776C133.296 361.776 134.006 361.963 134.646 362.336C135.286 362.709 135.771 363.211 136.102 363.84L134.326 364.88C134.166 364.549 133.92 364.288 133.59 364.096C133.27 363.904 132.907 363.808 132.502 363.808C131.883 363.808 131.371 364.016 130.966 364.432C130.56 364.837 130.358 365.36 130.358 366C130.358 366.629 130.56 367.152 130.966 367.568C131.371 367.973 131.883 368.176 132.502 368.176C132.918 368.176 133.286 368.085 133.606 367.904C133.936 367.712 134.182 367.451 134.342 367.12L136.134 368.144C135.782 368.773 135.286 369.28 134.646 369.664C134.006 370.037 133.296 370.224 132.518 370.224ZM143.98 362V370H141.916V363.984H139.708V366.656C139.708 369.131 138.583 370.245 136.332 370V368.064C136.759 368.171 137.084 368.101 137.308 367.856C137.532 367.6 137.644 367.163 137.644 366.544V362H143.98ZM147.594 366.848C147.872 367.851 148.624 368.352 149.85 368.352C150.64 368.352 151.237 368.085 151.642 367.552L153.306 368.512C152.517 369.653 151.354 370.224 149.818 370.224C148.496 370.224 147.434 369.824 146.634 369.024C145.834 368.224 145.434 367.216 145.434 366C145.434 364.795 145.829 363.792 146.618 362.992C147.408 362.181 148.421 361.776 149.658 361.776C150.832 361.776 151.797 362.181 152.554 362.992C153.322 363.803 153.706 364.805 153.706 366C153.706 366.267 153.68 366.549 153.626 366.848H147.594ZM147.562 365.248H151.642C151.525 364.704 151.28 364.299 150.906 364.032C150.544 363.765 150.128 363.632 149.658 363.632C149.104 363.632 148.645 363.776 148.282 364.064C147.92 364.341 147.68 364.736 147.562 365.248ZM165.447 370H163.127L160.679 366.416V370H158.663V366.416L156.215 370H153.911L156.791 365.952L154.071 362H156.375L158.663 365.472V362H160.679V365.472L162.967 362H165.287L162.551 365.952L165.447 370ZM172.361 362H173.897V370H171.881V365.456L168.121 370H166.585V362H168.601V366.544L172.361 362ZM181.548 365.904C182.294 366.267 182.668 366.875 182.668 367.728C182.668 368.4 182.433 368.949 181.964 369.376C181.505 369.792 180.849 370 179.996 370H175.788V362H179.676C180.518 362 181.169 362.208 181.628 362.624C182.097 363.04 182.332 363.584 182.332 364.256C182.332 364.96 182.07 365.509 181.548 365.904ZM179.484 363.696H177.724V365.136H179.484C180.07 365.136 180.364 364.896 180.364 364.416C180.364 363.936 180.07 363.696 179.484 363.696ZM179.756 368.256C180.353 368.256 180.652 368 180.652 367.488C180.652 367.264 180.572 367.088 180.412 366.96C180.252 366.832 180.033 366.768 179.756 366.768H177.724V368.256H179.756ZM190.04 362H192.104V370H190.04V369.056C189.421 369.835 188.552 370.224 187.432 370.224C186.365 370.224 185.448 369.819 184.68 369.008C183.922 368.187 183.544 367.184 183.544 366C183.544 364.816 183.922 363.819 184.68 363.008C185.448 362.187 186.365 361.776 187.432 361.776C188.552 361.776 189.421 362.165 190.04 362.944V362ZM186.232 367.632C186.648 368.048 187.176 368.256 187.816 368.256C188.456 368.256 188.984 368.048 189.4 367.632C189.826 367.205 190.04 366.661 190.04 366C190.04 365.339 189.826 364.8 189.4 364.384C188.984 363.957 188.456 363.744 187.816 363.744C187.176 363.744 186.648 363.957 186.232 364.384C185.816 364.8 185.608 365.339 185.608 366C185.608 366.661 185.816 367.205 186.232 367.632ZM199.223 362H201.287V370H199.223V366.96H196.039V370H193.975V362H196.039V365.024H199.223V362ZM208.954 362H210.49V370H208.474V365.456L204.714 370H203.178V362H205.194V366.544L208.954 362ZM214.126 366.848C214.403 367.851 215.155 368.352 216.382 368.352C217.171 368.352 217.768 368.085 218.174 367.552L219.838 368.512C219.048 369.653 217.886 370.224 216.35 370.224C215.027 370.224 213.966 369.824 213.166 369.024C212.366 368.224 211.965 367.216 211.965 366C211.965 364.795 212.36 363.792 213.15 362.992C213.939 362.181 214.952 361.776 216.19 361.776C217.363 361.776 218.328 362.181 219.086 362.992C219.854 363.803 220.238 364.805 220.238 366C220.238 366.267 220.211 366.549 220.158 366.848H214.126ZM214.094 365.248H218.174C218.056 364.704 217.811 364.299 217.438 364.032C217.075 363.765 216.659 363.632 216.19 363.632C215.635 363.632 215.176 363.776 214.814 364.064C214.451 364.341 214.211 364.736 214.094 365.248ZM230.366 365.92C231.177 366.315 231.582 366.949 231.582 367.824C231.582 368.507 231.3 369.077 230.734 369.536C230.169 369.995 229.374 370.224 228.35 370.224C226.729 370.224 225.625 369.584 225.038 368.304L226.718 367.312C226.974 368.037 227.524 368.4 228.366 368.4C228.75 368.4 229.044 368.325 229.246 368.176C229.46 368.027 229.566 367.824 229.566 367.568C229.566 367.077 229.252 366.832 228.622 366.832H227.486V365.072H228.35C228.969 365.072 229.278 364.827 229.278 364.336C229.278 364.101 229.188 363.915 229.006 363.776C228.825 363.637 228.585 363.568 228.286 363.568C227.593 363.568 227.097 363.904 226.798 364.576L225.134 363.616C225.742 362.389 226.782 361.776 228.254 361.776C229.172 361.776 229.897 362.011 230.43 362.48C230.974 362.939 231.246 363.499 231.246 364.16C231.246 364.939 230.953 365.525 230.366 365.92ZM238.962 362H241.026V370H238.962V369.056C238.343 369.835 237.474 370.224 236.354 370.224C235.287 370.224 234.37 369.819 233.602 369.008C232.844 368.187 232.465 367.184 232.465 366C232.465 364.816 232.844 363.819 233.602 363.008C234.37 362.187 235.287 361.776 236.354 361.776C237.474 361.776 238.343 362.165 238.962 362.944V362ZM235.154 367.632C235.57 368.048 236.098 368.256 236.738 368.256C237.378 368.256 237.906 368.048 238.322 367.632C238.748 367.205 238.962 366.661 238.962 366C238.962 365.339 238.748 364.8 238.322 364.384C237.906 363.957 237.378 363.744 236.738 363.744C236.098 363.744 235.57 363.957 235.154 364.384C234.738 364.8 234.53 365.339 234.53 366C234.53 366.661 234.738 367.205 235.154 367.632ZM250.273 370H247.873L244.961 366.368V370H242.897V362H244.961V365.52L247.713 362H250.177L246.961 365.952L250.273 370ZM256.805 362H258.869V370H256.805V369.056C256.187 369.835 255.317 370.224 254.197 370.224C253.131 370.224 252.213 369.819 251.445 369.008C250.688 368.187 250.309 367.184 250.309 366C250.309 364.816 250.688 363.819 251.445 363.008C252.213 362.187 253.131 361.776 254.197 361.776C255.317 361.776 256.187 362.165 256.805 362.944V362ZM252.997 367.632C253.413 368.048 253.941 368.256 254.581 368.256C255.221 368.256 255.749 368.048 256.165 367.632C256.592 367.205 256.805 366.661 256.805 366C256.805 365.339 256.592 364.8 256.165 364.384C255.749 363.957 255.221 363.744 254.581 363.744C253.941 363.744 253.413 363.957 252.997 364.384C252.581 364.8 252.373 365.339 252.373 366C252.373 366.661 252.581 367.205 252.997 367.632ZM265.429 365.92C266.24 366.315 266.645 366.949 266.645 367.824C266.645 368.507 266.362 369.077 265.797 369.536C265.232 369.995 264.437 370.224 263.413 370.224C261.792 370.224 260.688 369.584 260.101 368.304L261.781 367.312C262.037 368.037 262.586 368.4 263.429 368.4C263.813 368.4 264.106 368.325 264.309 368.176C264.522 368.027 264.629 367.824 264.629 367.568C264.629 367.077 264.314 366.832 263.685 366.832H262.549V365.072H263.413C264.032 365.072 264.341 364.827 264.341 364.336C264.341 364.101 264.25 363.915 264.069 363.776C263.888 363.637 263.648 363.568 263.349 363.568C262.656 363.568 262.16 363.904 261.861 364.576L260.197 363.616C260.805 362.389 261.845 361.776 263.317 361.776C264.234 361.776 264.96 362.011 265.493 362.48C266.037 362.939 266.309 363.499 266.309 364.16C266.309 364.939 266.016 365.525 265.429 365.92ZM274.76 369.008C273.939 369.819 272.936 370.224 271.752 370.224C270.568 370.224 269.565 369.819 268.744 369.008C267.933 368.187 267.528 367.184 267.528 366C267.528 364.816 267.933 363.819 268.744 363.008C269.565 362.187 270.568 361.776 271.752 361.776C272.936 361.776 273.939 362.187 274.76 363.008C275.581 363.819 275.992 364.816 275.992 366C275.992 367.184 275.581 368.187 274.76 369.008ZM270.2 367.584C270.616 368 271.133 368.208 271.752 368.208C272.371 368.208 272.888 368 273.304 367.584C273.72 367.168 273.928 366.64 273.928 366C273.928 365.36 273.72 364.832 273.304 364.416C272.888 364 272.371 363.792 271.752 363.792C271.133 363.792 270.616 364 270.2 364.416C269.795 364.832 269.592 365.36 269.592 366C269.592 366.64 269.795 367.168 270.2 367.584ZM283.204 365.904C283.951 366.267 284.324 366.875 284.324 367.728C284.324 368.4 284.089 368.949 283.62 369.376C283.161 369.792 282.505 370 281.652 370H277.444V362H281.332C282.175 362 282.825 362.208 283.284 362.624C283.753 363.04 283.988 363.584 283.988 364.256C283.988 364.96 283.727 365.509 283.204 365.904ZM281.14 363.696H279.38V365.136H281.14C281.727 365.136 282.02 364.896 282.02 364.416C282.02 363.936 281.727 363.696 281.14 363.696ZM281.412 368.256C282.009 368.256 282.308 368 282.308 367.488C282.308 367.264 282.228 367.088 282.068 366.96C281.908 366.832 281.689 366.768 281.412 366.768H279.38V368.256H281.412Z" fill="#2A2B31"/>
<g filter="url(#filter9_d)">
<circle cx="71.5" cy="364.5" r="22.5" fill="url(#paint4_linear)"/>
</g>
<path fill-rule="evenodd" clip-rule="evenodd" d="M79.782 364.184V364.233L80 364.677L79.7416 365.097V365.145L79.6285 365.315L79.6164 365.332C79.5124 365.476 79.3711 365.671 79.1925 365.904C78.691 366.547 78.1315 367.141 77.5209 367.681C75.7482 369.322 73.4353 370.256 71.0202 370.306C68.6191 370.246 66.3222 369.313 64.5599 367.681C63.9208 367.143 63.3341 366.545 62.8075 365.896C62.6288 365.663 62.4875 365.468 62.3836 365.324L62.3715 365.307L62.2584 365.137V365.089L62 364.653L62.3392 364.209V364.16L62.4522 363.991L62.4643 363.974C62.5683 363.83 62.7096 363.634 62.8883 363.401C63.3897 362.759 63.9493 362.164 64.5599 361.624C66.3222 359.993 68.6191 359.059 71.0202 359C73.4525 359.046 75.7819 359.99 77.5612 361.649C78.1718 362.188 78.7314 362.783 79.2328 363.425C79.4116 363.658 79.5529 363.854 79.6569 363.998L79.6689 364.015L79.782 364.184ZM76.4549 366.47C76.9891 365.996 77.4784 365.475 77.9166 364.911C77.9434 364.879 77.9811 364.848 78.0172 364.819C78.0896 364.761 78.1562 364.707 78.1184 364.653C78.0619 364.572 77.9973 364.491 77.9166 364.394C77.4784 363.831 76.9891 363.309 76.4549 362.836C74.9776 361.453 73.043 360.663 71.0202 360.615C68.9974 360.663 67.0628 361.453 65.5855 362.836C65.0512 363.312 64.5594 363.833 64.1158 364.394L63.9219 364.653L64.1158 364.911C64.5594 365.472 65.0512 365.994 65.5855 366.47C67.0628 367.852 68.9974 368.643 71.0202 368.69C73.043 368.643 74.9776 367.852 76.4549 366.47Z" fill="white"/>
<path d="M71.0202 367.075C72.3582 367.075 73.4428 365.991 73.4428 364.653C73.4428 363.315 72.3582 362.23 71.0202 362.23C69.6822 362.23 68.5976 363.315 68.5976 364.653C68.5976 365.991 69.6822 367.075 71.0202 367.075Z" fill="white"/>
<defs>
<filter id="filter0_d" x="504" y="128" width="260" height="140" filterUnits="userSpaceOnUse" color-interpolation-filters="sRGB">
<feFlood flood-opacity="0" result="BackgroundImageFix"/>
<feColorMatrix in="SourceAlpha" type="matrix" values="0 0 0 0 0 0 0 0 0 0 0 0 0 0 0 0 0 0 127 0"/>
<feOffset dy="8"/>
<feGaussianBlur stdDeviation="17.5"/>
<feColorMatrix type="matrix" values="0 0 0 0 0.835729 0 0 0 0 0.835729 0 0 0 0 0.941667 0 0 0 0.65 0"/>
<feBlend mode="normal" in2="BackgroundImageFix" result="effect1_dropShadow"/>
<feBlend mode="normal" in="SourceGraphic" in2="effect1_dropShadow" result="shape"/>
</filter>
<filter id="filter1_d" x="528" y="146" width="95" height="95" filterUnits="userSpaceOnUse" color-interpolation-filters="sRGB">
<feFlood flood-opacity="0" result="BackgroundImageFix"/>
<feColorMatrix in="SourceAlpha" type="matrix" values="0 0 0 0 0 0 0 0 0 0 0 0 0 0 0 0 0 0 127 0"/>
<feOffset dy="4"/>
<feGaussianBlur stdDeviation="12.5"/>
<feColorMatrix type="matrix" values="0 0 0 0 0.423529 0 0 0 0 0.494118 0 0 0 0 0.901961 0 0 0 0.35 0"/>
<feBlend mode="normal" in2="BackgroundImageFix" result="effect1_dropShadow"/>
<feBlend mode="normal" in="SourceGraphic" in2="effect1_dropShadow" result="shape"/>
</filter>
<filter id="filter2_d" x="426" y="385" width="260" height="140" filterUnits="userSpaceOnUse" color-interpolation-filters="sRGB">
<feFlood flood-opacity="0" result="BackgroundImageFix"/>
<feColorMatrix in="SourceAlpha" type="matrix" values="0 0 0 0 0 0 0 0 0 0 0 0 0 0 0 0 0 0 127 0"/>
<feOffset dy="8"/>
<feGaussianBlur stdDeviation="17.5"/>
<feColorMatrix type="matrix" values="0 0 0 0 0.835729 0 0 0 0 0.835729 0 0 0 0 0.941667 0 0 0 0.65 0"/>
<feBlend mode="normal" in2="BackgroundImageFix" result="effect1_dropShadow"/>
<feBlend mode="normal" in="SourceGraphic" in2="effect1_dropShadow" result="shape"/>
</filter>
<filter id="filter3_d" x="450" y="403" width="95" height="95" filterUnits="userSpaceOnUse" color-interpolation-filters="sRGB">
<feFlood flood-opacity="0" result="BackgroundImageFix"/>
<feColorMatrix in="SourceAlpha" type="matrix" values="0 0 0 0 0 0 0 0 0 0 0 0 0 0 0 0 0 0 127 0"/>
<feOffset dy="4"/>
<feGaussianBlur stdDeviation="12.5"/>
<feColorMatrix type="matrix" values="0 0 0 0 0.423529 0 0 0 0 0.494118 0 0 0 0 0.901961 0 0 0 0.35 0"/>
<feBlend mode="normal" in2="BackgroundImageFix" result="effect1_dropShadow"/>
<feBlend mode="normal" in="SourceGraphic" in2="effect1_dropShadow" result="shape"/>
</filter>
<filter id="filter4_d" x="22" y="544" width="260" height="140" filterUnits="userSpaceOnUse" color-interpolation-filters="sRGB">
<feFlood flood-opacity="0" result="BackgroundImageFix"/>
<feColorMatrix in="SourceAlpha" type="matrix" values="0 0 0 0 0 0 0 0 0 0 0 0 0 0 0 0 0 0 127 0"/>
<feOffset dy="8"/>
<feGaussianBlur stdDeviation="17.5"/>
<feColorMatrix type="matrix" values="0 0 0 0 0.835729 0 0 0 0 0.835729 0 0 0 0 0.941667 0 0 0 0.65 0"/>
<feBlend mode="normal" in2="BackgroundImageFix" result="effect1_dropShadow"/>
<feBlend mode="normal" in="SourceGraphic" in2="effect1_dropShadow" result="shape"/>
</filter>
<filter id="filter5_d" x="46" y="562" width="95" height="95" filterUnits="userSpaceOnUse" color-interpolation-filters="sRGB">
<feFlood flood-opacity="0" result="BackgroundImageFix"/>
<feColorMatrix in="SourceAlpha" type="matrix" values="0 0 0 0 0 0 0 0 0 0 0 0 0 0 0 0 0 0 127 0"/>
<feOffset dy="4"/>
<feGaussianBlur stdDeviation="12.5"/>
<feColorMatrix type="matrix" values="0 0 0 0 0.423529 0 0 0 0 0.494118 0 0 0 0 0.901961 0 0 0 0.35 0"/>
<feBlend mode="normal" in2="BackgroundImageFix" result="effect1_dropShadow"/>
<feBlend mode="normal" in="SourceGraphic" in2="effect1_dropShadow" result="shape"/>
</filter>
<filter id="filter6_d" x="183" y="158" width="260" height="140" filterUnits="userSpaceOnUse" color-interpolation-filters="sRGB">
<feFlood flood-opacity="0" result="BackgroundImageFix"/>
<feColorMatrix in="SourceAlpha" type="matrix" values="0 0 0 0 0 0 0 0 0 0 0 0 0 0 0 0 0 0 127 0"/>
<feOffset dy="8"/>
<feGaussianBlur stdDeviation="17.5"/>
<feColorMatrix type="matrix" values="0 0 0 0 0.835729 0 0 0 0 0.835729 0 0 0 0 0.941667 0 0 0 0.65 0"/>
<feBlend mode="normal" in2="BackgroundImageFix" result="effect1_dropShadow"/>
<feBlend mode="normal" in="SourceGraphic" in2="effect1_dropShadow" result="shape"/>
</filter>
<filter id="filter7_d" x="207" y="176" width="95" height="95" filterUnits="userSpaceOnUse" color-interpolation-filters="sRGB">
<feFlood flood-opacity="0" result="BackgroundImageFix"/>
<feColorMatrix in="SourceAlpha" type="matrix" values="0 0 0 0 0 0 0 0 0 0 0 0 0 0 0 0 0 0 127 0"/>
<feOffset dy="4"/>
<feGaussianBlur stdDeviation="12.5"/>
<feColorMatrix type="matrix" values="0 0 0 0 0.423529 0 0 0 0 0.494118 0 0 0 0 0.901961 0 0 0 0.35 0"/>
<feBlend mode="normal" in2="BackgroundImageFix" result="effect1_dropShadow"/>
<feBlend mode="normal" in="SourceGraphic" in2="effect1_dropShadow" result="shape"/>
</filter>
<filter id="filter8_d" x="0" y="303" width="342" height="140" filterUnits="userSpaceOnUse" color-interpolation-filters="sRGB">
<feFlood flood-opacity="0" result="BackgroundImageFix"/>
<feColorMatrix in="SourceAlpha" type="matrix" values="0 0 0 0 0 0 0 0 0 0 0 0 0 0 0 0 0 0 127 0"/>
<feOffset dy="8"/>
<feGaussianBlur stdDeviation="17.5"/>
<feColorMatrix type="matrix" values="0 0 0 0 0.835729 0 0 0 0 0.835729 0 0 0 0 0.941667 0 0 0 0.65 0"/>
<feBlend mode="normal" in2="BackgroundImageFix" result="effect1_dropShadow"/>
<feBlend mode="normal" in="SourceGraphic" in2="effect1_dropShadow" result="shape"/>
</filter>
<filter id="filter9_d" x="24" y="321" width="95" height="95" filterUnits="userSpaceOnUse" color-interpolation-filters="sRGB">
<feFlood flood-opacity="0" result="BackgroundImageFix"/>
<feColorMatrix in="SourceAlpha" type="matrix" values="0 0 0 0 0 0 0 0 0 0 0 0 0 0 0 0 0 0 127 0"/>
<feOffset dy="4"/>
<feGaussianBlur stdDeviation="12.5"/>
<feColorMatrix type="matrix" values="0 0 0 0 0.423529 0 0 0 0 0.494118 0 0 0 0 0.901961 0 0 0 0.35 0"/>
<feBlend mode="normal" in2="BackgroundImageFix" result="effect1_dropShadow"/>
<feBlend mode="normal" in="SourceGraphic" in2="effect1_dropShadow" result="shape"/>
</filter>
<linearGradient id="paint0_linear" x1="567.287" y1="202.55" x2="589.675" y2="176.45" gradientUnits="userSpaceOnUse">
<stop stop-color="#6B75E3"/>
<stop offset="1" stop-color="#72A4F3"/>
</linearGradient>
<linearGradient id="paint1_linear" x1="489.287" y1="459.55" x2="511.675" y2="433.45" gradientUnits="userSpaceOnUse">
<stop stop-color="#6B75E3"/>
<stop offset="1" stop-color="#72A4F3"/>
</linearGradient>
<linearGradient id="paint2_linear" x1="85.2875" y1="618.55" x2="107.675" y2="592.45" gradientUnits="userSpaceOnUse">
<stop stop-color="#6B75E3"/>
<stop offset="1" stop-color="#72A4F3"/>
</linearGradient>
<linearGradient id="paint3_linear" x1="246.287" y1="232.55" x2="268.675" y2="206.45" gradientUnits="userSpaceOnUse">
<stop stop-color="#6B75E3"/>
<stop offset="1" stop-color="#72A4F3"/>
</linearGradient>
<linearGradient id="paint4_linear" x1="63.2875" y1="377.55" x2="85.675" y2="351.45" gradientUnits="userSpaceOnUse">
<stop stop-color="#6B75E3"/>
<stop offset="1" stop-color="#72A4F3"/>
</linearGradient>
</defs>
</svg>
