<svg width="1323" height="414" viewBox="0 0 1323 414" fill="none" xmlns="http://www.w3.org/2000/svg">
<path d="M697.64 401.149C695.117 400.785 693.454 398.457 693.817 395.933C694.209 393.517 697.371 391.607 699.786 392C700.03 392.05 744.873 400.28 833.13 313.305C881.464 265.686 935.849 228.579 993.005 211.3C1043.73 195.86 1096.41 195.956 1148.96 217.931C1256.83 263.216 1345.45 230.575 1345.66 230.517C1348.08 229.637 1350.62 230.922 1351.5 233.344C1352.35 235.658 1351.1 238.305 1348.78 239.156C1348.46 239.243 1256.68 272.966 1145.45 226.383C1095.11 205.319 1044.37 205.163 995.561 219.975C940.021 236.822 886.814 273.15 839.599 319.776C747.962 410.084 697.776 401.228 697.64 401.149Z" fill="#6E88E9"/>
<g clip-path="url(#clip0)">
<path d="M312.698 112.805L312.105 112.863C292.47 114.787 278.603 137.293 281.132 163.13L284.202 194.49C286.731 220.328 304.699 239.713 324.334 237.788L324.927 237.73C344.562 235.806 358.429 213.301 355.9 187.463L352.83 156.103C350.301 130.266 332.333 110.88 312.698 112.805Z" fill="#F6C5A5"/>
<path fill-rule="evenodd" clip-rule="evenodd" d="M289.259 218.561C287.139 214.655 285.689 210.19 285.243 205.39L280.112 152.258C278.215 133.728 290.932 117.096 308.669 113.413C310.789 117.431 312.127 121.896 312.574 126.584L317.817 179.828C319.602 198.246 306.996 214.989 289.259 218.561Z" fill="#E37878"/>
<path fill-rule="evenodd" clip-rule="evenodd" d="M344.924 250.374C345.371 250.15 345.817 249.815 346.151 249.481H346.263C348.717 247.806 350.948 245.797 353.068 243.565C368.351 227.156 367.347 201.26 350.837 185.967C334.327 170.675 308.558 171.68 293.275 188.2C291.267 190.432 289.482 192.776 288.032 195.344L287.92 195.455C287.697 195.902 287.363 196.348 287.139 196.795L247.203 268.791C242.295 276.717 243.633 287.432 250.773 294.018C257.912 300.604 268.622 301.05 276.207 295.692L344.924 250.374Z" fill="#E37878"/>
<path d="M258.033 298.724C272.036 307.208 290.261 302.727 298.74 288.715C307.219 274.703 302.74 256.466 288.737 247.983C274.733 239.499 256.508 243.98 248.03 257.992C239.551 272.004 244.03 290.24 258.033 298.724Z" fill="white"/>
<path fill-rule="evenodd" clip-rule="evenodd" d="M293.61 281.405L294.279 292.232C294.948 302.725 286.805 311.878 276.319 312.436L253.339 313.887C242.295 314.557 232.813 306.073 232.143 295.134L231.586 285.2C230.582 268.68 243.187 254.504 259.697 253.499L262.04 253.387C278.438 252.383 292.717 264.996 293.61 281.405Z" fill="#E37878"/>
<path d="M348.793 209.5C354.128 212.732 361.071 211.025 364.302 205.687C367.532 200.348 365.826 193.401 360.491 190.168C355.155 186.936 348.212 188.643 344.982 193.982C341.752 199.32 343.458 206.268 348.793 209.5Z" fill="#F6C5A5"/>
<path d="M329.529 205.364C334.548 208.903 341.623 207.605 345.33 202.464C349.038 197.324 347.975 190.288 342.955 186.75C337.936 183.211 330.861 184.51 327.154 189.65C323.446 194.79 324.51 201.826 329.529 205.364Z" fill="#F6C5A5"/>
<path d="M512.414 185.831L513.331 158.292C514.561 121.356 493.042 91.413 465.267 91.413C437.492 91.413 413.98 121.356 412.75 158.292L411.833 185.831C410.603 222.767 432.122 252.71 459.897 252.71C487.672 252.71 511.185 222.767 512.414 185.831Z" fill="#174AA1"/>
<path d="M440.191 79.2563H409.849V270.801H440.191V79.2563Z" fill="#2661C6"/>
<path d="M500.278 191.276L501.365 158.617C502.823 114.812 477.303 79.3019 444.364 79.3019C411.425 79.3019 383.54 114.812 382.081 158.617L380.994 191.276C379.535 235.08 405.056 270.59 437.995 270.59C470.934 270.59 498.819 235.08 500.278 191.276Z" fill="#2661C6"/>
<path fill-rule="evenodd" clip-rule="evenodd" d="M327.745 92.5393H371.809C373.482 92.5393 374.821 93.9904 374.821 95.6647L374.709 98.3437C374.709 100.13 373.259 101.469 371.474 101.469H343.697C318.486 101.469 297.179 122.119 296.287 147.458C295.394 172.684 315.363 193.335 340.685 193.335H368.462C370.135 193.335 371.474 194.786 371.474 196.46L371.363 199.139C371.363 200.813 369.912 202.264 368.127 202.264H324.064C293.944 202.264 270.072 177.596 271.076 147.458C272.08 117.208 297.626 92.5393 327.745 92.5393Z" fill="#2661C6"/>
<path d="M472.174 191.276L473.261 158.617C474.72 114.812 449.199 79.3019 416.26 79.3019C383.321 79.3019 355.436 114.812 353.977 158.617L352.89 191.276C351.432 235.08 376.952 270.59 409.891 270.59C442.83 270.59 470.715 235.08 472.174 191.276Z" fill="#174AA1"/>
<path fill-rule="evenodd" clip-rule="evenodd" d="M291.155 224.924H369.243L389.434 361.215C396.016 365.457 400.701 372.489 401.594 380.302C402.932 393.139 393.673 403.52 380.956 403.52H360.43C359.761 403.632 359.092 403.743 358.311 403.743H300.637C294.279 403.743 288.367 399.836 285.689 393.809C283.012 387.781 284.239 381.307 288.813 377.4C295.283 371.931 303.203 368.024 312.016 366.015L291.155 224.924Z" fill="#174AA1"/>
<path d="M409.117 224.887H330.769L378.719 397.876H457.067L409.117 224.887Z" fill="#2661C6"/>
<path d="M304.319 202.153L320.271 142.546C327.633 115.422 355.745 99.1251 382.853 106.381C410.072 113.636 426.359 141.877 418.996 169.001L404.048 224.924H303.538C302.088 217.557 302.311 209.743 304.319 202.153Z" fill="white"/>
<path d="M413.976 212.645H290.486C287.282 212.645 284.685 215.294 284.685 218.561V245.686C284.685 248.953 287.282 251.602 290.486 251.602H413.976C417.18 251.602 419.777 248.953 419.777 245.686V218.561C419.777 215.294 417.18 212.645 413.976 212.645Z" fill="#174AA1"/>
<path fill-rule="evenodd" clip-rule="evenodd" d="M367.458 52.5785L345.147 112.631H409.625L411.633 51.5739L367.458 52.5785Z" fill="#A45959"/>
<path fill-rule="evenodd" clip-rule="evenodd" d="M366.231 112.631H409.626L411.633 52.0203L388.542 52.5784L366.231 112.631Z" fill="#E37878"/>
<path fill-rule="evenodd" clip-rule="evenodd" d="M336 34.2724C339.793 39.5187 353.96 55.3691 377.386 40.6349C378.167 40.1884 378.948 40.0768 379.618 40.3C380.398 40.5233 380.845 41.0814 381.068 41.8627C381.849 45.4347 384.749 50.3461 394.677 50.2344C395.793 50.2344 396.797 49.4531 397.131 48.3369C399.251 41.5279 405.052 18.7569 385.195 26.124C384.414 26.3472 383.633 26.3472 382.964 25.7891C377.944 22.2172 355.076 8.0411 336.112 31.2586C335.442 32.2632 335.331 33.3794 336 34.2724Z" fill="#FF8984"/>
<path fill-rule="evenodd" clip-rule="evenodd" d="M378.614 21.3241H388.542C398.247 21.3241 405.498 29.2493 404.717 38.9605L402.709 64.522C401.928 74.5681 392.892 82.9398 382.853 82.9398H373.705C358.534 82.9398 347.155 70.5497 348.383 55.369L348.829 48.8949C350.056 33.7142 363.442 21.3241 378.614 21.3241Z" fill="#E37878"/>
<path fill-rule="evenodd" clip-rule="evenodd" d="M360.877 48.8948H361.657C362.55 48.8948 363.108 49.5645 363.108 50.3459L362.884 52.4667C362.773 53.3597 362.104 54.0294 361.211 54.0294H360.43C359.203 54.0294 358.199 53.0248 358.311 51.6853V51.1272C358.422 49.8994 359.538 48.8948 360.877 48.8948Z" fill="#1D1D1D"/>
<path fill-rule="evenodd" clip-rule="evenodd" d="M357.53 44.2066L360.096 44.5415C361.88 44.7647 363.331 46.1042 364 47.6669C364.112 48.1134 364 48.5599 363.665 48.8948C363.331 49.2296 362.884 49.2296 362.438 49.0064C361.88 48.6715 361.211 48.4483 360.653 48.3367L356.749 47.8902C355.41 47.6669 353.96 47.8902 352.845 48.3367C352.287 48.5599 351.729 48.4483 351.506 48.0018C351.171 47.5553 351.171 46.9972 351.506 46.5507C352.845 44.8764 355.187 43.8717 357.53 44.2066Z" fill="#FFE084"/>
<path fill-rule="evenodd" clip-rule="evenodd" d="M378.614 21.3241H388.653C398.359 21.3241 405.721 29.2493 404.94 39.0721L402.821 64.6337C402.04 74.7913 393.004 83.163 382.853 83.163H373.705C371.809 83.163 370.024 82.9398 368.351 82.6049C361.434 78.4749 368.797 72.5589 368.797 72.5589L366.677 63.4058C366.454 62.6245 366.566 61.7315 367.012 60.9501L367.458 60.0571L362.773 58.7177C360.988 58.1596 360.096 56.3736 360.765 54.5876L367.458 34.6072C367.57 34.3839 367.57 34.1607 367.793 33.9375C370.693 28.6912 373.482 24.6728 376.048 21.4357C376.94 21.4357 377.833 21.3241 378.614 21.3241Z" fill="#F6C5A5"/>
<path fill-rule="evenodd" clip-rule="evenodd" d="M378.614 21.3241H388.653C398.359 21.3241 405.721 29.2493 404.94 39.0721L403.713 54.2528C393.673 51.6854 391.442 45.2113 391.219 40.6348C391.219 39.5186 390.661 38.6256 389.769 38.1791C388.765 37.621 387.761 37.621 386.645 38.0675C378.167 41.8627 370.805 43.4254 364.558 43.3137L367.458 34.6072C367.57 34.3839 367.57 34.1607 367.793 33.9374C370.693 28.6912 373.482 24.6728 376.048 21.4357C376.94 21.4357 377.833 21.3241 378.614 21.3241Z" fill="#E37878"/>
<path fill-rule="evenodd" clip-rule="evenodd" d="M332.096 16.9708C336 25.1193 351.506 50.7925 386.869 35.835C387.872 35.3886 388.988 35.3886 389.88 35.9467C390.884 36.5048 391.331 37.3978 391.442 38.514C391.665 43.6486 394.454 51.239 407.841 53.4714C409.402 53.6947 410.964 52.9133 411.745 51.4622C416.207 42.5324 429.705 12.0594 400.924 17.4173C399.697 17.6406 398.693 17.4173 397.912 16.5243C392 10.3851 364.558 -15.0649 333.1 12.8408C331.872 13.8454 331.426 15.6314 332.096 16.9708Z" fill="#FFE084"/>
<path fill-rule="evenodd" clip-rule="evenodd" d="M376.94 48.8948H376.048C375.267 48.8948 374.598 49.5645 374.486 50.3459L374.375 52.4667C374.263 53.3597 374.932 54.0294 375.713 54.0294H376.494C377.833 54.0294 378.948 53.0248 379.06 51.6853V51.1272C379.171 49.8994 378.167 48.8948 376.94 48.8948Z" fill="#1D1D1D"/>
<path fill-rule="evenodd" clip-rule="evenodd" d="M378.614 40.5232H376.048C374.263 40.5232 372.59 41.6394 371.809 43.0905C371.474 43.537 371.586 43.9835 371.809 44.43C372.143 44.7649 372.59 44.8765 373.036 44.6532C373.705 44.43 374.263 44.3184 374.932 44.3184H378.837C380.287 44.3184 381.626 44.6532 382.63 45.323C383.076 45.6578 383.633 45.5462 384.08 45.0997C384.414 44.7649 384.526 44.2067 384.303 43.7602C383.187 41.8627 381.068 40.5232 378.614 40.5232Z" fill="#FFE084"/>
<path fill-rule="evenodd" clip-rule="evenodd" d="M355.299 15.5196C358.088 21.5472 369.466 40.2998 395.458 29.3608C396.239 29.026 397.02 29.026 397.689 29.4724C398.359 29.9189 398.693 30.4771 398.805 31.37C398.916 35.1652 401.036 40.7463 410.853 42.309C411.968 42.5323 413.084 41.8626 413.641 40.858C416.988 34.2722 426.805 11.9477 405.721 15.8545C404.829 16.0777 404.159 15.8545 403.602 15.1848C399.251 10.7198 379.06 -8.03275 355.968 12.5058C355.076 13.2872 354.741 14.515 355.299 15.5196Z" fill="#FFF3CF"/>
<path fill-rule="evenodd" clip-rule="evenodd" d="M408.621 39.5186H412.303C415.761 39.5186 418.438 42.4207 418.104 45.881L417.546 53.4714C417.211 57.1549 413.976 60.1687 410.295 60.1687H406.948C401.482 60.1687 397.355 55.7038 397.801 50.2343V49.453C398.247 43.9835 403.155 39.5186 408.621 39.5186Z" fill="#F6C5A5"/>
<path fill-rule="evenodd" clip-rule="evenodd" d="M411.187 45.6578C411.745 46.216 411.633 47.1089 411.076 47.6671L407.841 50.5692L410.518 53.4714C411.076 54.0295 410.964 54.9225 410.406 55.4806C409.849 56.0388 408.956 56.0388 408.398 55.4806L404.829 51.5738C404.606 51.3506 404.494 50.9041 404.494 50.5692C404.606 50.2344 404.717 49.7879 405.052 49.453L409.179 45.6578C409.737 45.0997 410.741 45.0997 411.187 45.6578Z" fill="#E37878"/>
<path fill-rule="evenodd" clip-rule="evenodd" d="M412.303 44.5417L424.574 25.3427L426.135 26.2356C427.028 26.7937 427.474 27.91 427.139 29.0262L423.124 40.9698C423.124 41.1931 423.012 41.4163 422.9 41.5279L418.661 48.2253C417.88 49.4531 416.319 49.8996 415.203 49.2299L413.084 48.002C411.857 47.3323 411.633 45.7696 412.303 44.5417Z" fill="#174AA1"/>
<path fill-rule="evenodd" clip-rule="evenodd" d="M416.43 42.7557L422.454 33.3794L423.235 33.8259C423.681 34.0491 423.904 34.6072 423.681 35.1654L421.785 40.9697C421.785 41.0814 421.673 41.193 421.673 41.3046L419.554 44.5417C419.219 45.0998 418.438 45.323 417.881 44.9881L416.877 44.43C416.319 44.0952 416.096 43.3138 416.43 42.7557Z" fill="#3E81EC"/>
<path fill-rule="evenodd" clip-rule="evenodd" d="M410.964 43.0905H413.084C415.092 43.0905 416.653 44.7648 416.43 46.774L416.096 51.2389C415.984 53.3597 414.088 55.0341 411.968 55.0341H410.072C406.837 55.0341 404.494 52.4668 404.717 49.2297V48.8948C405.052 45.7694 407.841 43.0905 410.964 43.0905Z" fill="#174AA1"/>
<path fill-rule="evenodd" clip-rule="evenodd" d="M412.861 45.7695H414.199C415.538 45.7695 416.653 46.8858 416.542 48.3368L416.319 51.239C416.207 52.6901 414.869 53.8064 413.418 53.8064H412.191C410.072 53.8064 408.398 52.132 408.621 50.0112V49.6763C408.845 47.5555 410.741 45.7695 412.861 45.7695Z" fill="#3E81EC"/>
<path fill-rule="evenodd" clip-rule="evenodd" d="M414.088 47.3323H414.98C415.761 47.3323 416.43 48.1136 416.319 48.895L416.207 50.681C416.096 51.5739 415.315 52.2437 414.422 52.2437H413.641C412.414 52.2437 411.41 51.2391 411.522 49.8996V49.788C411.633 48.4485 412.749 47.3323 414.088 47.3323Z" fill="#81BCFF"/>
<path d="M381.492 94.6694H351.55C311.39 94.6694 278.018 119.181 277.011 149.417C276.005 179.653 307.745 204.164 347.905 204.164H377.847C418.007 204.164 451.379 179.653 452.386 149.417C453.392 119.181 421.652 94.6694 381.492 94.6694Z" fill="white"/>
<path fill-rule="evenodd" clip-rule="evenodd" d="M314.359 109.953H317.705H323.171H328.08C329.865 109.953 330.869 111.515 330.199 113.301C329.641 115.199 327.633 116.65 325.737 116.65H320.829H315.474H312.016C309.227 116.65 306.215 117.766 303.761 119.664C301.195 121.561 299.187 124.129 298.183 126.919C297.179 129.71 297.514 132.277 298.741 134.063C299.857 135.961 302.088 137.077 304.876 137.077H308.335H313.689H318.598C320.494 137.077 321.386 138.64 320.829 140.425C320.159 142.323 318.151 143.774 316.255 143.774H311.347H305.992H302.534C297.849 143.774 294.279 141.877 292.271 138.863C290.374 135.737 289.928 131.496 291.49 126.919C293.163 122.231 296.51 117.989 300.637 114.976C304.765 111.85 309.673 109.953 314.359 109.953Z" fill="#5999F1"/>
<path fill-rule="evenodd" clip-rule="evenodd" d="M323.841 123.347H320.382H315.028H310.119C308.223 123.347 306.215 124.91 305.657 126.696C304.988 128.482 305.992 130.045 307.777 130.045H312.685H318.151H321.498C324.398 130.045 326.518 131.161 327.745 133.058C328.972 134.956 329.195 137.412 328.191 140.314C327.187 143.104 325.179 145.672 322.725 147.458C320.159 149.355 317.259 150.472 314.47 150.472H311.012H305.546H300.637C298.853 150.472 296.845 152.034 296.175 153.82C295.506 155.718 296.51 157.169 298.295 157.169H303.315H308.669H312.127C316.701 157.169 321.61 155.271 325.737 152.258C329.864 149.132 333.323 144.89 334.884 140.314C336.558 135.626 336.112 131.384 334.104 128.37C332.096 125.245 328.526 123.347 323.841 123.347Z" fill="#5999F1"/>
<path d="M343.92 209.408H299.076C297.905 209.408 296.956 212.507 296.956 216.329V248.03C296.956 251.852 297.905 254.95 299.076 254.95H343.92C345.091 254.95 346.04 251.852 346.04 248.03V216.329C346.04 212.507 345.091 209.408 343.92 209.408Z" fill="#2661C6"/>
<path fill-rule="evenodd" clip-rule="evenodd" d="M357.53 209.408H365.004C368.797 209.408 371.92 212.422 371.92 216.217V248.03C371.92 251.825 368.797 254.95 365.004 254.95H357.53C361.323 254.95 364.446 251.825 364.446 248.03V216.217C364.446 212.422 361.323 209.408 357.53 209.408Z" fill="#2661C6"/>
<path d="M410.066 89.4801H349.395C346.814 89.4801 344.653 91.5732 344.567 94.1552L344.547 94.7443C344.461 97.3263 346.483 99.4194 349.064 99.4194H409.735C412.315 99.4194 414.477 97.3263 414.563 94.7443L414.582 94.1552C414.668 91.5732 412.646 89.4801 410.066 89.4801Z" fill="white"/>
<path fill-rule="evenodd" clip-rule="evenodd" d="M401.817 92.5393H445.88C447.665 92.5393 449.004 93.9904 448.892 95.6647V98.3437C448.781 100.13 447.331 101.469 445.657 101.469H417.88C392.558 101.469 371.251 122.119 370.47 147.458C369.578 172.684 389.546 193.335 414.757 193.335H442.534C444.319 193.335 445.657 194.786 445.546 196.46V199.139C445.434 200.813 443.984 202.264 442.311 202.264H398.247C368.016 202.264 344.255 177.596 345.259 147.458C346.263 117.208 371.697 92.5393 401.817 92.5393Z" fill="#2661C6"/>
<path d="M391.874 115.864L391.397 116.221C375.597 128.043 375.384 154.481 390.921 175.272L409.78 200.508C425.317 221.299 450.721 228.569 466.521 216.747L466.998 216.39C482.798 204.568 483.011 178.13 467.474 157.339L448.615 132.104C433.078 111.313 407.674 104.042 391.874 115.864Z" fill="#F6C5A5"/>
<path fill-rule="evenodd" clip-rule="evenodd" d="M426.582 218.561C422.677 216.217 419.219 213.092 416.319 209.297L384.303 166.545C373.259 151.588 375.378 130.826 388.765 118.436C392.558 120.78 396.127 123.905 398.916 127.7L430.932 170.452C442.088 185.409 439.857 206.171 426.582 218.561Z" fill="#E37878"/>
<path fill-rule="evenodd" clip-rule="evenodd" d="M390.55 209.408H398.024C401.817 209.408 404.94 212.422 404.94 216.217V248.03C404.94 251.825 401.817 254.95 398.024 254.95H390.55C394.343 254.95 397.466 251.825 397.466 248.03V216.217C397.466 212.422 394.343 209.408 390.55 209.408Z" fill="#2661C6"/>
<path d="M417.88 364.564C432.159 364.564 445.211 369.363 455.697 377.4C460.717 381.307 462.614 387.781 460.606 393.809C458.486 399.836 453.131 403.743 446.773 403.743H388.988C382.63 403.743 377.275 399.836 375.155 393.809C373.147 387.781 375.044 381.307 380.064 377.4C390.55 369.363 403.713 364.564 417.88 364.564Z" fill="#FA6C6C"/>
<path d="M504.397 402.962H245.753C244.521 402.962 243.522 403.938 243.522 405.143C243.522 406.348 244.521 407.325 245.753 407.325H504.397C505.629 407.325 506.628 406.348 506.628 405.143C506.628 403.938 505.629 402.962 504.397 402.962Z" fill="url(#paint0_linear)"/>
<path d="M231.498 402.962H221.546C221.484 402.962 221.434 403.938 221.434 405.143C221.434 406.348 221.484 407.325 221.546 407.325H231.498C231.559 407.325 231.609 406.348 231.609 405.143C231.609 403.938 231.559 402.962 231.498 402.962Z" fill="url(#paint1_linear)"/>
<path d="M541.283 402.962H531.331C531.269 402.962 531.219 403.938 531.219 405.143C531.219 406.348 531.269 407.325 531.331 407.325H541.283C541.344 407.325 541.394 406.348 541.394 405.143C541.394 403.938 541.344 402.962 541.283 402.962Z" fill="url(#paint2_linear)"/>
<path fill-rule="evenodd" clip-rule="evenodd" d="M380.064 317.905C379.283 317.236 379.283 316.119 379.841 315.338C380.51 314.557 381.737 314.445 382.406 315.115C382.518 315.115 389.992 322.035 397.912 315.115C398.582 314.445 399.809 314.557 400.478 315.338C401.147 316.119 401.036 317.236 400.255 317.905C389.992 326.947 380.064 317.905 380.064 317.905Z" fill="#5999F1"/>
<path d="M463.617 390.014H375.155C371.952 390.014 369.355 392.612 369.355 395.818V397.046C369.355 400.252 371.952 402.85 375.155 402.85H463.617C466.821 402.85 469.418 400.252 469.418 397.046V395.818C469.418 392.612 466.821 390.014 463.617 390.014Z" fill="white"/>
<path d="M417.88 356.192C427.139 356.192 435.729 359.317 442.534 364.675C445.88 367.131 447.108 371.373 445.769 375.279C444.43 379.186 440.861 381.754 436.733 381.754H399.028C394.9 381.754 391.331 379.186 389.992 375.279C388.653 371.373 389.88 367.131 393.227 364.675C400.032 359.317 408.621 356.192 417.88 356.192Z" fill="white"/>
<path d="M224.68 272.009L225.531 270.561C229.82 263.264 237.109 259.592 241.812 262.36C246.514 265.128 246.849 273.287 242.56 280.583L241.709 282.031C237.42 289.328 230.131 292.999 225.428 290.232C220.726 287.464 220.39 279.305 224.68 272.009Z" fill="#E37878"/>
<path fill-rule="evenodd" clip-rule="evenodd" d="M485.482 223.249C485.817 222.803 486.04 222.356 486.374 222.022L486.486 221.91C488.159 219.566 489.61 216.887 490.837 214.096C499.761 193.446 490.279 169.447 469.641 160.518C449.004 151.588 425.02 161.076 416.096 181.837C414.868 184.628 413.976 187.419 413.418 190.321V190.432C413.307 190.879 413.195 191.437 413.195 191.995L399.474 273.145C397.578 282.298 402.263 291.897 411.187 295.804C420.223 299.599 430.374 296.474 435.729 288.772L485.482 223.249Z" fill="#F6C5A5"/>
<path d="M419.655 297.775C435.683 301.105 451.374 290.802 454.701 274.764C458.028 258.726 447.732 243.025 431.704 239.696C415.675 236.367 399.984 246.669 396.657 262.708C393.33 278.746 403.626 294.446 419.655 297.775Z" fill="white"/>
<path d="M383.563 285.072L383.938 283.197C385.829 273.749 392.298 267.079 398.387 268.299C404.475 269.519 407.879 278.167 405.988 287.615L405.613 289.49C403.722 298.938 397.253 305.608 391.164 304.388C385.075 303.168 381.672 294.52 383.563 285.072Z" fill="#E37878"/>
<path d="M475.51 183.386C481.616 184.655 487.594 180.73 488.862 174.619C490.129 168.509 486.207 162.527 480.1 161.259C473.994 159.991 468.016 163.916 466.748 170.026C465.48 176.136 469.403 182.118 475.51 183.386Z" fill="#F6C5A5"/>
<path d="M24.988 388.562C22.6454 387.558 21.6414 384.879 22.6454 382.535C23.6494 380.302 26.3267 379.186 28.5578 380.191C28.7809 380.302 70.8367 399.948 178.598 338.779C237.61 305.292 299.745 283.526 359.426 281.628C412.414 279.842 463.283 293.572 508.351 328.398C600.829 400.06 699.777 392 700 392C702.566 391.777 701.277 393.933 701.5 396.5C701.723 398.956 698.454 400.777 696 401C695.665 401 598.151 409.436 502.773 335.653C459.602 302.278 410.629 288.995 359.649 290.669C301.641 292.567 240.845 313.887 183.171 346.704C71.2829 410.217 25.0996 388.674 24.988 388.562Z" fill="url(#paint3_linear)"/>
<path fill-rule="evenodd" clip-rule="evenodd" d="M291.825 291.897L295.171 298.595C298.518 305.069 295.729 312.882 289.036 315.896L257.131 330.184C250.104 333.309 241.626 330.295 238.167 323.375L235.155 317.235C230.024 306.966 234.375 294.799 244.749 290.111L263.49 281.739C273.976 277.051 286.693 281.628 291.825 291.897Z" fill="#F6C5A5"/>
<path fill-rule="evenodd" clip-rule="evenodd" d="M389.211 321.031L389.546 300.827C389.657 297.144 392.781 294.241 396.462 294.241L403.602 294.353C407.506 294.353 410.518 297.59 410.518 301.385L410.072 321.254C409.96 327.059 405.163 331.635 399.474 331.635C393.673 331.523 389.1 326.724 389.211 321.031Z" fill="#E37878"/>
<path fill-rule="evenodd" clip-rule="evenodd" d="M452.462 294.799L452.016 305.515C451.57 316.119 442.645 324.379 432.159 323.933L409.068 323.04C398.135 322.593 389.546 313.329 389.88 302.278L390.327 292.344C390.996 275.935 404.94 262.987 421.339 263.657H423.681C440.191 264.326 453.131 278.279 452.462 294.799Z" fill="#E37878"/>
<path fill-rule="evenodd" clip-rule="evenodd" d="M452.685 282.967L452.35 293.795C451.904 304.287 442.98 312.547 432.494 312.101L409.402 311.208C398.359 310.873 389.769 301.497 390.215 290.558L390.55 280.623C391.219 264.103 405.163 251.155 421.673 251.825L424.016 251.936C440.414 252.606 453.354 266.559 452.685 282.967Z" fill="#F6C5A5"/>
<path d="M216.678 280.064L218.042 279.085C224.914 274.148 233.065 273.742 236.246 278.176C239.428 282.611 236.435 290.208 229.563 295.144L228.199 296.124C221.326 301.061 213.176 301.467 209.994 297.033C206.813 292.598 209.805 285.001 216.678 280.064Z" fill="#E37878"/>
<path d="M47.8428 372.125L14.7944 375.224C5.80244 376.068 -0.803683 384.046 0.0392307 393.043L0.107112 393.768C0.950025 402.765 8.92278 409.375 17.9148 408.532L50.9632 405.432C59.9551 404.589 66.5613 396.611 65.7183 387.613L65.6505 386.889C64.8075 377.891 56.8348 371.281 47.8428 372.125Z" fill="url(#paint4_linear)"/>
<path d="M74.5723 390.942L73.1176 378.93C72.7218 375.662 69.7532 373.334 66.487 373.73L66.224 373.761C62.9578 374.157 60.6309 377.128 61.0267 380.396L62.4813 392.408C62.8771 395.676 65.8458 398.004 69.1119 397.608L69.375 397.576C72.6412 397.18 74.9681 394.21 74.5723 390.942Z" fill="url(#paint5_linear)"/>
<path d="M88.0618 388.662L86.225 376.703C85.7253 373.449 82.684 371.216 79.4321 371.716L79.1702 371.757C75.9183 372.257 73.6872 375.3 74.187 378.554L76.0237 390.513C76.5235 393.767 79.5648 395.999 82.8167 395.499L83.0786 395.459C86.3305 394.959 88.5615 391.916 88.0618 388.662Z" fill="url(#paint6_linear)"/>
<path fill-rule="evenodd" clip-rule="evenodd" d="M369.912 67.9824H373.594C374.374 67.9824 375.044 67.3126 375.155 66.5313C375.155 65.7499 374.709 65.0802 373.928 64.9686C372.59 64.6337 371.139 64.6337 369.578 64.9686C368.797 65.0802 368.351 65.8615 368.351 66.6429C368.462 67.3126 369.131 67.9824 369.912 67.9824Z" fill="#1D1D1D"/>
<path fill-rule="evenodd" clip-rule="evenodd" d="M369.912 67.9823H373.594C374.375 67.9823 375.044 67.4241 375.155 66.6428C373.928 66.4195 372.478 66.4195 371.139 66.7544C370.47 66.866 370.024 67.3125 369.912 67.9823Z" fill="white"/>
<path fill-rule="evenodd" clip-rule="evenodd" d="M96.0955 315.267L93.378 329.276L92.363 334.976L94.038 334.758L101.414 333.821L91.3493 348.875L81.3636 363.793L84.0812 349.784L85.0962 344.084L83.4212 344.301L76.0453 345.238L86.0309 330.321L96.0955 315.267Z" fill="url(#paint7_linear)"/>
<path fill-rule="evenodd" clip-rule="evenodd" d="M53.0603 336.137L55.7425 343.917L56.8791 347.056L57.6528 346.464L61.0662 343.869L60.3805 354.289L59.6948 364.619L57.0126 356.839L55.876 353.699L55.1023 354.291L51.6889 356.886L52.3746 346.557L53.0603 336.137Z" fill="url(#paint8_linear)"/>
<path d="M448.112 19.0915C445.546 12.9523 440.972 8.0409 435.394 5.13872C435.283 5.02709 435.283 5.02709 435.283 5.02709H435.171C435.06 5.02709 435.06 4.91547 435.06 4.91547C429.482 2.1249 423.012 1.00868 416.542 2.34815C415.761 2.5714 415.203 2.90626 414.868 3.576C414.534 4.13411 414.422 4.80385 414.645 5.47358L414.868 6.25494C415.203 7.37117 416.43 8.15253 417.657 7.92928C422.9 6.81306 428.032 7.59441 432.494 9.93849C432.494 9.93849 432.494 9.93849 432.606 9.93849V10.0501C432.717 10.0501 432.717 10.0501 432.717 10.0501C437.179 12.3942 440.861 16.301 442.869 21.2124C443.426 22.3286 444.653 22.9983 445.88 22.5518L446.55 22.3286C447.219 22.1054 447.777 21.7705 448.112 21.1007C448.335 20.431 448.335 19.7613 448.112 19.0915ZM437.068 22.3286C435.394 19.2032 432.94 16.7475 429.928 15.1848C427.028 13.622 423.57 12.9523 420.112 13.3988C419.331 13.5104 418.773 13.8453 418.327 14.515C417.88 15.0731 417.88 15.7429 418.104 16.5242L418.327 17.194C418.661 18.4218 419.665 19.0915 420.892 18.9799C423.123 18.6451 425.355 19.0915 427.363 20.0961C429.259 21.2124 430.932 22.7751 431.936 24.7843C432.494 25.7889 433.721 26.347 434.837 26.0121L435.618 25.7889C436.287 25.5657 436.845 25.1192 437.068 24.3378C437.402 23.6681 437.402 22.9983 437.068 22.3286Z" fill="white"/>
<path fill-rule="evenodd" clip-rule="evenodd" d="M308.223 215.771H312.685C309.896 215.771 307.665 218.003 307.665 220.682V243.565C307.665 246.355 309.896 248.588 312.685 248.588H308.223C305.546 248.588 303.315 246.355 303.315 243.565V220.682C303.315 218.003 305.546 215.771 308.223 215.771Z" fill="#174AA1"/>
<path fill-rule="evenodd" clip-rule="evenodd" d="M8.08342 341.234L15.8847 348.011L19.0916 350.711L19.5615 349.581L21.6444 344.617L27.4408 356.379L33.1801 368.042L25.3788 361.265L22.1719 358.565L21.7021 359.694L19.6192 364.659L13.8798 352.996L8.08342 341.234Z" fill="url(#paint9_linear)"/>
</g>
<defs>
<linearGradient id="paint0_linear" x1="327.058" y1="406.408" x2="327.121" y2="402.017" gradientUnits="userSpaceOnUse">
<stop stop-color="#6B75E3"/>
<stop offset="1" stop-color="#72A4F3"/>
</linearGradient>
<linearGradient id="paint1_linear" x1="224.665" y1="406.408" x2="226.088" y2="402.539" gradientUnits="userSpaceOnUse">
<stop stop-color="#6B75E3"/>
<stop offset="1" stop-color="#72A4F3"/>
</linearGradient>
<linearGradient id="paint2_linear" x1="534.45" y1="406.408" x2="535.873" y2="402.539" gradientUnits="userSpaceOnUse">
<stop stop-color="#6B75E3"/>
<stop offset="1" stop-color="#72A4F3"/>
</linearGradient>
<linearGradient id="paint3_linear" x1="237.959" y1="376.131" x2="255.798" y2="258.205" gradientUnits="userSpaceOnUse">
<stop stop-color="#6B75E3"/>
<stop offset="1" stop-color="#72A4F3"/>
</linearGradient>
<linearGradient id="paint4_linear" x1="21.8096" y1="401.111" x2="31.4403" y2="371.771" gradientUnits="userSpaceOnUse">
<stop stop-color="#6B75E3"/>
<stop offset="1" stop-color="#72A4F3"/>
</linearGradient>
<linearGradient id="paint5_linear" x1="63.766" y1="381.742" x2="74.5411" y2="384.954" gradientUnits="userSpaceOnUse">
<stop stop-color="#6B75E3"/>
<stop offset="1" stop-color="#72A4F3"/>
</linearGradient>
<linearGradient id="paint6_linear" x1="76.9679" y1="379.812" x2="87.8397" y2="382.678" gradientUnits="userSpaceOnUse">
<stop stop-color="#6B75E3"/>
<stop offset="1" stop-color="#72A4F3"/>
</linearGradient>
<linearGradient id="paint7_linear" x1="93.683" y1="327.963" x2="80.4214" y2="361.54" gradientUnits="userSpaceOnUse">
<stop stop-color="#FEB137"/>
<stop offset="1" stop-color="#FEB137" stop-opacity="0"/>
</linearGradient>
<linearGradient id="paint8_linear" x1="55.5163" y1="343.173" x2="58.5745" y2="363.765" gradientUnits="userSpaceOnUse">
<stop stop-color="#FEB137"/>
<stop offset="1" stop-color="#FEB137" stop-opacity="0"/>
</linearGradient>
<linearGradient id="paint9_linear" x1="15.1718" y1="347.344" x2="31.426" y2="367.817" gradientUnits="userSpaceOnUse">
<stop stop-color="#FEB137"/>
<stop offset="1" stop-color="#FEB137" stop-opacity="0"/>
</linearGradient>
<clipPath id="clip0">
<rect width="700" height="408.547" fill="white"/>
</clipPath>
</defs>
</svg>
