<svg width="14" height="16" viewBox="0 0 14 16" fill="none" xmlns="http://www.w3.org/2000/svg">
<path fill-rule="evenodd" clip-rule="evenodd" d="M7.97422 11.4011C7.69136 11.7243 7.19999 11.7571 6.87672 11.4742C6.55344 11.1914 6.52069 10.7 6.80355 10.3767L8.39707 8.55556L0.777777 8.55556C0.348223 8.55556 -3.58754e-07 8.20733 -3.39977e-07 7.77778C-3.21201e-07 7.34822 0.348223 7 0.777777 7L8.39707 7L6.80355 5.17884C6.52069 4.85557 6.55344 4.36419 6.87672 4.08133C7.19999 3.79847 7.69136 3.83122 7.97422 4.1545L10.6964 7.26561C10.953 7.55885 10.953 7.99671 10.6964 8.28995L7.97422 11.4011ZM10.1111 1.55556C9.68156 1.55556 9.33333 1.20733 9.33333 0.777778C9.33333 0.348223 9.68156 4.23194e-07 10.1111 4.41971e-07L12.4444 5.43964e-07C13.3036 5.81517e-07 14 0.696447 14 1.55556L14 14C14 14.8591 13.3036 15.5556 12.4444 15.5556L10.1111 15.5556C9.68156 15.5556 9.33333 15.2073 9.33333 14.7778C9.33333 14.3482 9.68156 14 10.1111 14L12.4444 14L12.4444 1.55556L10.1111 1.55556Z" fill="black"/>
</svg>
