<svg width="84" height="106" viewBox="0 0 84 106" fill="none" xmlns="http://www.w3.org/2000/svg">
<path d="M75.6322 48.6751L75.6322 40.9552C75.6322 31.4777 69.7692 23.7947 62.5368 23.7947L62.2842 23.7947C55.0518 23.7947 49.1888 31.4777 49.1888 40.9552L49.1888 48.6751C49.1888 58.1525 55.0518 65.8355 62.2842 65.8355H62.5368C69.7692 65.8355 75.6322 58.1525 75.6322 48.6751Z" fill="#174AA1"/>
<path d="M57.3818 20.6212H49.4182V70.4472H57.3818V20.6212Z" fill="#2661C6"/>
<path d="M72.4937 50.15L72.4937 40.9946C72.4937 29.7549 65.5405 20.6433 56.9633 20.6433L56.6637 20.6433C48.0866 20.6433 41.1334 29.7549 41.1334 40.9946L41.1334 50.15C41.1334 61.3897 48.0866 70.5013 56.6637 70.5013L56.9633 70.5013C65.5405 70.5013 72.4937 61.3897 72.4937 50.15Z" fill="#2661C6"/>
<path fill-rule="evenodd" clip-rule="evenodd" d="M26.3455 24.0836H37.9091C38.3455 24.0836 38.7273 24.4623 38.7273 24.8951V25.5984C38.7273 26.0312 38.3455 26.4099 37.9091 26.4099H30.6C24 26.4099 18.5455 31.7658 18.5455 38.366C18.5455 44.9661 24 50.322 30.6 50.322H37.9091C38.3455 50.322 38.7273 50.7007 38.7273 51.1335V51.8368C38.7273 52.2696 38.3455 52.6483 37.9091 52.6483H26.3455C18.4364 52.6483 11.9455 46.2104 11.9455 38.366C11.9455 30.5215 18.4364 24.0836 26.3455 24.0836Z" fill="#2661C6"/>
<path d="M65.1158 50.15L65.1158 40.9946C65.1158 29.7549 58.1626 20.6433 49.5855 20.6433L49.2859 20.6433C40.7087 20.6433 33.7556 29.7549 33.7556 40.9946L33.7556 50.15C33.7556 61.3897 40.7087 70.5013 49.2859 70.5013L49.5855 70.5013C58.1626 70.5013 65.1158 61.3897 65.1158 50.15Z" fill="#174AA1"/>
<path fill-rule="evenodd" clip-rule="evenodd" d="M18.2727 58.5452H38.7818L44.1273 93.9807C45.8182 95.1168 47.0727 96.9021 47.2909 98.9578C47.6727 102.312 45.2182 105.017 41.8364 105.017H36.4909C36.2727 105.017 36.1091 105.071 35.9454 105.071H20.7818C19.0909 105.071 17.5636 104.043 16.8545 102.474C16.1454 100.905 16.4727 99.2283 17.6727 98.2004C19.3636 96.7938 21.4364 95.766 23.7818 95.225L18.2727 58.5452Z" fill="#174AA1"/>
<path d="M49.2099 58.5263H28.6909L41.291 103.584H61.81L49.2099 58.5263Z" fill="#2661C6"/>
<path d="M21.7636 52.5942L25.9636 37.1217C27.8727 30.0346 35.2364 25.8148 42.3818 27.7083C49.5273 29.6018 53.7818 36.9053 51.8727 43.9923L47.9455 58.5452H21.5455C21.1636 56.5976 21.2182 54.5959 21.7636 52.5942Z" fill="white"/>
<path d="M50.5091 55.3533H18.1091C17.2656 55.3533 16.5818 56.0315 16.5818 56.8681V64.0093C16.5818 64.8459 17.2656 65.5241 18.1091 65.5241H50.5091C51.3526 65.5241 52.0364 64.8459 52.0364 64.0093V56.8681C52.0364 56.0315 51.3526 55.3533 50.5091 55.3533Z" fill="#174AA1"/>
<path fill-rule="evenodd" clip-rule="evenodd" d="M36.4364 13.6964L31.0909 29.2772H48V13.4259L36.4364 13.6964Z" fill="#E37878"/>
<path fill-rule="evenodd" clip-rule="evenodd" d="M27.9818 8.93563C29.0182 10.2881 32.8909 14.3997 38.9455 10.5586C39.1091 10.4504 39.3273 10.4504 39.4909 10.5045C39.7091 10.5586 39.8182 10.7209 39.8727 10.8832C40.1455 11.857 40.9636 13.1013 43.5273 13.1013C43.8546 13.1013 44.0727 12.8849 44.1818 12.5603C44.6727 10.8291 45.9818 4.87814 40.8546 6.82573C40.6364 6.87983 40.4182 6.87983 40.2546 6.71753C38.8909 5.79784 32.7818 2.11904 27.9818 8.12413C27.8182 8.39463 27.8182 8.71923 27.9818 8.93563Z" fill="#FF8984"/>
<path fill-rule="evenodd" clip-rule="evenodd" d="M39.0545 5.58145H41.6727C44.2364 5.58145 46.2 7.63725 46.0909 10.1258L45.7636 16.7801C45.6545 19.431 43.3636 21.595 40.6909 21.595H38.2909C34.3091 21.595 31.2545 18.349 31.4182 14.3997L31.4727 12.7226C31.6909 8.77334 35.0727 5.58145 39.0545 5.58145Z" fill="#E37878"/>
<path fill-rule="evenodd" clip-rule="evenodd" d="M34.6364 12.7226H34.8545C35.0727 12.7226 35.2364 12.8849 35.2364 13.1013V13.6423C35.1818 13.9128 35.0182 14.0751 34.8 14.0751H34.5818C34.2545 14.0751 33.9818 13.8046 33.9818 13.48V13.3177C34.0364 12.9931 34.3091 12.7226 34.6364 12.7226Z" fill="#1D1D1D"/>
<path fill-rule="evenodd" clip-rule="evenodd" d="M33.7636 12.1275L34.4182 12.2357C34.9091 12.2898 35.2909 12.6144 35.4545 13.0472C35.5091 13.1554 35.5091 13.2636 35.4 13.3718C35.3454 13.4259 35.1818 13.48 35.0727 13.3718C34.9091 13.3177 34.7454 13.2636 34.5818 13.2095L33.6 13.1013C33.2182 13.0472 32.8364 13.1013 32.5636 13.2095C32.4545 13.2636 32.2909 13.2636 32.1818 13.1013C32.1273 12.9931 32.1273 12.8849 32.1818 12.7767C32.5636 12.2898 33.1091 12.0734 33.7636 12.1275Z" fill="#FFE084"/>
<path fill-rule="evenodd" clip-rule="evenodd" d="M39.1091 5.58145H41.7273C44.2364 5.58145 46.2545 7.63725 46.1454 10.1799L45.8182 16.8342C45.6545 19.4851 43.4182 21.6491 40.7454 21.6491H38.3454C37.8545 21.6491 37.3636 21.595 36.8727 21.4868C35.0727 20.4048 36.9273 18.89 36.9273 18.89L36.2727 16.5096C36.2182 16.2932 36.2727 16.0768 36.3818 15.8604L36.4909 15.644L35.2364 15.2653C34.8 15.1571 34.5273 14.6702 34.6364 14.1833L36.2727 9.04384C36.2727 8.93564 36.2727 8.88154 36.3273 8.82744C37.0364 7.47495 37.7454 6.39295 38.4 5.58145C38.6182 5.58145 38.8364 5.58145 39.1091 5.58145Z" fill="#F6C5A5"/>
<path fill-rule="evenodd" clip-rule="evenodd" d="M39.1091 5.58145H41.7273C44.2364 5.58145 46.2545 7.63725 46.1454 10.1799L45.9273 14.1292C43.3091 13.4259 42.6545 11.7488 42.5454 10.5586C42.5454 10.2881 42.3818 10.0717 42.1091 9.90944C41.8909 9.80124 41.6182 9.80124 41.3454 9.90944C39.1091 10.9373 37.2 11.316 35.5636 11.2619L36.2727 9.04384C36.2727 8.93564 36.2727 8.88154 36.3273 8.82744C37.0364 7.47495 37.7454 6.39295 38.4 5.58145C38.6182 5.58145 38.8364 5.58145 39.1091 5.58145Z" fill="#E37878"/>
<path fill-rule="evenodd" clip-rule="evenodd" d="M26.8364 4.44534C27.9273 6.55524 32.1818 13.2095 41.3454 9.31433C41.6182 9.20613 41.8909 9.20613 42.1636 9.36843C42.4364 9.53073 42.5454 9.74713 42.6 10.0176C42.7091 11.3701 43.4727 13.3718 47.0182 13.9128C47.4545 13.9669 47.8364 13.7505 48 13.3718C49.1454 11.0455 52.3636 3.14695 44.8909 4.55354C44.5636 4.60764 44.2909 4.55354 44.0727 4.33714C42.4909 2.71415 35.0727 -3.94014 27.0545 3.36335C26.7273 3.63385 26.6182 4.06664 26.8364 4.44534Z" fill="#FFE084"/>
<path fill-rule="evenodd" clip-rule="evenodd" d="M40.2545 12.7226H40.0364C39.8182 12.7226 39.6 12.8849 39.6 13.1013V13.6423C39.5455 13.9128 39.7636 14.0751 39.9818 14.0751H40.1455C40.5273 14.0751 40.8 13.8046 40.8 13.48V13.3177C40.8545 12.9931 40.5818 12.7226 40.2545 12.7226Z" fill="#1D1D1D"/>
<path fill-rule="evenodd" clip-rule="evenodd" d="M39.9273 10.775H39.2727C38.7818 10.775 38.3455 11.0455 38.1273 11.4242C38.0727 11.5324 38.1273 11.6947 38.1818 11.7488C38.2364 11.857 38.4 11.9111 38.5091 11.857C38.6727 11.8029 38.8364 11.7488 39 11.7488H40.0364C40.3636 11.7488 40.7454 11.857 41.0182 12.0193C41.1273 12.0734 41.2909 12.0734 41.4 11.9652C41.5091 11.857 41.5091 11.6947 41.4545 11.5865C41.1273 11.0996 40.5818 10.775 39.9273 10.775Z" fill="#FFE084"/>
<path fill-rule="evenodd" clip-rule="evenodd" d="M41.6727 17.3752C40.6364 18.349 39.2727 18.9441 37.8546 18.9441C36.3818 18.9441 35.0727 18.349 34.1455 17.3752C33.8727 17.1047 33.8182 16.6178 34.0909 16.2932C34.3091 15.9145 34.7455 15.7522 35.1273 15.9145C36 16.1309 36.9273 16.2932 37.9637 16.2932C38.9455 16.2932 39.9273 16.1309 40.8 15.9145C41.2364 15.7522 41.6182 15.9145 41.8364 16.2932C42.0546 16.6178 41.9455 17.1047 41.6727 17.3752Z" fill="#A45959"/>
<path d="M41.0727 17.8621C40.1455 18.5113 39.0546 18.9441 37.8546 18.9441C36.7091 18.9441 35.6727 18.5654 34.8546 17.9703C35.8364 17.4293 36.9273 17.1047 38.1273 17.1047C39.2182 17.1047 40.2 17.3752 41.0727 17.8621Z" fill="white"/>
<path d="M34.3091 16.0768C34.5273 15.8604 34.8545 15.8063 35.1273 15.9145C36 16.1309 36.9273 16.2932 37.9636 16.2932C38.9454 16.2932 39.9273 16.1309 40.8 15.9145C41.2364 15.7522 41.6182 15.9145 41.8364 16.2932C40.8545 17.2129 39.5454 17.7539 38.0727 17.7539C36.6 17.7539 35.3454 17.2129 34.4182 16.2391C34.3636 16.185 34.3091 16.1309 34.3091 16.0768Z" fill="white"/>
<path fill-rule="evenodd" clip-rule="evenodd" d="M32.8909 4.06664C33.7091 5.58144 36.8182 10.5045 43.5273 7.63723C43.7455 7.58313 43.9636 7.58313 44.1273 7.69133C44.3455 7.79953 44.4546 7.96183 44.4546 8.17823C44.5091 9.15203 45.1091 10.6127 47.7273 11.0455C48 11.0455 48.3273 10.9373 48.4364 10.6127C49.2546 8.93563 51.6546 3.09284 46.1455 4.12074C45.9273 4.17484 45.7091 4.12074 45.5455 3.95844C44.4 2.76824 38.9455 -2.04665 33.0546 3.25514C32.8364 3.47154 32.7273 3.79614 32.8909 4.06664Z" fill="#FFF3CF"/>
<path fill-rule="evenodd" clip-rule="evenodd" d="M47.1273 11.5324H48.0546C48.9818 11.5324 49.6909 12.2898 49.6364 13.2095L49.5818 15.2112C49.5273 16.185 48.7091 16.9424 47.7273 16.9424H46.8546C45.3818 16.9424 44.2909 15.7522 44.3455 14.3456V14.1833C44.4 12.7226 45.6546 11.5324 47.1273 11.5324Z" fill="#F6C5A5"/>
<path fill-rule="evenodd" clip-rule="evenodd" d="M47.8364 13.1554C47.9454 13.3177 47.9454 13.5341 47.8364 13.6964L47.0182 14.4538L47.7273 15.2112C47.8909 15.3194 47.8909 15.5899 47.7273 15.6981C47.5636 15.8604 47.3454 15.8604 47.1818 15.6981L46.2 14.7243C46.1454 14.6161 46.1454 14.562 46.1454 14.4538C46.1454 14.3456 46.1454 14.2374 46.2545 14.1833L47.2909 13.1554C47.4545 13.0472 47.6727 13.0472 47.8364 13.1554Z" fill="#E37878"/>
<path fill-rule="evenodd" clip-rule="evenodd" d="M48.1091 12.8849L51.1636 7.85364L51.6 8.12414C51.8182 8.23234 51.9273 8.55694 51.8727 8.82744L50.9454 11.9652C50.9454 12.0193 50.8909 12.0734 50.8909 12.1275L49.8 13.8587C49.6364 14.1292 49.2 14.2915 48.9273 14.0751L48.3273 13.7505C48.0545 13.5882 47.9454 13.2095 48.1091 12.8849Z" fill="#174AA1"/>
<path fill-rule="evenodd" clip-rule="evenodd" d="M49.2 12.398L50.6727 9.96353L50.8909 10.0717C51 10.1258 51.0545 10.2881 51 10.4504L50.5636 11.9652C50.5636 11.9652 50.5636 12.0193 50.5091 12.0193L50.0182 12.8849C49.9091 13.0472 49.7455 13.1013 49.5818 12.9931L49.3091 12.8308C49.1455 12.7767 49.0909 12.5603 49.2 12.398Z" fill="#3E81EC"/>
<path fill-rule="evenodd" clip-rule="evenodd" d="M47.7818 12.5062H48.3273C48.8182 12.5062 49.2545 12.939 49.2 13.48L49.1454 14.6161C49.1454 15.1571 48.6545 15.5899 48.1091 15.5899H47.6182C46.8 15.5899 46.1454 14.9407 46.1454 14.1292L46.2 14.021C46.2 13.1554 46.9091 12.5062 47.7818 12.5062Z" fill="#174AA1"/>
<path fill-rule="evenodd" clip-rule="evenodd" d="M48.2727 13.2095H48.6545C48.9818 13.2095 49.2545 13.48 49.2545 13.8587L49.2 14.6161C49.2 14.9948 48.8727 15.3194 48.4909 15.3194H48.1636C47.6182 15.3194 47.1818 14.8325 47.1818 14.2915V14.2374C47.2364 13.6423 47.7273 13.2095 48.2727 13.2095Z" fill="#3E81EC"/>
<path fill-rule="evenodd" clip-rule="evenodd" d="M48.6 13.5882H48.8182C49.0364 13.5882 49.2 13.8046 49.2 14.021V14.4538C49.2 14.7243 48.9818 14.8866 48.7636 14.8866H48.5455C48.2182 14.8866 47.9455 14.6161 47.9455 14.2915V14.2374C47.9455 13.9128 48.2727 13.5882 48.6 13.5882Z" fill="#81BCFF"/>
<path d="M40.6364 24.6246H32.5091C22.0257 24.6246 13.5273 31.0069 13.5273 38.8799C13.5273 46.7529 22.0257 53.1352 32.5091 53.1352H40.6364C51.1197 53.1352 59.6182 46.7529 59.6182 38.8799C59.6182 31.0069 51.1197 24.6246 40.6364 24.6246Z" fill="white"/>
<path fill-rule="evenodd" clip-rule="evenodd" d="M24.6 28.628H25.5273H26.9454H28.2545C28.6909 28.628 28.9636 29.0067 28.8545 29.4936C28.6909 29.9805 28.1454 30.3592 27.6545 30.3592H26.4H24.9818H24.0545C23.3454 30.3592 22.5818 30.6838 21.9273 31.1707C21.2727 31.6035 20.7818 32.3068 20.5091 33.0101C20.2909 33.7675 20.4 34.4167 20.7273 34.9036C21.0545 35.3905 21.6545 35.7151 22.3636 35.7151H23.2909H24.7091H25.9636C26.4545 35.7151 26.7273 36.0938 26.5636 36.5807C26.4545 37.0135 25.9091 37.4463 25.4182 37.4463H24.1636H22.7454H21.8182C20.6182 37.4463 19.6364 36.9053 19.0909 36.1479C18.5454 35.3364 18.3818 34.2544 18.7636 33.0101C19.1454 31.8199 20.0182 30.7379 21.0545 29.9264C22.1454 29.1149 23.4 28.628 24.6 28.628Z" fill="#5999F1"/>
<path fill-rule="evenodd" clip-rule="evenodd" d="M27.2727 32.0904H26.3454H24.9273H23.6182C23.1273 32.0904 22.6364 32.5232 22.4727 32.956C22.3091 33.4429 22.5818 33.8216 23.0727 33.8216H24.3818H25.8H26.6727C27.4364 33.8216 27.9818 34.1462 28.3636 34.6331C28.6909 35.12 28.7454 35.7692 28.5273 36.5266C28.3091 37.2299 27.7636 37.9332 27.1636 38.366C26.5091 38.8529 25.7454 39.1775 24.9818 39.1775H24.1091H22.6909H21.3818C20.8909 39.1775 20.4 39.5562 20.2364 40.0431C20.0727 40.53 20.3454 40.9087 20.8364 40.9087H22.1454H23.5636H24.4364C25.6909 40.9087 26.9454 40.4218 27.9818 39.6103C29.0727 38.7988 29.8909 37.7168 30.2727 36.5266C30.6545 35.2823 30.5454 34.2003 29.9454 33.3888C29.4 32.5773 28.4727 32.0904 27.2727 32.0904Z" fill="#5999F1"/>
<path d="M32.1273 54.4877H20.3454C20.0442 54.4877 19.8 55.287 19.8 56.273V64.5503C19.8 65.5363 20.0442 66.3356 20.3454 66.3356H32.1273C32.4285 66.3356 32.6727 65.5363 32.6727 64.5503V56.273C32.6727 55.287 32.4285 54.4877 32.1273 54.4877Z" fill="#2661C6"/>
<path fill-rule="evenodd" clip-rule="evenodd" d="M35.7273 54.4877H37.6909C38.6727 54.4877 39.4909 55.2992 39.4909 56.273V64.5503C39.4909 65.5241 38.6727 66.3356 37.6909 66.3356H35.7273C36.7091 66.3356 37.5273 65.5241 37.5273 64.5503V56.273C37.5273 55.2992 36.7091 54.4877 35.7273 54.4877Z" fill="#2661C6"/>
<path d="M12.6184 38.1104C11.9425 39.6773 10.5235 40.5778 9.44885 40.1218C8.37422 39.6658 8.05095 38.026 8.72682 36.4591L9.05073 35.7082C9.7266 34.1413 11.1457 33.2408 12.2203 33.6968C13.2949 34.1528 13.6182 35.7926 12.9423 37.3595L12.6184 38.1104Z" fill="#E37878"/>
<path d="M7.39845 37.7518L7.01972 38.0363C4.96291 39.5815 4.10652 41.8961 5.10693 43.2061C6.10734 44.516 8.58571 44.3253 10.6425 42.7801L11.0213 42.4956C13.0781 40.9504 13.9345 38.6358 12.934 37.3258C11.9336 36.0159 9.45527 36.2066 7.39845 37.7518Z" fill="#E37878"/>
<path d="M13.234 28.3575H13.2C11.8444 28.3575 10.7455 29.4474 10.7455 30.792V41.6253C10.7455 42.9698 11.8444 44.0598 13.2 44.0598H13.234C14.5896 44.0598 15.6885 42.9698 15.6885 41.6253V30.792C15.6885 29.4474 14.5896 28.3575 13.234 28.3575Z" fill="#174AA1"/>
<path d="M14.2909 20.6753V30.0346C14.2909 30.5756 13.8 31.0625 13.2546 31.0625C12.6546 31.0625 12.1636 30.5756 12.1636 30.0346V20.6753L11.0182 18.6736L12.1091 14.6161H13.2546H14.3455L15.4364 18.6736L14.2909 20.6753Z" fill="white"/>
<path fill-rule="evenodd" clip-rule="evenodd" d="M16.6909 34.9577L11.8909 37.3381C11.0182 37.825 10.6909 38.8529 11.1273 39.7185L12 41.4497C12.4364 42.3694 13.5818 42.7481 14.4546 42.2612L19.2 39.8808C20.5637 39.1775 21.1091 37.5004 20.4546 36.1479C19.7455 34.7954 18.0546 34.2544 16.6909 34.9577Z" fill="#E37878"/>
<path fill-rule="evenodd" clip-rule="evenodd" d="M17.7273 53.0271L20.2909 51.6746C22.8 50.3762 23.7273 47.2925 22.4182 44.858L19.5273 39.448C18.1091 36.9053 14.8909 35.8774 12.2727 37.284L9.92726 38.5283C6.05454 40.53 4.58181 45.399 6.65454 49.2401L6.92726 49.7811C8.99999 53.6222 13.8545 55.0829 17.7273 53.0271Z" fill="#E37878"/>
<path fill-rule="evenodd" clip-rule="evenodd" d="M14.9455 54.4877L17.5091 53.1352C19.9636 51.8368 20.9455 48.7532 19.5818 46.2646L16.6909 40.8546C15.3273 38.3119 12.0546 37.3381 9.49092 38.6906L7.14546 39.9349C3.27274 41.9907 1.80001 46.8056 3.87274 50.6466L4.14546 51.1876C6.21819 55.0287 11.0727 56.4894 14.9455 54.4877Z" fill="#F6C5A5"/>
<path d="M47.8348 23.2721H32.0727C31.3497 23.2721 30.7636 23.8511 30.7636 24.5653C30.7636 25.2794 31.3497 25.8584 32.0727 25.8584H47.8348C48.5578 25.8584 49.1439 25.2794 49.1439 24.5653C49.1439 23.8511 48.5578 23.2721 47.8348 23.2721Z" fill="white"/>
<path fill-rule="evenodd" clip-rule="evenodd" d="M45.8182 24.0836H57.3818C57.8182 24.0836 58.2 24.4623 58.2 24.8951V25.5984C58.2 26.0312 57.8182 26.4099 57.3818 26.4099H50.0727C43.4182 26.4099 38.0182 31.7658 38.0182 38.366C38.0182 44.9661 43.4182 50.322 50.0727 50.322H57.3818C57.8182 50.322 58.2 50.7007 58.2 51.1335V51.8368C58.2 52.2696 57.8182 52.6483 57.3818 52.6483H45.8182C37.8545 52.6483 31.4182 46.2104 31.4182 38.366C31.4182 30.5215 37.8545 24.0836 45.8182 24.0836Z" fill="#2661C6"/>
<path d="M44.7818 30.1204L44.5572 30.287C40.4368 33.3429 40.3812 40.1769 44.433 45.5511L49.4815 52.2474C53.5333 57.6216 60.1581 59.501 64.2784 56.4451L64.503 56.2785C68.6234 53.2226 68.679 46.3887 64.6272 41.0145L59.5787 34.3181C55.5269 28.9439 48.9021 27.0645 44.7818 30.1204Z" fill="#F6C5A5"/>
<path fill-rule="evenodd" clip-rule="evenodd" d="M53.8364 56.8681C52.8 56.273 51.9273 55.4615 51.1636 54.4878L42.7636 43.3432C39.8182 39.448 40.4182 34.038 43.9091 30.8461C44.9454 31.4412 45.8182 32.2527 46.5818 33.2265L54.9818 44.3711C57.9273 48.2663 57.3273 53.6763 53.8364 56.8681Z" fill="#E37878"/>
<path fill-rule="evenodd" clip-rule="evenodd" d="M44.4 54.4877H46.3636C47.3454 54.4877 48.1636 55.2992 48.1636 56.273V64.5503C48.1636 65.5241 47.3454 66.3356 46.3636 66.3356H44.4C45.3818 66.3356 46.2 65.5241 46.2 64.5503V56.273C46.2 55.2992 45.3818 54.4877 44.4 54.4877Z" fill="#2661C6"/>
<path fill-rule="evenodd" clip-rule="evenodd" d="M70.6364 56.4353C70.6909 56.3271 70.8 56.2189 70.8545 56.0566C71.1818 55.3533 71.4 54.5959 71.5636 53.8385C72.7636 48.104 69.0545 42.4776 63.2727 41.2874C57.4364 40.0972 51.8182 43.8301 50.6182 49.5646C50.4545 50.322 50.4 51.0794 50.4 51.8368V51.8909C50.4 52.0532 50.4 52.1614 50.4 52.3237L51.2182 73.6932C51.2182 76.1277 52.9636 78.3458 55.4182 78.8327C57.9273 79.3737 60.3818 78.0212 61.3636 75.8031L70.6364 56.4353Z" fill="#F6C5A5"/>
<path d="M57.7091 79.0491C62.0771 79.0491 65.6182 75.537 65.6182 71.2046C65.6182 66.8722 62.0771 63.3601 57.7091 63.3601C53.341 63.3601 49.8 66.8722 49.8 71.2046C49.8 75.537 53.341 79.0491 57.7091 79.0491Z" fill="white"/>
<path d="M51.5454 94.9004C55.3091 94.9004 58.7454 96.1447 61.4727 98.2005C62.7818 99.2283 63.3273 100.905 62.7818 102.474C62.2364 104.043 60.8182 105.071 59.1273 105.071H43.9636C42.3273 105.071 40.9091 104.043 40.3636 102.474C39.8182 100.905 40.3091 99.2283 41.6182 98.2005C44.4 96.1447 47.8364 94.9004 51.5454 94.9004Z" fill="#FA6C6C"/>
<path d="M47.7653 77.5683L47.762 77.105C47.7441 74.5888 49.0503 72.5398 50.6793 72.5284C52.3084 72.517 53.6435 74.5476 53.6613 77.0638L53.6646 77.5271C53.6824 80.0433 52.3763 82.0923 50.7473 82.1037C49.1182 82.115 47.7831 80.0845 47.7653 77.5683Z" fill="#E37878"/>
<path fill-rule="evenodd" clip-rule="evenodd" d="M51.1091 86.4608L50.1818 81.2672C49.9636 80.3475 50.6182 79.4278 51.5454 79.2655L53.4 78.8868C54.4364 78.6704 55.3636 79.3196 55.5818 80.3475L56.5091 85.4329C56.7818 86.8936 55.8 88.3002 54.3273 88.6248C52.8545 88.8953 51.3818 87.9215 51.1091 86.4608Z" fill="#E37878"/>
<path fill-rule="evenodd" clip-rule="evenodd" d="M66 76.3982L66.4364 79.1573C66.9273 81.8623 65.0727 84.4591 62.3455 84.8919L56.3455 85.9198C53.5091 86.4067 50.7818 84.4591 50.2909 81.6459L49.9091 79.1032C49.2 74.8834 52.0909 70.8259 56.3455 70.1226L56.9455 70.0144C61.2 69.3111 65.2909 72.1784 66 76.3982Z" fill="#E37878"/>
<path fill-rule="evenodd" clip-rule="evenodd" d="M65.4545 73.4227L65.8909 76.1818C66.3273 78.8868 64.4727 81.4295 61.8 81.9164L55.8 82.8902C52.9636 83.3771 50.2364 81.4295 49.7454 78.6163L49.3091 76.0736C48.6 71.8538 51.4909 67.7963 55.8 67.093L56.4 66.9848C60.6545 66.2815 64.6909 69.1488 65.4545 73.4227Z" fill="#F6C5A5"/>
<path d="M74.3062 104.855H6.32728C6.02604 104.855 5.78183 105.097 5.78183 105.396V105.449C5.78183 105.748 6.02604 105.99 6.32728 105.99H74.3062C74.6074 105.99 74.8517 105.748 74.8517 105.449V105.396C74.8517 105.097 74.6074 104.855 74.3062 104.855Z" fill="#174AA1"/>
<path d="M2.12563 104.855H0.545455C0.244208 104.855 0 105.097 0 105.396V105.449C0 105.748 0.244208 105.99 0.545455 105.99H2.12563C2.42687 105.99 2.67108 105.748 2.67108 105.449V105.396C2.67108 105.097 2.42687 104.855 2.12563 104.855Z" fill="#174AA1"/>
<path d="M66 46.7514C67.5966 46.7514 68.8909 45.4677 68.8909 43.8841C68.8909 42.3006 67.5966 41.0168 66 41.0168C64.4034 41.0168 63.1091 42.3006 63.1091 43.8841C63.1091 45.4677 64.4034 46.7514 66 46.7514Z" fill="#F6C5A5"/>
<path d="M83.4529 104.855H81.8727C81.5715 104.855 81.3273 105.097 81.3273 105.396V105.449C81.3273 105.748 81.5715 105.99 81.8727 105.99H83.4529C83.7541 105.99 83.9983 105.748 83.9983 105.449V105.396C83.9983 105.097 83.7541 104.855 83.4529 104.855Z" fill="#174AA1"/>
<path fill-rule="evenodd" clip-rule="evenodd" d="M41.6182 82.7279C41.4546 82.5656 41.4 82.241 41.5636 82.0787C41.7818 81.8623 42.0546 81.8623 42.2727 82.0246C42.2727 82.0246 44.2364 83.8099 46.3091 82.0246C46.5273 81.8623 46.8 81.8623 46.9636 82.0787C47.1818 82.241 47.1273 82.5656 46.9636 82.7279C44.2364 85.1083 41.6182 82.7279 41.6182 82.7279Z" fill="#5999F1"/>
<path d="M63.5762 101.501H40.3636C39.5201 101.501 38.8364 102.179 38.8364 103.015V103.328C38.8364 104.165 39.5201 104.843 40.3636 104.843H63.5762C64.4197 104.843 65.1034 104.165 65.1034 103.328V103.015C65.1034 102.179 64.4197 101.501 63.5762 101.501Z" fill="white"/>
<path d="M51.5455 92.6823C54 92.6823 56.2364 93.4938 58.0364 94.9004C58.9091 95.5496 59.2364 96.6316 58.8545 97.6595C58.5273 98.6874 57.6 99.3366 56.5091 99.3366H46.6364C45.5455 99.3366 44.6182 98.6874 44.2364 97.6595C43.9091 96.6316 44.2364 95.5496 45.1091 94.9004C46.8545 93.4938 49.1455 92.6823 51.5455 92.6823Z" fill="white"/>
<path fill-rule="evenodd" clip-rule="evenodd" d="M22.6364 56.1648H23.8364C23.1273 56.1648 22.5273 56.7058 22.5273 57.4632V63.4142C22.5273 64.1175 23.1273 64.7126 23.8364 64.7126H22.6364C21.9273 64.7126 21.3273 64.1175 21.3273 63.4142V57.4632C21.3273 56.7058 21.9273 56.1648 22.6364 56.1648Z" fill="#174AA1"/>
</svg>
