<svg width="115" height="96" viewBox="0 0 115 96" fill="none" xmlns="http://www.w3.org/2000/svg">
<path d="M59.7074 26.5067L59.5677 26.5204C54.9394 26.9726 51.6708 32.2608 52.2669 38.332L52.9905 45.7011C53.5867 51.7723 57.8219 56.3274 62.4502 55.8752L62.5899 55.8616C67.2182 55.4094 70.4869 50.1211 69.8907 44.0499L69.1671 36.6808C68.571 30.6096 64.3357 26.0545 59.7074 26.5067Z" fill="#F6C5A5"/>
<path fill-rule="evenodd" clip-rule="evenodd" d="M54.1825 51.3573C53.6829 50.4393 53.341 49.3901 53.2358 48.2623L52.0263 35.7773C51.5793 31.4233 54.5769 27.5152 58.7578 26.6496C59.2574 27.5938 59.5729 28.643 59.6781 29.7446L60.9139 42.2558C61.3346 46.5836 58.3633 50.518 54.1825 51.3573Z" fill="#E37878"/>
<path fill-rule="evenodd" clip-rule="evenodd" d="M67.3036 58.8326C67.4088 58.7801 67.5139 58.7014 67.5928 58.6227H67.6191C68.1976 58.2293 68.7235 57.7572 69.2231 57.2326C72.8255 53.3769 72.5888 47.2918 68.6972 43.6985C64.8056 40.1051 58.7315 40.3411 55.1291 44.223C54.6558 44.7476 54.2351 45.2984 53.8932 45.9017L53.8669 45.9279C53.8143 46.0328 53.7355 46.1377 53.6829 46.2427L44.2693 63.1604C43.1124 65.0226 43.4279 67.5406 45.1108 69.0881C46.7936 70.6356 49.3179 70.7405 51.106 69.4815L67.3036 58.8326Z" fill="#E37878"/>
<path d="M46.8221 70.1939C50.1228 72.1875 54.4188 71.1344 56.4173 67.8419C58.4158 64.5494 57.3601 60.2642 54.0594 58.2707C50.7586 56.2772 46.4627 57.3302 44.4641 60.6227C42.4656 63.9152 43.5213 68.2004 46.8221 70.1939Z" fill="white"/>
<path fill-rule="evenodd" clip-rule="evenodd" d="M55.208 66.1242L55.3657 68.6684C55.5235 71.1339 53.604 73.2847 51.1323 73.4159L45.7155 73.7568C43.1123 73.9142 40.8773 71.9208 40.7195 69.3504L40.588 67.016C40.3514 63.1341 43.3227 59.803 47.2143 59.567L47.7665 59.5407C51.6319 59.3047 54.9976 62.2685 55.208 66.1242Z" fill="#E37878"/>
<path d="M68.2155 49.2281C69.473 49.9876 71.1097 49.5865 71.8711 48.3321C72.6325 47.0777 72.2303 45.4451 70.9728 44.6856C69.7152 43.9261 68.0785 44.3273 67.3171 45.5817C66.5557 46.8361 66.9579 48.4686 68.2155 49.2281Z" fill="#F6C5A5"/>
<path d="M63.6747 48.2563C64.8578 49.0878 66.5254 48.7827 67.3993 47.5748C68.2732 46.367 68.0225 44.7137 66.8394 43.8822C65.6563 43.0507 63.9887 43.3558 63.1148 44.5637C62.2409 45.7716 62.4915 47.4248 63.6747 48.2563Z" fill="#F6C5A5"/>
<path d="M106.783 43.6663L107 37.1953C107.289 28.516 102.217 21.4801 95.6701 21.4801C89.1232 21.4801 83.5809 28.516 83.291 37.1953L83.0749 43.6663C82.785 52.3455 87.8573 59.3815 94.4043 59.3815C100.951 59.3815 106.494 52.3455 106.783 43.6663Z" fill="#174AA1"/>
<path d="M89.7594 18.6235H82.6071V63.6325H89.7594V18.6235Z" fill="#2661C6"/>
<path d="M103.923 44.9458L104.179 37.2716C104.523 26.9785 98.5071 18.6343 90.7429 18.6343C82.9786 18.6343 76.4057 26.9785 76.062 37.2716L75.8057 44.9458C75.4619 55.2389 81.4774 63.5831 89.2416 63.5831C97.0059 63.5831 103.579 55.2389 103.923 44.9458Z" fill="#2661C6"/>
<path fill-rule="evenodd" clip-rule="evenodd" d="M63.2542 21.7448H73.6406C74.035 21.7448 74.3506 22.0858 74.3506 22.4792L74.3243 23.1087C74.3243 23.5284 73.9825 23.8431 73.5617 23.8431H67.0143C61.0717 23.8431 56.0494 28.6955 55.839 34.6494C55.6287 40.5772 60.3354 45.4296 66.3044 45.4296H72.8518C73.2462 45.4296 73.5617 45.7705 73.5617 46.164L73.5354 46.7935C73.5354 47.1869 73.1936 47.5279 72.7729 47.5279H62.3864C55.2868 47.5279 49.6598 41.7313 49.8964 34.6494C50.1331 27.5414 56.1546 21.7448 63.2542 21.7448Z" fill="#2661C6"/>
<path d="M97.2981 44.9458L97.5544 37.2716C97.8982 26.9785 91.8827 18.6343 84.1184 18.6343C76.3542 18.6343 69.7813 26.9785 69.4375 37.2716L69.1812 44.9458C68.8374 55.2389 74.8529 63.5831 82.6172 63.5831C90.3814 63.5831 96.9543 55.2389 97.2981 44.9458Z" fill="#174AA1"/>
<path fill-rule="evenodd" clip-rule="evenodd" d="M54.6295 52.8524H73.0358L77.7952 84.8779C79.3466 85.8746 80.451 87.5271 80.6613 89.3631C80.9769 92.3794 78.7944 94.8187 75.7968 94.8187H70.9586C70.8008 94.845 70.643 94.8712 70.459 94.8712H56.8645C55.3657 94.8712 53.9721 93.9532 53.341 92.5368C52.71 91.1204 52.9992 89.5992 54.0773 88.6811C55.6024 87.3959 57.4693 86.4779 59.5466 86.0058L54.6295 52.8524Z" fill="#174AA1"/>
<path d="M82.4346 52.8437H63.967L75.2695 93.4925H93.7371L82.4346 52.8437Z" fill="#2661C6"/>
<path d="M57.7323 47.5016L61.4924 33.4953C63.2279 27.1217 69.8542 23.2923 76.2438 24.9972C82.6598 26.702 86.4988 33.338 84.7633 39.7116L81.2398 52.8523H57.5482C57.2064 51.1212 57.259 49.2852 57.7323 47.5016Z" fill="white"/>
<path d="M83.5801 49.9672H54.4717C53.7166 49.9672 53.1044 50.5895 53.1044 51.3573V57.7309C53.1044 58.4987 53.7166 59.1211 54.4717 59.1211H83.5801C84.3352 59.1211 84.9474 58.4987 84.9474 57.7309V51.3573C84.9474 50.5895 84.3352 49.9672 83.5801 49.9672Z" fill="#174AA1"/>
<path fill-rule="evenodd" clip-rule="evenodd" d="M72.6151 12.3548L67.3562 26.466H82.5546L83.0279 12.1187L72.6151 12.3548Z" fill="#A45959"/>
<path fill-rule="evenodd" clip-rule="evenodd" d="M72.3259 26.466H82.5546L83.0279 12.2237L77.5848 12.3548L72.3259 26.466Z" fill="#E37878"/>
<path fill-rule="evenodd" clip-rule="evenodd" d="M65.2 8.05326C66.094 9.28603 69.4335 13.0105 74.9554 9.54832C75.1394 9.4434 75.3235 9.41717 75.4813 9.46963C75.6653 9.52209 75.7705 9.65323 75.8231 9.83683C76.0072 10.6762 76.6908 11.8302 79.0311 11.804C79.294 11.804 79.5307 11.6204 79.6096 11.3581C80.1092 9.75815 81.4765 4.40744 76.796 6.13855C76.612 6.19101 76.4279 6.19101 76.2701 6.05986C75.0869 5.22053 69.6964 1.88945 65.2263 7.34508C65.0685 7.58114 65.0422 7.84343 65.2 8.05326Z" fill="#FF8984"/>
<path fill-rule="evenodd" clip-rule="evenodd" d="M75.2446 5.01068H77.5849C79.8725 5.01068 81.5817 6.87294 81.3976 9.15486L80.9243 15.1613C80.7403 17.5219 78.6104 19.4891 76.2438 19.4891H74.0877C70.5116 19.4891 67.8295 16.5777 68.1187 13.0105L68.2239 11.4892C68.5132 7.9221 71.6685 5.01068 75.2446 5.01068Z" fill="#E37878"/>
<path fill-rule="evenodd" clip-rule="evenodd" d="M71.0637 11.4892H71.2478C71.4582 11.4892 71.5896 11.6466 71.5896 11.8302L71.537 12.3286C71.5108 12.5384 71.353 12.6958 71.1426 12.6958H70.9586C70.6693 12.6958 70.4327 12.4597 70.459 12.145V12.0138C70.4853 11.7253 70.7482 11.4892 71.0637 11.4892Z" fill="#1D1D1D"/>
<path fill-rule="evenodd" clip-rule="evenodd" d="M70.2749 10.3876L70.8797 10.4663C71.3004 10.5188 71.6422 10.8335 71.8 11.2007C71.8263 11.3056 71.8 11.4106 71.7211 11.4893C71.6422 11.5679 71.5371 11.5679 71.4319 11.5155C71.3004 11.4368 71.1426 11.3843 71.0112 11.3581L70.0908 11.2532C69.7753 11.2007 69.4335 11.2532 69.1705 11.3581C69.039 11.4106 68.9076 11.3843 68.855 11.2794C68.7761 11.1745 68.7761 11.0434 68.855 10.9384C69.1705 10.545 69.7227 10.3089 70.2749 10.3876Z" fill="#FFE084"/>
<path fill-rule="evenodd" clip-rule="evenodd" d="M75.2446 5.01068H77.6111C79.8988 5.01068 81.6342 6.87294 81.4502 9.18109L80.9506 15.1875C80.7665 17.5744 78.6366 19.5415 76.2438 19.5415H74.0876C73.6406 19.5415 73.2199 19.4891 72.8255 19.4104C71.1952 18.4399 72.9307 17.0498 72.9307 17.0498L72.4311 14.899C72.3785 14.7154 72.4048 14.5056 72.51 14.322L72.6151 14.1121L71.5107 13.7974C71.09 13.6662 70.8797 13.2466 71.0374 12.8269L72.6151 8.13193C72.6414 8.07947 72.6414 8.02701 72.694 7.97456C73.3777 6.74179 74.0351 5.79755 74.6398 5.03691C74.8502 5.03691 75.0605 5.01068 75.2446 5.01068Z" fill="#F6C5A5"/>
<path fill-rule="evenodd" clip-rule="evenodd" d="M75.2446 5.01068H77.6111C79.8988 5.01068 81.6343 6.87294 81.4502 9.18109L81.161 12.7482C78.7944 12.145 78.2685 10.6237 78.2159 9.54829C78.2159 9.286 78.0845 9.07617 77.8741 8.97126C77.6374 8.84011 77.4008 8.84011 77.1378 8.94503C75.1394 9.83681 73.404 10.204 71.9315 10.1778L72.6151 8.13193C72.6414 8.07947 72.6414 8.02701 72.694 7.97456C73.3777 6.74179 74.035 5.79755 74.6398 5.03691C74.8502 5.03691 75.0605 5.01068 75.2446 5.01068Z" fill="#E37878"/>
<path fill-rule="evenodd" clip-rule="evenodd" d="M64.2797 3.98776C65.2 5.90248 68.855 11.9351 77.1904 8.42046C77.4271 8.31555 77.69 8.31555 77.9004 8.44669C78.137 8.57784 78.2422 8.78767 78.2685 9.04996C78.3211 10.2565 78.9785 12.0401 82.1339 12.5646C82.502 12.6171 82.8701 12.4335 83.0542 12.0925C84.106 9.9942 87.2876 2.83369 80.5036 4.09268C80.2143 4.14514 79.9777 4.09268 79.7936 3.88285C78.4 2.44025 71.9315 -3.53995 64.5163 3.01729C64.2271 3.25335 64.1219 3.67302 64.2797 3.98776Z" fill="#FFE084"/>
<path fill-rule="evenodd" clip-rule="evenodd" d="M74.8502 11.4892H74.6398C74.4558 11.4892 74.298 11.6466 74.2717 11.8302L74.2454 12.3286C74.2191 12.5384 74.3769 12.6958 74.5609 12.6958H74.745C75.0605 12.6958 75.3235 12.4597 75.3498 12.145V12.0138C75.3761 11.7253 75.1394 11.4892 74.8502 11.4892Z" fill="#1D1D1D"/>
<path fill-rule="evenodd" clip-rule="evenodd" d="M75.2446 9.52206H74.6398C74.2191 9.52206 73.8247 9.78435 73.6406 10.1253C73.5618 10.2302 73.588 10.3352 73.6406 10.4401C73.7195 10.5188 73.8247 10.545 73.9299 10.4925C74.0876 10.4401 74.2191 10.4138 74.3769 10.4138H75.2972C75.639 10.4138 75.9546 10.4925 76.1912 10.6499C76.2964 10.7286 76.4279 10.7024 76.5331 10.5975C76.6119 10.5188 76.6382 10.3876 76.5857 10.2827C76.3227 9.83681 75.8231 9.52206 75.2446 9.52206Z" fill="#FFE084"/>
<path fill-rule="evenodd" clip-rule="evenodd" d="M69.749 3.6468C70.4064 5.06316 73.0884 9.46963 79.2151 6.89919C79.3992 6.82051 79.5833 6.82051 79.741 6.92542C79.8988 7.03034 79.9777 7.16148 80.004 7.37131C80.0303 8.2631 80.5299 9.57455 82.8438 9.94176C83.1068 9.99421 83.3697 9.83684 83.5012 9.60078C84.29 8.05327 86.604 2.80747 81.6343 3.72549C81.4239 3.77794 81.2661 3.72549 81.1347 3.56811C80.1092 2.51895 75.3498 -1.88752 69.9068 2.93862C69.6964 3.12222 69.6175 3.41074 69.749 3.6468Z" fill="#FFF3CF"/>
<path fill-rule="evenodd" clip-rule="evenodd" d="M82.3179 9.28601H83.1857C84.0008 9.28601 84.6319 9.96796 84.553 10.7811L84.4215 12.5646C84.3426 13.4302 83.5801 14.1384 82.7124 14.1384H81.9235C80.6351 14.1384 79.6621 13.0892 79.7673 11.804V11.6204C79.8725 10.3352 81.0295 9.28601 82.3179 9.28601Z" fill="#F6C5A5"/>
<path fill-rule="evenodd" clip-rule="evenodd" d="M82.9227 10.7286C83.0542 10.8598 83.0279 11.0696 82.8964 11.2007L82.1338 11.8827L82.7649 12.5646C82.8964 12.6958 82.8701 12.9056 82.7386 13.0368C82.6072 13.1679 82.3968 13.1679 82.2653 13.0368L81.4239 12.1187C81.3713 12.0663 81.345 11.9614 81.345 11.8827C81.3713 11.804 81.3976 11.6991 81.4765 11.6204L82.4494 10.7286C82.5809 10.5975 82.8175 10.5975 82.9227 10.7286Z" fill="#E37878"/>
<path fill-rule="evenodd" clip-rule="evenodd" d="M83.1857 10.4663L86.0781 5.95496L86.4462 6.16479C86.6566 6.29593 86.7617 6.55822 86.6829 6.82051L85.7363 9.62701C85.7363 9.67947 85.71 9.73193 85.6837 9.75816L84.6845 11.3319C84.5004 11.6204 84.1323 11.7253 83.8693 11.568L83.3697 11.2794C83.0805 11.1221 83.0279 10.7549 83.1857 10.4663Z" fill="#174AA1"/>
<path fill-rule="evenodd" clip-rule="evenodd" d="M84.1586 10.0466L85.5785 7.84341L85.7625 7.94833C85.8677 8.00079 85.9203 8.13193 85.8677 8.26308L85.4207 9.62699C85.4207 9.65321 85.3944 9.67944 85.3944 9.70567L84.8948 10.4663C84.8159 10.5975 84.6319 10.6499 84.5004 10.5712L84.2637 10.4401C84.1323 10.3614 84.0797 10.1778 84.1586 10.0466Z" fill="#3E81EC"/>
<path fill-rule="evenodd" clip-rule="evenodd" d="M82.8701 10.1253H83.3697C83.843 10.1253 84.2111 10.5188 84.1586 10.9909L84.0797 12.0401C84.0534 12.5384 83.6064 12.9318 83.1068 12.9318H82.6598C81.8972 12.9318 81.345 12.3286 81.3976 11.5679V11.4892C81.4765 10.7548 82.1339 10.1253 82.8701 10.1253Z" fill="#174AA1"/>
<path fill-rule="evenodd" clip-rule="evenodd" d="M83.3171 10.7549H83.6327C83.9482 10.7549 84.2111 11.0171 84.1848 11.3581L84.1323 12.0401C84.106 12.381 83.7904 12.6433 83.4486 12.6433H83.1593C82.6597 12.6433 82.2653 12.2499 82.3179 11.7516V11.6729C82.3705 11.1745 82.8175 10.7549 83.3171 10.7549Z" fill="#3E81EC"/>
<path fill-rule="evenodd" clip-rule="evenodd" d="M83.6064 11.122H83.8167C84.0008 11.122 84.1586 11.3056 84.1323 11.4892L84.106 11.9089C84.0797 12.1187 83.8956 12.2761 83.6853 12.2761H83.5012C83.2119 12.2761 82.9753 12.0401 83.0016 11.7253V11.6991C83.0279 11.3843 83.2908 11.122 83.6064 11.122Z" fill="#81BCFF"/>
<path d="M75.9232 22.2453H68.8654C59.3992 22.2453 51.5329 28.0049 51.2956 35.1098C51.0583 42.2147 58.5398 47.9743 68.0061 47.9743H75.0639C84.5301 47.9743 92.3964 42.2147 92.6337 35.1098C92.871 28.0049 85.3895 22.2453 75.9232 22.2453Z" fill="white"/>
<path fill-rule="evenodd" clip-rule="evenodd" d="M60.0988 25.8365H60.8876H62.1761H63.3331C63.7538 25.8365 63.9904 26.2037 63.8327 26.6234C63.7012 27.0693 63.2279 27.4103 62.7809 27.4103H61.6239H60.3617H59.5466C58.8892 27.4103 58.1793 27.6725 57.6008 28.1184C56.996 28.5643 56.5227 29.1676 56.286 29.8233C56.0494 30.479 56.1283 31.0823 56.4175 31.502C56.6805 31.9479 57.2064 32.2102 57.8637 32.2102H58.6789H59.941H61.098C61.545 32.2102 61.7554 32.5774 61.6239 32.997C61.4661 33.4429 60.9928 33.7839 60.5458 33.7839H59.3888H58.1267H57.3115C56.2072 33.7839 55.3657 33.338 54.8924 32.6298C54.4454 31.8954 54.3402 30.8987 54.7084 29.8233C55.1028 28.7217 55.8916 27.725 56.8645 27.0168C57.8374 26.2824 58.9944 25.8365 60.0988 25.8365Z" fill="#5999F1"/>
<path fill-rule="evenodd" clip-rule="evenodd" d="M62.3339 28.984H61.5187H60.2566H59.0996C58.6526 28.984 58.1793 29.3512 58.0478 29.7709C57.89 30.1905 58.1267 30.5577 58.5474 30.5577H59.7044H60.9928H61.7817C62.4653 30.5577 62.9649 30.82 63.2542 31.2659C63.5434 31.7118 63.596 32.2889 63.3594 32.9708C63.1227 33.6265 62.6494 34.2298 62.0709 34.6495C61.4661 35.0954 60.7825 35.3576 60.1251 35.3576H59.31H58.0215H56.8645C56.4438 35.3576 55.9705 35.7249 55.8127 36.1445C55.655 36.5904 55.8916 36.9314 56.3123 36.9314H57.4956H58.7578H59.5729C60.651 36.9314 61.808 36.4855 62.7809 35.7773C63.7538 35.0429 64.5689 34.0462 64.9371 32.9708C65.3315 31.8692 65.2263 30.8725 64.753 30.1643C64.2797 29.4299 63.4382 28.984 62.3339 28.984Z" fill="#5999F1"/>
<path d="M67.0669 49.2065H56.4964C56.2205 49.2065 55.9968 49.9346 55.9968 50.8327V58.2817C55.9968 59.1799 56.2205 59.9079 56.4964 59.9079H67.0669C67.3428 59.9079 67.5665 59.1799 67.5665 58.2817V50.8327C67.5665 49.9346 67.3428 49.2065 67.0669 49.2065Z" fill="#2661C6"/>
<path fill-rule="evenodd" clip-rule="evenodd" d="M70.2749 49.2065H72.0367C72.9307 49.2065 73.6669 49.9147 73.6669 50.8065V58.2817C73.6669 59.1735 72.9307 59.9079 72.0367 59.9079H70.2749C71.1689 59.9079 71.9052 59.1735 71.9052 58.2817V50.8065C71.9052 49.9147 71.1689 49.2065 70.2749 49.2065Z" fill="#2661C6"/>
<path d="M82.6584 21.0259H68.3573C67.7491 21.0259 67.2396 21.5178 67.2193 22.1245L67.2147 22.2629C67.1944 22.8696 67.6711 23.3615 68.2793 23.3615H82.5804C83.1886 23.3615 83.6981 22.8696 83.7184 22.2629L83.723 22.1245C83.7433 21.5178 83.2666 21.0259 82.6584 21.0259Z" fill="white"/>
<path fill-rule="evenodd" clip-rule="evenodd" d="M80.7139 21.7448H91.1004C91.5211 21.7448 91.8366 22.0858 91.8103 22.4792V23.1087C91.784 23.5284 91.4422 23.8431 91.0478 23.8431H84.5004C78.5315 23.8431 73.5092 28.6955 73.3251 34.6494C73.1147 40.5772 77.8215 45.4296 83.7641 45.4296H90.3115C90.7323 45.4296 91.0478 45.7705 91.0215 46.164V46.7935C90.9952 47.1869 90.6534 47.5279 90.2589 47.5279H79.8725C72.7466 47.5279 67.1458 41.7313 67.3825 34.6494C67.6191 27.5414 73.6143 21.7448 80.7139 21.7448Z" fill="#2661C6"/>
<path d="M78.3704 27.2257L78.2579 27.3095C74.5336 30.0875 74.4833 36.2999 78.1457 41.1853L82.5909 47.1151C86.2533 52.0006 92.2413 53.709 95.9657 50.931L96.0781 50.8472C99.8024 48.0692 99.8527 41.8568 96.1903 36.9714L91.7451 31.0416C88.0827 26.1561 82.0947 24.4477 78.3704 27.2257Z" fill="#F6C5A5"/>
<path fill-rule="evenodd" clip-rule="evenodd" d="M86.5514 51.3573C85.6311 50.8065 84.8159 50.0721 84.1323 49.1803L76.5856 39.1346C73.9825 35.6199 74.4821 30.7413 77.6374 27.8299C78.5315 28.3807 79.3729 29.1151 80.0303 30.0069L87.5769 40.0526C90.2064 43.5673 89.6805 48.4459 86.5514 51.3573Z" fill="#E37878"/>
<path fill-rule="evenodd" clip-rule="evenodd" d="M78.0582 49.2065H79.8199C80.7139 49.2065 81.4502 49.9147 81.4502 50.8065V58.2817C81.4502 59.1735 80.7139 59.9079 79.8199 59.9079H78.0582C78.9522 59.9079 79.6884 59.1735 79.6884 58.2817V50.8065C79.6884 49.9147 78.9522 49.2065 78.0582 49.2065Z" fill="#2661C6"/>
<path d="M84.5004 85.6648C87.8661 85.6648 90.9426 86.7926 93.4143 88.6811C94.5976 89.5991 95.0446 91.1204 94.5713 92.5368C94.0717 93.9531 92.8096 94.8712 91.3107 94.8712H77.69C76.1912 94.8712 74.9291 93.9531 74.4295 92.5368C73.9562 91.1204 74.4032 89.5991 75.5864 88.6811C78.0582 86.7926 81.1609 85.6648 84.5004 85.6648Z" fill="#FA6C6C"/>
<path d="M104.894 94.6876H43.9275C43.637 94.6876 43.4016 94.9171 43.4016 95.2002C43.4016 95.4833 43.637 95.7128 43.9275 95.7128H104.894C105.184 95.7128 105.419 95.4833 105.419 95.2002C105.419 94.9171 105.184 94.6876 104.894 94.6876Z" fill="#174AA1"/>
<path d="M40.5673 94.6876H38.2215C38.207 94.6876 38.1952 94.9171 38.1952 95.2002C38.1952 95.4833 38.207 95.7128 38.2215 95.7128H40.5673C40.5818 95.7128 40.5936 95.4833 40.5936 95.2002C40.5936 94.9171 40.5818 94.6876 40.5673 94.6876Z" fill="#174AA1"/>
<path d="M113.588 94.6876H111.242C111.228 94.6876 111.216 94.9171 111.216 95.2002C111.216 95.4833 111.228 95.7128 111.242 95.7128H113.588C113.603 95.7128 113.614 95.4833 113.614 95.2002C113.614 94.9171 113.603 94.6876 113.588 94.6876Z" fill="#174AA1"/>
<path fill-rule="evenodd" clip-rule="evenodd" d="M75.5864 74.7011C75.4024 74.5437 75.4024 74.2814 75.5339 74.0978C75.6916 73.9142 75.9809 73.888 76.1386 74.0454C76.1649 74.0454 77.9267 75.6715 79.7936 74.0454C79.9514 73.888 80.2406 73.9142 80.3984 74.0978C80.5562 74.2814 80.5299 74.5437 80.3458 74.7011C77.9267 76.8256 75.5864 74.7011 75.5864 74.7011Z" fill="#5999F1"/>
<path d="M95.2813 91.645H74.4295C73.6743 91.645 73.0621 92.2557 73.0621 93.0089V93.2974C73.0621 94.0507 73.6743 94.6614 74.4295 94.6614H95.2813C96.0364 94.6614 96.6486 94.0507 96.6486 93.2974V93.0089C96.6486 92.2557 96.0364 91.645 95.2813 91.645Z" fill="white"/>
<path d="M84.5004 83.6976C86.6829 83.6976 88.7076 84.432 90.3115 85.691C91.1004 86.2681 91.3896 87.2648 91.0741 88.1828C90.7586 89.1008 89.9171 89.7041 88.9442 89.7041H80.0566C79.0836 89.7041 78.2422 89.1008 77.9267 88.1828C77.6111 87.2648 77.9004 86.2681 78.6892 85.691C80.2932 84.432 82.3179 83.6976 84.5004 83.6976Z" fill="white"/>
<path d="M38.9602 63.9163L39.1608 63.5761C40.1718 61.8615 41.89 60.9988 42.9984 61.6491C44.1069 62.2995 44.1859 64.2166 43.1748 65.9312L42.9742 66.2714C41.9632 67.986 40.245 68.8487 39.1366 68.1984C38.0282 67.548 37.9492 65.6309 38.9602 63.9163Z" fill="#E37878"/>
<path fill-rule="evenodd" clip-rule="evenodd" d="M100.435 52.4589C100.514 52.354 100.567 52.2491 100.645 52.1704L100.672 52.1442C101.066 51.5933 101.408 50.9639 101.697 50.3081C103.801 45.4558 101.566 39.8165 96.7012 37.7182C91.8367 35.6199 86.1833 37.8494 84.0797 42.728C83.7904 43.3837 83.5801 44.0394 83.4486 44.7214V44.7476C83.4223 44.8525 83.396 44.9836 83.396 45.1148L80.1617 64.1833C79.7147 66.334 80.8191 68.5897 82.9227 69.5077C85.0526 70.3995 87.4454 69.6651 88.7076 67.8553L100.435 52.4589Z" fill="#F6C5A5"/>
<path d="M84.9186 69.971C88.6967 70.7533 92.3953 68.3324 93.1795 64.5637C93.9638 60.7951 91.5368 57.1058 87.7587 56.3235C83.9806 55.5412 80.282 57.9621 79.4978 61.7308C78.7135 65.4994 81.1405 69.1887 84.9186 69.971Z" fill="white"/>
<path d="M76.4112 66.9859L76.4997 66.5454C76.9453 64.3253 78.4701 62.758 79.9054 63.0447C81.3406 63.3314 82.1428 65.3635 81.6971 67.5836L81.6087 68.0241C81.163 70.2442 79.6382 71.8115 78.203 71.5248C76.7677 71.2381 75.9655 69.206 76.4112 66.9859Z" fill="#E37878"/>
<path d="M98.0844 43.092C99.5238 43.39 100.933 42.4677 101.232 41.0319C101.53 39.5961 100.606 38.1905 99.1664 37.8925C97.7271 37.5945 96.318 38.5168 96.0192 39.9526C95.7204 41.3884 96.645 42.7939 98.0844 43.092Z" fill="#F6C5A5"/>
<path d="M21.0356 80.9052C20.7684 80.6301 20.7477 80.0321 20.9781 79.5573C21.2039 79.1064 21.6038 78.9371 21.8564 79.2092C21.8811 79.2388 26.6117 84.52 43.3889 74.2359C52.5759 68.6064 61.6859 65.5607 69.6423 66.6954C76.7106 67.6812 82.8513 71.9262 87.3455 80.5274C96.5592 98.2193 109.33 98.8101 109.36 98.8159C109.708 98.8344 109.908 99.2944 109.83 99.8485C109.757 100.379 109.414 100.807 109.081 100.791C109.036 100.782 95.8144 100.153 86.3064 81.9331C82.0019 73.6908 76.0929 69.5901 69.2942 68.6323C61.5587 67.5408 52.6441 70.5256 43.6616 76.0466C26.2418 86.7248 21.0457 80.9319 21.0356 80.9052Z" fill="white"/>
<path fill-rule="evenodd" clip-rule="evenodd" d="M54.7872 68.5897L55.5761 70.1635C56.3649 71.6848 55.7076 73.5208 54.1299 74.229L46.6096 77.5863C44.953 78.3207 42.9546 77.6125 42.1394 75.9863L41.4295 74.5437C40.2199 72.1306 41.2454 69.2717 43.6908 68.1701L48.1084 66.2029C50.5801 65.1013 53.5777 66.1767 54.7872 68.5897Z" fill="#F6C5A5"/>
<path fill-rule="evenodd" clip-rule="evenodd" d="M77.7426 75.4355L77.8215 70.6881C77.8478 69.8225 78.5841 69.1406 79.4518 69.1406L81.1347 69.1668C82.055 69.1668 82.7649 69.9274 82.7649 70.8192L82.6598 75.488C82.6335 76.8519 81.5028 77.9273 80.1618 77.9273C78.7944 77.901 77.7163 76.7732 77.7426 75.4355Z" fill="#E37878"/>
<path fill-rule="evenodd" clip-rule="evenodd" d="M92.6518 69.2717L92.5466 71.7896C92.4414 74.2814 90.3378 76.2223 87.8661 76.1174L82.4231 75.9076C79.8462 75.8027 77.8215 73.6257 77.9004 71.029L78.0056 68.6946C78.1633 64.839 81.4502 61.7964 85.3155 61.9538H85.8677C89.7594 62.1112 92.8096 65.3898 92.6518 69.2717Z" fill="#E37878"/>
<path fill-rule="evenodd" clip-rule="evenodd" d="M92.7044 66.4914L92.6255 69.0356C92.5203 71.5012 90.4167 73.4421 87.945 73.3372L82.502 73.1274C79.8988 73.0487 77.8741 70.8454 77.9793 68.275L78.0582 65.9406C78.2159 62.0587 81.5028 59.0162 85.3944 59.1735L85.9466 59.1998C89.8119 59.3571 92.8621 62.6358 92.7044 66.4914Z" fill="#F6C5A5"/>
<path d="M37.0741 65.8092L37.3955 65.5791C39.0155 64.4191 40.9367 64.3235 41.6866 65.3656C42.4365 66.4077 41.7311 68.1928 40.1112 69.3527L39.7897 69.5829C38.1697 70.7429 36.2485 70.8385 35.4986 69.7964C34.7487 68.7543 35.4541 66.9692 37.0741 65.8092Z" fill="#E37878"/>
<path d="M12.2772 77.4415L4.48725 78.1699C2.36771 78.3681 0.810558 80.2427 1.00924 82.3569L1.02525 82.5272C1.22393 84.6414 3.10322 86.1946 5.22276 85.9965L13.0127 85.2681C15.1323 85.0699 16.6894 83.1953 16.4907 81.081L16.4747 80.9108C16.2761 78.7966 14.3968 77.2433 12.2772 77.4415Z" fill="white"/>
<path d="M18.5778 81.8631L18.2349 79.0406C18.1416 78.2726 17.4418 77.7255 16.6719 77.8186L16.6099 77.8261C15.8401 77.9191 15.2916 78.6171 15.3849 79.3851L15.7277 82.2076C15.821 82.9755 16.5208 83.5226 17.2907 83.4296L17.3527 83.4221C18.1226 83.329 18.671 82.631 18.5778 81.8631Z" fill="white"/>
<path d="M21.7574 81.3274L21.3245 78.5172C21.2067 77.7526 20.4898 77.2281 19.7233 77.3456L19.6615 77.355C18.895 77.4725 18.3691 78.1876 18.4869 78.9522L18.9199 81.7624C19.0377 82.527 19.7545 83.0515 20.5211 82.934L20.5828 82.9246C21.3493 82.8071 21.8752 82.092 21.7574 81.3274Z" fill="white"/>
<path fill-rule="evenodd" clip-rule="evenodd" d="M73.1936 15.9744H74.0613C74.2454 15.9744 74.4032 15.817 74.4295 15.6334C74.4295 15.4498 74.3243 15.2925 74.1402 15.2662C73.8247 15.1875 73.4829 15.1875 73.1147 15.2662C72.9307 15.2925 72.8255 15.4761 72.8255 15.6597C72.8518 15.817 73.0096 15.9744 73.1936 15.9744Z" fill="#1D1D1D"/>
<path fill-rule="evenodd" clip-rule="evenodd" d="M73.1936 15.9744H74.0613C74.2454 15.9744 74.4032 15.8433 74.4295 15.6597C74.1402 15.6072 73.7984 15.6072 73.4829 15.6859C73.3251 15.7121 73.2199 15.817 73.1936 15.9744Z" fill="white"/>
<path fill-rule="evenodd" clip-rule="evenodd" d="M17.3171 67.8815L20.341 69.3504L21.5769 69.9274L21.6295 69.534L21.8661 67.8029L24.6797 71.0028L27.4669 74.1765L24.443 72.7077L23.2072 72.1306L23.1546 72.5241L22.9179 74.2552L20.1307 71.0815L17.3171 67.8815Z" fill="white"/>
<path d="M91.6263 4.4861C91.0215 3.04351 89.9434 1.88944 88.6287 1.20748C88.6024 1.18125 88.6024 1.18125 88.6024 1.18125H88.5761C88.5498 1.18125 88.5498 1.15502 88.5498 1.15502C87.2351 0.499299 85.71 0.237009 84.1849 0.551757C84.0008 0.604215 83.8693 0.682902 83.7904 0.840276C83.7115 0.971421 83.6853 1.12879 83.7378 1.28617L83.7904 1.46977C83.8693 1.73206 84.1586 1.91566 84.4478 1.86321C85.6837 1.60092 86.8932 1.78452 87.945 2.33533C87.945 2.33533 87.945 2.33533 87.9713 2.33533V2.36156C87.9976 2.36156 87.9976 2.36156 87.9976 2.36156C89.0494 2.91237 89.9171 3.83038 90.3904 4.98445C90.5219 5.24674 90.8112 5.40412 91.1004 5.2992L91.2582 5.24674C91.4159 5.19429 91.5474 5.1156 91.6263 4.95823C91.6789 4.80085 91.6789 4.64348 91.6263 4.4861ZM89.0231 5.24674C88.6287 4.51233 88.0502 3.9353 87.3402 3.56809C86.6566 3.20088 85.8414 3.04351 85.0263 3.14843C84.8422 3.17466 84.7107 3.25334 84.6056 3.41072C84.5004 3.54186 84.5004 3.69923 84.553 3.88284L84.6056 4.04021C84.6845 4.32873 84.9211 4.4861 85.2104 4.45988C85.7362 4.38119 86.2621 4.4861 86.7355 4.72217C87.1825 4.98445 87.5769 5.35166 87.8135 5.82378C87.945 6.05984 88.2343 6.19099 88.4972 6.1123L88.6813 6.05984C88.839 6.00738 88.9705 5.90247 89.0231 5.71887C89.102 5.56149 89.102 5.40412 89.0231 5.24674Z" fill="white"/>
<path fill-rule="evenodd" clip-rule="evenodd" d="M58.6526 50.7016H59.7044C59.047 50.7016 58.5211 51.2262 58.5211 51.8557V57.2326C58.5211 57.8883 59.047 58.4129 59.7044 58.4129H58.6526C58.0215 58.4129 57.4956 57.8883 57.4956 57.2326V51.8557C57.4956 51.2262 58.0215 50.7016 58.6526 50.7016Z" fill="#174AA1"/>
</svg>
