<svg width="111" height="98" viewBox="0 0 111 98" fill="none" xmlns="http://www.w3.org/2000/svg">
<path d="M50.0471 52.178C51.2403 52.894 52.7931 52.5158 53.5156 51.3332C54.238 50.1507 53.8564 48.6116 52.6632 47.8955C51.4701 47.1795 49.9172 47.5578 49.1948 48.7403C48.4724 49.9229 48.854 51.462 50.0471 52.178Z" fill="#F6C5A5"/>
<path d="M45.0462 51.2252C46.1951 52.0091 47.7676 51.7214 48.5585 50.5827C49.3494 49.444 49.0592 47.8854 47.9103 47.1015C46.7614 46.3177 45.1889 46.6053 44.398 47.744C43.6071 48.8827 43.8973 50.4413 45.0462 51.2252Z" fill="#F6C5A5"/>
<path d="M87.5224 46.9296L87.5224 40.3411C87.5224 31.8507 82.2663 24.9678 75.7827 24.9678C69.299 24.9678 64.043 31.8507 64.043 40.3411L64.043 46.9296C64.043 55.4201 69.299 62.3029 75.7827 62.3029C82.2663 62.3029 87.5224 55.4201 87.5224 46.9296Z" fill="#174AA1"/>
<path d="M71.3222 22.1708H64.2319V66.4476H71.3222V22.1708Z" fill="#2661C6"/>
<path d="M84.7316 48.213L84.7316 40.3994C84.7316 30.3302 78.4983 22.1676 70.809 22.1676C63.1198 22.1676 56.8865 30.3302 56.8865 40.3994L56.8865 48.213C56.8865 58.2821 63.1198 66.4447 70.809 66.4447C78.4983 66.4447 84.7316 58.2821 84.7316 48.213Z" fill="#2661C6"/>
<path fill-rule="evenodd" clip-rule="evenodd" d="M43.6945 25.2518H53.9632C54.3823 25.2518 54.6967 25.5634 54.6967 25.9442V26.5673C54.6967 26.9827 54.3823 27.2943 53.9632 27.2943H47.5016C41.5988 27.2943 36.7788 32.0716 36.7788 37.9221C36.7788 43.7726 41.5988 48.5499 47.5016 48.5499H53.9632C54.3823 48.5499 54.6967 48.8615 54.6967 49.2423V49.8654C54.6967 50.2808 54.3823 50.5924 53.9632 50.5924H43.6945C36.6391 50.5924 30.876 44.8804 30.876 37.9221C30.876 30.9292 36.6391 25.2518 43.6945 25.2518Z" fill="#2661C6"/>
<path d="M78.1712 48.213L78.1712 40.3994C78.1712 30.3302 71.9378 22.1676 64.2486 22.1676C56.5594 22.1676 50.326 30.3302 50.326 40.3994L50.326 48.213C50.326 58.2821 56.5594 66.4447 64.2486 66.4447C71.9378 66.4447 78.1712 58.2821 78.1712 48.213Z" fill="#174AA1"/>
<path fill-rule="evenodd" clip-rule="evenodd" d="M81.4163 0.0843916C82.8134 -0.261791 84.2455 0.569047 84.5947 1.95378C85.9918 1.57298 87.3889 2.40381 87.7732 3.78854C88.1224 5.17327 87.2842 6.59262 85.8871 6.93881L80.8575 8.21968L79.5652 3.23465C79.1809 1.88454 80.0192 0.465192 81.4163 0.0843916Z" fill="#6EAAFF"/>
<path fill-rule="evenodd" clip-rule="evenodd" d="M78.5523 4.10011C79.9494 3.75393 81.3814 4.58477 81.7307 5.93488C83.0929 5.5887 84.5249 6.41953 84.9091 7.80426C85.2584 9.15438 84.4201 10.5737 83.023 10.9545L77.9934 12.2354L76.7011 7.25037C76.3169 5.86564 77.1552 4.44629 78.5523 4.10011Z" fill="#8ABBFF"/>
<path d="M76.4217 8.04658C77.8188 7.7004 79.2508 8.53124 79.6001 9.88135C80.9623 9.53517 82.3943 10.366 82.7785 11.7507C83.1278 13.1008 82.2895 14.5202 80.8924 14.8664L75.8628 16.1819L74.5705 11.1968C74.1863 9.81211 75.0246 8.39277 76.4217 8.04658Z" fill="white"/>
<path fill-rule="evenodd" clip-rule="evenodd" d="M36.5343 55.8198H54.7666L59.4818 87.357C61.0186 88.3264 62.1014 89.9534 62.3109 91.7536C62.6253 94.7307 60.4598 97.154 57.4909 97.154H52.7058C52.5312 97.154 52.3915 97.1886 52.2168 97.1886H38.7348C37.2678 97.1886 35.9056 96.2886 35.242 94.8692C34.6133 93.4845 34.8927 91.9959 35.9755 91.0958C37.5123 89.8496 39.3285 88.9149 41.3893 88.4648L36.5343 55.8198Z" fill="#174AA1"/>
<path d="M64.0278 55.8295H45.7825L56.9864 95.867H75.2317L64.0278 55.8295Z" fill="#2661C6"/>
<path d="M39.6079 50.5578L43.3452 36.7798C45.0566 30.5138 51.623 26.7405 57.9449 28.4368C64.3018 30.133 68.074 36.6413 66.3974 42.9072L62.9047 55.8198H39.4333C39.084 54.1235 39.1539 52.3234 39.6079 50.5578Z" fill="white"/>
<path d="M65.2099 53.0157H36.3247C35.5917 53.0157 34.9975 53.6202 34.9975 54.3658V60.7009C34.9975 61.4466 35.5917 62.051 36.3247 62.051H65.2099C65.9429 62.051 66.5371 61.4466 66.5371 60.7009V54.3658C66.5371 53.6202 65.9429 53.0157 65.2099 53.0157Z" fill="#174AA1"/>
<path fill-rule="evenodd" clip-rule="evenodd" d="M52.6709 15.9742L47.9207 29.8561H62.9745V15.7664L52.6709 15.9742Z" fill="#E37878"/>
<path fill-rule="evenodd" clip-rule="evenodd" d="M45.1614 11.7507C46.0695 12.9624 49.5274 16.6319 54.8713 13.2047C55.0459 13.1009 55.2206 13.1009 55.3952 13.1355C55.5699 13.2047 55.6746 13.3432 55.7445 13.5163C55.9541 14.3471 56.6875 15.4895 58.9578 15.4549C59.2373 15.4549 59.4818 15.2818 59.5516 15.0049C59.9707 13.447 61.1583 8.15044 56.5828 9.88136C56.4081 9.95059 56.1986 9.91597 56.0588 9.81212C54.8713 8.98128 49.4226 5.69255 45.1614 11.0584C45.0217 11.2661 44.9868 11.543 45.1614 11.7507Z" fill="#FF8984"/>
<path fill-rule="evenodd" clip-rule="evenodd" d="M55.011 8.77356H57.3163C59.5866 8.77356 61.3679 10.6083 61.2631 12.8585L60.9837 18.7436C60.844 21.0977 58.8181 23.0017 56.478 23.0017H54.3474C50.7848 23.0017 48.0255 20.1283 48.2001 16.6319L48.27 15.1433C48.4446 11.6469 51.4833 8.77356 55.011 8.77356Z" fill="#E37878"/>
<path fill-rule="evenodd" clip-rule="evenodd" d="M51.0642 15.1433H51.2738C51.4833 15.1433 51.6231 15.2818 51.6231 15.4549L51.5881 15.9742C51.5881 16.1819 51.4135 16.3204 51.2039 16.3204H51.0293C50.7149 16.3204 50.5054 16.078 50.5054 15.8011V15.6626C50.5403 15.3857 50.7848 15.1433 51.0642 15.1433Z" fill="#1D1D1D"/>
<path fill-rule="evenodd" clip-rule="evenodd" d="M50.2958 13.2393L50.8896 13.3086C51.3087 13.3778 51.658 13.6548 51.7977 14.0356C51.8675 14.1394 51.8326 14.2433 51.7628 14.3125C51.6929 14.3817 51.5532 14.3817 51.4833 14.3471C51.3436 14.2779 51.2039 14.2086 51.0293 14.2086L50.1561 14.0702C49.8068 14.0356 49.4925 14.0702 49.2131 14.174C49.1083 14.2433 48.9686 14.2086 48.8987 14.1048C48.8288 14.0009 48.8288 13.8625 48.8987 13.7586C49.2131 13.3778 49.737 13.1355 50.2958 13.2393Z" fill="#FFE084"/>
<path fill-rule="evenodd" clip-rule="evenodd" d="M47.292 14.3125H50.9944C51.3786 14.3125 51.7278 14.451 51.9723 14.7625C52.2168 15.0741 52.2867 15.4203 52.2168 15.8011L51.7278 17.7051C51.6231 18.259 51.1341 18.6398 50.5403 18.6398H47.8858C47.327 18.6398 46.8729 18.2936 46.6983 17.7743L46.1045 15.8703C45.9997 15.4895 46.0696 15.1087 46.3141 14.7972C46.5586 14.4856 46.9078 14.3125 47.292 14.3125Z" fill="#1D1D1D"/>
<path fill-rule="evenodd" clip-rule="evenodd" d="M55.0111 8.77356H57.3512C59.6215 8.77356 61.4028 10.6083 61.298 12.8585L61.0186 18.7782C60.8789 21.1323 58.8531 23.0363 56.478 23.0363H54.3474C53.8934 23.0363 53.4742 23.0017 53.09 22.9324C51.4484 21.9631 53.125 20.613 53.125 20.613L52.5312 18.5013C52.4963 18.2936 52.4963 18.1205 52.6011 17.9128L52.7058 17.7397L51.5882 17.3935C51.2039 17.2896 50.9595 16.8742 51.0992 16.4242L52.4963 11.82C52.5312 11.7853 52.5312 11.7507 52.5661 11.6815C53.2297 10.4699 53.8235 9.53516 54.4173 8.80818C54.6269 8.77356 54.8364 8.77356 55.0111 8.77356Z" fill="#F6C5A5"/>
<path fill-rule="evenodd" clip-rule="evenodd" d="M55.011 8.77356H57.3512C59.6215 8.77356 61.4028 10.6083 61.298 12.8585L61.1234 16.3896C58.7832 15.7664 58.1894 14.2779 58.1196 13.2393C58.0847 12.9624 57.9449 12.7547 57.7354 12.6508C57.5258 12.5123 57.2813 12.5123 57.0368 12.6508C55.0809 13.5163 53.3694 13.8624 51.9025 13.8624L52.4962 11.82C52.5312 11.7853 52.5312 11.7507 52.5661 11.6815C53.2297 10.4699 53.8235 9.53516 54.4173 8.80818C54.6268 8.77356 54.8364 8.77356 55.011 8.77356Z" fill="#E37878"/>
<path fill-rule="evenodd" clip-rule="evenodd" d="M44.1136 7.76965C45.0916 9.63903 48.8987 15.5588 57.0368 12.0969C57.2813 11.9931 57.5258 12.0277 57.7703 12.1315C57.9799 12.27 58.1196 12.4777 58.1196 12.7201C58.2244 13.9317 58.9229 15.6972 62.0664 16.1819C62.4506 16.2511 62.7999 16.078 62.9745 15.7318C63.9525 13.6548 66.8515 6.62725 60.1803 7.8735C59.9009 7.90812 59.6564 7.83889 59.4818 7.66579C58.0497 6.21183 51.4484 0.361343 44.3232 6.80034C44.0437 7.04267 43.9739 7.42347 44.1136 7.76965Z" fill="#FFE084"/>
<path fill-rule="evenodd" clip-rule="evenodd" d="M56.0589 15.1433H55.8493C55.6747 15.1433 55.5 15.2818 55.5 15.4549L55.4651 15.9742C55.4651 16.1819 55.6048 16.3204 55.8144 16.3204H55.989C56.3034 16.3204 56.5478 16.078 56.5478 15.8011V15.6626C56.5828 15.3857 56.3383 15.1433 56.0589 15.1433Z" fill="#1D1D1D"/>
<path fill-rule="evenodd" clip-rule="evenodd" d="M57.1067 19.1937C56.4081 20.0245 55.4302 20.5784 54.2776 20.7169C53.1599 20.8207 52.112 20.4746 51.3087 19.7822C51.0642 19.6091 50.9944 19.2629 51.169 18.9514C51.3087 18.6744 51.6231 18.5013 51.9374 18.5706C52.636 18.709 53.3694 18.7436 54.1728 18.6744C54.9412 18.5706 55.6747 18.3975 56.3383 18.1205C56.6526 17.982 57.0019 18.0859 57.1766 18.3628C57.3512 18.6052 57.3163 18.9514 57.1067 19.1937Z" fill="#A45959"/>
<path d="M56.6875 19.6437C56.0589 20.1976 55.2206 20.613 54.2775 20.7169C53.4044 20.7861 52.601 20.613 51.9025 20.2322C52.601 19.7129 53.4393 19.3667 54.3474 19.2629C55.1857 19.1937 55.989 19.3321 56.6875 19.6437Z" fill="white"/>
<path d="M51.3087 18.7783C51.4833 18.6052 51.6929 18.5359 51.9374 18.5706C52.6359 18.709 53.3694 18.7436 54.1727 18.6744C54.9412 18.5706 55.6746 18.3975 56.3383 18.1205C56.6526 17.982 57.0019 18.0859 57.1765 18.3628C56.478 19.1244 55.5 19.6783 54.3823 19.7822C53.2646 19.9207 52.2168 19.5399 51.4135 18.8821C51.3785 18.8475 51.3436 18.8129 51.3087 18.7783Z" fill="white"/>
<path fill-rule="evenodd" clip-rule="evenodd" d="M55.7794 12.9624H55.1857C54.7665 12.9624 54.3823 13.2047 54.2077 13.5509C54.1378 13.6201 54.1378 13.7586 54.2077 13.8278C54.2776 13.8971 54.4173 13.9317 54.4871 13.8971C54.6268 13.8278 54.8015 13.7932 54.9412 13.7932H55.8493C56.1986 13.7932 56.478 13.8971 56.7574 14.0355C56.8622 14.1048 57.0019 14.1048 57.0718 14.0009C57.1765 13.9317 57.1765 13.7932 57.1067 13.6894C56.8273 13.2393 56.3383 12.9624 55.7794 12.9624Z" fill="#FFE084"/>
<path fill-rule="evenodd" clip-rule="evenodd" d="M49.5274 7.42345C50.226 8.80818 53.0202 13.1701 58.9928 10.6083C59.1674 10.5391 59.3421 10.5391 59.5167 10.643C59.6913 10.7468 59.7961 10.8853 59.7961 11.093C59.866 11.9584 60.3899 13.2393 62.6951 13.6201C62.9745 13.6547 63.219 13.5163 63.3587 13.2739C64.0573 11.7507 66.1879 6.59261 61.298 7.49269C61.0884 7.56193 60.9138 7.49269 60.7741 7.35422C59.7263 6.31567 54.8713 1.98839 49.6671 6.73109C49.4575 6.90418 49.3877 7.18112 49.5274 7.42345Z" fill="#FFF3CF"/>
<path d="M56.3732 25.7365H49.1781C39.8418 25.7365 32.2732 31.4092 32.2732 38.4068C32.2732 45.4044 39.8418 51.0771 49.1781 51.0771H56.3732C65.7096 51.0771 73.2782 45.4044 73.2782 38.4068C73.2782 31.4092 65.7096 25.7365 56.3732 25.7365Z" fill="white"/>
<path fill-rule="evenodd" clip-rule="evenodd" d="M42.1577 29.2676H42.961H44.2184H45.371C45.7901 29.2676 46.0346 29.6138 45.8949 30.0292C45.7901 30.4446 45.3012 30.7908 44.882 30.7908H43.7294H42.472H41.6687C41.0051 30.7908 40.3414 31.0677 39.7477 31.4831C39.1888 31.9332 38.7348 32.5217 38.5252 33.1794C38.3156 33.8372 38.4204 34.4257 38.6998 34.8411C39.0142 35.2565 39.5032 35.5335 40.1668 35.5335H40.9701H42.2275H43.3801C43.7993 35.5335 44.0438 35.8797 43.9041 36.2951C43.7643 36.7451 43.3103 37.0913 42.8912 37.0913H41.7385H40.4812H39.6778C38.5951 37.0913 37.7568 36.6413 37.2678 35.9489C36.7788 35.2219 36.6391 34.2526 36.9884 33.1794C37.3027 32.1063 38.0711 31.1023 39.0142 30.41C39.9572 29.683 41.0749 29.2676 42.1577 29.2676Z" fill="#5999F1"/>
<path fill-rule="evenodd" clip-rule="evenodd" d="M44.4978 32.3486H43.6945H42.4371H41.2845C40.8654 32.3486 40.4113 32.6948 40.2716 33.1102C40.1319 33.5602 40.3764 33.9064 40.7955 33.9064H41.9481H43.2055H44.0088C44.6725 33.9064 45.1615 34.1488 45.4758 34.5988C45.7552 35.0142 45.86 35.6027 45.6504 36.2605C45.4409 36.9182 44.9868 37.5067 44.393 37.9221C43.8342 38.3722 43.1706 38.6491 42.507 38.6491H41.7036H40.4462H39.2936C38.8745 38.6491 38.3855 38.9953 38.2807 39.4107C38.141 39.8261 38.3855 40.1723 38.8046 40.1723H39.9572H41.2146H42.018C43.1007 40.1723 44.2184 39.7223 45.1615 39.0299C46.1045 38.3376 46.8729 37.3336 47.1873 36.2605C47.5365 35.1873 47.3968 34.218 46.9078 33.491C46.4188 32.7986 45.5806 32.3486 44.4978 32.3486Z" fill="#5999F1"/>
<path d="M48.8638 52.2541H38.3855C38.1154 52.2541 37.8965 52.967 37.8965 53.8465V61.2202C37.8965 62.0997 38.1154 62.8127 38.3855 62.8127H48.8638C49.1338 62.8127 49.3527 62.0997 49.3527 61.2202V53.8465C49.3527 52.967 49.1338 52.2541 48.8638 52.2541Z" fill="#2661C6"/>
<path fill-rule="evenodd" clip-rule="evenodd" d="M52.0422 52.2541H53.7886C54.6617 52.2541 55.3603 52.9465 55.3603 53.8465V61.1856C55.3603 62.0511 54.6617 62.778 53.7886 62.778H52.0422C52.9154 62.778 53.6488 62.0511 53.6488 61.1856V53.8465C53.6488 52.9465 52.9154 52.2541 52.0422 52.2541Z" fill="#2661C6"/>
<path d="M62.8323 24.5249H48.7939C48.1573 24.5249 47.6413 25.0363 47.6413 25.6673V25.6806C47.6413 26.3115 48.1573 26.823 48.7939 26.823H62.8323C63.4689 26.823 63.985 26.3115 63.985 25.6806V25.6673C63.985 25.0363 63.4689 24.5249 62.8323 24.5249Z" fill="white"/>
<path fill-rule="evenodd" clip-rule="evenodd" d="M60.9836 25.2518H71.2873C71.6715 25.2518 72.0208 25.5634 72.0208 25.9442V26.5673C72.0208 26.9827 71.6715 27.2943 71.2873 27.2943H64.7908C58.888 27.2943 54.068 32.0716 54.068 37.9221C54.068 43.7726 58.888 48.5499 64.7908 48.5499H71.2873C71.6715 48.5499 72.0208 48.8615 72.0208 49.2423V49.8654C72.0208 50.2808 71.6715 50.5924 71.2873 50.5924H60.9836C53.9632 50.5924 48.2001 44.8804 48.2001 37.9221C48.2001 30.9292 53.9632 25.2518 60.9836 25.2518Z" fill="#2661C6"/>
<path d="M73.3793 34.4935C69.7038 29.6217 63.7093 27.9067 59.9904 30.6629C56.2714 33.4192 56.2362 39.603 59.9118 44.4749L64.1375 50.0759C67.813 54.9477 73.8075 56.6627 77.5264 53.9064C81.2454 51.1502 81.2806 44.9664 77.605 40.0945L73.3793 34.4935Z" fill="#F6C5A5"/>
<path fill-rule="evenodd" clip-rule="evenodd" d="M68.1438 54.3658C67.2357 53.8119 66.4324 53.1196 65.7687 52.2195L58.2942 42.3187C55.7096 38.8915 56.1986 34.0795 59.3071 31.2062C60.2153 31.7601 61.0186 32.4871 61.6822 33.3525L69.1567 43.2534C71.7414 46.6806 71.2524 51.4925 68.1438 54.3658Z" fill="#E37878"/>
<path fill-rule="evenodd" clip-rule="evenodd" d="M59.7263 52.2541H61.4726C62.3807 52.2541 63.0793 52.9465 63.0793 53.8465V61.1856C63.0793 62.0511 62.3807 62.778 61.4726 62.778H59.7263C60.6344 62.778 61.3329 62.0511 61.3329 61.1856V53.8465C61.3329 52.9465 60.6344 52.2541 59.7263 52.2541Z" fill="#2661C6"/>
<path fill-rule="evenodd" clip-rule="evenodd" d="M83.0928 53.985C83.1627 53.8812 83.1976 53.7427 83.2675 53.6388V53.6042C83.5469 53.0157 83.7565 52.358 83.8962 51.6656C84.9789 46.5767 81.6608 41.5917 76.5265 40.5185C71.3572 39.48 66.3276 42.7687 65.2798 47.8576C65.14 48.55 65.0702 49.2423 65.0702 49.9001V49.9347C65.0702 50.0385 65.1051 50.177 65.1051 50.2809L65.8037 69.3209C65.8037 71.4672 67.3405 73.4405 69.5759 73.8905C71.8112 74.3406 73.9767 73.1635 74.8499 71.1557L83.0928 53.985Z" fill="#F6C5A5"/>
<path d="M71.6017 74.029C75.479 74.029 78.6221 70.9136 78.6221 67.0707C78.6221 63.2278 75.479 60.1124 71.6017 60.1124C67.7244 60.1124 64.5812 63.2278 64.5812 67.0707C64.5812 70.9136 67.7244 74.029 71.6017 74.029Z" fill="white"/>
<path d="M66.118 88.1186C69.4361 88.1186 72.5098 89.2264 74.9547 91.0958C76.1073 91.9959 76.5614 93.4844 76.0724 94.8692C75.6183 96.2885 74.326 97.1886 72.859 97.1886H59.377C57.91 97.1886 56.6177 96.2885 56.1636 94.8692C55.6747 93.4844 56.1287 91.9959 57.2813 91.0958C59.7263 89.2264 62.7999 88.1186 66.118 88.1186Z" fill="#FA6C6C"/>
<path d="M62.7433 72.7618L62.7401 72.3171C62.7244 70.093 63.8846 68.2818 65.3317 68.2717L65.3478 68.2716C66.7949 68.2615 67.9808 70.0563 67.9966 72.2804L67.9997 72.7251C68.0155 74.9492 66.8552 76.7604 65.4081 76.7705L65.3921 76.7706C63.945 76.7807 62.7591 74.9859 62.7433 72.7618Z" fill="#E37878"/>
<path fill-rule="evenodd" clip-rule="evenodd" d="M65.7338 80.6411L64.8606 76.0715C64.7209 75.206 65.2798 74.4098 66.118 74.2367L67.7596 73.9251C68.6677 73.752 69.506 74.3405 69.6806 75.206L70.5189 79.7064C70.7634 81.0219 69.8902 82.3027 68.563 82.5451C67.2706 82.822 65.9783 81.9565 65.7338 80.6411Z" fill="#E37878"/>
<path fill-rule="evenodd" clip-rule="evenodd" d="M78.9364 71.7095L79.3556 74.2021C79.7747 76.5907 78.1331 78.8755 75.6882 79.2909L70.3792 80.1564C67.8644 80.5718 65.4195 78.8755 65.0003 76.383L64.6161 74.0982C63.9874 70.3594 66.5721 66.7591 70.3792 66.136L70.9031 66.0322C74.7102 65.409 78.3077 67.9708 78.9364 71.7095Z" fill="#E37878"/>
<path fill-rule="evenodd" clip-rule="evenodd" d="M78.4475 69.044L78.8666 71.5019C79.2857 73.8905 77.6092 76.2099 75.1992 76.5907L69.8902 77.4908C67.3405 77.9062 64.9305 76.2099 64.5113 73.6828L64.1271 71.4326C63.4984 67.6592 66.0831 64.0936 69.8553 63.4358L70.4141 63.3666C74.1863 62.7434 77.8188 65.3052 78.4475 69.044Z" fill="#F6C5A5"/>
<path d="M86.3198 96.9809H25.9513C25.6619 96.9809 25.4273 97.2067 25.4273 97.4853C25.4273 97.7639 25.6619 97.9897 25.9513 97.9897H86.3198C86.6091 97.9897 86.8437 97.7639 86.8437 97.4853C86.8437 97.2067 86.6091 96.9809 86.3198 96.9809Z" fill="#174AA1"/>
<path d="M22.5982 96.9809H20.293C20.2737 96.9809 20.2581 97.2067 20.2581 97.4853C20.2581 97.7639 20.2737 97.9897 20.293 97.9897H22.5982C22.6175 97.9897 22.6332 97.7639 22.6332 97.4853C22.6332 97.2067 22.6175 96.9809 22.5982 96.9809Z" fill="#174AA1"/>
<path fill-rule="evenodd" clip-rule="evenodd" d="M104.573 35.7066C105.935 35.3258 107.368 36.1566 107.717 37.5413C109.114 37.1951 110.546 38.026 110.895 39.3761C111.244 40.7608 110.406 42.1802 109.044 42.5264L104.014 43.8419L102.687 38.8222C102.338 37.4721 103.176 36.0527 104.573 35.7066Z" fill="#6EAAFF"/>
<path fill-rule="evenodd" clip-rule="evenodd" d="M101.709 39.6877C103.071 39.3415 104.503 40.1723 104.853 41.557C106.25 41.1762 107.682 42.0071 108.031 43.3918C108.38 44.7765 107.542 46.1959 106.18 46.5421L101.15 47.823L99.8232 42.8379C99.4739 41.4878 100.312 40.0685 101.709 39.6877Z" fill="#8ABBFF"/>
<path d="M99.5787 43.6341C100.941 43.288 102.373 44.1188 102.722 45.4689C104.119 45.1227 105.551 45.9536 105.901 47.3383C106.25 48.6884 105.412 50.1078 104.049 50.4886L99.0198 51.7694L97.6926 46.7844C97.3433 45.3997 98.1816 43.9803 99.5787 43.6341Z" fill="white"/>
<path d="M16.2064 5.55408C17.7782 5.55408 19.1753 6.17721 20.1882 7.18113H20.2231C21.236 8.18506 21.8647 9.60441 21.8647 11.1276C21.8647 11.6123 21.7949 12.0623 21.6552 12.5123C21.5504 12.9278 21.4107 13.3086 21.236 13.6894L21.9695 16.3896C22.0044 16.6319 21.8996 16.8742 21.6552 16.9089C21.5853 16.9435 21.5154 16.9435 21.4456 16.9089L18.6165 16.1819C18.2672 16.3204 17.9179 16.4588 17.5337 16.5627C17.1146 16.6665 16.6605 16.7012 16.2064 16.7012C14.6696 16.7012 13.2725 16.078 12.2247 15.0741C11.2118 14.0702 10.5831 12.6508 10.5831 11.1276C10.5831 9.60441 11.2118 8.18506 12.2247 7.18113H12.2596C13.2725 6.17721 14.6696 5.55408 16.2064 5.55408ZM19.5944 7.76964C18.7212 6.93881 17.5337 6.38492 16.2064 6.38492C14.9141 6.38492 13.6917 6.93881 12.8534 7.76964C11.9802 8.6351 11.4563 9.81212 11.4563 11.1276C11.4563 12.4431 11.9802 13.6201 12.8534 14.4856C13.6917 15.3164 14.9141 15.8703 16.2064 15.8703C16.5906 15.8703 16.9749 15.8011 17.3241 15.7318C17.7083 15.6626 18.0576 15.5241 18.372 15.351C18.4767 15.3164 18.5815 15.2818 18.6863 15.3164L20.9566 15.9049L20.3628 13.7586C20.3279 13.6547 20.3279 13.5163 20.3978 13.4124C20.5724 13.0662 20.747 12.7201 20.8518 12.3046C20.9566 11.9585 20.9915 11.543 20.9915 11.1276C20.9915 9.81212 20.4676 8.6351 19.5944 7.76964Z" fill="white"/>
<path d="M85.7124 72.2634L95.8763 67.9016C96.6448 67.59 97.483 67.59 98.1816 67.8669C98.9151 68.1439 99.5438 68.6978 99.8581 69.4594L104.259 79.5333C104.608 80.2949 104.573 81.1257 104.294 81.8181C104.014 82.5451 103.456 83.1336 102.687 83.4798L92.5233 87.8416C91.7549 88.1878 90.9515 88.1532 90.2181 87.8763C89.4846 87.5993 88.8908 87.0454 88.5415 86.2838L84.1407 76.2099C83.8263 75.4483 83.8263 74.6521 84.1057 73.9251C84.3851 73.1981 84.944 72.6096 85.7124 72.2634ZM96.2955 68.8709L86.1315 73.2328C85.6425 73.4751 85.2933 73.8559 85.1186 74.3059C84.9091 74.7906 84.9091 75.3099 85.1186 75.7945L89.5195 85.8684C89.764 86.3531 90.1482 86.7339 90.6023 86.907C91.0913 87.08 91.6152 87.08 92.1042 86.8723L102.268 82.5104C102.757 82.3027 103.141 81.8873 103.316 81.4373C103.491 80.9872 103.491 80.4333 103.281 79.9487L98.8801 69.8748C98.6706 69.3901 98.2514 69.044 97.7974 68.8362C97.3433 68.6632 96.7845 68.6632 96.2955 68.8709Z" fill="white"/>
<path d="M91.9994 72.852C93.3965 72.2634 94.9333 72.2981 96.2256 72.7827C97.5529 73.302 98.6706 74.3059 99.2643 75.6906C99.8581 77.0754 99.8581 78.564 99.3342 79.8795C98.8103 81.1949 97.7974 82.3027 96.4003 82.8912C95.0032 83.4797 93.5013 83.4797 92.174 82.9605L92.1391 82.9259C90.8468 82.4066 89.764 81.4027 89.1353 80.0525C88.5415 78.6678 88.5765 77.1792 89.0655 75.8637C89.5894 74.5829 90.6023 73.4751 91.9994 72.852ZM95.8414 73.7866C94.7936 73.3712 93.5711 73.3366 92.4534 73.8213C91.3008 74.3059 90.4975 75.206 90.0784 76.2445C89.6592 77.3177 89.6592 78.5293 90.1482 79.6371C90.6023 80.7449 91.5104 81.5411 92.5582 81.9565H92.5931C93.641 82.372 94.8634 82.4066 95.9811 81.9219C97.0988 81.4373 97.9371 80.5372 98.3562 79.4987C98.7404 78.4601 98.7753 77.2485 98.2863 76.1407C97.7974 74.9983 96.8892 74.2021 95.8414 73.7866Z" fill="white"/>
<path d="M93.0821 75.3445C93.8156 75.0329 94.584 75.0329 95.2476 75.3098H95.2826C95.9113 75.5868 96.4701 76.0714 96.7845 76.7638C97.0639 77.4908 97.0639 78.2178 96.8194 78.8755L96.7845 78.9101C96.54 79.5679 96.0161 80.1218 95.3175 80.4333C94.619 80.7103 93.8505 80.7103 93.1869 80.4679C92.5233 80.191 91.9645 79.6717 91.6501 78.9794C91.3358 78.287 91.3358 77.5254 91.6152 76.8676C91.8597 76.2099 92.3836 75.6214 93.0821 75.3445ZM94.8285 76.2791C94.4443 76.1061 93.9553 76.1061 93.5362 76.3138C93.0821 76.4869 92.7678 76.833 92.5932 77.2484C92.4534 77.6639 92.4185 78.1139 92.6281 78.5639C92.8027 78.9794 93.152 79.3255 93.5711 79.464C93.9903 79.6371 94.4443 79.6371 94.8984 79.464C95.3175 79.2563 95.6668 78.9101 95.8065 78.4947C95.9811 78.1139 95.9811 77.6292 95.8065 77.1792C95.5969 76.7638 95.2826 76.4522 94.8634 76.2791H94.8285Z" fill="white"/>
<path d="M78.9364 45.3651C80.3639 45.3651 81.5211 44.2181 81.5211 42.8033C81.5211 41.3885 80.3639 40.2416 78.9364 40.2416C77.509 40.2416 76.3518 41.3885 76.3518 42.8033C76.3518 44.2181 77.509 45.3651 78.9364 45.3651Z" fill="#F6C5A5"/>
<path d="M94.8984 96.9809H92.5932C92.5739 96.9809 92.5582 97.2067 92.5582 97.4853C92.5582 97.7639 92.5739 97.9897 92.5932 97.9897H94.8984C94.9177 97.9897 94.9333 97.7639 94.9333 97.4853C94.9333 97.2067 94.9177 96.9809 94.8984 96.9809Z" fill="#174AA1"/>
<path fill-rule="evenodd" clip-rule="evenodd" d="M57.2813 77.3523C57.1067 77.1792 57.1067 76.9369 57.2464 76.7292C57.3861 76.5561 57.6655 76.5561 57.8402 76.6946C57.8402 76.6946 59.6215 78.287 61.4377 76.6946C61.6124 76.5561 61.8918 76.5561 62.0315 76.7292C62.2061 76.9023 62.1712 77.1792 61.9966 77.3523C59.5866 79.4294 57.3163 77.3523 57.2813 77.3523Z" fill="#5999F1"/>
<path d="M76.7958 94.0383H56.1636C55.4113 94.0383 54.8015 94.6428 54.8015 95.3884V95.6583C54.8015 96.404 55.4113 97.0085 56.1636 97.0085H76.7958C77.5481 97.0085 78.158 96.404 78.158 95.6583V95.3884C78.158 94.6428 77.5481 94.0383 76.7958 94.0383Z" fill="white"/>
<path d="M66.118 86.18C68.2835 86.18 70.2744 86.907 71.8811 88.1532C72.6495 88.7417 72.9289 89.6764 72.6146 90.6111C72.3002 91.5112 71.4969 92.0997 70.5189 92.0997H61.7171C60.7391 92.0997 59.9358 91.5112 59.6215 90.6111C59.3071 89.6764 59.5865 88.7417 60.3549 88.1532C61.9616 86.907 63.9525 86.18 66.118 86.18Z" fill="white"/>
<path fill-rule="evenodd" clip-rule="evenodd" d="M35.1372 42.4225V44.915C35.1372 47.3383 33.1114 49.3462 30.6665 49.3462H25.2876C22.703 49.3462 20.6073 47.2691 20.6073 44.7073V42.4225C20.6073 38.6145 23.7508 35.4989 27.5928 35.4989H28.1517C31.9937 35.4989 35.1372 38.6145 35.1372 42.4225Z" fill="#E37878"/>
<path d="M16.3112 64.7859L8.0683 73.9597C7.92859 74.1328 7.71902 74.1674 7.54438 74.0636L0.244508 70.6018C0.0349423 70.4979 -0.0698406 70.221 0.0349423 70.0133C0.104798 69.9094 0.174653 69.8402 0.279436 69.8055L15.8572 64.0935C16.0667 64.0243 16.3112 64.1282 16.3811 64.3705C16.4509 64.509 16.416 64.682 16.3112 64.7859ZM7.64917 73.1635L14.5299 65.4783L1.5019 70.2556L7.64917 73.1635Z" fill="white"/>
<path d="M15.1935 66.0321L8.27786 73.752L11.9103 79.4294L15.1935 66.0321ZM7.43959 73.4058L15.6476 64.232C15.7524 64.1281 15.927 64.0589 16.1016 64.0935C16.3112 64.1627 16.4509 64.3705 16.416 64.6128L12.5041 80.5718C12.4692 80.6757 12.3993 80.7795 12.3295 80.8488C12.1199 80.9872 11.8405 80.918 11.7357 80.7103L7.36974 73.9251C7.29988 73.752 7.29988 73.5443 7.43959 73.4058Z" fill="white"/>
<path fill-rule="evenodd" clip-rule="evenodd" d="M34.8927 47.1652V48.4115C34.8927 49.6231 33.8798 50.627 32.6574 50.627H22.703C21.4107 50.627 20.3628 49.5885 20.3628 48.3076V47.1652C20.3628 45.2612 21.9346 43.7034 23.8556 43.7034H31.4C33.321 43.7034 34.8927 45.2612 34.8927 47.1652Z" fill="#F6C5A5"/>
<path d="M20.3699 37.681L20.6475 37.4036C22.0357 36.0161 23.8929 35.6106 24.7957 36.4979L24.8057 36.5078C25.7084 37.3951 25.3149 39.2392 23.9266 40.6267L23.649 40.9041C22.2608 42.2916 20.4036 42.6971 19.5008 41.8098L19.4908 41.7999C18.5881 40.9126 18.9816 39.0685 20.3699 37.681Z" fill="#E37878"/>
<path d="M18.0968 39.0301L18.4639 38.8876C20.2998 38.1755 22.1638 38.5494 22.6272 39.7228L22.6323 39.7359C23.0957 40.9093 21.983 42.4379 20.1471 43.1501L19.78 43.2925C17.9441 44.0047 16.0801 43.6308 15.6168 42.4573L15.6116 42.4443C15.1482 41.2708 16.2609 39.7422 18.0968 39.0301Z" fill="#E37878"/>
<path d="M23.3317 30.7562C24.5192 29.6138 26.4402 29.6138 27.6278 30.7562C28.8153 29.6138 30.7363 29.6138 31.9239 30.7562C33.1114 31.9332 33.1114 33.8718 31.9239 35.0142L27.6278 39.2722L23.3317 35.0142C22.1441 33.8718 22.1441 31.9332 23.3317 30.7562Z" fill="#E41F2D"/>
<path fill-rule="evenodd" clip-rule="evenodd" d="M53.3694 14.3125H57.0717C57.4909 14.3125 57.8052 14.451 58.0497 14.7625C58.2942 15.0741 58.3641 15.4203 58.2942 15.8011L57.8402 17.7051C57.7004 18.259 57.2115 18.6398 56.6177 18.6398H53.9632C53.4043 18.6398 52.9503 18.2936 52.7756 17.7743L52.2168 15.8703C52.0771 15.4895 52.147 15.1087 52.3914 14.7972C52.6359 14.4856 52.9852 14.3125 53.3694 14.3125Z" fill="#1D1D1D"/>
<path fill-rule="evenodd" clip-rule="evenodd" d="M57.1416 14.3125H62.5903C62.6252 14.3125 62.6602 14.3125 62.6951 14.3125C62.7999 14.3125 62.9047 14.3471 63.0095 14.4164L64.3716 15.2126C64.7209 15.4203 64.8257 15.8357 64.6161 16.1819C64.4066 16.5281 63.9874 16.6319 63.6381 16.4242L62.4506 15.6972H57.1416C56.7574 15.6972 56.4431 15.3857 56.4431 15.0049C56.4431 14.6241 56.7574 14.3125 57.1416 14.3125Z" fill="#1D1D1D"/>
<path fill-rule="evenodd" clip-rule="evenodd" d="M62.1712 14.0702H63.0095C63.8128 14.0702 64.4764 14.7279 64.4415 15.5587L64.3367 17.3243C64.3018 18.1551 63.5683 18.8475 62.6951 18.8475H61.9267C60.6344 18.8475 59.6564 17.8089 59.6913 16.5281L59.7263 16.3896C59.7612 15.1087 60.8789 14.0702 62.1712 14.0702Z" fill="#F6C5A5"/>
<path fill-rule="evenodd" clip-rule="evenodd" d="M62.7999 15.4895C62.9396 15.628 62.9047 15.8357 62.7999 15.9396L62.0664 16.6319L62.73 17.2897C62.8348 17.4282 62.8348 17.6359 62.6951 17.7743C62.5554 17.8782 62.3458 17.8782 62.2411 17.7743L61.3679 16.8743C61.298 16.805 61.298 16.7012 61.298 16.6319C61.298 16.5281 61.3329 16.4588 61.4028 16.3896L62.3458 15.4895C62.4855 15.3511 62.6951 15.3511 62.7999 15.4895Z" fill="#E37878"/>
<path d="M48.5119 16.3857C48.494 16.3072 48.3774 16.2436 48.2515 16.2436C48.1255 16.2436 48.0379 16.3072 48.0558 16.3857L48.3708 17.7704C48.3887 17.8489 48.5053 17.9125 48.6313 17.9125C48.7572 17.9125 48.8448 17.8489 48.827 17.7704L48.5119 16.3857Z" fill="white"/>
<path d="M48.287 15.3979C48.2813 15.3726 48.1745 15.3521 48.0485 15.3521C47.9226 15.3521 47.8251 15.3726 47.8309 15.3979L47.9325 15.8444C47.9382 15.8697 48.045 15.8902 48.171 15.8902C48.2969 15.8902 48.3944 15.8697 48.3886 15.8444L48.287 15.3979Z" fill="white"/>
<path d="M54.356 16.3857C54.3381 16.3072 54.2215 16.2436 54.0956 16.2436C53.9696 16.2436 53.882 16.3072 53.8998 16.3857L54.2149 17.7704C54.2328 17.8489 54.3494 17.9125 54.4753 17.9125C54.6013 17.9125 54.6889 17.8489 54.6711 17.7704L54.356 16.3857Z" fill="white"/>
<path d="M54.1315 15.3979C54.1257 15.3726 54.0189 15.3521 53.893 15.3521C53.767 15.3521 53.6696 15.3726 53.6753 15.3979L53.7769 15.8444C53.7827 15.8697 53.8895 15.8902 54.0154 15.8902C54.1414 15.8902 54.2388 15.8697 54.2331 15.8444L54.1315 15.3979Z" fill="white"/>
<path fill-rule="evenodd" clip-rule="evenodd" d="M40.6208 53.7081H41.6687C41.005 53.7081 40.5161 54.2273 40.5161 54.8505V60.147C40.5161 60.8048 41.005 61.2894 41.6687 61.2894H40.6208C39.9921 61.2894 39.4682 60.8048 39.4682 60.147V54.8505C39.4682 54.2273 39.9921 53.7081 40.6208 53.7081Z" fill="#174AA1"/>
</svg>
