<svg width="67" height="67" viewBox="0 0 67 67" fill="none" xmlns="http://www.w3.org/2000/svg">
<circle cx="33.234" cy="2.12132" r="1.5" transform="rotate(45 33.234 2.12132)" fill="#E2EBFF"/>
<circle cx="41.0122" cy="9.89949" r="1.5" transform="rotate(45 41.0122 9.89949)" fill="#E2EBFF"/>
<circle cx="48.7904" cy="17.6777" r="1.5" transform="rotate(45 48.7904 17.6777)" fill="#E2EBFF"/>
<circle cx="56.5685" cy="25.4559" r="1.5" transform="rotate(45 56.5685 25.4559)" fill="#E2EBFF"/>
<circle cx="64.3467" cy="33.234" r="1.5" transform="rotate(45 64.3467 33.234)" fill="#E2EBFF"/>
<circle cx="25.4558" cy="9.89949" r="1.5" transform="rotate(45 25.4558 9.89949)" fill="#E2EBFF"/>
<circle cx="33.234" cy="17.6777" r="1.5" transform="rotate(45 33.234 17.6777)" fill="#E2EBFF"/>
<circle cx="41.0122" cy="25.4559" r="1.5" transform="rotate(45 41.0122 25.4559)" fill="#E2EBFF"/>
<circle cx="48.7904" cy="33.234" r="1.5" transform="rotate(45 48.7904 33.234)" fill="#E2EBFF"/>
<circle cx="56.5685" cy="41.0122" r="1.5" transform="rotate(45 56.5685 41.0122)" fill="#E2EBFF"/>
<circle cx="17.6777" cy="17.6777" r="1.5" transform="rotate(45 17.6777 17.6777)" fill="#E2EBFF"/>
<circle cx="25.4558" cy="25.4559" r="1.5" transform="rotate(45 25.4558 25.4559)" fill="#E2EBFF"/>
<circle cx="33.234" cy="33.234" r="1.5" transform="rotate(45 33.234 33.234)" fill="#E2EBFF"/>
<circle cx="41.0122" cy="41.0122" r="1.5" transform="rotate(45 41.0122 41.0122)" fill="#E2EBFF"/>
<circle cx="48.7904" cy="48.7904" r="1.5" transform="rotate(45 48.7904 48.7904)" fill="#E2EBFF"/>
<circle cx="9.89948" cy="25.4559" r="1.5" transform="rotate(45 9.89948 25.4559)" fill="#E2EBFF"/>
<circle cx="17.6777" cy="33.234" r="1.5" transform="rotate(45 17.6777 33.234)" fill="#E2EBFF"/>
<circle cx="25.4558" cy="41.0122" r="1.5" transform="rotate(45 25.4558 41.0122)" fill="#E2EBFF"/>
<circle cx="33.234" cy="48.7904" r="1.5" transform="rotate(45 33.234 48.7904)" fill="#E2EBFF"/>
<circle cx="41.0122" cy="56.5686" r="1.5" transform="rotate(45 41.0122 56.5686)" fill="#E2EBFF"/>
<circle cx="2.12131" cy="33.234" r="1.5" transform="rotate(45 2.12131 33.234)" fill="#E2EBFF"/>
<circle cx="9.89948" cy="41.0122" r="1.5" transform="rotate(45 9.89948 41.0122)" fill="#E2EBFF"/>
<circle cx="17.6777" cy="48.7904" r="1.5" transform="rotate(45 17.6777 48.7904)" fill="#E2EBFF"/>
<circle cx="25.4558" cy="56.5686" r="1.5" transform="rotate(45 25.4558 56.5686)" fill="#E2EBFF"/>
<circle cx="33.234" cy="64.3467" r="1.5" transform="rotate(45 33.234 64.3467)" fill="#E2EBFF"/>
</svg>
