<svg width="178" height="177" viewBox="0 0 178 177" fill="none" xmlns="http://www.w3.org/2000/svg">
<g opacity="0.45">
<g opacity="0.45">
<path fill-rule="evenodd" clip-rule="evenodd" d="M176.5 177C273.978 177 353 97.978 353 0.5C353 -96.9783 273.978 -176 176.5 -176C79.022 -176 0 -96.9783 0 0.5C0 97.978 79.022 177 176.5 177Z" fill="url(#paint0_radial)"/>
</g>
<g opacity="0.65">
<path fill-rule="evenodd" clip-rule="evenodd" d="M176.5 118C241.393 118 294 65.3935 294 0.5C294 -64.3935 241.393 -117 176.5 -117C111.607 -117 59 -64.3935 59 0.5C59 65.3935 111.607 118 176.5 118Z" fill="url(#paint1_radial)"/>
</g>
<path fill-rule="evenodd" clip-rule="evenodd" d="M176.5 59C208.809 59 235 32.8087 235 0.5C235 -31.8087 208.809 -58 176.5 -58C144.191 -58 118 -31.8087 118 0.5C118 32.8087 144.191 59 176.5 59Z" fill="url(#paint2_radial)"/>
</g>
<defs>
<radialGradient id="paint0_radial" cx="0" cy="0" r="1" gradientUnits="userSpaceOnUse" gradientTransform="translate(176.5 0.5) rotate(90) scale(176.5 177.32)">
<stop stop-color="#E8E5F8"/>
<stop offset="0.989583" stop-color="#D7D2F0"/>
</radialGradient>
<radialGradient id="paint1_radial" cx="0" cy="0" r="1" gradientUnits="userSpaceOnUse" gradientTransform="translate(176.5 0.5) rotate(90) scale(117.5 118.046)">
<stop stop-color="#E8E5F8"/>
<stop offset="1" stop-color="#D7D2F0"/>
</radialGradient>
<radialGradient id="paint2_radial" cx="0" cy="0" r="1" gradientUnits="userSpaceOnUse" gradientTransform="translate(176.5 0.5) rotate(90) scale(58.5 58.7719)">
<stop stop-color="#E8E5F8"/>
<stop offset="1" stop-color="#D7D2F0"/>
</radialGradient>
</defs>
</svg>
