<svg width="338" height="429" viewBox="0 0 338 429" fill="none" xmlns="http://www.w3.org/2000/svg">
<path d="M304.33 196.996L304.33 165.753C304.33 127.396 280.738 96.3013 251.637 96.3013L250.62 96.3013C221.519 96.3013 197.927 127.396 197.927 165.753L197.927 196.996C197.927 235.353 221.519 266.448 250.62 266.448L251.637 266.448C280.738 266.448 304.33 235.353 304.33 196.996Z" fill="#174AA1"/>
<path d="M230.892 83.4576H198.848V285.112H230.892V83.4576Z" fill="#2661C6"/>
<path d="M291.699 202.966L291.699 165.912C291.699 120.423 263.721 83.5471 229.208 83.5471L228.003 83.5471C193.49 83.5471 165.512 120.423 165.512 165.912L165.512 202.966C165.512 248.455 193.49 285.331 228.003 285.331L229.208 285.331C263.721 285.331 291.699 248.455 291.699 202.966Z" fill="#2661C6"/>
<path fill-rule="evenodd" clip-rule="evenodd" d="M106.007 97.4705H152.537C154.293 97.4705 155.829 99.0031 155.829 100.755V103.601C155.829 105.353 154.293 106.885 152.537 106.885H123.127C96.5696 106.885 74.6216 128.562 74.6216 155.274C74.6216 181.986 96.5696 203.662 123.127 203.662H152.537C154.293 203.662 155.829 205.195 155.829 206.946V209.793C155.829 211.544 154.293 213.077 152.537 213.077H106.007C74.1826 213.077 48.0645 187.022 48.0645 155.274C48.0645 123.526 74.1826 97.4705 106.007 97.4705Z" fill="#2661C6"/>
<path d="M262.016 202.966L262.016 165.912C262.016 120.423 234.037 83.5471 199.524 83.5471L198.319 83.5471C163.806 83.5471 135.828 120.423 135.828 165.912L135.828 202.966C135.828 248.455 163.806 285.331 198.319 285.331L199.524 285.331C234.037 285.331 262.016 248.455 262.016 202.966Z" fill="#174AA1"/>
<path fill-rule="evenodd" clip-rule="evenodd" d="M73.5263 236.943H156.051L177.56 380.356C184.364 384.954 189.412 392.179 190.29 400.499C191.826 414.074 181.95 425.022 168.342 425.022H146.833C145.955 425.022 145.296 425.241 144.638 425.241H83.6224C76.8185 425.241 70.673 421.081 67.8198 414.731C64.9665 408.381 66.2834 401.594 71.112 397.434C77.9159 391.741 86.2561 387.581 95.6938 385.392L73.5263 236.943Z" fill="#174AA1"/>
<path d="M198.011 236.866H115.447L166.148 419.224H248.712L198.011 236.866Z" fill="#2661C6"/>
<path d="M87.5736 212.858L104.474 150.238C112.155 121.555 141.785 104.477 170.537 112.14C199.289 119.804 216.409 149.362 208.727 178.045L192.924 236.943H86.6957C85.1593 229.06 85.3788 220.959 87.5736 212.858Z" fill="white"/>
<path d="M203.238 224.024H72.8662C69.4721 224.024 66.7207 226.769 66.7207 230.155V259.057C66.7207 262.442 69.4721 265.187 72.8662 265.187H203.238C206.632 265.187 209.383 262.442 209.383 259.057V230.155C209.383 226.769 206.632 224.024 203.238 224.024Z" fill="#174AA1"/>
<path fill-rule="evenodd" clip-rule="evenodd" d="M146.611 55.4318L125.102 118.49H193.141V54.3371L146.611 55.4318Z" fill="#E37878"/>
<path fill-rule="evenodd" clip-rule="evenodd" d="M112.591 36.1641C116.762 41.6378 132.345 58.2782 156.707 42.7326C157.366 42.2947 158.243 42.2947 158.902 42.5137C159.78 42.7326 160.219 43.3895 160.438 44.0463C161.536 47.9874 164.828 53.0233 175.143 53.0233C176.46 53.0233 177.338 52.1475 177.777 50.8338C179.753 43.8274 185.02 19.7427 164.389 27.625C163.511 27.8439 162.633 27.8439 161.975 27.1871C156.488 23.4649 131.906 8.57619 112.591 32.8798C111.933 33.9746 111.933 35.2883 112.591 36.1641Z" fill="#FF8984"/>
<path fill-rule="evenodd" clip-rule="evenodd" d="M157.147 22.5891H167.682C177.998 22.5891 185.899 30.9092 185.46 40.981L184.143 67.912C183.704 78.6406 174.486 87.3987 163.731 87.3987H154.074C138.052 87.3987 125.761 74.2616 126.42 58.2782L126.639 51.4907C127.517 35.5072 141.125 22.5891 157.147 22.5891Z" fill="#E37878"/>
<path fill-rule="evenodd" clip-rule="evenodd" d="M139.37 51.4907H140.248C141.126 51.4907 141.784 52.1476 141.784 53.0234V55.2129C141.565 56.3077 140.906 56.9645 140.029 56.9645H139.151C137.834 56.9645 136.736 55.8698 136.736 54.556V53.8992C136.956 52.5855 138.053 51.4907 139.37 51.4907Z" fill="#1D1D1D"/>
<path fill-rule="evenodd" clip-rule="evenodd" d="M135.86 49.0823L138.493 49.5202C140.469 49.7391 142.005 51.0528 142.664 52.8044C142.883 53.2423 142.883 53.6802 142.444 54.1181C142.225 54.3371 141.566 54.556 141.127 54.1181C140.469 53.8992 139.81 53.6802 139.152 53.4613L135.201 53.0234C133.665 52.8044 132.128 53.0234 131.031 53.4613C130.592 53.6802 129.934 53.6802 129.495 53.0234C129.275 52.5855 129.275 52.1476 129.495 51.7097C131.031 49.7391 133.226 48.8633 135.86 49.0823Z" fill="#FFE084"/>
<path fill-rule="evenodd" clip-rule="evenodd" d="M157.368 22.5891H167.903C177.999 22.5891 186.12 30.9092 185.681 41.2L184.364 68.131C183.705 78.8596 174.707 87.6177 163.952 87.6177H154.295C152.32 87.6177 150.344 87.3987 148.369 86.9608C141.126 82.5818 148.588 76.4511 148.588 76.4511L145.955 66.8173C145.735 65.9415 145.955 65.0657 146.394 64.1899L146.833 63.314L141.785 61.7814C140.029 61.3435 138.931 59.3729 139.37 57.4024L145.955 36.602C145.955 36.1641 145.955 35.9451 146.174 35.7262C149.027 30.2524 151.881 25.8734 154.514 22.5891C155.392 22.5891 156.27 22.5891 157.368 22.5891Z" fill="#F6C5A5"/>
<path fill-rule="evenodd" clip-rule="evenodd" d="M157.368 22.5891H167.903C177.999 22.5891 186.12 30.9092 185.681 41.2L184.803 57.1834C174.268 54.337 171.634 47.5495 171.195 42.7326C171.195 41.6379 170.537 40.7621 169.439 40.1052C168.561 39.6673 167.464 39.6673 166.366 40.1052C157.368 44.2653 149.686 45.7979 143.102 45.579L145.955 36.602C145.955 36.1641 145.955 35.9451 146.174 35.7262C149.028 30.2524 151.881 25.8734 154.515 22.5891C155.392 22.5891 156.27 22.5891 157.368 22.5891Z" fill="#E37878"/>
<path fill-rule="evenodd" clip-rule="evenodd" d="M107.984 17.9911C112.374 26.5302 129.493 53.4612 166.366 37.6967C167.463 37.2588 168.561 37.2588 169.658 37.9157C170.756 38.5725 171.194 39.4484 171.414 40.5431C171.853 46.0169 174.926 54.1181 189.192 56.3076C190.948 56.5266 192.484 55.6508 193.143 54.1181C197.752 44.7032 210.701 12.7363 180.632 18.429C179.315 18.648 178.218 18.429 177.34 17.5532C170.975 10.9847 141.126 -15.9464 108.862 13.6121C107.545 14.7068 107.106 16.4585 107.984 17.9911Z" fill="#FFE084"/>
<path fill-rule="evenodd" clip-rule="evenodd" d="M161.978 51.4907H161.101C160.223 51.4907 159.345 52.1476 159.345 53.0234V55.2129C159.125 56.3077 160.003 56.9645 160.881 56.9645H161.539C163.076 56.9645 164.173 55.8698 164.173 54.556V53.8992C164.393 52.5855 163.295 51.4907 161.978 51.4907Z" fill="#1D1D1D"/>
<path fill-rule="evenodd" clip-rule="evenodd" d="M160.658 43.6084H158.024C156.049 43.6084 154.293 44.7032 153.415 46.2358C153.196 46.6737 153.415 47.3306 153.635 47.5495C153.854 47.9874 154.513 48.2064 154.951 47.9874C155.61 47.7685 156.268 47.5495 156.927 47.5495H161.097C162.414 47.5495 163.95 47.9874 165.048 48.6443C165.487 48.8632 166.145 48.8632 166.584 48.4253C167.023 47.9874 167.023 47.3306 166.803 46.8927C165.487 44.9221 163.292 43.6084 160.658 43.6084Z" fill="#FFE084"/>
<path fill-rule="evenodd" clip-rule="evenodd" d="M167.684 70.3206C163.514 74.2617 158.027 76.6702 152.321 76.6702C146.395 76.6702 141.127 74.2617 137.396 70.3206C136.299 69.2258 136.079 67.2552 137.177 65.9415C138.054 64.4089 139.81 63.752 141.347 64.4089C144.858 65.2847 148.59 65.9415 152.76 65.9415C156.71 65.9415 160.661 65.2847 164.173 64.4089C165.929 63.752 167.465 64.4089 168.343 65.9415C169.221 67.2552 168.782 69.2258 167.684 70.3206Z" fill="#A45959"/>
<path d="M165.269 72.291C161.538 74.9184 157.148 76.6701 152.319 76.6701C147.71 76.6701 143.54 75.1374 140.248 72.7289C144.199 70.5394 148.588 69.2257 153.417 69.2257C157.806 69.2257 161.757 70.3205 165.269 72.291Z" fill="white"/>
<path d="M138.053 65.0657C138.931 64.1899 140.248 63.971 141.345 64.4089C144.857 65.2847 148.588 65.9415 152.758 65.9415C156.709 65.9415 160.659 65.2847 164.171 64.4089C165.927 63.752 167.463 64.4089 168.341 65.9415C164.39 69.6637 159.123 71.8532 153.197 71.8532C147.271 71.8532 142.223 69.6637 138.492 65.7226C138.272 65.5036 138.053 65.2847 138.053 65.0657Z" fill="white"/>
<path fill-rule="evenodd" clip-rule="evenodd" d="M132.348 16.4584C135.64 22.5891 148.151 42.5136 175.147 30.9092C176.025 30.6903 176.903 30.6903 177.561 31.1282C178.439 31.5661 178.878 32.2229 178.878 33.0987C179.098 37.0399 181.512 42.9515 192.047 44.7032C193.144 44.7032 194.461 44.2653 194.9 42.9515C198.192 36.164 207.85 12.5173 185.682 16.6774C184.804 16.8963 183.926 16.6774 183.268 16.0205C178.659 11.2036 156.711 -8.28309 133.007 13.1741C132.129 14.05 131.69 15.3637 132.348 16.4584Z" fill="#FFF3CF"/>
<path fill-rule="evenodd" clip-rule="evenodd" d="M189.629 46.6738H193.36C197.091 46.6738 199.945 49.7391 199.725 53.4613L199.506 61.5625C199.286 65.5036 195.994 68.5689 192.043 68.5689H188.532C182.606 68.5689 178.216 63.752 178.436 58.0592V57.4024C178.655 51.4907 183.703 46.6738 189.629 46.6738Z" fill="#F6C5A5"/>
<path fill-rule="evenodd" clip-rule="evenodd" d="M192.486 53.2422C192.925 53.8991 192.925 54.7749 192.486 55.4318L189.193 58.4971L192.047 61.5624C192.705 62.0003 192.705 63.0951 192.047 63.533C191.388 64.1898 190.51 64.1898 189.852 63.533L185.901 59.5918C185.682 59.1539 185.682 58.935 185.682 58.4971C185.682 58.0592 185.682 57.6213 186.121 57.4023L190.291 53.2422C190.949 52.8043 191.827 52.8043 192.486 53.2422Z" fill="#E37878"/>
<path fill-rule="evenodd" clip-rule="evenodd" d="M193.581 52.1475L205.872 31.785L207.628 32.8798C208.506 33.3177 208.944 34.6314 208.725 35.7261L204.994 48.4253C204.994 48.6443 204.774 48.8632 204.774 49.0822L200.385 56.0886C199.726 57.1834 197.97 57.8402 196.873 56.9644L194.459 55.6507C193.361 54.9939 192.922 53.4612 193.581 52.1475Z" fill="#174AA1"/>
<path fill-rule="evenodd" clip-rule="evenodd" d="M197.973 50.177L203.898 40.3242L204.776 40.7621C205.215 40.981 205.435 41.6379 205.215 42.2948L203.46 48.4254C203.46 48.4254 203.46 48.6443 203.24 48.6443L201.265 52.1476C200.826 52.8044 200.167 53.0234 199.509 52.5855L198.411 51.9286C197.753 51.7097 197.534 50.8339 197.973 50.177Z" fill="#3E81EC"/>
<path fill-rule="evenodd" clip-rule="evenodd" d="M192.266 50.6149H194.461C196.436 50.6149 198.192 52.3665 197.973 54.5561L197.753 59.154C197.753 61.3436 195.778 63.0952 193.583 63.0952H191.608C188.315 63.0952 185.682 60.4677 185.682 57.1835L185.901 56.7456C185.901 53.2423 188.754 50.6149 192.266 50.6149Z" fill="#174AA1"/>
<path fill-rule="evenodd" clip-rule="evenodd" d="M194.239 53.4613H195.776C197.092 53.4613 198.19 54.556 198.19 56.0887L197.97 59.154C197.97 60.6867 196.654 62.0004 195.117 62.0004H193.8C191.605 62.0004 189.85 60.0298 189.85 57.8403V57.6213C190.069 55.2129 192.044 53.4613 194.239 53.4613Z" fill="#3E81EC"/>
<path fill-rule="evenodd" clip-rule="evenodd" d="M195.558 54.9939H196.436C197.313 54.9939 197.972 55.8697 197.972 56.7455V58.4972C197.972 59.5919 197.094 60.2488 196.216 60.2488H195.338C194.021 60.2488 192.924 59.154 192.924 57.8403V57.6213C192.924 56.3076 194.241 54.9939 195.558 54.9939Z" fill="#81BCFF"/>
<path d="M163.512 99.66H130.809C88.6258 99.66 54.4297 125.49 54.4297 157.354C54.4297 189.217 88.6258 215.047 130.809 215.047H163.512C205.695 215.047 239.891 189.217 239.891 157.354C239.891 125.49 205.695 99.66 163.512 99.66Z" fill="white"/>
<path fill-rule="evenodd" clip-rule="evenodd" d="M98.9838 115.862H102.715H108.421H113.689C115.445 115.862 116.542 117.395 116.103 119.366C115.445 121.336 113.25 122.869 111.275 122.869H106.227H100.52H96.789C93.9358 122.869 90.8631 124.183 88.2293 126.153C85.5955 127.905 83.6202 130.751 82.5228 133.597C81.6449 136.663 82.0838 139.29 83.4007 141.261C84.7176 143.231 87.1319 144.545 89.9851 144.545H93.7163H99.4228H104.471C106.446 144.545 107.544 146.078 106.885 148.048C106.446 149.8 104.251 151.551 102.276 151.551H97.228H91.5215H87.7903C82.9618 151.551 79.0111 149.362 76.8163 146.297C74.6215 143.012 73.9631 138.633 75.4994 133.597C77.0358 128.781 80.5475 124.401 84.7176 121.117C89.1072 117.833 94.1553 115.862 98.9838 115.862Z" fill="#5999F1"/>
<path fill-rule="evenodd" clip-rule="evenodd" d="M109.739 129.875H106.008H100.301H95.0336C93.0583 129.875 91.0829 131.627 90.4245 133.378C89.7661 135.349 90.8635 136.882 92.8388 136.882H98.1063H103.813H107.325C110.397 136.882 112.592 138.195 114.128 140.166C115.445 142.137 115.665 144.764 114.787 147.829C113.909 150.676 111.714 153.522 109.3 155.274C106.666 157.244 103.593 158.558 100.521 158.558H97.0089H91.3024H86.0349C84.0596 158.558 82.0842 160.091 81.4258 162.061C80.7674 164.032 81.8648 165.564 83.8401 165.564H89.1076H94.8141H98.3258C103.374 165.564 108.422 163.594 112.592 160.309C116.982 157.025 120.274 152.646 121.81 147.829C123.347 142.793 122.908 138.414 120.493 135.13C118.299 131.846 114.567 129.875 109.739 129.875Z" fill="#5999F1"/>
<path d="M129.273 220.521H81.8647C80.6526 220.521 79.6699 223.756 79.6699 227.747V261.246C79.6699 265.237 80.6526 268.472 81.8647 268.472H129.273C130.485 268.472 131.467 265.237 131.467 261.246V227.747C131.467 223.756 130.485 220.521 129.273 220.521Z" fill="#2661C6"/>
<path fill-rule="evenodd" clip-rule="evenodd" d="M143.758 220.521H151.659C155.61 220.521 158.902 223.805 158.902 227.747V261.246C158.902 265.187 155.61 268.472 151.659 268.472H143.758C147.708 268.472 151.001 265.187 151.001 261.246V227.747C151.001 223.805 147.708 220.521 143.758 220.521Z" fill="#2661C6"/>
<path d="M50.7747 154.239C48.0551 160.581 42.3451 164.225 38.0209 162.38C33.6968 160.534 32.396 153.898 35.1156 147.556L36.419 144.517C39.1385 138.176 44.8486 134.531 49.1727 136.377C53.4968 138.222 54.7976 144.859 52.078 151.2L50.7747 154.239Z" fill="#E37878"/>
<path d="M29.7691 152.788L28.2452 153.939C19.969 160.193 16.523 169.561 20.5485 174.862C24.574 180.164 34.5464 179.392 42.8227 173.138L44.3466 171.987C52.6228 165.733 56.0688 156.366 52.0433 151.064C48.0178 145.762 38.0454 146.534 29.7691 152.788Z" fill="#E37878"/>
<path d="M53.2516 114.768H53.1149C47.6602 114.768 43.2383 119.179 43.2383 124.62V168.465C43.2383 173.906 47.6602 178.317 53.1149 178.317H53.2516C58.7063 178.317 63.1282 173.906 63.1282 168.465V124.62C63.1282 119.179 58.7063 114.768 53.2516 114.768Z" fill="#174AA1"/>
<path d="M57.5048 83.6766V121.555C57.5048 123.745 55.5294 125.715 53.3346 125.715C50.9204 125.715 48.945 123.745 48.945 121.555V83.6766L44.3359 75.5753L48.7255 59.154H53.3346H57.7242L62.1139 75.5753L57.5048 83.6766Z" fill="white"/>
<path fill-rule="evenodd" clip-rule="evenodd" d="M67.1594 141.48L47.8451 151.114C44.3334 153.084 43.0166 157.244 44.7724 160.747L48.2841 167.754C50.0399 171.476 54.649 173.009 58.1607 171.038L77.2555 161.404C82.7425 158.558 84.9373 151.77 82.3036 146.297C79.4503 140.823 72.6464 138.633 67.1594 141.48Z" fill="#E37878"/>
<path fill-rule="evenodd" clip-rule="evenodd" d="M71.3317 214.61L81.6472 209.136C91.7433 203.881 95.4745 191.401 90.207 181.548L78.5745 159.653C72.868 149.362 59.9187 145.202 49.3836 150.895L39.9459 155.931C24.3628 164.032 18.4369 183.737 26.7771 199.283L27.8745 201.472C36.2148 217.018 55.7485 222.93 71.3317 214.61Z" fill="#E37878"/>
<path fill-rule="evenodd" clip-rule="evenodd" d="M60.1383 220.521L70.4539 215.047C80.3305 209.793 84.2812 197.312 78.7942 187.241L67.1617 165.345C61.6747 155.055 48.5058 151.114 38.1902 156.587L28.7526 161.623C13.1695 169.943 7.24349 189.43 15.5838 204.976L16.6812 207.165C25.0214 222.711 44.5552 228.622 60.1383 220.521Z" fill="#F6C5A5"/>
<path d="M192.478 94.1862H129.055C126.145 94.1862 123.787 96.5294 123.787 99.4198C123.787 102.31 126.145 104.653 129.055 104.653H192.478C195.387 104.653 197.746 102.31 197.746 99.4198C197.746 96.5294 195.387 94.1862 192.478 94.1862Z" fill="white"/>
<path fill-rule="evenodd" clip-rule="evenodd" d="M184.365 97.4705H230.895C232.65 97.4705 234.187 99.0031 234.187 100.755V103.601C234.187 105.353 232.65 106.885 230.895 106.885H201.484C174.708 106.885 152.979 128.562 152.979 155.274C152.979 181.986 174.708 203.662 201.484 203.662H230.895C232.65 203.662 234.187 205.195 234.187 206.946V209.793C234.187 211.544 232.65 213.077 230.895 213.077H184.365C152.321 213.077 126.422 187.022 126.422 155.274C126.422 123.526 152.321 97.4705 184.365 97.4705Z" fill="#2661C6"/>
<path d="M180.193 121.903L179.289 122.577C162.71 134.944 162.486 162.603 178.79 184.353L199.104 211.454C215.408 233.204 242.064 240.811 258.644 228.443L259.548 227.769C276.127 215.401 276.351 187.743 260.047 165.992L239.733 138.891C223.43 117.141 196.773 109.535 180.193 121.903Z" fill="#F6C5A5"/>
<path fill-rule="evenodd" clip-rule="evenodd" d="M216.626 230.155C212.456 227.747 208.944 224.462 205.872 220.521L172.072 175.417C160.22 159.653 162.634 137.758 176.681 124.839C180.851 127.248 184.362 130.532 187.435 134.473L221.235 179.577C233.087 195.342 230.673 217.237 216.626 230.155Z" fill="#E37878"/>
<path fill-rule="evenodd" clip-rule="evenodd" d="M178.656 220.521H186.558C190.508 220.521 193.8 223.805 193.8 227.747V261.246C193.8 265.187 190.508 268.472 186.558 268.472H178.656C182.607 268.472 185.899 265.187 185.899 261.246V227.747C185.899 223.805 182.607 220.521 178.656 220.521Z" fill="#2661C6"/>
<path fill-rule="evenodd" clip-rule="evenodd" d="M284.228 228.403C284.448 227.966 284.886 227.528 285.106 226.871C286.423 224.024 287.301 220.959 287.959 217.894C292.788 194.685 277.863 171.914 254.598 167.097C231.114 162.28 208.507 177.388 203.679 200.597C203.02 203.662 202.801 206.727 202.801 209.793V210.012C202.801 210.668 202.801 211.106 202.801 211.763L206.093 298.249C206.093 308.102 213.116 317.079 222.993 319.049C233.089 321.239 242.966 315.765 246.916 306.788L284.228 228.403Z" fill="#F6C5A5"/>
<path d="M232.209 319.925C249.786 319.925 264.034 305.711 264.034 288.177C264.034 270.643 249.786 256.429 232.209 256.429C214.633 256.429 200.385 270.643 200.385 288.177C200.385 305.711 214.633 319.925 232.209 319.925Z" fill="white"/>
<path d="M207.408 384.078C222.552 384.078 236.379 389.114 247.353 397.434C252.621 401.594 254.816 408.381 252.621 414.731C250.426 421.081 244.72 425.241 237.916 425.241H176.9C170.316 425.241 164.609 421.081 162.414 414.731C160.22 408.381 162.195 401.594 167.462 397.434C178.656 389.114 192.483 384.078 207.408 384.078Z" fill="#FA6C6C"/>
<path d="M192.198 313.932L192.185 312.057C192.113 301.873 197.369 293.581 203.924 293.535C210.478 293.489 215.851 301.707 215.922 311.89L215.936 313.765C216.008 323.949 210.752 332.241 204.197 332.288C197.642 332.334 192.27 324.115 192.198 313.932Z" fill="#E37878"/>
<path fill-rule="evenodd" clip-rule="evenodd" d="M205.651 349.921L201.92 328.902C201.042 325.18 203.676 321.458 207.407 320.801L214.869 319.268C219.039 318.392 222.77 321.02 223.648 325.18L227.379 345.761C228.477 351.673 224.526 357.366 218.6 358.68C212.674 359.774 206.748 355.833 205.651 349.921Z" fill="#E37878"/>
<path fill-rule="evenodd" clip-rule="evenodd" d="M265.574 309.196L267.33 320.363C269.305 331.311 261.843 341.82 250.869 343.572L226.726 347.732C215.313 349.702 204.339 341.82 202.363 330.435L200.827 320.144C197.974 303.066 209.606 286.644 226.726 283.798L229.14 283.36C246.259 280.514 262.721 292.118 265.574 309.196Z" fill="#E37878"/>
<path fill-rule="evenodd" clip-rule="evenodd" d="M263.377 297.154L265.133 308.321C266.889 319.268 259.426 329.559 248.672 331.53L224.529 335.471C213.116 337.441 202.142 329.559 200.167 318.173L198.411 307.883C195.558 290.805 207.19 274.383 224.529 271.537L226.943 271.099C244.063 268.253 260.304 279.857 263.377 297.154Z" fill="#F6C5A5"/>
<path d="M298.993 424.365H25.4585C24.2463 424.365 23.2637 425.345 23.2637 426.555V426.77C23.2637 427.98 24.2463 428.96 25.4585 428.96H298.993C300.205 428.96 301.187 427.98 301.187 426.77V426.555C301.187 425.345 300.205 424.365 298.993 424.365Z" fill="#174AA1"/>
<path d="M8.55311 424.365H2.19481C0.982648 424.365 0 425.345 0 426.555V426.77C0 427.98 0.982648 428.96 2.19481 428.96H8.55311C9.76527 428.96 10.7479 427.98 10.7479 426.77V426.555C10.7479 425.345 9.76527 424.365 8.55311 424.365Z" fill="#174AA1"/>
<path d="M265.572 189.211C271.996 189.211 277.204 184.016 277.204 177.607C277.204 171.198 271.996 166.002 265.572 166.002C259.147 166.002 253.939 171.198 253.939 177.607C253.939 184.016 259.147 189.211 265.572 189.211Z" fill="#F6C5A5"/>
<path d="M335.799 424.365H329.441C328.229 424.365 327.246 425.345 327.246 426.555V426.77C327.246 427.98 328.229 428.96 329.441 428.96H335.799C337.011 428.96 337.994 427.98 337.994 426.77V426.555C337.994 425.345 337.011 424.365 335.799 424.365Z" fill="#174AA1"/>
<path fill-rule="evenodd" clip-rule="evenodd" d="M167.465 334.814C166.806 334.157 166.587 332.843 167.245 332.186C168.123 331.311 169.221 331.311 170.098 331.967C170.098 331.967 178 339.193 186.34 331.967C187.218 331.311 188.315 331.311 188.974 332.186C189.852 332.843 189.632 334.157 188.974 334.814C178 344.448 167.465 334.814 167.465 334.814Z" fill="#5999F1"/>
<path d="M255.818 410.79H162.415C159.021 410.79 156.27 413.535 156.27 416.921V418.187C156.27 421.573 159.021 424.318 162.415 424.318H255.818C259.212 424.318 261.963 421.573 261.963 418.187V416.921C261.963 413.535 259.212 410.79 255.818 410.79Z" fill="white"/>
<path d="M207.407 375.101C217.284 375.101 226.283 378.385 233.526 384.078C237.037 386.705 238.354 391.084 236.818 395.244C235.501 399.404 231.77 402.032 227.38 402.032H187.654C183.265 402.032 179.533 399.404 177.997 395.244C176.68 391.084 177.997 386.705 181.509 384.078C188.532 378.385 197.75 375.101 207.407 375.101Z" fill="white"/>
<path fill-rule="evenodd" clip-rule="evenodd" d="M91.0859 227.309H95.9145C93.0612 227.309 90.6469 229.498 90.6469 232.564V256.648C90.6469 259.495 93.0612 261.903 95.9145 261.903H91.0859C88.2326 261.903 85.8184 259.495 85.8184 256.648V232.564C85.8184 229.498 88.2326 227.309 91.0859 227.309Z" fill="#174AA1"/>
</svg>
